<svg width="48" height="48" viewBox="0 0 48 48" fill="none" xmlns="http://www.w3.org/2000/svg">
<path d="M43.994 36.46C43.994 37.914 43.184 40.714 41.364 42.252C41 42.532 40.636 42.374 40.796 41.966C41.326 40.67 42.538 37.672 41.97 36.982C41.568 36.458 39.908 36.498 38.492 36.618C37.846 36.7 37.278 36.738 36.838 36.828C36.43 36.86 36.348 36.502 36.756 36.222C37.2875 35.8472 37.8747 35.5583 38.496 35.366C40.796 34.678 43.454 35.092 43.836 35.532C43.908 35.616 43.994 35.854 43.994 36.46ZM40.15 39.046C39.6241 39.4515 39.0701 39.8191 38.492 40.146C34.248 42.696 28.75 44.032 23.976 44.032C16.29 44.032 9.41601 41.198 4.20001 36.456C3.75201 36.092 4.12201 35.564 4.64601 35.85C10.266 39.13 17.222 41.114 24.422 41.114C28.954 41.114 33.838 40.266 38.492 38.442C38.818 38.32 39.182 38.154 39.5 38.038C40.234 37.708 40.88 38.522 40.15 39.046ZM27.81 16.986C27.81 14.904 27.894 13.678 27.204 12.626C26.592 11.76 25.538 11.24 24.066 11.322C22.47 11.41 20.756 12.456 20.32 14.374C20.234 14.814 19.978 15.246 19.446 15.34L14.576 14.72C14.228 14.64 13.698 14.374 13.872 13.678C14.918 8.176 19.62 6.258 24.068 6H25.112C27.552 6 30.688 6.698 32.694 8.528C35.128 10.8 34.868 13.852 34.868 17.168V25.022C34.868 27.378 35.824 28.422 36.784 29.65C37.044 30.088 37.134 30.604 36.696 30.96C35.436 32.0833 34.1578 33.1862 32.862 34.268C32.512 34.534 31.884 34.562 31.642 34.358C30.102 33.068 29.726 32.352 28.772 31.042C27.112 32.784 25.718 33.746 24.06 34.268C22.8942 34.5647 21.695 34.7099 20.492 34.7C16.312 34.7 13.002 32.094 13.002 26.94C13.002 22.842 15.182 20.056 18.402 18.738C21.622 17.418 26.302 16.998 27.81 16.99M26.856 27.374C27.896 25.63 27.81 24.202 27.81 21.004C26.506 21.004 25.198 21.094 24.068 21.36C21.978 21.966 20.318 23.28 20.318 26.07C20.318 28.25 21.454 29.734 23.37 29.734C23.634 29.734 23.866 29.704 24.066 29.644C25.406 29.272 26.242 28.6 26.856 27.374Z" fill="#757575"/>
</svg>
