<svg width="250" height="250" viewBox="0 0 250 250" fill="none" xmlns="http://www.w3.org/2000/svg">
<g clip-path="url(#clip0_189_112)">
<path fill-rule="evenodd" clip-rule="evenodd" d="M245.281 346.952C244.771 337.469 244.144 327.993 243.393 318.526C241.897 299.669 239.938 280.796 236.679 262.155C233.463 243.763 228.963 225.879 222.479 208.352C219.471 200.221 216.213 193.285 211.487 185.975C207.019 179.064 201.317 174.381 194.213 170.209C187.812 166.451 180.376 159.929 174.237 155.72C171.675 153.963 166.402 154.08 164.644 151.48C162.343 148.077 163.835 142.867 161.515 139.474C158.863 135.595 155.148 132.582 150.958 130.392C146.386 127.296 141 125.895 135.6 126.088C127.637 125.605 119.618 128.14 114.505 134.621C111.954 137.856 110.465 141.587 110.259 145.72C110.205 146.794 110.55 147.642 111.118 148.254C110.781 148.704 110.446 149.155 110.113 149.608C109.067 148.06 106.623 147.237 104.994 148.406C99.6656 152.231 93.9066 155.272 87.8282 157.501C86.4061 156.828 84.6845 157.14 83.4663 158.239C82.9719 158.684 82.4474 159.065 81.8992 159.389C79.6455 160 77.3568 160.51 75.0343 160.904C74.3072 161.028 73.6912 161.44 73.224 161.997C72.5319 161.35 71.5805 161.039 70.5181 161.444C58.2509 166.12 46.6663 173.385 37.8608 183.227C28.1053 194.13 22.9815 207.693 19.0807 221.589C14.858 236.631 12.1594 252.048 9.89283 267.49C7.59619 283.137 5.33411 298.846 3.75395 314.583C2.86467 323.44 2.52547 332.376 2.92803 341.272C3.12867 345.717 3.53475 350.148 4.18147 354.552C4.33219 355.582 4.48995 356.768 4.74403 357.952C3.97187 357.802 3.05219 358.455 3.20867 359.5C4.29859 366.777 13.0967 368.897 19.1645 369.735C29.09 371.105 39.0669 371.865 49.0877 371.924C58.9351 371.981 68.7808 371.349 78.6077 370.783C88.6826 370.203 98.7572 369.62 108.832 369.029C149.196 366.663 189.563 364.322 229.928 361.954C233.615 361.738 237.826 361.445 240.985 359.306C245.315 356.374 245.538 351.714 245.281 346.952V346.952Z" fill="white"/>
<path fill-rule="evenodd" clip-rule="evenodd" d="M48.5057 265.558C48.3655 265.296 48.6907 265.06 48.9063 265.249C53.8065 269.549 56.3719 276.455 56.9099 282.838C57.4798 289.607 56.6718 296.616 56.363 303.382C56.0193 310.918 55.7105 318.458 55.291 325.991C54.8651 333.634 54.4062 341.274 54.0129 348.919L53.1281 366.115V366.115C53.034 367.947 53.2379 370.201 52.5345 371.912C51.4446 374.563 48.2071 374.152 47.5267 371.936L47.5054 371.864L47.4433 371.912C46.843 369.914 47.2923 367.543 47.394 365.478L48.3211 346.689V346.689C48.976 333.409 49.5601 320.129 50.2636 306.852L50.5028 302.426C50.8317 296.468 51.0839 290.525 51.2864 284.569L51.3521 282.584C51.5444 276.603 51.3918 270.958 48.5057 265.558ZM167.293 155.313C170.023 155.054 172.084 155.96 174.563 156.913C175.642 157.328 176.665 157.808 177.701 158.304C178.997 158.926 179.831 160.026 180.63 161.188L181.057 161.814C184.382 166.686 186.619 172.306 189.142 177.61C192.095 183.815 195.077 190.006 197.966 196.24L199.392 199.311C200.104 200.847 200.815 202.384 201.515 203.925L202.725 206.608C203.94 209.329 205.03 212.207 203.298 215.014C201.687 217.625 198.832 219.645 196.571 221.663C194.685 223.346 192.798 225.03 190.911 226.713C194.812 230.619 197.43 235.537 198.97 240.811C201.157 239.9 203.826 239.726 206.087 239.331C209.252 238.78 209.64 243.571 206.653 243.513C204.446 243.47 201.858 243.695 199.595 243.23C199.989 244.963 200.274 246.723 200.455 248.487C201.406 257.733 199.328 267.034 197.161 275.98L196.983 276.714C194.629 286.398 192.397 296.106 190.401 305.87C188.4 315.654 186.6 325.48 185.002 335.338C183.376 345.372 182.225 355.462 180.989 365.549C180.801 367.076 179.841 368.384 178.154 368.384C176.748 368.384 175.142 367.073 175.318 365.549C176.595 354.564 178.405 343.637 180.203 332.727C183.3 313.939 187.198 295.314 191.682 276.812L192.465 273.59C194.483 265.233 196.313 256.622 195.301 248.002C194.477 240.983 191.542 233.5 185.742 229.14L185.565 229.009C184.21 228.015 183.689 226.115 185.023 224.807C185.873 223.974 186.723 223.142 187.573 222.311L192.679 217.326L193.709 216.319C194.567 215.481 195.43 214.648 196.318 213.841C196.855 213.352 198.313 212.421 198.42 211.618C198.489 211.094 197.868 210.173 197.617 209.69L196.464 207.364V207.364C195.81 206.038 195.175 204.702 194.536 203.368C193.212 200.604 191.869 197.849 190.573 195.072L182.791 178.396V178.396C180.595 173.691 178.639 168.724 175.769 164.375L175.203 163.527C174.731 162.813 174.313 162.126 174.015 161.253C173.728 160.413 173.367 159.491 172.837 158.774C171.594 157.092 169.217 156.137 167.229 155.785C166.942 155.734 167.046 155.337 167.293 155.313ZM107.436 150.934C107.609 150.934 107.635 151.18 107.475 151.228C105.077 151.95 102.785 153.113 100.914 154.793C100.02 155.597 99.1189 156.51 98.5666 157.592C98.3552 158.006 98.2382 158.443 98.1525 158.897L98.125 159.049C97.9825 159.868 97.7786 160.324 97.3622 160.98L97.2908 161.092C94.9141 164.762 93.2485 168.838 91.7256 172.92L88.4092 181.819V181.819L85.0949 190.72C84.0271 193.588 82.9586 196.456 81.8904 199.324C81.3004 200.907 80.6936 202.484 80.0872 204.061C79.8248 204.744 79.5426 205.422 79.3026 206.114C79.2696 206.208 79.1647 206.777 79.086 206.916L79.1128 206.963V206.963C79.7813 208.087 81.564 209.027 82.5746 209.844L86.0543 212.657V212.657C88.5352 214.663 91.0799 216.613 93.4863 218.708C94.998 220.024 94.0575 222.381 92.3717 222.93C89.5468 223.85 86.7791 224.952 83.9964 225.993C82.8723 226.414 81.7018 226.78 80.5909 227.243L79.9146 227.536C79.6505 227.654 79.7774 227.653 79.788 228.141C79.7986 228.652 79.9436 229.185 80.0268 229.687C80.964 235.354 81.9576 241.012 83.0063 246.66C86.7157 266.631 91.1474 286.457 96.2018 306.13C98.7548 316.065 101.493 325.951 104.102 335.871C106.704 345.765 110.129 355.517 113.398 365.207C114.321 367.94 109.988 369.116 109.088 366.395C105.32 354.999 101.872 343.503 98.3122 332.042C91.9871 311.677 87.0028 290.87 82.5944 270.013C80.4095 259.675 78.4111 249.298 76.6012 238.889C76.2584 236.918 75.9224 234.946 75.5932 232.973L75.1135 230.071C74.7847 228.002 74.5975 225.848 76.2053 224.211C77.7753 222.613 80.4706 222.047 82.5366 221.297L82.6866 221.242C84.0012 220.751 85.3253 220.279 86.6444 219.791C84.7013 218.262 82.7823 216.698 80.844 215.17C79.2805 213.936 77.6924 212.728 76.1512 211.467C74.8805 210.426 73.8444 209.09 73.7119 207.398C73.5767 205.668 74.3179 204.063 74.9156 202.477L74.973 202.324C75.5599 200.74 76.1484 199.158 76.7519 197.58L80.4863 187.814V187.814C82.8594 181.608 85.1324 175.352 87.6284 169.195C88.6159 166.758 89.692 164.359 90.9637 162.056C91.5768 160.945 92.2344 159.858 92.949 158.81C93.7496 157.634 94.4764 157.061 95.717 156.413C97.7007 155.375 99.2575 153.637 101.249 152.567C103.205 151.518 105.216 150.958 107.436 150.934ZM113.876 139.862C113.951 139.732 114.152 139.79 114.155 139.938C114.207 143.022 113.474 146.174 113.023 149.223C112.57 152.284 112.425 155.514 111.77 158.542C111.756 158.683 111.729 158.822 111.691 158.959L111.659 159.062V159.062C111.383 159.911 110.664 160.63 109.781 160.854C110.059 162.392 110.32 163.931 110.54 165.48C110.918 168.141 111.262 170.806 111.601 173.471L112.007 176.671C112.39 179.686 112.763 182.702 113.131 185.719C114.068 186.11 115.023 186.434 116.002 186.714C118.257 187.359 120.566 187.621 122.892 187.849C127.63 188.314 132.404 188.529 137.158 188.793L138.177 188.85C143.522 189.157 148.897 189.211 154.228 188.663C156.872 188.391 159.495 187.934 162.074 187.288C163.384 186.959 164.657 186.468 165.964 186.147C166.398 186.04 166.786 185.794 167.22 185.532C167.413 185.288 167.684 185.104 168.036 185.032L168.132 185.016V185.016L168.227 185.002L168.259 184.987L168.257 184.997C168.524 184.961 168.778 184.962 169.018 184.994C169.113 182.642 169.217 180.29 169.346 177.939C169.694 171.623 170.654 165.035 169.372 158.775C169.33 158.564 169.616 158.49 169.691 158.687C172.206 165.314 171.924 172.562 172.05 179.537C172.174 186.358 172.099 193.185 172.065 200.008C172.554 200.216 172.99 200.498 173.335 200.893C174.025 201.683 174.223 203.058 173.335 203.82C172.941 204.159 172.506 204.394 172.044 204.556C172.019 210.484 171.977 216.412 171.918 222.339C173.045 223.21 173.15 225.278 171.875 226.137C171.663 245.333 171.314 264.53 171.025 283.723L170.419 323.991V323.991C170.338 329.356 170.204 334.721 170.156 340.086L170.195 340.101V340.101L170.329 340.163C170.555 340.269 170.891 340.44 170.96 340.616C170.979 340.662 170.983 340.693 170.981 340.717C171.351 340.769 171.717 340.944 172.035 341.244C172.817 341.988 172.658 343.109 172.035 343.867L171.868 344.069V344.069C171.479 344.541 170.741 344.723 170.138 344.627C170.144 347.975 170.165 351.324 170.155 354.672C170.151 355.695 170.136 356.717 170.118 357.74L170.076 360.192C170.048 361.591 169.924 363.37 168.491 363.998C166.874 364.708 165.424 364.127 164.769 362.484C164.592 362.04 164.63 361.625 164.695 361.186C164.675 360.525 164.571 359.759 164.584 359.146L164.637 356.589V356.589C164.646 356.195 164.662 355.801 164.673 355.407L164.626 355.412V355.412C158.881 355.691 153.095 355.555 147.34 355.551L144.781 355.555C142.645 355.557 140.505 355.545 138.373 355.464L137.573 355.43C135.977 355.355 134.298 355.331 132.643 355.188C132.854 356.887 133.051 358.587 133.227 360.289C133.393 361.903 131.727 363.274 130.242 363.274C128.477 363.274 127.468 361.887 127.257 360.289C126.26 352.751 125.852 345.143 124.899 337.6C124.046 330.844 123.306 324.073 122.554 317.304L122.302 315.048C119.55 290.416 116.878 265.774 114.323 241.12L113.133 229.596C111.931 217.98 110.722 206.363 109.702 194.73C109.119 188.079 108.582 181.427 108.076 174.77C107.706 169.879 107.473 165.015 107.321 160.134C106.723 159.518 106.423 158.62 106.688 157.692C106.843 157.15 107.023 156.612 107.213 156.074C107.201 155.546 107.189 155.018 107.179 154.489C107.169 153.988 107.677 153.731 108.084 153.814C108.823 152.024 109.637 150.25 110.316 148.477C111.416 145.608 112.322 142.516 113.876 139.862ZM52.4691 170.87C63.9632 163.667 77.6451 158.484 91.3485 159.042C91.6601 159.055 91.7478 159.53 91.4243 159.602C84.1149 161.234 76.7251 163.221 69.8051 166.115C62.8649 169.016 56.2659 172.924 50.3885 177.619C39.5443 186.282 31.1155 197.55 25.5654 210.252C22.3145 217.692 20.0358 225.548 18.0461 233.406C15.9405 241.723 14.2051 250.129 12.7622 258.585C9.9123 275.29 8.2531 292.178 7.37022 309.095C6.47198 326.304 6.84222 343.525 6.20158 360.737C6.09086 363.719 1.82846 363.661 1.61182 360.737C0.160299 341.169 0.964459 321.288 2.30686 301.733C3.5139 284.155 5.62174 266.613 9.01598 249.317L9.31163 247.818C12.4847 231.815 16.312 215.426 23.983 200.934C30.5321 188.562 40.6429 178.282 52.4691 170.87ZM212.082 247.35C212.142 247.178 212.368 247.18 212.429 247.35C213.739 251.017 213.786 255.156 214.134 259.023L214.162 259.319C214.496 262.846 214.747 266.377 214.981 269.911L215.068 271.236C216.006 285.652 217.18 300.052 218.948 314.392C220.709 328.678 223.091 342.865 225.667 357.023C225.954 358.599 225.255 360.205 223.602 360.659C222.145 361.06 220.274 360.162 219.966 358.595C218.367 350.468 217.074 342.331 215.92 334.134C213.89 319.699 212.374 305.198 211.4 290.654C210.911 283.35 210.61 276.048 210.49 268.728C210.435 265.331 210.523 261.927 210.704 258.534L210.747 257.751C210.947 254.283 210.926 250.657 212.082 247.35ZM87.881 339.171C88.0346 339.088 88.2247 339.259 88.1274 339.418C85.9018 343.034 82.891 346.153 79.9809 349.227C76.9386 352.44 73.9716 355.75 70.8679 358.9C68.6254 361.176 65.018 357.505 67.3847 355.417C70.7124 352.482 74.1905 349.693 77.5774 346.823L79.0585 345.568C81.8355 343.222 84.6948 340.897 87.881 339.171ZM193.59 337.36C193.424 337.043 193.804 336.786 194.062 336.996C195.857 338.456 197.466 340.197 199.199 341.738C200.916 343.264 202.697 344.687 204.526 346.075C206.363 347.469 208.24 348.808 210.168 350.074C211.767 351.124 213.415 351.965 215.09 352.837C215.865 352.937 216.583 353.318 217.158 354.039C218.067 355.18 218.163 357.332 216.903 358.323L216.677 358.5V358.5C215.206 359.657 213.459 359.797 212.011 358.5C210.394 357.053 208.866 355.459 207.314 353.929L206.847 353.472C205.178 351.85 203.551 350.176 202.016 348.427L200.626 346.846C198.049 343.907 195.366 340.739 193.59 337.36ZM185.321 167.909C185.022 167.711 185.206 167.179 185.575 167.306L186.251 167.539C189.076 168.521 191.983 169.61 194.548 171.121C197.304 172.745 199.849 174.68 202.281 176.755C207.313 181.051 211.595 186.334 215.234 191.84C222.535 202.89 227.05 215.544 230.695 228.205C234.582 241.705 237.575 255.496 240.019 269.326C242.502 283.38 244.417 297.562 245.676 311.779C246.296 318.783 246.712 325.79 246.922 332.818C247.03 336.434 247.026 340.046 246.996 343.663C246.988 344.593 246.994 345.523 247.005 346.452L247.04 349.242C247.059 351.005 247.27 352.858 246.851 354.581C246.177 357.355 241.591 356.837 241.742 354.003C241.604 353.059 241.598 352.085 241.634 351.108C241.612 350.982 241.589 350.854 241.562 350.723C241.487 350.348 241.551 350.002 241.698 349.703C241.722 349.235 241.743 348.769 241.751 348.312C241.781 346.45 241.779 344.595 241.728 342.733C241.619 338.808 241.463 334.883 241.305 330.96C240.99 323.12 240.552 315.276 239.916 307.456C237.705 280.233 233.036 252.856 225.193 226.666C221.55 214.504 216.529 202.565 209.327 192.056C206.13 187.39 202.524 183.081 198.525 179.081C194.502 175.056 190.068 171.052 185.321 167.909ZM131.053 343.397L131.596 347.328C131.868 349.294 132.137 351.26 132.392 353.228C134.127 352.991 135.902 352.891 137.573 352.743C140.5 352.484 143.446 352.358 146.381 352.237C152.451 351.987 158.551 351.553 164.626 351.583C164.689 351.583 164.748 351.587 164.806 351.592L165.108 343.836V343.836L160.839 343.829V343.829C157.222 343.823 153.606 343.793 149.99 343.762C146.733 343.734 143.474 343.729 140.217 343.661L138.822 343.628C136.352 343.562 133.625 343.699 131.053 343.397ZM165.466 332.138C165.292 332.159 165.115 332.176 164.926 332.184C164.081 332.219 163.228 332.195 162.382 332.202C160.581 332.218 158.78 332.23 156.978 332.229C153.374 332.229 149.772 332.251 146.169 332.294C142.46 332.339 138.754 332.403 135.045 332.411C133.248 332.414 131.456 332.366 129.66 332.316C129.95 334.869 130.254 337.42 130.589 339.965C133.379 339.588 136.38 339.778 139.106 339.752L139.46 339.747C143.181 339.684 146.906 339.731 150.628 339.735C154.457 339.74 158.286 339.752 162.116 339.784L165.261 339.81V339.81L165.268 339.651V339.651C165.36 337.149 165.419 334.644 165.466 332.138ZM128.276 319.925C128.625 322.938 128.952 325.957 129.286 328.975C129.508 328.94 129.732 328.911 129.961 328.887C131.761 328.699 133.556 328.538 135.363 328.426C138.963 328.202 142.563 328.085 146.169 327.988C149.877 327.889 153.586 327.812 157.295 327.76C159.098 327.735 160.898 327.737 162.7 327.75C163.546 327.755 164.4 327.729 165.244 327.786C165.344 327.792 165.441 327.803 165.536 327.814L165.599 323.283C165.61 322.528 165.622 321.773 165.634 321.018C162.849 321.19 160.017 321.125 157.233 321.125L156.592 321.127C153.095 321.143 149.596 321.095 146.1 321.022C142.492 320.947 138.892 320.829 135.291 320.598C133.832 320.505 132.384 320.381 130.933 320.221L130.207 320.138C129.576 320.063 128.926 320.003 128.276 319.925ZM165.921 307.14C159.213 307.672 152.541 307.895 145.815 307.961L144.805 307.97C138.862 308.015 132.869 308.26 126.911 308.102C127.268 311.191 127.623 314.279 127.981 317.367C128.834 317.327 129.691 317.327 130.525 317.297C132.221 317.235 133.912 317.22 135.609 317.216C139.106 317.208 142.603 317.239 146.1 317.232C149.703 317.224 153.307 317.163 156.91 317.095C159.831 317.041 162.783 316.821 165.713 316.829L165.921 307.14V307.14ZM166.205 293.964C165.428 294.222 164.51 294.239 163.504 294.285L160.907 294.414C159.704 294.473 158.5 294.529 157.295 294.573C153.282 294.72 149.269 294.857 145.255 294.985C141.142 295.115 137.01 295.191 132.896 295.061C130.881 294.998 128.883 294.892 126.874 294.724C126.377 294.682 125.871 294.655 125.364 294.619C125.831 298.711 126.301 302.802 126.772 306.894C132.701 306.166 138.676 305.713 144.598 304.96L149.953 304.276C155.305 303.594 160.653 302.923 166.024 302.358L166.205 293.964V293.964ZM166.491 280.643C165.35 280.924 164.05 280.91 162.955 280.979L162.752 280.994C160.677 281.151 158.596 281.23 156.516 281.281C152.44 281.381 148.36 281.432 144.282 281.457L141.83 281.472C138.561 281.491 135.294 281.499 132.023 281.423C129.926 281.374 127.833 281.272 125.737 281.167C125.109 281.135 124.467 281.114 123.823 281.082C124.261 284.956 124.704 288.829 125.146 292.702C125.834 292.593 126.526 292.509 127.186 292.398C128.875 292.113 130.561 291.885 132.262 291.681C135.948 291.239 139.652 290.922 143.354 290.653C147.155 290.378 150.959 290.145 154.761 289.878L157.453 289.689C158.351 289.626 159.248 289.566 160.146 289.511C161.68 289.417 163.462 289.523 164.983 289.189C165.395 289.018 165.852 288.978 166.31 289.076L166.491 280.643V280.643ZM166.836 265.05C166.442 265.551 165.852 265.814 165.149 265.905C161.489 266.38 157.734 266.456 154.043 266.68L153.392 266.721C149.58 266.972 145.767 267.169 141.952 267.372C138.034 267.58 134.116 267.749 130.195 267.886C128.53 267.944 126.856 267.951 125.189 267.929L124.475 267.919C123.79 267.907 123.073 267.909 122.354 267.885C122.752 271.508 123.154 275.13 123.561 278.751C124.294 278.671 125.026 278.61 125.737 278.535C127.832 278.314 129.924 278.095 132.023 277.93C136.002 277.616 139.983 277.427 143.968 277.23C148.046 277.028 152.126 276.894 156.204 276.704C158.182 276.611 160.158 276.496 162.13 276.314C163.512 276.187 165.153 275.717 166.595 275.89C166.673 272.276 166.755 268.663 166.836 265.05ZM167.158 251.082C167.095 251.179 167.022 251.272 166.934 251.359C165.322 252.951 163.336 252.829 161.2 252.996L161.069 253.006C158.976 253.182 156.882 253.35 154.787 253.501C150.598 253.803 146.402 254.015 142.207 254.203C137.914 254.396 133.594 254.529 129.297 254.441C126.545 254.385 123.663 254.395 120.857 254.127C121.288 258.116 121.721 262.105 122.158 266.094C122.947 265.945 123.741 265.831 124.494 265.713C126.39 265.415 128.288 265.115 130.195 264.895C134.005 264.457 137.817 264.046 141.635 263.676C144.9 263.36 148.164 263.038 151.431 262.749L153.392 262.579C157.291 262.251 161.238 261.711 165.149 261.631C165.794 261.618 166.523 261.968 166.892 262.522C166.979 258.708 167.068 254.895 167.158 251.082ZM167.428 239.774C166.433 239.895 165.36 239.826 164.442 239.857C162.119 239.932 159.796 240.003 157.472 240.071L143.533 240.483V240.483C138.787 240.623 134.024 240.728 129.276 240.66C127.188 240.631 125.09 240.628 123.002 240.514L122.307 240.472C121.448 240.415 120.393 240.407 119.364 240.302L120.579 251.562V251.562C123.372 251.158 126.251 251.007 129.02 250.771L129.612 250.719C133.696 250.346 137.8 250.1 141.892 249.823C146.09 249.539 150.281 249.194 154.473 248.841C156.568 248.665 158.662 248.49 160.756 248.297L161.014 248.271C162.992 248.065 164.852 247.626 166.603 248.792C166.859 248.962 167.06 249.19 167.197 249.445C167.274 246.221 167.348 242.998 167.428 239.774ZM167.753 226.634C159.264 226.975 150.773 227.234 142.278 227.348C137.496 227.412 132.72 227.367 127.938 227.267C125.865 227.224 123.774 227.125 121.703 226.966L120.927 226.904C119.942 226.821 118.907 226.761 117.876 226.661C118.302 230.533 118.725 234.405 119.144 238.277C120.158 238.089 121.217 238.002 122.105 237.888L122.307 237.862C124.514 237.558 126.742 237.381 128.96 237.186C133.278 236.805 137.619 236.56 141.949 236.352C146.383 236.138 150.82 235.958 155.254 235.761L159.69 235.562C160.429 235.529 161.168 235.497 161.907 235.466C162.964 235.421 164.02 235.379 165.076 235.335C165.596 235.314 166.138 235.243 166.66 235.27L166.808 235.25C166.876 235.241 166.937 235.234 166.992 235.228C167.134 235.12 167.287 235.031 167.449 234.963L167.547 234.924L167.753 226.634ZM116.484 214.18C116.879 217.666 117.268 221.152 117.653 224.638C118.864 224.5 120.089 224.423 121.245 224.319C123.577 224.11 125.919 223.927 128.257 223.82L132.93 223.603C136.045 223.459 139.16 223.319 142.278 223.206C150.81 222.894 159.341 222.538 167.868 222.102C167.928 219.738 167.99 217.373 168.053 215.009C167.644 215.447 167.053 215.735 166.276 215.733C157.324 215.709 148.365 215.761 139.415 215.614C134.934 215.54 130.459 215.432 125.984 215.202C123.794 215.09 121.592 214.86 119.419 214.559C118.492 214.431 117.478 214.339 116.484 214.18ZM115.052 201.762C115.473 205.331 115.885 208.903 116.292 212.474C117.403 212.276 118.552 212.17 119.589 212.029C121.817 211.726 124.06 211.485 126.304 211.358C130.671 211.111 135.041 210.987 139.415 210.894C148.365 210.704 157.324 210.705 166.276 210.634C167.117 210.628 167.741 210.961 168.151 211.457C168.213 209.228 168.279 206.998 168.346 204.769C167.482 204.677 166.624 204.548 165.831 204.493C163.393 204.322 160.954 204.167 158.514 204.027C153.422 203.735 148.325 203.486 143.23 203.264C138.133 203.042 133.035 202.826 127.937 202.637L125.707 202.555C122.162 202.423 118.556 202.257 115.052 201.762ZM113.449 188.316C113.887 191.932 114.318 195.548 114.749 199.165L114.879 200.284V200.284C119.143 199.456 123.637 199.213 127.937 199.03C133.036 198.813 138.126 198.701 143.23 198.717C148.329 198.732 153.42 198.853 158.514 199.064C161.06 199.169 163.605 199.29 166.149 199.428C166.848 199.466 167.668 199.446 168.513 199.458C168.531 198.89 168.547 198.322 168.566 197.754C168.644 195.451 168.719 193.149 168.798 190.848C167.078 191.731 164.84 192.088 163.111 192.464L162.914 192.508C160.059 193.149 157.143 193.565 154.228 193.819C148.505 194.318 142.722 194.132 137.004 193.648L136.002 193.563C130.981 193.127 125.775 192.575 120.908 191.333C118.589 190.741 116.192 189.913 114.114 188.713C113.898 188.588 113.675 188.456 113.449 188.316ZM161.797 145.348C161.846 145.152 162.139 145.108 162.235 145.291C162.911 146.575 163.163 148.117 163.632 149.493C164.138 150.973 164.609 152.463 165.167 153.925C166.331 156.979 167.705 159.914 169.343 162.743C170.965 165.544 166.423 167.544 165.229 164.477C163.997 161.312 162.984 158.04 162.371 154.696C162.072 153.064 161.806 151.41 161.719 149.752C161.645 148.328 161.444 146.737 161.797 145.348Z" fill="black"/>
<path fill-rule="evenodd" clip-rule="evenodd" d="M199.588 77.417C198.375 57.5124 191.917 34.9457 172.907 25.1729C131 8.3543 75.9015 50.7082 72.9844 93.9761C71.9674 108.787 80.1908 124.971 95.2183 129.089C98.5594 133.515 103.612 136.219 108.599 138.565C168 169.383 206.37 144.331 199.588 77.417V77.417Z" fill="white"/>
<path fill-rule="evenodd" clip-rule="evenodd" d="M213.12 65.0352C211.021 59.2048 208.804 53.4192 206.471 47.6784C204.199 42.0912 202.147 36.3832 199.325 31.0608C182.474 -0.728033 151.831 -0.728035 135.991 3.42556C127.776 -0.113635 112.391 0.884683 103.837 4.07836C89.9902 9.2486 73.1106 29.5872 67.3394 38.7251C54.5973 58.9008 46.6453 85.7542 55.1093 109.068C56.2155 112.115 57.6264 114.937 59.2149 117.657C58.2142 119.013 64.7397 129.56 65.0667 129.56C66.0197 134.2 66.0197 134.2 66.0197 134.2C72.2306 139.551 70.6558 141.844 68.6472 146.774C64.8597 156.071 64.6773 166.597 69.6846 175.468C74.0411 183.187 64.7986 188.934 73.4933 189.482C73.9397 189.544 74.3867 189.601 74.8357 189.646C75.9877 191.544 77.3925 193.291 78.9957 194.814C83.9077 199.486 80.8965 201.883 87.5749 202.037C87.9173 202.312 88.2629 202.587 88.6085 202.859C92.6949 206.075 96.9829 209.32 101.674 211.608C104.852 213.16 109.018 214.456 112.333 213.336C113.837 214.341 116.304 214.13 117.796 213.307C120.247 211.957 122.24 209.525 123.453 207.035C126.394 200.99 125.687 194.376 124.932 187.918C124.1 180.786 123.3 173.65 122.487 166.517C121.85 160.939 121.184 155.269 119.488 149.896C118.612 147.112 117.463 144.437 115.978 141.922C116.016 141.71 116.01 141.499 115.949 141.301C115.463 139.72 114.82 139.075 113.63 138C113.476 137.862 113.418 137.644 113.268 137.5C112.672 136.822 112.312 136.034 111.63 135.5C111.368 135.234 111.156 135.019 110.896 134.75C108.743 132.494 108.938 131.291 107.13 128.75C105.376 126.286 103.181 123.621 101.674 121C100.141 118.334 96.7269 114.315 95.1973 111.669C95.0661 111.442 94.7333 111.397 94.5477 111.586C94.0741 112.075 93.7701 112.619 93.8277 113.192L93.5909 113.227C93.5013 112.363 92.7045 111.659 91.6229 111.848C90.0037 112.13 88.6725 112.235 87.2709 111.698C87.5173 110.062 87.7445 108.424 87.9685 106.782C88.3781 103.762 88.7589 100.731 89.0853 97.7008C89.8757 97.8896 90.6597 98.1616 91.4277 98.5072C92.5221 98.9968 93.5557 99.656 94.4389 100.466C95.3093 101.266 95.9109 102.344 96.9733 102.901C98.1957 103.538 99.6709 102.485 99.3125 101.102C98.5861 98.3088 94.4741 96.7088 91.9301 96.1808C91.0565 95.9984 90.1637 95.9216 89.2709 95.9408C89.4725 93.9952 89.6517 92.0496 89.7989 90.1008C89.8693 89.1792 89.9333 88.2576 89.9941 87.3328C91.9717 86.7344 94.0901 86.5552 96.1477 86.8368C96.8261 87.3776 97.5045 87.912 98.1605 88.4528C100.244 90.1744 102.317 91.9056 104.365 93.6688C104.551 93.8256 104.733 93.9824 104.919 94.1424C106.135 95.1888 107.652 94.152 107.447 92.6704C105.776 80.5296 113.213 70.872 121.92 63.3904C131.559 55.1056 149.082 54.1409 160.544 39.7904C165.824 40.8648 177.61 44.056 182.474 51.8064C189.284 62.6672 188.394 72.3984 188.912 84.7184C189.431 97.048 184.029 109.909 181.229 122.066C178.98 128.44 176.713 135.278 173.384 140.12C171.319 143.125 167.527 147.256 167.527 147.256C167.258 147.365 166.986 147.47 166.714 147.573C161.104 149.688 154.983 150.286 149.082 149.173C142.551 147.938 137.098 144.949 131.664 141.272C131.351 141.064 130.893 141.493 131.13 141.806C138.292 151.298 152.359 154.469 163.517 151.963C164.039 151.845 164.557 151.717 165.072 151.576C162.576 158.754 163.079 166.632 166.33 173.621C168.285 177.826 171.268 181.464 174.9 184.334C178.903 187.496 183.869 190.05 186.647 194.488C189.191 198.555 188.436 203.125 184.08 205.474C182.983 206.069 182.56 207.992 183.648 208.837C184.064 209.157 184.48 209.483 184.906 209.803C187.344 211.643 194.042 215.099 195.127 215.227C204.759 216.37 211.236 209.298 215.386 200.955C220.26 191.163 218.992 179.23 213.623 169.906C209.316 162.424 200.832 155.051 204.205 145.582C205.408 142.2 202.109 139.317 204.5 136.712C207.226 133.746 205.357 130.968 207.972 127.896C210.57 124.846 211.274 121.528 212.56 117.701C214.439 112.107 210.944 106.059 215.293 100.475C212.269 88.488 217.303 76.6608 213.12 65.0352Z" fill="black"/>
<path fill-rule="evenodd" clip-rule="evenodd" d="M199.919 76.834C199.656 76.7902 199.392 76.7489 199.128 76.7102C198.923 76.5934 198.681 76.5035 198.4 76.4494C197.758 76.2865 197.121 76.1768 196.485 76.1176C187.355 74.0628 166.233 76.9803 165.361 84.7716C162.453 85.7422 159.938 84.8731 156.568 84.9595C154.003 74.2379 109.656 75.7512 107.523 82.2152C107.515 82.2129 107.507 82.211 107.499 82.2084C105.45 81.5742 102.429 81.7272 100.083 81.6267C95.0746 81.5217 90.0605 81.9681 85.1604 83.0244C75.9844 84.4827 63.4612 86.1899 69.8429 97.6484C69.8442 97.6504 69.8452 97.6526 69.8468 97.6545L69.8477 97.6536C70.9476 98.7809 72.8141 97.8731 72.8836 96.347C70.738 90.9185 75.584 90.2667 79.3127 88.7067C88.5904 85.3736 98.0362 84.9115 107.632 85.9425C108.354 86.7924 109.449 87.5336 110.607 87.9214C117.022 88.9864 113.641 93.7454 117.697 94.4376C116.952 111.027 137.093 120.082 148.763 109.177C153.422 104.622 154.533 97.8731 155.613 91.7902C156.185 91.6619 156.548 91.3496 156.76 90.9361C158.134 89.5646 158.997 88.298 161.713 87.9214C164.43 87.5451 166.521 88.3006 166.804 88.532C166.875 88.6756 166.952 88.8196 167.041 88.9636C167.165 89.1784 167.334 89.3496 167.526 89.4843C164.843 106.004 177.668 116.451 190.615 107.883C196.24 102.591 197.429 94.4897 197.664 87.2584C198.427 86.7982 198.909 85.9064 198.645 84.7851C198.282 83.2395 199.135 81.9012 200.493 81.2292C202.259 80.3566 201.947 77.1697 199.919 76.834M144.288 84.6711C142.681 84.3177 141.995 86.7954 143.607 87.1498C144.748 87.4008 145.716 87.9765 146.37 88.9518L146.438 89.0578C147.316 90.4536 149.534 89.1651 148.65 87.7603C147.657 86.1794 146.112 85.0722 144.288 84.6711ZM191.355 83.1349C190.789 82.7358 189.932 83.0321 189.603 83.596C189.241 84.217 189.478 84.9084 190.009 85.3146L190.063 85.3543C190.549 85.6973 191.023 86.3121 191.083 86.9421L191.088 87.021C191.152 88.6697 193.714 88.678 193.65 87.021C193.588 85.3999 192.649 84.0455 191.355 83.1349Z" fill="black"/>
<path d="M188.42 84.12C189.666 84.2342 191.25 86.3035 191.62 87.32" stroke="white" stroke-width="2.24" stroke-linecap="round"/>
<path fill-rule="evenodd" clip-rule="evenodd" d="M163.153 135.051C160.796 135.734 158.266 135.795 155.863 135.09C153.683 134.45 151.445 133.042 149.841 131.18C148.416 129.525 147.494 127.515 147.53 125.368C147.534 125.123 147.622 124.919 147.756 124.76C147.902 124.589 148.104 124.471 148.321 124.42C148.545 124.368 148.781 124.387 148.982 124.478C149.164 124.561 149.32 124.701 149.417 124.906C149.664 125.23 149.909 125.549 150.156 125.859C152.138 128.307 154.058 130.136 157.038 130.792C158.655 131.148 160.27 130.99 161.752 130.447C163.338 129.865 164.772 128.843 165.896 127.535C166.404 126.944 167.003 126.702 167.59 126.698C168.254 126.694 168.911 127.002 169.405 127.496C169.891 127.981 170.217 128.64 170.247 129.329C170.272 129.934 170.075 130.566 169.55 131.13C167.82 132.988 165.579 134.348 163.153 135.051ZM163.08 104.397C165.497 105.866 169.179 109.291 166.579 112.933C163.519 116.143 159.114 112.462 156.943 110.797C154.93 109.507 152.668 112.825 154.536 114.332C170.223 125.947 176.59 104.782 164.303 102.671C162.95 102.438 162.447 103.943 163.08 104.397Z" fill="black"/>
</g>
<defs>
<clipPath id="clip0_189_112">
<rect width="250" height="250" fill="white"/>
</clipPath>
</defs>
</svg>
