<svg width="250" height="250" viewBox="0 0 250 250" fill="none" xmlns="http://www.w3.org/2000/svg">
<g clip-path="url(#clip0_189_198)">
<path fill-rule="evenodd" clip-rule="evenodd" d="M241.039 358.49C247.224 358.191 244.736 347.373 244.293 343.401C239.396 328.891 240.547 313.06 238.622 297.851C237.422 283.653 235.88 269.499 234.584 255.312C232.037 226.514 213.75 167.889 192.881 158.461C190.252 146.926 179.395 136.158 165.657 136.158C156.287 125.068 145.01 117.262 130.545 118.838C124.567 119.11 118.77 125.45 113.042 126.674C109.835 127.116 81.3745 125.978 75.6734 129.364C71.7022 131.403 68.1172 135.171 69.2849 139.968C71.1479 145.78 65.3582 139.492 53.2804 145.695C28.6522 160.486 43.369 180.274 44.0211 180.887C28.6522 202.27 15.219 219.618 9.0036 245.755C4.97544 265.159 5.42888 285.191 2.05384 304.695C0.86216 311.458 -0.966 317.989 -2.94424 324.557C-5.08824 333.152 -6.13075 354.574 -7.31251 354.765C-9.46515 355.3 -6.0684 359.72 -3.78744 359.723C59.4522 370.213 123.688 360.158 187.268 358.515C205.186 357.892 223.123 357.748 241.039 358.49Z" fill="white"/>
<path fill-rule="evenodd" clip-rule="evenodd" d="M145.19 182.774C145.22 182.485 145.61 182.485 145.64 182.774L146.087 187.084C146.63 192.348 147.153 197.602 147.532 202.891C148.005 209.486 148.321 216.079 148.473 222.688C149.004 245.708 149.11 268.74 149.155 291.766C152.269 291.55 155.383 291.343 158.499 291.142C160.613 291.005 162.727 290.874 164.841 290.745L170.232 290.418V290.418L172.452 290.282C173.952 290.189 175.656 289.812 176.704 291.14C177.124 291.672 177.335 292.363 176.943 292.995C176.04 294.451 174.654 294.4 173.086 294.463C171.606 294.523 170.126 294.582 168.647 294.639C165.476 294.762 162.305 294.878 159.133 294.967C155.805 295.06 152.478 295.136 149.15 295.193C149.117 304.913 148.714 314.622 148.279 324.331L148.083 328.701C147.551 340.517 146.978 352.344 146.165 364.144C146.098 365.111 144.731 365.109 144.665 364.144C143.749 350.855 143.145 337.537 142.546 324.23C142.112 314.582 141.859 304.931 141.738 295.279C141.298 295.282 140.859 295.288 140.419 295.289C127.93 295.344 115.445 295.398 102.956 295.281C102.977 295.306 102.998 295.33 103.011 295.363C103.915 297.496 104.001 300.219 103.979 302.509C103.954 305.135 103.6 307.728 102.995 310.282C100.829 319.43 95.2395 327.624 88.8739 334.398L88.6661 334.619C87.1646 336.205 85.4421 337.799 84.5202 339.82C83.5785 341.883 83.2516 344.297 82.7869 346.514L82.7326 346.769L80.9157 355.161C80.3384 357.827 80.1746 361.714 78.0645 363.638C76.0958 365.432 73.4878 364.495 72.5614 362.184C71.8379 360.381 72.5586 358.401 72.987 356.599L76.3442 342.487C76.8958 340.185 77.4986 337.869 78.6891 335.801C79.9086 333.684 81.6965 332.149 83.5208 330.578C86.9752 327.604 90.1464 324.199 92.8283 320.513C95.5093 316.828 97.8005 312.766 99.4072 308.495C100.212 306.356 100.871 304.135 101.326 301.896C101.758 299.77 101.754 297.569 102.216 295.467C102.248 295.322 102.371 295.222 102.511 295.178C102.478 295.084 102.529 294.958 102.66 294.949L112.874 294.293C121.953 293.707 131.031 293.107 140.102 292.42L141.705 292.304V292.304C141.58 279.426 141.686 266.545 141.919 253.662C142.132 241.848 142.136 230.031 142.488 218.218C142.662 212.355 143.039 206.506 143.458 200.656C143.887 194.672 144.573 188.74 145.19 182.774ZM49.2888 251.275C49.18 250.619 50.0053 250.213 50.3857 250.813C54.7349 257.668 56.8318 265.114 57.7157 273.136C58.4965 280.216 58.2664 287.398 57.8776 294.496C57.4629 302.068 56.979 309.637 56.4897 317.204L55.738 328.808V328.808L53.8517 357.899C53.7166 359.98 53.2443 361.872 51.4526 362.84C51.2257 363.029 50.9893 363.199 50.7137 363.346C49.7457 363.864 48.4619 363.602 47.9022 362.609L48.1266 362.756C48.3221 362.88 48.1026 362.708 47.468 362.241L46.9294 361.544V361.544C46.5381 360.956 46.2881 360.378 46.1877 359.679C46.0315 358.592 46.2337 357.401 46.3048 356.309L47.5413 337.233V337.233C48.5029 322.403 49.6257 307.578 50.4721 292.74C50.8664 285.825 51.1425 278.903 50.9557 271.976C50.7694 265.087 50.4184 258.081 49.2888 251.275ZM86.9124 123.577L87.1537 123.537C95.7921 122.102 105.185 122.37 113.08 126.535C113.145 126.569 113.116 126.677 113.042 126.674L110.501 126.573C102.457 126.258 94.4373 126.071 86.5275 127.961L85.7178 128.156C82.8692 128.851 79.8945 129.702 77.6065 131.583C75.4197 133.381 74.3307 136.155 73.2836 138.709L73.1436 139.046C72.0813 141.569 70.7366 143.961 68.4081 145.538C65.3921 147.581 61.7649 147.33 58.3067 147.608C52.2177 148.097 47.2395 152.51 44.7627 157.91C43.2629 161.18 42.6232 164.846 42.4965 168.421C42.4315 170.242 42.4222 172.133 42.6648 173.942C42.7422 174.52 43.4571 176.626 43.8216 176.576C44.6315 176.464 45.372 176.886 45.6245 177.533C47.6251 175.601 49.6833 173.723 51.8078 171.914C57.1035 167.404 62.8075 163.317 68.8145 159.804C73.3992 157.123 78.235 154.467 83.2427 152.459C82.8459 152.451 82.4545 152.53 82.076 152.727C81.9102 152.813 81.7454 152.605 81.8763 152.468C83.4536 150.808 85.3429 150.572 87.2475 151.015C87.6539 150.885 88.0606 150.76 88.4689 150.641C88.6721 150.582 88.7733 150.862 88.6075 150.97L88.1397 151.269V151.269C90.2174 151.965 92.2574 153.333 93.8724 154.413C98.5118 157.513 102.595 161.304 106.735 165.023L107.487 165.698C111.131 168.951 114.868 172.112 119.007 174.722C121.175 176.089 123.451 177.352 125.838 178.292C127.886 179.099 131.22 179.607 132.179 181.771C133.031 182.806 132.675 184.128 131.677 184.825C129.993 186.678 126.625 185.481 124.618 184.709C122.199 183.778 119.856 182.66 117.621 181.348C113.282 178.801 109.282 175.634 105.555 172.265C101.663 168.746 97.9915 165.009 94.2059 161.379C92.5657 159.807 90.9633 158.198 89.3206 156.627L88.4955 155.846C87.6571 155.06 86.4625 153.834 85.1854 153.092C82.7793 154.528 80.3361 155.904 77.9518 157.376C74.6235 159.431 71.3931 161.634 68.2126 163.91C62.0897 168.291 56.2875 173.198 50.9009 178.457C41.0219 188.103 32.6053 199.117 25.2526 210.78L24.6943 211.669C20.5161 218.344 16.5649 225.235 13.7633 232.611C10.6808 240.728 9.18157 249.263 8.36717 257.879C7.55885 266.433 7.28621 275.031 6.38285 283.577C5.45645 292.342 3.63117 300.914 1.55501 309.469L1.05986 311.498C-0.818736 319.16 -2.75771 326.822 -3.72339 334.665C-4.23891 338.855 -4.54899 343.101 -4.47891 347.325C-4.40851 351.573 -3.74099 355.727 -3.20243 359.93C-2.99603 361.54 -4.58067 362.884 -5.99859 363.097C-7.62931 363.342 -9.03027 362.302 -9.53715 360.787C-11.1173 356.065 -11.4043 350.845 -11.3547 345.888C-11.3048 340.856 -10.6626 335.857 -9.75891 330.912C-7.98163 321.185 -5.23891 311.658 -2.94451 302.048C-0.922426 293.577 0.434694 285.091 1.16621 276.413C1.92557 267.409 2.38029 258.376 3.76557 249.437C5.13293 240.613 7.70573 232.184 11.5857 224.137C15.1185 216.811 19.5224 209.916 24.1393 203.232C29.7461 195.116 35.9038 187.393 42.787 180.356C42.1688 180.329 41.5339 180.129 40.9509 179.766C39.1672 178.653 38.3365 176.477 38.0811 174.489C37.4833 169.841 37.6277 164.988 38.8232 160.443C40.7518 153.111 45.7573 146.596 53.0117 143.953C54.8789 143.273 56.8638 143.025 58.8427 142.976C60.7205 142.929 62.7713 143.174 64.5832 142.579C67.4671 141.631 68.7033 138.234 69.7861 135.66L69.836 135.541C71.2245 132.26 72.891 129.448 75.8984 127.4C79.1069 125.213 83.1269 124.219 86.9124 123.577V123.577ZM168.992 136.553C171.587 135.652 174.833 136.469 177.371 137.256C180.2 138.133 182.813 139.748 185.054 141.665C187.418 143.688 189.371 146.185 190.751 148.975L190.883 149.244C192.144 151.831 193.58 155.384 192.944 158.227C192.926 158.308 192.905 158.385 192.881 158.461C198.032 160.996 202.788 164.172 206.93 168.197C211.753 172.883 215.837 178.216 219.293 183.977C233.019 206.859 235.435 234.341 237.056 260.437L237.46 267.053C238.341 281.341 239.371 295.595 242.047 309.685L242.242 310.702C245.102 325.455 249.197 340.321 248.782 355.455C248.658 359.989 241.956 359.958 241.762 355.455C241.03 338.503 237.075 322.137 234.396 305.45C229.683 276.093 232.044 245.828 225.366 216.765C222.745 205.359 218.685 194.296 212.888 184.115C210.024 179.085 206.747 174.226 202.909 169.887C199.607 166.153 196.175 162.56 192.316 159.422C191.083 160.657 188.619 160.028 187.976 158.227C187.533 156.989 187.662 155.543 187.379 154.246C187.115 153.044 186.752 151.851 186.268 150.718C185.304 148.461 183.888 146.293 182.254 144.465C180.488 142.49 178.459 140.849 176.189 139.494C173.903 138.13 171.403 137.723 168.992 136.726C168.91 136.693 168.903 136.584 168.992 136.553ZM179.077 293.447C179.081 293.328 179.221 293.272 179.308 293.351C180.218 294.189 180.768 295.391 181.438 296.421C182.21 297.609 183.021 298.772 183.872 299.906C185.576 302.176 187.473 304.316 189.386 306.413C191.164 308.364 193.06 310.231 195.026 311.992C197.157 313.9 199.544 315.602 201.48 317.715C205.519 322.123 206.172 328.174 207.024 333.855L207.117 334.469C207.637 337.841 208.102 341.221 208.522 344.606C208.726 346.253 208.93 347.901 209.096 349.552L209.147 350.075C209.296 351.692 209.336 353.331 208.407 354.743C207.414 356.254 205.155 356.784 203.812 355.335C201.504 352.846 201.937 348.426 201.637 345.224C201.389 342.577 201.108 339.933 200.793 337.293L200.632 335.973C200.261 332.969 199.96 329.906 199.273 326.955C198.667 324.356 197.513 322.394 195.619 320.511C193.711 318.614 191.729 316.844 189.968 314.801C188.1 312.635 186.415 310.312 184.897 307.888C183.599 305.814 182.558 303.558 181.604 301.304L181.446 300.928C180.525 298.73 179.005 295.868 179.077 293.447ZM212.393 199.033C212.413 198.726 212.866 198.721 212.873 199.033C212.93 201.67 212.985 204.306 213.04 206.944C213.48 228.192 213.209 249.491 215.341 270.667C216.346 280.651 218.198 290.488 220.34 300.285C221.436 305.298 222.586 310.299 223.679 315.312C224.744 320.198 225.886 325.108 226.731 330.04C227.561 334.886 228.305 339.771 228.638 344.68L228.68 345.32C228.823 347.698 229.509 351.196 228.2 353.304C226.781 355.587 224.064 355.628 222.544 353.448C221.116 351.402 221.471 347.761 221.219 345.32C220.963 342.833 220.692 340.344 220.384 337.862C219.783 333.021 218.992 328.192 218.169 323.384C216.455 313.372 213.968 303.486 212.133 293.489C210.252 283.247 208.915 272.93 208.859 262.502C208.803 251.984 209.916 241.487 210.478 230.993C211.049 220.334 211.698 209.684 212.393 199.033ZM112.015 132.942C112.586 131.021 114.599 129.82 116.563 130.36C118.363 130.854 119.849 133.039 119.146 134.908C118.378 136.948 117.036 138.687 115.904 140.541C114.859 142.254 113.334 143.603 112.27 145.285L113.443 146.55C114.03 147.181 114.619 147.808 115.214 148.424L117.26 150.544C118.854 152.191 120.457 153.83 122.106 155.42C126.955 160.097 131.88 164.62 137.31 168.625C138.547 169.536 139.792 170.443 141.073 171.291L141.551 171.608C142.429 172.183 143.409 172.748 144.471 172.651C147.05 172.414 149.38 169.675 151.152 167.97L151.245 167.882C155.637 163.703 159.704 159.134 163.26 154.221C164.049 153.13 164.814 152.019 165.558 150.896C163.839 148.888 164.249 144.969 164.155 142.533C164.088 140.821 164.083 139.108 164.073 137.395L164.069 137.049C164.048 135.94 163.998 134.876 164.718 133.964C164.759 133.911 164.846 133.913 164.9 133.94C165.885 134.457 166.189 135.322 166.61 136.292L166.654 136.393C167.166 137.557 167.656 138.733 168.152 139.904C168.671 141.13 169.148 142.374 169.63 143.615C169.855 144.193 170.069 144.772 170.279 145.355C170.406 145.727 170.539 146.097 170.674 146.467L170.706 146.495C170.886 146.647 171.038 146.808 171.168 146.974C171.718 147.249 172.156 147.75 172.361 148.487C172.807 150.091 171.883 151.398 171.059 152.671C167.712 157.842 163.896 162.77 159.655 167.24C157.548 169.46 155.332 171.581 153.025 173.593L152.622 173.943C150.549 175.724 148.299 177.411 145.531 177.827C142.292 178.315 139.655 176.704 137.176 174.848L136.928 174.662C134.578 172.883 132.274 171.041 130.043 169.114C125.493 165.186 121.164 160.968 117.322 156.34C113.585 151.839 109.892 146.806 107.588 141.39C107.448 141.06 107.817 140.715 108.106 140.99C109.231 142.061 110.314 143.191 111.384 144.334C111.413 142.651 111.103 140.953 111.276 139.259C111.486 137.2 111.426 134.925 112.015 132.942Z" fill="black"/>
<path fill-rule="evenodd" clip-rule="evenodd" d="M192.149 78.2809C191.46 72.2281 192.352 59.5766 192.412 58.808C192.789 53.9488 190.513 34.7606 186.208 36.5286C178.989 30.8131 169.372 29.551 160.38 28.9481C141.703 27.6957 121.833 30.5709 107.411 43.1405C100.278 49.6681 93.3345 59.1622 93.8927 69.0477C87.4124 78.4179 78.2766 91.2713 86.3508 102.226C89.0953 105.726 93.4573 107.029 96.9051 109.68C103.84 115.273 108.191 123.301 115.192 128.861C133.739 145.528 165.232 149.009 183.455 130.052C197.546 116.323 195.268 95.7837 192.789 78.2809C191.123 66.5137 193.493 90.0893 192.149 78.2809Z" fill="white"/>
<path fill-rule="evenodd" clip-rule="evenodd" d="M135.43 3.28004C140.425 2.27204 145.554 1.64484 150.655 1.83364L151.049 1.84892C154.887 2.00231 159.747 2.34164 163.096 4.57348C163.288 4.3802 163.598 4.281 163.879 4.41508C167.858 6.31428 172.234 7.6874 176.424 9.05188C180.594 10.4096 184.92 11.306 189.291 11.6672C190.936 11.8032 192.343 13.5789 191.302 15.1716C191.054 15.5511 190.813 15.9344 190.572 16.3188C190.974 16.2768 191.376 16.2336 191.778 16.193C193.101 16.0599 194.422 17.4714 194.344 18.7591C194.295 19.569 194.207 20.3693 194.078 21.16C194.582 21.1495 195.082 21.225 195.566 21.4295C198.016 22.464 197.846 25.3821 197.662 27.6023C197.408 30.6832 196.256 33.9466 194.116 36.2525C195.714 37.9117 196.845 39.8932 197.519 42.2464C198.008 43.9648 198.281 45.7952 198.146 47.584L198.104 48.1196C197.937 50.0608 197.607 52.21 196.21 53.6064C195.494 54.3264 194.61 54.5888 193.768 54.5056C194.278 58.9792 194.604 63.4784 194.911 67.9616L195.055 70.1044C195.741 80.466 196.256 90.895 196.121 101.274C195.996 110.973 194.079 120.387 188.13 128.262C182.712 135.434 174.934 140.72 166.134 142.73C161.391 143.814 156.55 143.891 151.75 143.2C149.423 142.864 147.081 142.349 144.872 141.536C142.428 140.634 140.671 139.306 139.026 137.315C138.248 136.371 138.623 134.362 140.172 134.55C142.515 134.835 144.654 135.177 146.9 135.87L147.221 135.971C149.458 136.688 151.775 137.222 154.114 137.45C158.905 137.914 163.768 137.446 168.358 135.994C175.83 133.626 182.265 128.349 186.39 121.718C191.286 113.859 191.839 104.938 191.768 95.9009C191.693 85.9846 191.37 76.0625 190.844 66.1565L190.754 64.5056C190.476 59.408 190.207 54.3072 189.97 49.2064C189.897 47.6064 189.785 45.9936 189.583 44.3968C187.737 43.3152 186.082 41.824 185.004 39.984C182.838 40.88 180.559 41.5264 178.463 42.0416C173.607 43.2359 168.566 43.5258 163.624 42.778C162.29 43.3287 160.931 43.8128 159.55 44.2295C159.177 44.3949 158.804 44.5575 158.431 44.7168C155.103 46.1408 151.727 47.3472 148.214 48.2304L147.351 48.4457C145.502 48.9015 143.493 49.3503 141.526 49.4912C141.202 49.616 140.854 49.7216 140.472 49.8144C138.681 50.2496 136.821 50.3872 134.985 50.2336C133.196 50.0832 131.903 48.2752 132.888 46.5824C133.608 45.3472 134.335 44.1152 135.068 42.8864C132.518 43.9488 129.884 44.832 127.228 45.5808C124.546 46.336 121.826 46.9728 119.103 47.5584C117.647 47.8688 116.185 48.144 114.732 48.4544C113.692 48.6752 112.095 48.7904 111.247 49.4752C110.31 50.2272 110.044 51.9808 109.688 53.0624C109.221 54.4672 108.783 55.8784 108.383 57.3056C107.586 60.1536 106.934 63.0432 106.428 65.9616C105.922 68.8832 105.583 71.8336 105.394 74.7936C105.206 77.7504 105.288 80.7264 104.985 83.6704C104.821 85.232 103.145 86.0352 101.906 84.944C101.761 84.816 101.615 84.6866 101.47 84.5558L101.254 84.3584C100.194 83.3984 99.1669 82.3808 98.3192 81.2352C98.1656 81.024 98.0184 80.8032 97.8808 80.5792C97.8584 80.5792 97.8392 80.5728 97.8168 80.5568L97.5818 80.38C94.9937 78.4536 90.67 75.9422 88.1464 79.1424C87.3423 80.1619 86.9305 81.4601 86.5888 82.7125L85.9892 84.9539C85.6014 86.4171 85.2364 87.8885 85.0229 89.3856C84.5397 92.7392 84.7829 96.6048 87.0904 99.2928C88.012 100.368 89.2824 101.136 90.6997 101.338C91.4904 101.446 92.2712 101.312 93.0552 101.213C93.852 101.114 94.6197 101.274 95.4168 101.197C96.684 101.072 97.2376 102.589 96.764 103.542C96.508 104.054 96.2069 104.496 95.8648 104.87C96.1397 105.107 96.4024 105.363 96.6552 105.632C97.404 105.872 98.0757 106.387 98.5784 107.069C98.9848 107.619 99.1957 108.218 99.2312 108.848C99.2757 109.005 99.3141 109.165 99.3496 109.328L100.036 110.442C100.187 110.687 100.338 110.928 100.488 111.165C102.236 113.917 104.175 116.246 106.585 118.442C108.905 120.554 111.423 122.445 113.602 124.71L113.859 124.979C115.891 127.121 118.033 129.712 117.238 132.826C117.033 133.626 115.916 134.202 115.186 133.661C112.841 131.92 111.66 129.162 109.67 127.05C107.621 124.874 105.352 122.918 103.298 120.749C101.356 118.701 99.8229 116.381 98.668 113.827C98.2069 114.336 97.5352 114.698 96.604 114.838C95.004 115.078 93.5125 114.141 92.8152 112.755C92.3669 112.954 91.9096 113.133 91.4485 113.274C89.0229 114.016 87.4968 111.318 88.412 109.325C88.9013 108.256 89.5125 107.328 90.2712 106.547C87.8997 106.221 85.4869 104.995 83.9285 103.466C80.0184 99.6224 79.4808 93.8465 80.3608 88.7105C80.828 85.9873 81.6341 83.232 82.6808 80.6752C82.8629 80.2304 83.0584 79.7824 83.2725 79.3408C83.1541 79.3376 83.0325 79.2864 82.9557 79.1872C82.2485 78.2208 81.388 77.4304 80.8629 76.3488C80.3797 75.3568 79.8424 74.352 79.4613 73.3184C78.6776 71.2032 78.2936 68.816 78.0376 66.5792C77.5096 62 77.7141 57.4496 78.4152 52.8992C79.6085 45.1488 82.491 37.7319 86.7378 31.2237C86.5065 31.1022 86.285 30.9555 86.0785 30.7821L85.9765 30.6932L85.8107 30.5434C84.5989 29.4468 84.7035 27.3914 85.8107 26.2807L86.1604 25.9302C86.6032 25.4903 86.9851 25.1417 87.7003 24.6628C87.8059 24.592 87.9138 24.5255 88.0229 24.4634C87.6485 23.7716 87.5186 22.9626 87.7794 22.0701C88.6882 18.961 93.1618 19.0711 95.9973 20.4269C99.1342 17.6272 102.613 15.1968 106.383 13.2288C115.362 8.54404 125.516 5.27684 135.43 3.28004ZM89.0137 85.168C90.6905 84.6208 92.9177 85.7696 94.4249 86.4608C96.3353 87.3376 97.9609 88.6336 99.5353 90.0032C100.319 90.688 100.46 91.808 100.265 92.7648C100.245 92.8608 100.227 92.96 100.204 93.0592C99.9958 94.08 98.8566 94.8832 97.8486 94.8544C95.7398 94.7968 94.7353 92.976 93.5414 91.4336C93.4009 91.6832 93.2249 91.9136 93.007 92.0864L92.8598 92.2016C92.3644 92.5788 91.8183 92.8803 91.1638 92.8512C90.6998 92.8288 90.2553 92.7104 89.8454 92.496C88.8214 91.9552 88.3705 90.6304 88.6486 89.552C88.8214 88.8736 89.2182 88.3424 89.7366 87.9744L89.5433 87.8423C89.1299 87.5545 88.7528 87.2512 88.4589 86.8036L88.3926 86.6976H88.4182C88.0982 86.1472 88.3065 85.3984 89.0137 85.168Z" fill="black"/>
<path fill-rule="evenodd" clip-rule="evenodd" d="M202.249 79.6504C199.198 100.287 177.901 102.569 174.117 82.0821C174.724 81.8162 175.161 81.2926 175.07 80.2763C175.048 75.8117 176.434 71.093 180.462 68.6101C184.624 66.0482 189.494 65.7941 194.311 65.8587C203.502 65.6398 203.308 73.3221 202.249 79.6504M170.783 70.6754C167.898 70.5538 164.249 70.6555 161.665 72.413C160.954 70.5 159.109 68.4574 157.244 67.3653C164.176 67.5682 171.311 66.8859 178.295 66.3563C176.623 67.4958 175.068 69.2078 174.057 71.187C173.119 70.6869 171.776 70.7336 170.783 70.6754M158.068 81.8382C150.07 109.37 130.105 97.3698 127.928 93.8414C124.002 88.0027 123.264 73.8094 126.683 70.0145C131.579 66.5829 138.509 67.4661 144.292 67.3819C154.916 67.5253 162.462 70.7035 158.068 81.8382M211.693 69.1754C209.52 68.8913 207.198 68.834 205.177 69.7908C204.555 67.1466 202.602 64.9361 200.397 63.9633C200.13 63.6286 200.17 63.4487 199.258 63.499C193.66 61.8164 187.395 62.7066 182.016 64.4321C173.519 65.1476 164.605 65.7118 156.037 66.6977C148.01 63.0932 123.789 62.5649 122.283 71.449C120.39 71.1658 117.165 69.6756 115.574 71.697C103.904 69.7185 91.8443 72.4682 80.123 73.6929C77.1726 74.2362 75.653 80.0916 79.0021 80.0116C80.885 79.5006 78.9442 76.3655 81.4795 76.1297C92.7887 74.8945 103.85 73.1422 115.275 72.937C114.878 74.9098 122.832 75.0382 122.949 73.8862C122.966 73.8948 122.984 73.9006 123.001 73.9082C121.036 81.233 122.81 91.7745 126.362 96.3166C131.339 102.264 143.833 103.97 149.373 100.144C156.52 96.6119 163.954 78.8833 161.866 72.9934C165.656 71.7921 169.403 72.1527 173.336 72.7646C172.436 75.3082 170.881 81.57 173.118 82.113C172.707 94.545 184.022 102.302 194.452 97.2023C203.479 92.9646 206.636 79.5508 205.532 71.409C206.656 73.5806 216.092 71.2164 211.693 69.1754" fill="black"/>
<path fill-rule="evenodd" clip-rule="evenodd" d="M138.132 121.862C140.723 115.792 146.377 111.332 152.888 109.701C157.669 108.506 162.686 108.544 167.559 109.018C170.113 109.265 172.852 109.467 175.258 110.415C177.313 111.225 178.987 112.757 180.247 114.554C181.745 116.684 182.765 119.122 183.481 121.621C183.582 121.976 183.678 122.334 183.767 122.693C183.456 124.579 182.795 126.183 181.049 127.368C179.345 128.526 177.312 128.999 175.285 129.168C175.086 129.072 174.894 128.974 174.718 128.873C171.56 127.065 169.337 122.793 165.35 123.371C161.793 123.887 159.451 128.363 157.335 130.988C150.544 131.78 143.758 129.739 138.233 125.856C137.952 124.527 137.936 123.186 138.132 121.862M188.383 117.258C187.839 115.733 187.155 114.257 186.344 112.866C183.663 108.266 179.547 104.601 174.66 102.506C163.101 97.5565 148.145 101.045 138.81 109.162C135.622 111.937 132.397 116.015 131.422 120.401C131.131 120.459 130.856 120.61 130.63 120.824C123.886 116.577 116.941 112.492 111.506 106.606C107.559 102.33 104.814 97.2685 103.133 91.707C102.996 91.2493 102.257 91.3162 102.28 91.8227C102.286 91.9412 102.293 92.0594 102.299 92.1779C102.229 91.9601 101.896 92.0722 101.871 92.2836C100.966 99.0397 99.835 106.203 100.877 112.994C101.5 117.046 103.341 120.013 105.801 123.216C108.438 126.65 111.423 129.844 114.475 132.907C116.411 134.851 118.434 137.093 120.806 138.519C123.563 140.175 126.692 141.434 129.635 142.712C132.63 144.016 135.669 145.22 138.766 146.265C144.956 148.36 151.354 149.807 157.863 150.442C163.076 150.948 169.033 151.499 174.028 149.538C177.856 148.036 180.946 145.32 183.398 142.052C186.066 138.493 188.176 134.439 189.342 130.164C190.553 125.724 188.638 117.973 188.383 117.258" fill="black"/>
<path fill-rule="evenodd" clip-rule="evenodd" d="M160.808 121.457C158.657 120.579 156.737 119.115 155.334 117.245C154.846 116.595 154.72 115.909 154.822 115.281C154.937 114.575 155.355 113.935 155.924 113.506C156.496 113.075 157.21 112.863 157.901 112.971C158.502 113.065 159.1 113.394 159.573 114.076L159.671 114.212C160.506 115.341 161.593 116.267 162.831 116.864C164.025 117.439 165.36 117.708 166.742 117.551C169.374 117.254 171.188 115.831 173.116 113.898C173.355 113.654 173.594 113.403 173.834 113.147C173.986 112.915 174.196 112.766 174.43 112.688C174.69 112.601 174.983 112.606 175.252 112.7C175.512 112.79 175.744 112.962 175.899 113.19C176.047 113.407 176.131 113.675 176.104 113.984C175.927 115.987 174.88 117.774 173.393 119.178C171.741 120.737 169.551 121.815 167.489 122.193C165.218 122.61 162.903 122.311 160.808 121.457V121.457ZM168.561 90.5575C170.977 92.0263 174.659 95.4513 172.059 99.0927C169 102.303 164.594 98.6221 162.423 96.9572C160.41 95.6669 158.148 98.9855 160.016 100.492C175.703 112.107 182.07 90.9416 169.783 88.8306C168.43 88.5979 167.928 90.1031 168.561 90.5575ZM140.448 77.0469C140.715 73.7329 145.763 72.9803 146.265 76.2597C146.714 79.1973 146.185 81.8958 144.862 84.5406C143.597 87.0674 140.42 85.8885 140.179 83.5877C139.857 80.5036 140.282 79.1084 140.448 77.0469ZM178.869 75.5797C179.572 74.6581 180.588 74.029 181.806 74.3845C185.609 75.4959 184.488 80.8952 183.152 83.5234C182.426 84.9506 180.081 85.3125 179.02 84.0559C177.292 82.0066 176.465 77.9141 178.662 75.8956C178.721 75.7912 178.787 75.686 178.869 75.5797ZM144.808 62.5458L145.409 62.4406C147.267 62.1192 149.578 61.8104 150.893 63.3045C151.59 64.0968 151.83 65.5695 150.893 66.3279C149.244 67.6623 147.422 67.1452 145.446 67.2581C143.818 67.3516 142.253 67.621 140.685 68.0693C137.244 69.0527 134.44 70.8479 131.502 72.8191C131.116 73.0776 130.723 72.5845 130.907 72.2239C132.603 68.9013 135.89 66.172 139.183 64.5084C140.941 63.6204 142.864 62.8837 144.808 62.5458ZM175.402 61.0574L175.862 61.1515C180.865 62.1975 187.367 64.2869 189.736 69.2019C189.827 69.8969 189.731 70.0459 189.654 70.1432L189.628 70.1756C189.564 70.2587 189.513 70.3732 189.212 70.4678C189.128 70.4479 189.044 70.4268 188.958 70.4044C187.872 70.1198 187.013 69.7276 186.181 69.3208L185.279 68.8763C184.232 68.3632 183.176 67.8687 182.057 67.5037C179.669 66.7248 177.213 66.1761 174.719 65.8832C174.179 65.8197 173.658 65.6373 173.247 65.3246C172.857 65.0278 172.56 64.6168 172.424 64.0706C172.248 63.3637 172.299 62.8285 172.678 62.1908C172.963 61.7119 173.371 61.3799 173.84 61.1893C174.317 60.995 174.861 60.9491 175.402 61.0574Z" fill="black"/>
</g>
<defs>
<clipPath id="clip0_189_198">
<rect width="250" height="250" fill="white"/>
</clipPath>
</defs>
</svg>
