<svg width="250" height="250" viewBox="0 0 250 250" fill="none" xmlns="http://www.w3.org/2000/svg">
<g clip-path="url(#clip0_206_222)">
<path fill-rule="evenodd" clip-rule="evenodd" d="M201.439 629.509C200.428 638.374 197.172 656.711 195.573 665.718C195.108 668.336 194.783 670.17 194.689 670.772C185.642 718.069 181.939 766.13 180.221 814.183C179.717 820.435 179.967 826.672 181.054 832.85C181.11 833.168 181.168 833.485 181.228 833.801C181.532 833.739 181.841 833.682 182.154 833.632C194.878 831.564 203.449 840.856 211.731 849.618C214.97 853.043 218.163 856.417 221.514 859.108C229.558 866.286 238.264 872.672 247.386 878.406C251.116 880.602 255.346 883.197 258.203 886.638C260.147 888.982 261.445 891.726 261.411 895.023L261.399 896.154L262.517 895.982C262.852 895.93 263.131 895.948 263.357 896.056C263.596 896.171 263.761 896.379 263.894 896.622C264.489 897.713 264.487 899.446 264.52 900.759C264.529 901.095 264.537 901.408 264.551 901.685C264.652 905.624 262.87 908.223 260.189 910.001C256.015 912.769 249.787 913.641 244.739 914.378C243.805 914.514 242.909 914.645 242.066 914.78C211.013 918.109 179.575 909.703 150.843 898.316C150.762 898.284 150.682 898.252 150.601 898.22C150.522 898.234 150.443 898.246 150.364 898.257C148.074 898.559 146.105 897.338 144.547 895.573C142.395 893.134 140.994 889.608 140.658 886.871C140.366 885.547 140.55 884.314 140.713 883.093C140.93 881.469 141.112 879.865 140.607 878.291C136.643 869.279 136.123 859.478 136.69 849.877C136.534 837.99 139.264 834.637 141.486 831.979C143.351 829.747 144.858 827.936 144.373 822.869C144.312 822.121 144.076 817.307 144.179 814.916L144.922 814.81C143.743 797.811 139.467 780.976 135.19 764.154C128.222 736.756 121.224 709.39 127.937 681.386C130.056 672.752 134.247 665.109 138.452 657.419C141.12 652.539 143.796 647.641 145.978 642.472C146.018 642.379 146.057 642.286 146.095 642.193C146.074 642.101 146.055 642.009 146.037 641.917C145.624 639.774 146.134 637.593 146.62 635.397C147.064 633.39 147.498 631.369 147.395 629.351C147.357 625.556 146.61 621.925 145.825 618.247C145.785 618.058 145.744 617.87 145.703 617.682C145.52 617.631 145.336 617.578 145.153 617.525C141.56 616.485 138.048 615.209 134.675 613.542L133.771 613.095L133.369 614.019C133.241 614.312 133.054 614.537 132.829 614.691C132.581 614.86 132.291 614.945 132 614.956C131.684 614.969 131.364 614.896 131.087 614.742C130.868 614.621 130.677 614.449 130.54 614.226C130.156 612.651 130.585 610.989 130.969 609.342C131.223 608.256 131.471 607.173 131.554 606.118C131.679 605.514 131.786 604.809 131.899 604.057C132.215 601.957 132.545 599.422 133.68 597.914C134.002 597.486 134.396 597.151 134.904 596.986C135.391 596.827 135.968 596.824 136.654 596.983C137.057 597.076 137.403 597.203 137.694 597.362C137.738 596.958 137.782 596.553 137.825 596.148C139.638 579.01 139.984 561.725 138.977 544.522C138.899 543.189 138.813 541.856 138.718 540.524C138.178 541.75 137.65 542.977 137.134 544.207C134.043 551.573 131.33 559.216 128.618 566.855C124.824 577.547 121.033 588.234 116.196 598.141C116.118 598.302 116.039 598.463 115.96 598.623C116.054 598.725 116.13 598.846 116.194 598.978C116.308 599.217 116.368 599.465 116.321 599.714C116.276 599.954 116.134 600.183 115.91 600.404C114.114 602.145 113.179 604.475 112.274 606.81C112.228 606.928 112.183 607.046 112.137 607.164C111.456 609.312 110.341 611.259 108.826 612.752C107.48 614.078 105.818 615.042 103.882 615.408C103.679 615.446 103.476 615.477 103.274 615.502C103.224 615.714 103.175 615.924 103.126 616.132C102.885 617.157 102.634 618.238 102.372 619.366C99.3063 632.573 94.722 652.381 86.4585 666.96C81.1697 676.291 74.3795 683.507 65.4025 685.2C64.7489 685.323 64.0953 685.415 63.4427 685.477C63.9879 685.752 64.4444 686.125 64.761 686.644C65.7941 688.336 64.7632 690.642 63.9833 692.756C63.5228 694.005 63.0841 695.217 62.9112 696.291C62.0727 698.688 61.3709 701.15 60.6689 703.615C59.3818 708.135 58.0986 712.666 55.9183 716.803C55.8365 716.958 55.7535 717.113 55.6698 717.267C55.7573 717.37 55.8251 717.48 55.8767 717.608C55.9637 717.825 55.9801 718.035 55.9558 718.293C55.9341 718.524 55.8877 718.711 55.7883 718.889C55.9992 718.973 56.2067 719.077 56.4095 719.201C57.3809 719.798 57.9754 720.704 58.2705 721.738C58.6283 722.993 58.5573 724.429 58.1745 725.789C57.7754 727.207 57.0343 728.549 56.0396 729.524C55.2055 730.341 54.1892 730.9 53.0444 730.967C52.9672 730.972 52.8903 730.974 52.8138 730.974C52.7522 731.016 52.6902 731.055 52.628 731.09C52.1218 731.376 51.4169 731.53 50.7572 731.542L50.5302 733.43C50.6737 733.589 50.6949 733.672 50.6848 733.758C49.7135 745.44 46.9364 756.832 44.1744 768.178C43.6617 770.285 43.1493 772.389 42.6487 774.494C41.6748 777.847 40.9547 781.302 40.2351 784.76C39.0539 790.435 37.8787 796.12 35.5212 801.352C35.4628 801.482 35.4036 801.611 35.3442 801.74C35.4022 801.864 35.4576 801.989 35.5104 802.116C36.6871 804.938 36.4467 808.199 35.8623 811.138C34.911 812.225 33.1241 812.133 31.6392 812.178C31.0691 812.195 30.5212 812.212 30.0286 812.263C29.714 812.296 29.38 812.347 29.0336 812.406C29.0842 812.721 29.1322 813.037 29.1772 813.354C29.8977 818.417 29.8701 823.574 29.8461 828.712C29.8325 831.615 29.8193 834.513 29.9364 837.386C29.9503 837.725 29.9659 838.064 29.9837 838.403C30.2933 838.356 30.6146 838.323 30.9479 838.305C34.1972 838.128 36.4546 839.464 38.0974 841.557C40.6363 844.792 41.782 849.717 42.7893 853.914C43.0636 855.057 43.326 856.15 43.5983 857.148C45.6683 864.082 48.3175 870.763 50.9667 877.441C54.498 886.342 58.0311 895.238 60.1411 904.682L60.4629 906.123L61.6492 905.244C61.7556 905.166 61.8806 905.11 62.0192 905.105C62.1566 905.1 62.3007 905.144 62.4493 905.231C66.6891 907.777 66.7354 913.028 66.9138 917.451C66.9296 917.841 66.9451 918.227 66.9627 918.605C66.921 919.539 66.9895 920.545 67.0614 921.567C67.2339 924.016 67.5924 926.693 65.5205 928.259C50.8827 938.236 31.0893 937.949 14.1705 935.329C7.42568 934.099 0.841129 932.044 -5.41071 929.232C-7.7739 928.43 -9.54148 927.583 -10.6226 926.19C-11.5408 925.008 -11.9205 923.437 -11.7716 921.255C-12.1881 917.288 -11.8309 913.513 -11.4796 909.732C-11.1752 906.455 -10.8738 903.175 -11.0358 899.873C-10.5397 887.191 -7.638 874.655 -4.78553 862.306C-4.67122 861.812 -4.55698 861.317 -4.44295 860.823C-4.27619 860.3 -4.10806 859.766 -3.93718 859.223C-1.73999 852.242 0.852666 843.688 7.16307 839.778C7.33793 839.738 7.62002 839.729 7.93253 839.703C8.76525 839.634 9.74904 839.521 10.3341 839.239C10.3499 839.231 10.3655 839.224 10.3809 839.216L10.0215 840.43L11.8999 839.626C12.3336 839.44 12.7874 839.3 13.2526 839.213C13.4061 839.184 13.5604 839.161 13.7158 839.143C13.7915 838.992 13.8663 838.84 13.94 838.687C16.4949 833.404 17.6817 827.648 18.8584 821.89C19.5855 818.333 20.3108 814.776 21.3773 811.34C21.469 811.044 21.5633 810.749 21.6599 810.455C21.3709 810.366 21.0857 810.267 20.8056 810.159C17.8363 809.015 15.1425 806.73 14.3078 803.64C14.509 802.766 14.9252 801.812 15.5544 801.097C16.0207 800.567 16.6114 800.165 17.3432 800.119L18.6618 800.036L18.1754 798.807C17.6932 797.589 17.6239 796.203 17.7715 794.896C20.2572 779.575 23.5684 764.385 27.1356 749.275C28.4932 743.656 29.9457 738.056 31.5856 732.513C31.8259 731.845 32.0162 731.092 32.2097 730.318C32.6106 728.715 32.9765 726.961 34.1441 725.951C34.4216 725.712 34.7341 725.523 35.0712 725.372C34.7709 725.102 34.4771 724.824 34.1903 724.541C31.6976 722.084 29.5834 719.099 29.523 715.745C29.4061 714.335 30.0731 712.883 31.1035 711.98C31.4423 711.684 31.823 711.446 32.2335 711.301L33.8134 712.273C34.1918 712.506 34.5535 712.771 34.9155 713.035C35.2206 713.258 35.5257 713.48 35.8382 713.686L39.6148 716.183L37.1765 712.369C35.2586 709.368 36.2098 705.714 36.9817 702.357C37.1901 701.451 37.3942 700.562 37.5492 699.704C37.7527 698.79 37.9526 697.871 38.153 696.951C39.3645 691.385 40.5869 685.747 42.7162 680.505C42.8029 680.291 42.8912 680.079 42.9797 679.865C42.8048 679.719 42.6303 679.57 42.4562 679.419C34.1657 672.221 30.9215 663.338 30.5022 653.811C29.8979 640.081 35.0989 625.031 39.7055 611.631C40.8766 608.225 42.0113 604.924 43.0077 601.777C43.076 601.561 43.1441 601.345 43.2119 601.127C43.0252 600.982 42.8389 600.842 42.653 600.708C41.5243 599.896 40.1708 599.143 38.7745 598.37C35.3088 596.451 31.3724 594.456 30.8494 590.555C30.9073 588.459 31.7283 586.437 32.5137 584.448C32.8327 583.64 33.1492 582.838 33.4199 582.039C33.6295 581.1 34.2696 579.881 35.0847 579.329C35.2612 579.209 35.447 579.112 35.646 579.135C35.8227 579.154 35.9856 579.272 36.1533 579.449L37.2808 580.642L37.7676 579.074C38.0166 578.273 38.2665 577.471 38.5168 576.668C43.2892 561.355 48.1312 545.76 47.6953 529.586C47.6889 529.35 47.6814 529.113 47.6726 528.879C47.4372 528.802 47.1978 528.734 46.9537 528.677C45.2924 528.29 43.6042 528.442 41.938 528.61C39.8444 528.82 37.763 529.109 35.8845 527.703C18.7717 514.612 20.6341 481.245 22.0993 461.767C22.1184 461.514 22.1377 461.258 22.157 461.003C21.9197 460.937 21.6828 460.864 21.4466 460.785C20.652 460.519 19.8919 460.193 19.2006 459.782L18.6332 459.445L18.1151 459.854C17.8643 459.864 17.7173 459.716 17.554 459.542C16.8856 458.832 16.2246 457.542 15.5667 455.959C13.2378 450.356 11.154 441.184 10.5387 438.483C10.5233 438.415 10.5087 438.351 10.4929 438.281C-1.96029 381.841 2.80406 323.643 7.47135 266.458C7.80486 262.371 8.13795 258.29 8.46448 254.216C9.46934 246.683 9.85427 238.972 10.2389 231.245C11.0259 215.433 11.796 199.547 18.0341 185.018C22.2 174.405 33.9439 171.941 43.9174 169.708C44.1912 169.647 44.4638 169.586 44.735 169.525C49.9294 167.978 55.152 166.783 60.3679 165.59C68.361 163.761 76.3378 161.932 83.9516 158.931C84.3638 158.769 84.7745 158.603 85.1836 158.434C84.8915 158.135 84.6222 157.816 84.3794 157.478C83.0425 155.616 82.5188 153.18 82.6563 150.762C82.7988 148.255 83.6544 145.754 85.1213 143.901C85.6967 143.478 86.3729 143.433 87.0585 143.545C88.4026 143.765 89.8048 144.562 90.9454 145.19C91.0581 145.253 91.1685 145.313 91.2762 145.372L92.1325 145.841L92.5869 144.977C94.3807 141.566 95.6255 137.807 96.8425 134.118C97.5453 131.987 98.2395 129.881 99.0333 127.885C101.464 122.747 105.634 120.283 110.444 119.335C117.694 117.905 126.366 119.835 133.073 121.509C133.314 121.571 133.556 121.632 133.8 121.694C137.183 122.552 140.811 123.446 143.624 125.558C148.308 129.299 149.302 135.115 150.361 140.821C150.897 143.71 151.434 146.584 152.378 149.207C152.484 149.501 152.596 149.794 152.713 150.087C152.98 149.966 153.241 149.875 153.495 149.817C157.204 148.969 165.345 153.791 168.151 156.359C168.885 156.845 169.22 157.329 169.395 157.874C169.685 158.782 169.592 159.822 169.525 160.848C169.494 161.314 169.465 161.777 169.459 162.23C169.456 162.495 169.46 162.764 169.469 163.035C169.725 163.085 169.981 163.135 170.236 163.185C171.888 163.506 173.574 163.819 175.281 164.137C187.497 166.411 200.819 168.856 210.322 175.582C216.967 180.284 221.704 187.109 222.811 197.484C226.323 212.477 228.187 227.625 229.913 242.782C230.145 244.784 230.374 246.788 230.603 248.792C233.384 273.104 236.186 297.554 243.741 320.926C244.483 322.743 245.202 324.491 245.922 326.241C257.218 353.705 268.682 381.538 271.394 411.401C272.865 425.672 272.641 440.09 270.199 454.236C270.057 454.999 269.453 455.533 268.764 455.814C268.008 456.122 267.101 456.15 266.422 455.722L262.808 453.441L265.1 457.048C269.924 464.641 265.884 477.994 263.149 487.422C262.744 488.819 262.363 490.133 262.035 491.337C259.935 498.299 256.539 505.881 251.204 509.903C249.184 511.425 246.884 512.424 244.264 512.647C241.858 512.851 239.191 512.402 236.236 511.139C235.866 510.98 235.507 510.817 235.16 510.651C235.08 511.043 234.999 511.436 234.919 511.828C229.115 540.035 222.638 567.992 214.95 595.756L213.879 599.625L216.584 596.659C217.016 596.186 217.511 595.908 218.027 595.805C218.606 595.69 219.202 595.792 219.75 596.04C220.376 596.323 220.941 596.796 221.363 597.389C221.748 597.931 222.013 598.575 222.087 599.274C221.866 603.067 220.641 606.713 219.431 610.352C218.786 612.293 218.142 614.232 217.639 616.188C217.077 618.206 215.892 619.445 214.371 620.227C212.045 621.423 209.003 621.617 206.135 621.828C204.638 621.938 203.182 622.047 201.875 622.27C201.679 622.304 201.482 622.341 201.282 622.381C201.225 622.571 201.169 622.76 201.114 622.951C200.728 624.288 200.39 625.639 200.051 626.99C199.781 628.071 199.51 629.152 199.214 630.226L201.058 630.759C201.193 630.314 201.32 629.897 201.439 629.509V629.509ZM58.2281 461.52C58.2919 453.42 61.1791 445.782 64.0403 438.155C65.2326 434.977 66.4235 431.801 67.4185 428.598C67.4776 428.407 67.5361 428.217 67.594 428.026C67.444 427.875 67.2925 427.731 67.1395 427.595C66.4096 426.947 65.5081 426.356 64.5885 425.758C63.3051 424.925 61.9666 424.087 61.1703 422.956C60.6804 422.26 60.4265 421.441 60.5962 420.324C61.0584 411.976 61.6278 403.63 62.3097 395.298C62.4694 393.519 62.6307 391.74 62.7921 389.96C65.6372 358.579 68.5032 326.839 62.8683 295.614C62.62 294.192 62.3306 292.785 62.0411 291.377C61.8465 290.431 61.6518 289.485 61.4702 288.536C61.444 288.396 61.4148 288.211 61.3807 287.995C61.2182 286.97 60.947 285.339 60.3992 284.149C59.9041 283.073 59.1794 282.386 58.3113 282.234C58.005 282.181 57.6929 282.196 57.3807 282.276C57.3246 282.498 57.2689 282.726 57.2136 282.953C47.7767 321.818 50.1449 361.465 52.5227 401.037C53.6167 419.242 54.7103 437.431 54.6425 455.519C54.6419 455.697 54.6411 455.874 54.6402 456.052C54.7528 456.087 54.8608 456.146 54.9577 456.234C55.2028 456.456 55.2702 456.766 55.2212 457.055C55.1617 457.406 54.9417 457.74 54.6042 457.918C54.4863 457.98 54.3609 458.02 54.2338 458.039C54.1961 458.209 54.1574 458.378 54.1176 458.548C53.9359 459.321 53.7321 460.088 53.5049 460.852C53.4491 461.039 53.392 461.226 53.3335 461.412C53.4767 461.549 53.6201 461.685 53.7636 461.821C54.7276 462.738 55.698 463.647 56.6781 464.547L58.4266 466.152L58.2856 463.783C58.2405 463.024 58.2222 462.27 58.2281 461.52Z" fill="white"/>
<path fill-rule="evenodd" clip-rule="evenodd" d="M264.171 466.183C260.588 478.232 257.299 496.074 248.174 504.945C244.964 507.538 241.19 505.955 237.505 505.639C239.88 491.7 241.519 477.647 242.843 463.572C250.35 462.132 257.588 459.514 264.292 455.847C266.033 458.765 264.945 463.203 264.171 466.183M234.248 501.952C230.789 521.864 226.073 541.526 221.509 561.159C219.092 573.127 213.943 585.469 212.834 597.281C189.543 606.575 164.344 602.963 140.255 599.169C140.626 598.856 140.909 598.376 140.949 597.789C141.548 597.517 142.037 596.976 142.127 596.167C143.483 578.425 145.962 559.128 141.772 541.962C144.54 539.466 147.016 536.565 149.324 533.639C151.423 530.868 147.055 527.203 144.6 529.219C147.998 520.732 151.504 512.29 155.18 503.917C156.162 501.674 152.853 499.719 151.861 501.978C138.172 533.307 126.623 565.371 114.684 597.415C114.019 596.095 111.347 596.253 112.316 598.129C87.8544 600.173 62.3219 593.932 39.8163 583.779C45.1946 566.507 51.3213 548.911 50.9619 530.634C56.2298 530.879 63.3478 527.88 66.1363 523.345C68.9235 525.511 72.3411 522.852 73.8099 520.327C77.2038 513.705 75.3254 505.62 73.3619 498.832C80.2909 499.922 88.9664 493.496 84.2256 486.317C76.9005 479.891 68.5405 474.417 61.3587 467.645C60.7446 454.947 65.6646 443.097 70.1331 431.185C92.712 447.097 114.849 464.22 138.558 478.267C142.635 478.682 145.927 475.597 148.988 473.345C157.72 466.865 166.533 460.471 175.138 453.815C176.082 454.163 177.167 454.077 177.97 453.539C183.465 459.425 189.273 464.86 194.709 470.775C197.975 473.793 200.333 478.504 204.892 479.661C207.023 480.052 208.38 479.169 209.746 477.69C218.038 468.916 226.959 460.768 235.551 452.295C236.656 453.732 238.786 453.247 239.848 451.869C238.985 468.639 236.786 485.357 234.248 501.952M218.891 599.29C218.628 599.514 218.939 599.322 219.188 599.696C219.44 602.103 218.027 604.55 217.553 606.912C215.982 610.387 216.134 618.424 211.496 618.548C185.875 623.005 159.989 619.208 134.919 613.476C135.245 608.39 136.821 603.149 135.793 598.112C136.212 597.735 136.657 597.472 137.153 597.37C137.013 598.082 137.109 598.956 137.655 599.309C159.105 608.73 190.18 610.677 212.443 601.92C214.784 602.661 216.533 599.645 214.699 597.981C215.009 597.939 215.307 597.831 215.559 597.639C215.195 599.229 217.524 600.458 218.891 599.29M147.563 619.588C148.216 619.761 148.872 619.921 149.528 620.077C149.024 621.28 149.751 623.017 149.553 624.369C149.092 622.692 148.443 621.072 147.563 619.588M109.285 605.792C108.265 608.719 106.645 611.974 103.224 612.439C102.424 612.116 101.503 612.173 100.901 612.723C78.6028 612.422 51.3193 605.7 34.3404 591.019C34.1362 589.01 35.0917 586.989 35.2914 584.989C35.5717 584.198 35.893 579.21 36.9554 580.135C36.1455 582.119 35.446 585.03 38.5362 584.736C60.3983 597.348 86.2329 602.152 111.282 601.363C110.485 602.762 109.883 604.279 109.285 605.792M62.9617 689.162C61.0436 696.036 58.9915 702.877 56.7985 709.668C54.6887 719.739 49.61 721.091 42.0622 714.493C36.6004 711.186 38.9038 705.247 39.73 700.128C40.7505 693.837 42.0753 687.591 43.0289 681.29C49.0449 685.748 56.6193 687.936 64.0625 686.961C63.4673 687.536 63.2081 688.279 62.9617 689.162M52.9075 721.412C52.8403 721.392 52.7699 721.37 52.7027 721.348C52.7795 721.322 52.8531 721.293 52.9267 721.268C52.9203 721.316 52.9139 721.363 52.9075 721.412M48.9748 734.375C46.5949 755.548 39.7197 775.889 35.0106 796.612C34.4788 800.905 31.1981 802.473 27.2433 801.113C25.618 800.692 23.1316 800.09 21.9412 798.813C20.5844 797.354 21.506 794.509 21.8068 792.807C23.6756 782.279 25.7748 771.796 27.9252 761.319C30.4858 749.937 32.5671 738.329 35.3652 727.076C39.4202 730.515 44.5853 732.933 50.002 733.034C49.4772 733.226 49.0388 733.674 48.9748 734.375M34.0754 810.045C33.7554 810.116 33.4354 810.173 33.1122 810.225C33.5986 808.682 34.0639 806.536 33.1986 805.098C33.397 805.028 33.589 804.951 33.7746 804.865C34.0594 806.602 34.2578 808.269 34.0754 810.045M31.3169 853.699C36.4737 857.047 39.4839 862.682 42.1233 868.058C43.8193 871.508 45.2017 875.671 47.7969 878.612C48.8721 881.508 49.9537 884.401 50.9841 887.312C54.0676 896.894 57.9153 907.059 57.5441 917.165C57.5473 917.156 57.5473 917.143 57.5537 917.127C57.5188 917.38 57.433 917.625 57.3745 917.872C57.6081 917.71 57.8781 917.553 57.5121 917.821C57.4785 917.793 57.3757 917.887 57.3713 917.879C57.3713 917.885 57.3681 917.892 57.3681 917.898C57.3905 917.879 57.4129 917.863 57.4417 917.843C57.4173 917.861 57.3869 917.892 57.3617 917.914C57.3617 917.921 57.3585 917.93 57.3553 917.939C57.3361 917.957 57.1943 918.061 57.2241 918.023C56.8881 918.176 56.6129 918.388 56.3569 918.643C36.5978 922.928 14.7834 923.69 -3.48634 913.876C-10.5065 899.588 -3.3049 875.714 -0.423943 860.327C8.77382 855.083 20.8177 848.429 31.3169 853.699M39.2719 848.026C40.0175 851.316 40.5199 854.637 41.2079 857.927C39.1874 855.743 38.1468 853.002 36.383 850.695C35.2966 848.416 34.1311 845.139 31.4287 844.717C31.3548 842.868 31.3039 841.018 31.2783 839.168C35.8735 839.738 38.2959 843.696 39.2719 848.026M64.3057 920.17C64.2513 919.268 63.7777 918.372 63.0033 917.879C63.1809 914.695 62.6369 911.603 62.1393 908.465C65.4843 912.037 64.06 917.761 64.6068 922.24C64.5633 924.023 65.4276 926.293 63.3553 927.213C56.8849 931.687 49.0417 933.773 41.3105 934.672C24.4436 936.604 6.9086 933.503 -8.16148 925.661C-10.1781 922.929 -9.47188 916.286 -9.74228 912.788C-8.78868 915.91 -7.11572 918.687 -3.80596 919.664C16.6961 929.535 40.8251 928.347 62.3921 922.791C63.8052 922.411 64.3736 921.31 64.3057 920.17M10.1777 851.092C10.2961 850.948 10.4081 850.804 10.5233 850.656C11.2433 850.621 11.9633 850.558 12.6833 850.478C11.6062 850.908 10.546 851.375 9.51212 851.898C9.73612 851.632 9.96012 851.364 10.1777 851.092M18.9108 834.695C20.6685 827.279 21.3008 819.65 22.194 812.09C24.7805 813.008 27.3732 813.64 30.0916 813.712C26.761 823.805 26.9325 834.854 27.0228 845.392C22.9354 846.086 18.5335 846.474 14.5268 845.108C16.5364 841.889 17.9796 838.388 18.9108 834.695M46.4851 523.284C44.2419 523.06 42.0115 523.216 39.7907 523.536C26.6464 514.604 24.5741 477.969 22.5107 462.503C31.9168 464.907 41.8794 464.259 51.0099 461.095C51.1821 462.781 53.1063 463.649 54.2771 462.512C60.4688 473.534 69.7338 482.36 79.2915 490.25C79.1795 489.882 79.0995 490.557 79.2403 490.301C78.0231 493.092 73.553 491.644 71.4387 493.588C70.0819 494.599 69.7971 496.369 70.6611 497.549C68.3741 503.869 72.0099 511.586 68.5875 517.581C67.8186 518.474 66.8179 519.116 66.1555 520.119C61.6007 516.998 57.4499 523.599 52.8371 523.889C52.8691 523.889 52.9011 523.889 52.9363 523.885C52.2263 523.964 51.0867 523.925 50.4627 523.837C49.1395 523.632 47.8199 523.417 46.4851 523.284M54.9585 302.449C55.9249 296.148 57.0513 289.885 58.5137 283.684C60.2769 283.991 60.6705 288.029 60.8945 289.22C68.443 323.376 65.1745 358.527 61.9406 393.002C61.1569 402.247 60.5105 411.508 60.0049 420.775C59.3521 425.037 64.2533 426.483 66.8689 428.816C63.2305 440.532 56.9521 451.866 57.6945 464.343C56.7185 463.447 55.7521 462.541 54.7921 461.629C55.0353 460.845 55.2433 460.061 55.4193 459.271C56.6142 458.649 56.9934 456.932 55.9697 456.026C56.363 404.938 46.7765 353.414 54.9585 302.449M150.357 203.002C152.171 199.774 156.976 203.966 153.957 206.311C151.857 208.012 148.945 205.218 150.357 203.002M157.643 236.999C159.114 234.295 163.89 235.637 162.997 238.842C163.009 238.704 163.019 238.596 163.029 238.512C163.156 241.122 158.096 243.24 157.745 239.904C157.195 239.037 157.064 237.901 157.643 236.999M164.389 273.722C168.031 272.288 169.373 277.67 166.287 279.105C162.968 280.283 161.14 274.91 164.389 273.722M168.638 313.149C169.537 310.104 174.133 310.909 174.1 314.039C173.984 318.266 167.728 316.99 168.638 313.149M176.171 351.396C177.449 347.571 182.358 349.55 181.947 353.255C182.483 355.395 178.336 359.712 177.496 356.215C176.376 354.865 175.848 353.13 176.171 351.396M183.883 395.508C183.893 395.495 183.903 395.482 183.912 395.469C186.643 396.755 184.28 402.607 181.647 400.458C179.092 398.899 180.86 393.954 183.883 395.508M187.477 431.319C190.663 434.451 185.736 439.409 182.593 436.202C179.404 433.076 184.328 428.117 187.477 431.319M264.91 455.511C264.952 455.603 264.997 455.696 265.048 455.783C264.965 455.712 264.881 455.642 264.798 455.572C264.833 455.552 264.872 455.533 264.91 455.511M145.477 828.669C145.597 830.989 145.77 833.329 146.328 835.575C147.987 844.707 159.716 855.668 169.368 849.108C173.797 845.991 175.736 839.959 181.016 838.004C186.549 835.952 192.607 837.972 197.263 841.143C202.651 844.813 206.85 850.042 211.439 854.609C221.198 864.324 232.021 872.974 243.608 880.413C249.672 884.179 262.37 889.825 257.343 898.641C253.497 904.222 243.818 901.561 242.152 904.711C220.682 905.595 199.673 899.722 179.263 893.71C168.901 890.323 158.06 888.348 148.015 884.045C138.388 875.614 138.356 857.06 139.682 845.169C140.114 842.569 141.187 830.204 145.237 832.406C146.44 832.538 144.693 831.208 144.264 831.37C144.828 830.569 145.291 829.644 145.477 828.669M262.309 898.052C262.447 898.119 262.591 898.151 262.738 898.154C263.161 899.236 262.953 903.642 262.873 904.401C261.571 911.031 251.131 912.132 245.596 913.134C226.149 916.199 206.37 914.056 187.397 909.168C178.137 906.874 168.927 904.221 159.938 901.025C151.947 898.593 142.08 894.557 143.061 884.426C147.525 890.436 161.742 892.21 168.895 894.696C191.343 901.515 214.119 908.85 237.81 909.085C241.399 908.931 246.359 909.934 249.052 907.229C254.761 906.413 260.684 903.252 262.309 898.052M267.474 382.708C262.274 362.216 253.907 342.713 245.762 323.271C236.959 297.456 234.379 270.114 231.234 243.175C229.504 227.976 227.634 212.798 224.133 197.885C221.158 170.086 192.926 167.055 170.786 162.746C170.817 160.372 171.547 157.672 169.166 156.154C166.981 153.934 155.314 147.035 153.01 149.956C152.105 147.755 151.662 145.313 151.234 142.963C150.946 142.036 150.827 138.839 149.82 138.864C149.604 145.123 146.949 154.285 152.277 158.986C149.079 163.861 146.412 169.767 142.197 173.649C142.2 173.645 142.203 173.642 142.207 173.639C141.995 173.776 141.781 173.901 141.56 174.019C141.611 173.978 141.307 174.09 141.058 174.17C140.485 174.279 139.538 174.069 138.952 173.805H138.959C124.443 165.555 110.242 156.72 96.1906 147.671C98.1993 144.699 100.798 130.137 98.3061 128.119C96.5634 133.864 94.749 139.628 92.1042 145.034C89.813 143.783 86.1055 141.534 84.1746 144.474C81.7394 148.558 81.0441 154.48 83.9666 158.541C71.4057 163.491 57.8604 165.224 44.8914 169.092C39.2402 170.541 33.2562 171.619 27.9538 174.132C12.1532 182.898 12.1404 204.498 10.4073 220.406C5.96055 297.842 -8.14409 377.893 13.9436 453.857C14.7922 456.189 16.0466 458.429 17.0226 460.723C17.4098 461.632 18.4146 461.603 19.077 461.111C19.8258 461.556 20.6482 461.911 21.509 462.199C20.0633 481.949 18.1029 518.029 37.1657 529.806C40.4985 531.003 43.6434 529.299 47.1026 530.116C47.5634 547.028 42.1938 563.271 37.2178 579.293C33.5577 576.457 32.1548 584.992 31.0482 587.19C27.3311 595.065 37.2549 598.588 42.4594 601.991C34.7004 626.424 18.6351 660.26 42.1938 680.647C39.6943 686.801 38.4114 693.53 36.9746 700.019C36.2031 704.256 34.1778 709.458 36.7346 713.389C36.0428 712.932 35.3893 712.393 34.6834 711.959C37.7561 711.913 33.2117 709.67 31.3781 711.345C26.2581 715.158 30.0508 722.145 33.8834 725.729C32.3922 726.842 31.877 729.921 31.4354 731.383C29.6242 737.386 28.037 743.463 26.5682 749.559C22.9935 764.7 19.6761 779.923 17.1855 795.277C17.0162 796.781 17.1154 798.311 17.6498 799.665C15.7225 799.749 14.5647 801.59 13.9509 803.197C13.0812 806.798 17.693 810.339 20.8274 811.559C17.5241 822.522 17.2274 834.723 10.229 844.241C9.47703 843.511 8.19063 843.379 7.54743 844.592C6.84503 846.603 2.52759 852.069 4.14583 853.706C4.20023 854.099 4.40183 854.487 4.70263 854.733C3.15703 855.777 1.68183 856.886 0.21303 858.049C2.17719 852.425 3.80759 845.862 8.03031 841.529C9.14423 840.893 10.5682 841.108 11.4578 840.049C12.1074 839.274 12.1394 838.349 11.4898 837.591C11.1826 837.229 10.4754 837.613 10.6642 838.071C11.2018 839.363 7.89303 839.136 7.13143 839.399C-0.297691 844.015 -2.96393 854.506 -5.37161 862.461C-8.26313 876.433 -12.3108 890.674 -11.4164 905.047C-12.3777 910.073 -13.7617 923.888 -10.8468 927.687C4.53687 936.854 23.6226 939.545 41.3106 937.78C49.1954 936.638 69.8969 934.138 68.4181 923.194C67.9225 917.015 69.3506 908.762 63.3013 904.906C62.6066 904.499 61.9378 904.612 61.445 904.976C57.7471 888.425 49.7125 873.547 44.8914 857.399C42.8697 849.99 41.4066 837.296 31.2626 837.85C30.9366 829.866 31.6271 821.68 30.5234 813.773C30.5234 813.776 30.5234 813.776 30.5202 813.776C30.5138 813.757 30.5042 813.738 30.4946 813.722C32.5785 813.469 36.0821 814.026 37.1861 811.847C37.7513 808.782 38.0284 805.181 36.7634 802.25C40.565 793.851 41.3625 784.107 43.9449 775.239C47.1538 761.745 50.853 748.241 52.005 734.375C52.0658 733.636 51.669 733.178 51.141 733.005C51.9641 732.99 52.838 732.785 53.4674 732.429C59.1477 732.102 62.3893 722.011 57.2786 718.887C57.3234 718.452 57.2658 718.071 57.1346 717.754C60.5909 711.151 61.7849 703.935 64.2137 697.028C64.6726 693.954 67.6953 689.411 65.9474 686.647C92.1804 679.833 98.4393 639.604 104.427 616.855C113.076 615.165 112.257 606.931 116.952 601.59C117.775 600.794 117.813 599.837 117.426 599.066C125.727 582.064 130.962 562.774 138.386 545.082C139.388 562.232 139.05 579.465 137.237 596.551C131.754 595.279 131.733 602.852 130.968 606.487C130.571 608.746 130.175 611.002 129.778 613.261C129.195 616.586 133.471 617.536 134.616 614.906C138.04 616.599 141.605 617.895 145.253 618.951C146.024 622.573 146.773 626.145 146.802 629.885C147.03 634.168 144.661 638.458 145.461 642.602C140.18 655.199 131.897 666.007 128.079 679.133C115.46 725.068 141.207 769.8 144.331 815.379C143.015 809.633 143.782 823.669 143.836 824.829C143.977 834.186 135.785 829.851 136.099 850.324C135.52 860.069 136.075 870.049 140.06 879.088C140.943 881.869 139.428 884.638 140.073 887.492C140.705 892.661 144.936 900.494 150.856 899.712C184.634 912.502 223.766 924.101 259.295 912.191C261.765 910.961 264.341 909.37 265.227 906.609C265.985 904.144 267.006 894.814 262.738 895.536C262.829 887.049 254.766 881.923 248.264 878.097C239.174 872.384 230.498 866.019 222.485 858.865C210.336 849.112 200.323 830.274 182.367 833.188C180.028 820.37 182.478 807.299 182.459 794.362C183.629 737.309 194.852 681.376 203.344 625.169C203.419 624.682 202.754 624.477 202.591 624.963C184.303 677.71 179.662 734.303 176.225 789.706C175.089 804.6 176.371 819.424 179.423 834.032C171.389 836.242 170.146 848.753 160.764 847.55C155.78 846.504 151.316 842.569 149.314 837.936C151.446 834.47 149.938 829.624 149.852 825.684C149.522 821.863 149.135 818.045 148.683 814.234C145.573 770.456 121.586 728.103 131.047 683.837C135.569 662.065 157.033 643.801 150.271 620.253C169.544 624.686 189.629 625.566 209.231 622.957C216.345 622.736 218.618 619.731 220.11 613.101C221.185 608.683 223.381 604.344 223.417 599.757C223.099 596.192 218.808 593.703 216.242 596.516C223.935 568.735 230.42 540.746 236.226 512.525C254.982 520.571 262.369 497.419 265.819 483.475C267.482 475.125 271.062 464.848 266.277 457.037C280.272 462.616 270.968 390.286 267.474 382.708" fill="black"/>
<path fill-rule="evenodd" clip-rule="evenodd" d="M128.213 11.083C146.383 11.083 169.836 22.4807 171.837 34.1541C174.193 47.9109 186.815 100.697 183.965 117.625C181.115 134.553 165.757 146.739 141.181 146.739C116.605 146.739 98.2625 133.337 94.0509 128.735C89.8392 124.133 82.034 107.704 82.034 107.704C82.034 107.704 68.8758 105.954 68.8134 95.2284C68.751 84.5024 77.3684 80.5999 77.3684 80.5999C77.3684 80.5999 74.2959 38.2706 82.034 27.25C89.7722 16.2295 110.043 11.083 128.213 11.083Z" fill="white"/>
<path fill-rule="evenodd" clip-rule="evenodd" d="M170.723 32.2706C170.71 32.0245 171.069 31.9957 171.136 32.2133C175.056 45.1637 177.472 55.2562 180.016 68.5333L180.767 72.439C182.775 82.856 184.803 93.2882 186.515 103.756L186.616 104.381C187.474 109.799 187.968 115.27 186.893 120.7C185.888 125.775 183.143 130.428 179.578 134.133C172.688 141.295 163.113 145.769 153.482 147.769C148.611 148.78 143.587 149.17 138.624 148.818C136.15 148.645 133.68 148.296 131.258 147.781L130.99 147.724C128.549 147.197 126.381 146.568 125.085 144.271C124.759 143.692 124.89 142.7 125.575 142.402C126.867 141.845 127.818 141.612 129.229 141.772C130.576 141.925 131.891 142.332 133.223 142.585C135.767 143.068 138.352 143.311 140.941 143.369C146.026 143.481 151.123 142.844 155.984 141.327C164.336 138.719 172.823 133.73 177.703 126.268C183.443 117.489 181.157 106.835 179.636 97.1404L179.59 96.8469C178.05 86.9377 176.528 77.0285 175.05 67.1129L174.419 62.8629C172.762 51.6341 171.197 43.6181 170.723 32.2706ZM85.9266 4.78608C90.0951 2.03861 95.2749 1.36348 100.171 1.40139L100.784 1.40912C107.053 1.50467 138.611 2.25566 149.176 2.48674L151.69 2.53968C155.017 2.60245 161.726 2.66799 165.183 2.73117L165.383 2.73488C167.079 2.76688 168.775 2.77968 170.471 2.83408L170.719 2.84304C171.99 2.89728 173.047 3.08738 174.042 3.98288C174.548 4.43675 174.745 5.12896 174.699 5.78829L174.691 5.87408L177.21 6.09488C178.92 6.24605 179.824 7.77977 179.145 9.33178L179.111 9.40688C177.904 11.9797 176.983 19.4677 176.336 22.2357C175.997 23.6917 175.725 25.1701 175.565 26.6581C175.437 27.8296 175.424 29.0037 174.771 30.0341C173.379 32.2325 169.389 32.9935 169.319 29.8799C169.315 29.7807 169.149 29.6527 169.159 29.5599C162.759 33.0799 147.162 35.4613 137.319 36.0501C128.125 36.6005 117.901 30.8085 108.893 32.7189C106.611 33.2021 104.336 33.7301 102.077 34.3029C100.224 34.7701 100.48 34.7983 98.8226 35.7999C96.9666 36.9263 96.637 39.7967 96.8386 41.7199C97.055 43.7583 96.6473 42.5823 97.1586 44.4399L96.9986 44.9199C97.5266 46.9359 96.973 48.0917 97.837 49.9861C98.3298 51.0677 99.1237 52.1077 98.8226 53.3525C98.653 54.0533 98.0991 54.8021 97.5906 55.2917C95.2735 57.5157 91.357 56.0981 89.7826 59.1445C88.1349 62.33 88.094 66.6452 87.9542 70.1701L87.9458 70.3765C87.8437 72.8053 87.8722 75.2405 88.0322 77.6629C88.1762 79.8706 88.7647 82.0565 88.0098 84.1781C87.4591 85.7205 85.661 85.8645 84.7202 84.6101C84.6122 84.4661 84.5132 84.3185 84.4205 84.17L84.3298 84.0213L84.3237 84.0245C84.413 84.1653 84.4962 84.3096 84.5762 84.4565C84.6626 84.6197 84.4482 84.7989 84.317 84.6581C82.1026 82.2485 78.8674 82.7285 76.3618 84.4149C73.8242 86.1301 72.8226 89.3877 72.6914 92.3096C72.5442 95.5505 72.8322 99.3496 74.1826 102.344C74.7522 103.612 75.5647 104.776 76.9122 105.26C77.5237 105.477 78.1058 105.448 78.7426 105.5C79.4047 105.551 80.2018 105.884 80.8447 105.839C81.6805 105.779 82.4309 106.734 82.1935 107.533L82.1762 107.586C82.1637 107.624 82.1506 107.663 82.1381 107.698C82.1698 107.727 82.2018 107.762 82.2242 107.813C84.6562 112.783 87.9906 117.205 91.677 121.308C93.5237 123.359 95.5714 125.244 97.7122 126.988C98.7682 127.848 99.8818 128.71 101.056 129.404C101.447 129.631 101.805 129.784 102.244 129.91C102.448 129.967 102.682 129.996 102.88 130.063L103.086 130.133C103.1 130.138 103.114 130.142 103.127 130.146C103.715 130.213 104.211 130.604 104.407 131.215C104.915 132.808 103.991 134.216 102.41 134.655C100.697 135.134 99.0831 134.293 97.7255 133.327L97.6354 133.263C94.8674 131.27 92.317 129.032 90.109 126.421C85.741 121.266 83.0047 115.298 81.7381 108.696C81.4242 109.372 81.0018 109.96 80.269 110.37C79.1298 111.01 77.7698 111.01 76.5218 110.796C74.0098 110.37 71.869 108.837 70.4386 106.764C68.9535 104.613 68.4002 102.002 68.0642 99.4581C67.7314 96.9106 67.5682 94.3541 67.901 91.8005C68.3781 88.1333 69.917 84.5077 72.909 82.4981C70.669 77.6181 70.2754 72.1461 70.4354 66.8021C70.6306 60.2229 71.7666 53.5701 72.6402 47.0517L75.1237 28.5205L75.2253 27.7734C75.8247 23.4139 76.5543 19.0314 78.1858 14.9237C79.7954 10.8757 82.2402 7.21488 85.9266 4.78608ZM75.4756 92.4533C79.578 90.4629 84.01 92.2965 86.218 96.1589C88.1378 99.517 82.4298 101.737 81.4774 98.2751L81.45 98.1685C80.8228 95.5477 78.2689 93.2821 75.6036 92.9301C75.3828 92.8984 75.2193 92.5784 75.4756 92.4533Z" fill="black"/>
<path fill-rule="evenodd" clip-rule="evenodd" d="M182.7 77.1819C179.882 94.0799 160.215 95.9487 156.721 79.1731C157.282 78.9553 157.685 78.5267 157.601 77.6945C157.581 74.0386 158.861 70.1747 162.58 68.1417C166.423 66.0439 170.921 65.8358 175.369 65.8887C183.857 65.7095 183.678 72 182.7 77.1819M153.642 69.8328C150.978 69.7332 147.608 69.8166 145.222 71.2556C144.566 69.6892 142.861 68.0167 141.139 67.1224C147.54 67.2885 154.13 66.7299 160.579 66.2962C159.035 67.2293 157.599 68.6311 156.665 70.2518C155.799 69.8422 154.559 69.8805 153.642 69.8328M141.9 78.9734C134.514 101.517 116.077 91.6913 114.067 88.8021C110.441 84.0212 109.759 72.3991 112.917 69.2917C117.438 66.4817 123.838 67.2049 129.178 67.136C138.99 67.2534 145.958 69.8559 141.9 78.9734M191.421 68.6047C189.414 68.372 187.27 68.3251 185.404 69.1086C184.83 66.9434 183.026 65.1333 180.99 64.3368C180.743 64.0627 180.78 63.9154 179.938 63.9566C174.768 62.5788 168.983 63.3078 164.015 64.7206C156.169 65.3065 147.937 65.7685 140.024 66.5758C132.612 63.6243 110.244 63.1917 108.854 70.4664C107.106 70.2345 104.128 69.0143 102.659 70.6695C91.881 69.0494 80.7447 71.301 69.9204 72.3038C67.1958 72.7487 65.7924 77.5433 68.8852 77.4778C70.624 77.0593 68.8318 74.4922 71.1731 74.2991C81.6167 73.2877 91.8319 71.8528 102.383 71.6849C102.015 73.3003 109.361 73.4053 109.469 72.462C109.485 72.4691 109.501 72.4738 109.517 72.4801C107.702 78.478 109.341 87.1097 112.621 90.829C117.217 95.699 128.755 97.0962 133.871 93.9628C140.471 91.0708 147.336 76.5539 145.408 71.731C148.908 70.7473 152.368 71.0426 156 71.5436C155.169 73.6265 153.733 78.7539 155.798 79.1985C155.419 89.3784 165.868 95.7302 175.499 91.5542C183.836 88.0842 186.752 77.1005 185.731 70.4337C186.769 72.2118 195.483 70.2759 191.421 68.6047" fill="black"/>
<path fill-rule="evenodd" clip-rule="evenodd" d="M153.101 90.4779C155.517 91.9468 159.199 95.3718 156.599 99.0131C153.54 102.224 149.134 98.5425 146.963 96.8776C144.95 95.5873 142.688 98.9059 144.556 100.413C160.244 112.027 166.61 90.862 154.323 88.751C152.97 88.5184 152.468 90.0236 153.101 90.4779ZM127.297 76.9014C129.659 76.4825 132.078 77.0697 134.032 78.4514L134.18 78.558C136.063 79.9349 138.169 82.3526 137.089 84.726C136.655 85.679 135.357 85.8284 134.533 85.3964C133.161 84.677 132.912 82.9071 131.688 81.9276C130.685 81.1247 129.333 80.6377 128.04 80.7551C125.003 81.031 123.135 84.0265 122.191 86.6079C122.071 86.9382 121.586 87.0665 121.397 86.7119C119.172 82.5545 123.11 77.6444 127.297 76.9014ZM165.125 75.3323C169.648 74.9595 174.943 79.6494 173.752 84.4245C173.181 86.7157 169.782 86.6501 169.178 84.4245C168.846 83.1998 168.879 82.1163 167.998 81.0993C167.27 80.2597 166.236 79.772 165.125 79.8469C163.9 79.9294 162.77 80.5416 161.911 81.4021C161.136 82.179 160.672 83.316 159.869 84.0037C159.671 84.1726 159.406 84.1835 159.211 84.0037C157.829 82.7291 158.659 80.0757 159.535 78.7451C160.79 76.8411 162.832 75.5214 165.125 75.3323ZM118.683 68.4325C121.585 65.8635 126.858 63.3825 130.771 64.6469C133.021 65.3736 134.002 68.9989 131.49 70.148C128.582 71.4785 125.229 70.9371 122.268 72.3163C121.025 72.8958 119.856 73.62 118.99 74.6821C118.308 75.5192 117.614 76.6206 116.628 77.1032C116.369 77.2302 116.018 77.2334 115.81 76.9979C113.648 74.5525 116.795 70.1032 118.683 68.4325ZM160.136 64.5194C161.93 64.016 163.92 64.0262 165.742 64.3424C167.563 64.6586 169.413 65.4134 170.9 66.5146L171.072 66.6435C172.696 67.8668 174.633 69.6467 174.529 71.8138C174.442 73.6234 172.539 74.8474 170.895 73.8989C169.555 73.1254 168.925 71.576 167.791 70.5443C166.855 69.6928 165.755 69.0214 164.582 68.551C163.279 68.0285 161.974 67.7837 160.575 67.7603C159.498 67.7424 158.415 68.0957 157.359 68.2086C157.446 68.3872 156.61 68.304 156.132 68.1456C155.777 67.9946 155.775 67.5462 155.898 67.2554C156.508 65.8144 158.726 64.9149 160.136 64.5194Z" fill="black"/>
<path fill-rule="evenodd" clip-rule="evenodd" d="M123.631 125.302C126.222 119.232 126.328 115.031 132.839 113.4C137.62 112.205 144.765 109.886 149.639 110.36C152.192 110.607 158.35 112.907 160.757 113.855C162.812 114.665 164.486 116.197 165.745 117.994C167.244 120.124 168.763 121.461 169.479 123.96C169.978 123.499 169.177 125.774 169.266 126.133C168.955 128.019 168.294 129.623 166.548 130.808C164.844 131.966 162.81 132.439 160.784 132.607C160.585 132.512 160.393 132.414 160.217 132.313C157.058 130.505 154.835 126.233 150.849 126.811C147.292 127.327 144.95 131.803 142.834 134.428C136.043 135.22 129.257 133.179 123.732 129.296C123.451 127.967 123.435 126.626 123.631 125.302ZM171.398 126.2C170.855 124.675 170.13 114.951 169.318 113.56C166.637 108.96 165.045 108.041 160.159 105.946C148.6 100.996 133.644 104.485 124.309 112.602C120.358 116.037 123.398 129.24 122.598 127.64C121.236 127.119 118.185 128.707 117.958 128.92C120.428 129.416 109.478 140.12 95.0784 115C92.9984 112.602 90.3124 100.708 88.6314 95.147C88.494 94.6892 87.7558 94.7561 87.7782 95.2626C87.7845 95.3811 87.7909 95.4993 87.7973 95.6179C87.727 95.4 87.3947 95.5122 87.3691 95.7236C86.4647 102.48 85.3334 109.642 86.3752 116.434C86.9984 120.486 88.8391 123.453 91.2999 126.656C93.9364 130.09 97.7865 133.377 100.838 136.44C101.158 136.761 103.427 137.666 105.798 139.092C108.556 140.748 111.655 142.027 114.598 143.304C117.593 144.608 121.212 145.534 124.309 146.578C130.499 148.673 136.852 146.847 143.362 147.482C148.574 147.988 154.531 148.539 159.526 146.578C163.355 145.076 166.445 142.36 168.896 139.092C171.564 135.533 173.674 137.879 174.84 133.604C176.052 129.163 171.654 126.916 171.398 126.2Z" fill="black"/>
<ellipse cx="118.119" cy="127.16" rx="12.32" ry="5.44" transform="rotate(2.9194 118.119 127.16)" fill="white"/>
<ellipse cx="170.185" cy="126.491" rx="11.4237" ry="5.44" transform="rotate(-32.2373 170.185 126.491)" fill="white"/>
<path d="M140.359 118.2C140.784 118.326 141.166 118.787 141.581 118.997C143.638 120.04 146.004 119.795 148.121 119.723C149.993 119.659 151.862 119.457 153.7 118.855C154.064 118.736 154.591 118.75 154.759 118.2" stroke="black" stroke-width="4.8" stroke-linecap="round"/>
</g>
<defs>
<clipPath id="clip0_206_222">
<rect width="250" height="250" fill="white"/>
</clipPath>
</defs>
</svg>
