<svg width="334" height="334" viewBox="0 0 334 334" fill="none" xmlns="http://www.w3.org/2000/svg">
<g clip-path="url(#clip0_184_58)">
<path fill-rule="evenodd" clip-rule="evenodd" d="M247.265 117.862C244.794 102.912 252.904 99.8101 247.265 85.599C234.733 59.2671 200.579 60.4017 175.517 58.3771C147.563 57.3057 119.27 60.9961 93.4996 72.2C87.3441 74.8758 81.4235 78.0229 75.7479 81.5983C70.8404 84.6905 71.515 90.5695 74.6094 93.7766C52.2958 125.375 65.058 167.788 47.2539 201.049C43.9649 206.994 39.6148 212.326 36.7559 218.512C32.4103 227.915 32.1319 241.389 41.9867 247.634C55.8663 255.084 63.6116 240.334 70.4315 261.715C104.491 336.269 172.97 340.468 237.979 301.598C243.603 298.47 249.343 294.934 253.591 290.019C263.231 279.17 262.095 263.914 262.309 250.366C262.428 242.427 262.447 234.486 262.37 226.545C262.067 194.38 251.406 149.762 247.265 117.862Z" fill="white"/>
<path fill-rule="evenodd" clip-rule="evenodd" d="M108.803 28.445C148.054 10.6402 192.573 3.88815 235.389 8.31695C256.522 10.4995 277.377 15.1819 297.224 22.7881L298.964 23.4604C303.863 25.3461 309.144 27.2178 312.867 31.0562C317.201 35.517 318.416 42.2626 315.318 47.773C312.912 52.0546 308.586 55.1259 303.971 56.765C305.597 58.0962 307.139 59.581 308.586 61.2386C311.024 64.0162 311.21 67.9771 308.586 70.717C303.53 75.997 296.97 79.8171 289.904 81.6482C290.698 85.4818 290.269 89.725 288.566 93.5458C283.681 104.513 269.921 105.82 259.331 105.169L259.011 105.149L258.422 111.888C258.109 115.479 255.958 118.263 252.31 118.813C252.182 118.832 252.054 118.845 251.926 118.857C257.699 139.735 261.187 161.257 264.406 182.653C266.088 193.822 267.594 205.016 269.035 216.218L269.514 219.952C271.05 232.029 272.97 244.227 273.635 256.394C274.23 267.434 272.125 277.975 265.322 286.883C259.216 294.871 250.89 300.855 241.936 305.296C221.706 315.337 200.413 322.813 178.038 326.282L176.546 326.511C167.91 327.83 159.011 328.941 150.467 326.551C142.961 324.451 135.088 319.037 136.784 310.339C137.354 307.402 141.462 307.274 142.87 309.546L143.195 310.066C144.884 312.745 146.734 315.235 149.681 316.617C153.13 318.243 157.13 318.697 160.899 318.743C171.427 318.864 182.39 316.24 192.528 313.61C211.459 308.695 230.902 300.682 246.41 288.541C253.008 283.383 258.307 276.931 260.176 268.631C262.486 258.397 260.362 247.21 259.312 236.925C257.152 215.703 254.581 194.52 251.869 173.361L251.325 169.13C249.041 151.44 246.641 133.744 245.501 115.952C245.027 115.306 244.707 114.57 244.579 113.763L244.401 112.605V112.605C244.246 111.613 244.221 110.704 244.33 109.866C244.336 106.653 244.426 103.459 244.611 100.246C244.643 99.6706 244.669 99.0946 244.688 98.525C241.347 99.261 237.981 99.8562 234.602 100.362C210.845 103.939 186.717 104.835 162.768 103.056C150.819 102.166 138.961 100.637 127.139 98.7234C121.123 97.7506 115.126 96.6754 109.149 95.4722C104.829 94.6082 100.598 93.437 96.3489 92.3362C91.9649 98.717 89.5969 106.57 90.0577 114.282C90.5761 123.082 96.4385 131.063 94.7937 140.055C93.25 148.47 86.0402 151.079 78.9221 153.163L75.8947 154.038C73.5656 154.718 71.8745 155.374 71.4529 158.173C70.7297 162.979 71.6193 168.387 71.8049 173.219C72.0289 178.935 72.3226 184.65 72.4577 190.365C72.5281 193.322 72.6426 196.291 72.6369 199.248C72.6305 201.347 72.3169 202.781 71.5041 204.137C72.1313 204.925 72.6938 205.776 73.1937 206.679C73.3537 206.973 72.9569 207.286 72.7207 207.043C72.0865 206.384 71.4138 205.789 70.7041 205.257C70.3457 205.699 69.9297 206.147 69.4426 206.627L69.4049 206.576V206.576C67.8817 208.093 65.4625 208.24 63.5738 206.627L63.0783 206.198C61.6959 204.986 60.7461 203.977 60.3617 201.975C60.3425 201.872 60.3226 201.77 60.3105 201.667C56.7969 201.546 53.2257 202.377 50.0641 204.125C45.0529 206.896 41.5265 210.845 39.4407 215.722C40.2721 216.695 41.2449 217.565 42.3777 218.295C42.5377 218.403 42.3969 218.64 42.2241 218.557C41.0657 218.013 40.0289 217.341 39.1009 216.554C38.3521 218.474 37.8273 220.535 37.5073 222.717C36.3809 230.423 38.3905 239.837 45.3537 244.227C48.3681 246.128 51.8113 247.159 55.3825 247.171C57.1226 247.177 58.6273 246.883 60.3169 246.467C61.4625 246.186 62.6017 245.776 63.7985 245.776C64.8225 245.776 65.7697 246.032 66.6465 246.544L66.4033 246.565C65.8123 246.621 65.926 246.646 66.7489 246.646C69.3089 246.755 70.7738 249.354 69.5969 251.613L69.4424 251.962C69.4099 252.033 69.3824 252.091 69.3607 252.137L69.2677 252.736C69.2584 252.793 69.2487 252.852 69.2385 252.912L69.2029 253.034C69.1965 253.053 69.1894 253.072 69.1809 253.091L73.0203 258.946C77.7276 266.109 82.54 273.244 88.0161 279.786C91.8561 284.375 95.9265 288.874 100.227 293.04C104.093 296.784 108.726 298.589 113.104 301.533C115.441 303.095 116.125 306.365 114.001 308.471C107.766 314.659 98.9409 309.744 93.8273 304.714C88.9889 299.946 84.8097 294.211 81.2065 288.471C74.8129 278.263 69.7249 267.408 67.4977 255.626C66.5697 256.477 65.3857 257.008 64.1889 257.424C61.7889 258.256 59.1457 258.602 56.6113 258.691C51.7537 258.851 46.8897 257.674 42.5185 255.587C24.7329 247.107 22.1217 221.712 32.9953 206.736C31.5291 202.484 30.7102 197.871 29.8205 193.937L29.4158 192.178C24.9187 172.535 21.9004 151.853 29.8721 132.605C30.8961 130.122 32.0481 127.703 33.4113 125.386C34.5057 123.523 36.3873 121.539 36.9057 119.421C38.0577 114.768 30.9473 109.879 28.8737 106.186C26.4353 101.853 26.0897 96.7394 29.4113 92.7771C29.8337 92.2786 30.2938 91.8171 30.7937 91.4146C27.6449 85.7058 27.4977 78.525 31.6449 72.893C34.3713 69.181 38.5313 66.5826 43.0753 65.7954C45.8529 65.3154 49.1937 65.4946 52.2465 66.3522C68.9626 50.8322 88.0353 37.8658 108.803 28.445ZM44.6109 222.64C49.0724 218.704 54.0004 216.643 60.0804 217.162C66.1924 217.686 73.5524 220.215 77.1421 225.456C79.978 229.597 74.1988 235.671 70.0388 232.56C66.25 229.725 63.7213 226.525 59.018 225.002C54.7933 223.639 49.5645 222.762 45.1421 223.543C44.6557 223.626 44.17 223.024 44.6109 222.64Z" fill="black"/>
<path fill-rule="evenodd" clip-rule="evenodd" d="M203.507 273.982C198.792 275.347 193.731 275.469 188.926 274.059C184.567 272.78 180.091 269.965 176.883 266.24C174.033 262.931 172.188 258.909 172.26 254.617C172.268 254.126 172.444 253.717 172.713 253.4C173.004 253.058 173.409 252.823 173.843 252.721C174.29 252.616 174.762 252.653 175.164 252.836C175.528 253.001 175.84 253.282 176.035 253.693C176.528 254.34 177.019 254.978 177.512 255.599C181.477 260.494 185.316 264.152 191.276 265.464C194.511 266.176 197.741 265.86 200.705 264.774C203.877 263.611 206.745 261.566 208.992 258.95C210.008 257.767 211.207 257.285 212.38 257.277C213.708 257.267 215.022 257.885 216.011 258.872C216.983 259.841 217.635 261.16 217.694 262.538C217.745 263.749 217.351 265.013 216.3 266.14C212.841 269.855 208.358 272.577 203.507 273.982ZM203.361 212.675C208.194 215.613 215.558 222.463 210.359 229.745C204.239 236.167 195.428 228.804 191.086 225.474C187.06 222.894 182.536 229.531 186.272 232.544C217.647 255.773 230.38 213.443 205.806 209.221C203.1 208.756 202.095 211.766 203.361 212.675ZM158.152 199.749C156.599 198.756 154.771 198.415 152.746 199.336C151.164 200.055 148.388 202.455 146.457 205.608C145.135 207.766 144.198 210.297 144.393 212.933C144.439 213.546 144.212 213.997 143.855 214.331C143.574 214.595 143.167 214.788 142.688 214.849C142.282 214.9 141.828 214.854 141.458 214.739C140.756 214.519 140.384 214.063 140.243 213.691C138.891 210.099 139.474 206.091 140.989 202.475C143.035 197.595 146.75 193.507 149.184 192.19C153.349 189.933 158.262 189.83 162.433 192.128C165.983 194.084 168.203 197.242 170.411 200.461C170.881 201.146 171.347 201.825 171.828 202.492C172.793 203.83 172.889 205.156 172.515 206.293C172.101 207.553 171.046 208.616 169.726 209.173C168.506 209.687 167.09 209.76 165.837 209.231C164.779 208.785 163.807 207.914 163.193 206.438C162.158 203.951 160.433 201.208 158.152 199.749V199.749ZM237.042 205.281C235.978 205.836 235.146 206.003 233.966 205.649C233.313 205.453 232.668 205.077 232.163 204.572C231.663 204.072 231.302 203.45 231.162 202.759C230.816 201.055 229.884 199.46 228.556 198.421C227.42 197.532 225.987 197.061 224.397 197.327C222.682 197.613 221.047 198.713 219.922 200.01C219.545 200.444 219.25 200.937 218.954 201.427C218.399 202.343 217.86 203.194 217.095 203.866C216.805 204.122 216.368 204.299 215.945 204.299C215.773 204.299 215.599 204.271 215.432 204.219C213.725 202.506 213.397 201.206 213.452 199.916C213.509 198.564 214.042 197.195 214.904 195.918C216.925 192.921 220.762 190.464 223.351 189.908C226.897 189.146 230.418 190.061 233.242 192.041C236.147 194.079 238.3 197.243 238.971 200.808C239.132 201.667 239.064 202.594 238.736 203.397C238.417 204.183 237.86 204.855 237.042 205.281ZM165.972 167.802C163.844 169.875 161.326 170.196 158.778 170.482C157.362 170.642 156.232 170.771 155.12 171.022C152.063 171.712 149.041 172.751 146.284 174.248C143.403 175.813 140.262 177.7 138.003 180.117C137.466 180.692 136.959 181.296 136.452 181.901C135.99 182.452 135.544 182.983 135.075 183.496C134.536 184.084 134.024 184.7 133.514 185.315C133.2 185.834 133.137 185.961 133.074 186.094C132.978 186.294 132.867 186.517 132.741 186.757C132.567 187.085 132.364 187.444 132.151 187.77C131.796 188.365 131.606 188.529 131.442 188.602C131.169 188.724 130.911 188.783 130.66 188.751C130.424 188.721 130.203 188.608 129.984 188.423C128.891 187.5 128.569 185.985 128.602 184.377C128.652 181.937 129.552 179.235 130.382 177.574C132.311 173.715 134.987 169.703 138.204 166.823C141.875 163.536 145.891 161.047 150.504 159.332C153.371 158.266 156.69 157.287 159.814 157.41C162.062 157.499 164.208 158.168 165.98 159.837C167.069 160.861 167.591 162.318 167.591 163.774C167.591 165.259 167.048 166.753 165.972 167.802ZM241.37 186.787C241.235 187.009 241.047 187.162 240.839 187.254C240.62 187.35 240.376 187.378 240.142 187.338C239.909 187.299 239.688 187.193 239.512 187.032C239.344 186.877 239.216 186.672 239.158 186.421C237.745 180.215 235.002 175.599 229.147 172.622C226.266 171.157 222.954 170.226 219.819 169.485C218.908 169.269 217.945 169.129 216.976 168.988C213.937 168.544 210.876 168.036 208.895 165.58C207.702 164.1 207.201 162.208 207.484 160.478C207.751 158.848 208.703 157.354 210.434 156.459C214.742 154.231 220.097 156.417 224.448 158.28C224.771 158.418 225.088 158.553 225.398 158.684C229.653 160.48 233.534 162.851 236.724 166.242C239.255 168.932 241.6 172.908 242.545 176.999C243.331 180.402 243.146 183.876 241.37 186.787Z" fill="black"/>
<path fill-rule="evenodd" clip-rule="evenodd" d="M243.038 154.2C258.06 154.2 266.632 157.43 269.774 157.682L269.868 157.689C271.175 157.772 272.347 157.882 273.577 158.357C278.099 160.099 278.835 164.841 276.196 167.83C276.011 174.015 276.825 181.242 275.429 187.446C273.707 213.604 261.406 218.018 254.414 219.629C250.903 220.438 246.742 220.76 243.013 219.906C236.652 219.669 230.363 217.677 224.982 214.21C217.488 209.376 211.922 201.947 210.116 193.131C209.26 188.929 208.86 184.554 209.326 180.283L209.395 179.694C206.959 178.529 204.136 178.309 201.226 178.206C199.836 178.156 198.466 178.112 197.135 178.171C195.835 178.316 194.549 178.51 193.26 178.773C191.852 179.198 190.522 179.899 189.294 181.01L189.21 182.63C188.979 186.679 188.448 190.74 187.628 194.712C186.417 200.573 184.47 206.17 180.326 210.328C178.923 212.423 177.188 214.293 175.08 215.912C167.426 221.806 157.026 223.97 147.481 223.155C128.104 221.501 116.904 206.119 114.322 199.544L114.168 199.146C112.304 194.258 110.818 187.916 104.926 186.865L103.672 186.64C100.984 186.136 98.5029 185.433 96.9264 182.81C96.2353 181.664 95.8798 180.384 95.7927 179.078C94.8729 179.149 93.9544 179.216 93.0392 179.282C85.7378 180.826 41.9441 182.135 38.4486 182.135C38.4486 182.135 31.7292 184.963 28.8923 182.772C26.9259 181.248 26.279 179.217 27.3615 176.917C28.9947 173.455 36.5298 171.373 39.8756 170.714C39.8756 170.714 93.869 171.162 97.7552 170.425C100.16 167.946 104.461 168.285 108.054 167.893C111.03 165.772 115.192 164.351 118.479 163.4C119.149 163.146 119.813 162.901 120.458 162.669C126.485 160.523 132.75 159.386 139.11 158.776C145.669 158.152 152.246 158.434 158.767 159.328C161.515 159.7 164.237 160.182 166.94 160.813C171.779 161.451 176.591 162.502 181.433 163.748L182.401 164C187.5 165.337 192.739 166.493 198.017 165.587C202.313 164.854 206.445 163.2 210.407 161.412L210.923 161.178C219.634 157.201 233.237 154.2 243.038 154.2ZM166.416 168.742C163.202 168.035 161.829 172.991 165.053 173.7C167.337 174.202 169.272 175.353 170.579 177.304L170.717 177.516C172.471 180.307 176.907 177.73 175.141 174.921C173.153 171.759 170.065 169.544 166.416 168.742ZM260.551 165.67C259.418 164.872 257.703 165.464 257.045 166.592C256.321 167.834 256.796 169.217 257.857 170.029L257.965 170.109C258.938 170.795 259.886 172.024 260.006 173.284L260.016 173.442C260.143 176.739 265.268 176.756 265.14 173.442C265.015 170.2 263.138 167.491 260.551 165.67Z" fill="black"/>
</g>
<defs>
<clipPath id="clip0_184_58">
<rect width="332.8" height="332.8" fill="white" transform="translate(0.600006 0.599976)"/>
</clipPath>
</defs>
</svg>
