<svg width="250" height="250" viewBox="0 0 250 250" fill="none" xmlns="http://www.w3.org/2000/svg">
<g clip-path="url(#clip0_189_111)">
<path fill-rule="evenodd" clip-rule="evenodd" d="M266.246 257.001C261.677 257.45 257.107 257.898 252.538 258.346C230.654 260.018 242.217 250.404 220.5 252.5C219.959 251.62 218.273 222.138 217.63 222.75C215.463 222.56 216.724 218.636 214.761 220.359C214.698 220.35 214.634 220.339 214.569 220.333C211.074 213.625 208.659 206.47 206.314 199.306C204.817 194.901 202.804 190.637 199.083 187.68C192.733 183.272 178.183 174.333 170.727 174.709C170.603 173.374 169.981 171.998 168.959 171.109C171.211 167.269 162.206 164.764 161.57 165.209C161.978 152.381 155.943 141.24 142.638 138.686C130.718 136.202 113.763 135.785 107.352 148.242C106.647 148.162 99.4439 148.125 98.7469 148.203C97.6632 146.831 85.7626 159.836 90.6402 164.364C47.033 183.654 22.2378 181.352 10.168 235.582C8.53631 240.677 8.41747 246.251 6.69445 251.232C0.564429 265.546 -4.40763 280.788 -5.64504 296.363C-8.63365 297.129 -8.97736 302.398 -5.51563 303.161C-4.19333 303.452 -3.08757 303.85 -2.1234 304.605C-2.87712 317.369 0.209832 346.525 2.15483 346.435C6.12076 359.057 23.8109 362.619 36.3349 358.184C34.1759 362.245 36.3349 364.799 36.3349 366.969C81.3995 368.674 130.673 367.692 175.725 370.031C181.488 369.949 187.55 371.446 193.234 370.584C196.7 369.753 196.706 364.303 193.19 363.629L208.554 360.292C208.211 360.162 214.887 355.721 219.933 347.423C224.63 338.139 221.433 326.934 223.562 316.836C240.184 315.476 257.081 314.895 273.521 312.08C275.763 318.787 285.466 310.766 288.551 307.539C288.547 307.534 288.543 307.53 288.539 307.524C290.032 307.116 291.229 305.717 291.269 304.061C292.316 302.565 292.536 300.457 291.532 299.011C296.133 272.462 266.647 290.354 269.183 263.554C270.079 263.356 270.923 262.963 271.638 262.358L271.58 262.3C272.793 260.948 273.029 258.615 271.007 257.466C269.377 256.539 268.016 256.827 266.246 257.001Z" fill="white"/>
<path fill-rule="evenodd" clip-rule="evenodd" d="M108.183 145.349C109.541 141.937 114.13 143.263 113.619 146.848C113.313 148.995 112.137 151.263 111.08 153.145C110.22 154.676 109.239 156.171 107.909 157.32C110.277 159.529 112.735 161.658 115.255 163.679C118.005 165.884 120.897 167.916 123.886 169.785C126.507 171.423 129.247 172.875 131.717 174.744C134.015 176.482 136.107 178.572 137.172 181.301C138.307 184.206 137.814 187.207 136.978 190.111L136.882 190.439C136.029 193.316 134.552 196.784 136.6 199.494C137.643 200.874 139.159 201.851 140.468 202.955C141.632 203.935 142.724 205.001 143.726 206.147C145.91 208.643 147.686 211.452 148.807 214.583L148.907 214.867C149.868 217.638 150.57 221.033 149.272 223.753C148.899 224.533 147.698 224.28 147.489 223.52C147.018 221.8 147.042 219.998 146.647 218.254C146.235 216.439 145.551 214.717 144.656 213.088C142.926 209.935 140.582 207.243 137.813 204.966L136.984 204.292C134.824 202.52 132.84 200.639 132.401 197.705C131.932 194.566 133.19 191.576 133.998 188.605C134.562 186.535 134.746 184.55 134.137 182.679C133.393 183.894 132.378 185.046 131.575 186.075C129.976 188.123 128.362 190.159 126.752 192.198C125.101 194.29 123.491 196.414 121.958 198.594C121.273 199.569 120.594 200.55 119.918 201.531C119.409 202.269 118.7 203.007 118.146 203.759C118.281 204.162 118.271 204.626 118.026 204.955C115.087 208.927 110.906 200.641 109.815 198.547C107.594 194.284 105.942 189.755 103.713 185.492C101.405 181.074 98.7756 176.773 95.8453 172.739C94.0729 170.299 92.0863 168.007 90.4648 165.49C86.645 168.953 81.6184 171.275 77.0015 173.381C71.9287 175.694 66.6586 177.584 61.4576 179.59L59.9212 180.187C50.9597 183.684 41.7792 187.527 34.3305 193.739C25.5775 201.039 20.3993 211.214 16.5442 221.75C12.1065 233.88 8.43509 246.337 5.01269 258.786C3.26133 265.155 1.59957 271.554 0.0373335 277.972C-1.33931 283.627 -2.48043 289.339 -4.07403 294.936C-0.842026 294.821 2.84405 296.073 5.60341 296.434C18.1791 298.08 30.5855 300.704 42.4585 305.247C43.925 305.808 44.3493 307.273 44.03 308.46C44.8757 308.221 45.7208 307.979 46.5666 307.742C45.64 306.322 46.0823 303.784 46.1551 302.21L46.1596 302.102C46.2345 300.005 46.462 297.906 46.6095 295.813C46.8904 291.823 47.2561 287.862 47.7424 283.895L47.8665 282.903C48.4175 278.587 48.8249 274.245 49.4261 269.936L49.4972 269.443C49.2089 268.341 48.8732 267.252 48.5209 266.168C47.582 263.28 46.2568 260.561 45.0956 257.764C44.9586 257.435 45.4277 257.246 45.6469 257.443C47.6137 259.212 49.1759 261.457 50.4309 263.804C50.4527 263.694 50.4719 263.583 50.4946 263.472L50.6378 262.767C50.991 261.048 51.4205 259.239 52.4751 257.845C52.5874 257.697 52.8095 257.666 52.9157 257.845C53.925 259.553 54.038 261.716 54.1932 263.659C54.3688 265.858 54.3909 268.084 54.3599 270.288C54.2994 274.596 53.9957 278.917 53.7538 283.218C53.5165 287.445 53.0504 291.617 52.4497 295.803L52.3356 296.587C52.0419 298.58 51.8016 300.596 51.4143 302.575L51.3049 303.113C51.0978 304.094 50.9704 305.478 50.5583 306.627C61.1624 303.669 71.7829 300.779 82.4236 297.939C90.1141 295.887 97.8127 293.865 105.508 291.831C105.914 291.099 106.42 290.415 107.051 289.804C109.13 287.791 111.885 286.893 114.412 288.443C114.617 288.569 114.635 288.891 114.412 289.013C113.928 289.277 113.443 289.549 112.966 289.832L117.587 288.58C121.041 287.644 124.536 286.475 128.071 285.822C134.582 282.609 141.585 280.283 148.444 277.985L149.252 277.711C152.764 276.514 156.396 275.174 160.025 274.51C162.681 274.024 165.799 274.61 166.867 277.331C168.22 278.223 169.492 279.27 170.72 280.3C171.608 281.044 172.458 281.836 173.324 282.606L173.483 282.746C174.191 283.36 174.751 283.771 174.925 284.748C175.014 285.253 174.694 285.935 174.071 285.868C172.167 285.664 170.618 283.457 169.327 282.139C168.329 281.12 167.323 280.067 166.413 278.947C165.882 279.236 165.154 279.184 164.816 278.544C163.064 275.226 158.264 277.525 155.608 278.312L151.803 279.438C149.901 280.002 147.999 280.569 146.101 281.145C140.883 282.73 135.692 284.503 130.427 285.958C130.898 286.475 130.833 287.396 129.938 287.747C125.817 289.364 121.297 290.2 117.015 291.309C114.312 292.011 111.611 292.716 108.91 293.425C108.447 294.175 108.114 295.024 107.974 296.012C107.459 299.644 108.453 303.835 109.421 307.348L109.567 307.872C110.362 310.696 111.533 314.159 113.97 315.942C114.565 316.377 115.322 316.68 116.086 316.748C120.856 314.293 125.626 311.838 130.399 309.387C131.283 308.933 132.1 309.548 132.298 310.279C133.981 310.003 135.66 309.567 137.19 309.048C139.759 308.176 141.766 306.511 144.175 305.36C148.836 303.134 153.596 305.869 157.769 307.948L158.731 308.421C160.602 309.329 164.496 311.073 165.394 308.59C166.262 306.187 163.516 303.619 161.743 302.538C159.629 301.249 157.168 300.559 154.778 299.984C153.414 299.656 152.033 299.388 150.644 299.193C149.069 298.971 147.441 299.004 145.924 298.493C145.17 298.24 145.054 297.042 145.924 296.844C148.259 296.313 151.047 296.893 153.484 297.485L154.758 297.799C157.213 298.402 159.692 299.158 161.929 300.36C163.555 301.234 165.271 302.562 166.393 304.187C167.366 303.283 168.578 303.314 169.841 303.649L170.526 303.84C171.657 304.153 172.574 304.369 173.675 304.152C173.823 303.351 173.972 302.549 174.131 301.748C175.7 293.872 177.421 286.025 179.32 278.221C182.594 264.759 200.884 272.445 205.156 259.268L205.585 257.95C206.57 254.936 207.363 265.652 208.951 262.883C210.454 260.265 217.64 251.799 220.5 251C222 247.5 215.721 227 213.687 220.966C214.426 220.829 212.666 220.7 213.405 220.566C212.781 219.438 212.314 218.158 211.894 217.175L211.821 217.005C210.918 214.948 210.108 212.853 209.325 210.748L208.74 209.165C207.326 205.354 205.868 201.605 203.881 198.04C201.789 194.288 199.014 191.221 195.555 188.683C188.503 183.506 180.003 180.866 173.163 175.334C172.883 175.107 173.242 174.72 173.527 174.863C178.145 177.184 183.131 178.762 187.935 180.651L188.883 181.025C192.679 182.53 196.536 184.169 199.822 186.606C203.486 189.323 206.372 192.698 208.541 196.711C210.678 200.667 212.046 205.095 213.554 209.32L213.957 210.446C214.565 212.134 215.194 213.817 215.914 215.46C216.485 216.764 217.552 218.253 218.037 219.743C220.13 225 225.672 251.885 227 251.663C253 269.163 260.353 250.438 289.496 249.613C290.637 249.581 291.226 250.669 291.058 251.663C288.261 268.201 305.276 245.796 302.549 262.346C301.359 269.57 300.145 276.787 298.902 284.002C298.273 287.657 297.545 291.298 296.949 294.958C296.467 297.915 296.118 300.894 295.292 303.781C294.551 306.371 293.413 308.867 291.546 310.843C289.532 312.972 286.722 314.003 283.893 314.49C276.712 315.725 269.346 316.23 262.107 317.053L223.564 321.438C224.127 326.558 224.169 331.598 223.911 336.777L223.763 339.604C223.643 341.878 223.499 344.156 223.172 346.407C222.763 349.23 221.471 351.621 219.569 353.73C217.822 355.666 215.7 357.319 213.635 358.902C211.493 360.546 209.279 362.133 206.759 363.15L206.432 363.28C204.222 364.142 200.076 365.479 197.055 364.99C197.45 366.969 198.214 369.096 197.537 371.054C197.222 371.963 196.033 372.417 195.305 371.643C193.862 370.11 193.75 368.085 193.408 366.085C193.052 364.004 192.746 361.915 192.473 359.821C191.947 355.773 191.537 351.688 191.412 347.605C191.283 343.412 191.333 339.214 191.559 335.026C191.675 332.875 191.819 330.726 192.092 328.589C192.208 327.677 192.327 326.765 192.463 325.856C192.513 325.525 192.568 325.195 192.627 324.866L189.168 325.256C183.863 325.848 178.556 326.383 173.214 326.466C172.581 326.475 172.095 326.187 171.777 325.768C171.438 326.32 170.848 326.715 170.002 326.712C162.542 326.684 155.595 324.244 148.81 321.37C145.39 319.92 142.023 318.351 138.597 316.914C135.4 315.572 131.982 314.615 128.862 313.104L120.664 317.404C120.604 317.616 120.527 317.816 120.445 317.983C119.911 319.073 118.858 319.664 117.784 320.109C116.752 320.537 115.683 320.67 114.642 320.562C108.425 323.82 102.206 327.075 95.9824 330.323L89.7577 333.568C77.3557 340.025 65.0028 346.588 52.5228 352.894L51.604 353.356C47.2934 355.518 42.6646 357.709 37.8809 359.344C37.7957 360.555 37.8495 361.732 37.9509 363.014L37.9753 363.293C38.118 364.807 38.4238 366.705 37.2089 367.783C36.5769 368.344 35.4479 368.346 35.0181 367.501C34.2383 365.968 34.9385 363.551 35.1855 361.885C35.2732 361.293 35.3801 360.684 35.5381 360.093C30.054 361.726 24.4037 362.517 18.8229 361.601C13.3893 360.709 9.18101 357.286 5.78837 353.099C2.20789 348.681 -0.336427 343.532 -1.70155 338.012C-3.25515 331.731 -3.35659 325.244 -3.32011 318.811C-3.28139 311.96 -3.02795 305.075 -2.19467 298.27C-3.10763 298.056 -4.12011 297.87 -5.04267 297.934C-5.49963 298.665 -6.38603 298.973 -7.18699 298.878C-8.92875 300.799 -4.51083 302.762 -3.09899 303.254C-2.60875 303.425 -2.66123 304.221 -3.22667 304.197L-3.58283 304.18C-5.76439 304.064 -8.01823 303.691 -9.30091 301.664C-10.3287 300.039 -10.0199 298.114 -8.79467 296.789C-7.98539 289.137 -6.05067 281.686 -4.25003 274.221C-2.48299 266.895 -0.517867 259.616 1.56501 252.373L2.49878 249.131C5.77824 237.775 9.20609 226.327 13.7298 215.422C15.9887 209.977 18.5909 204.632 22.1183 199.884C25.4063 195.458 29.2882 191.671 33.7503 188.436C42.0687 182.406 51.8295 178.762 61.4199 175.29L61.8492 175.135C66.8191 173.337 71.7769 171.518 76.6901 169.57C81.0354 167.848 85.1983 165.664 89.5231 163.915C89.3826 163.66 89.2469 163.402 89.1164 163.141L89.0364 163.209C89.0227 163.22 89.0087 163.23 88.9941 163.24C88.5593 163.541 87.9189 163.393 87.5605 163.055C86.5486 162.1 86.8912 161.04 87.5667 160.05L87.6546 159.924C88.4808 158.766 89.2178 157.543 89.9804 156.343L90.4579 155.593C91.7379 153.59 93.083 151.572 94.7896 149.916C95.58 149.149 96.4453 148.575 97.3621 148.147C97.2837 147.981 97.9711 147.643 98.166 147.813C101.071 146.75 104.412 146.973 107.579 147.266M221.699 321.65L217.66 322.109C213.217 322.615 208.773 323.104 204.328 323.588L194.673 324.637C194.648 325.187 194.581 325.726 194.569 326.141C194.506 328.284 194.459 330.428 194.414 332.572C194.325 336.869 194.423 341.17 194.706 345.459C194.98 349.614 195.341 353.771 195.902 357.898L196.017 358.723L196.084 359.157C196.542 359.201 196.992 359.419 197.366 359.866C198.182 360.841 201.139 359.893 202.294 359.482C204.193 358.806 205.982 357.665 207.632 356.52C209.244 355.402 210.695 354.098 212.089 352.725L213.23 351.596C214.365 350.469 215.502 349.267 216.197 347.848C217.14 345.924 217.262 343.563 217.538 341.467C217.879 338.89 218.284 336.313 218.713 333.749M104.465 294.597L104.046 294.707C88.83 298.75 73.6364 302.913 58.3733 306.777C50.8201 308.69 43.2309 310.464 35.6684 312.34L34.444 312.646C28.4779 314.154 22.4402 315.969 17.8716 320.296C17.7029 320.456 17.4581 320.211 17.6169 320.042C22.5407 314.8 29.5436 312.581 36.2674 310.658C37.5103 310.302 38.7548 309.955 39.998 309.601C30.8537 306.341 21.565 303.505 12.062 301.483C9.61493 300.962 7.13941 300.579 4.69429 300.056C2.98904 299.691 1.32371 299.164 -0.363522 298.726L-1.69067 298.393L-1.70829 302.587C-1.73038 308.528 -1.71984 314.464 -1.41675 320.404L-1.35938 321.504C-1.00576 328.114 -0.453785 334.862 1.89205 341.095C3.79829 346.16 6.83669 350.931 10.8101 354.621C12.8207 356.487 14.9823 357.94 17.6543 358.658C20.1353 359.324 22.7346 359.402 25.285 359.224C37.5183 358.371 48.4079 351.725 59.0344 346.223C76.4159 337.224 93.7992 328.229 111.198 319.264C110.728 318.943 110.285 318.572 109.882 318.156C107.549 315.746 106.318 312.448 105.51 309.253C104.649 305.853 104.135 302.208 104.075 298.698M126.604 322.738C126.757 322.656 126.935 322.759 126.942 322.932C126.996 324.261 126.262 325.572 125.713 326.769L125.655 326.897C124.988 328.38 124.258 329.843 123.504 331.283C121.995 334.16 120.427 337.006 118.79 339.812C115.499 345.458 111.842 350.865 107.52 355.78C106.544 356.891 104.938 355.467 105.564 354.271C108.585 348.508 112.107 343.067 115.732 337.672C117.546 334.972 119.36 332.268 121.193 329.58C121.957 328.458 122.731 327.34 123.527 326.239L124.006 325.58M173.249 306.579C171.154 306.441 168.286 304.522 166.697 304.659C167.531 306.06 167.908 307.657 167.427 309.363C166.088 314.109 160.035 311.653 157.119 310.203C154.728 309.014 152.42 307.558 149.773 307.001C146.775 306.371 144.743 307.563 142.21 308.938C140.129 310.066 137.864 310.877 135.533 311.296C134.294 311.52 133.117 311.543 131.943 311.456C131.872 311.514 131.792 311.567 131.701 311.615L131.08 311.941C133.89 312.07 136.752 312.937 139.367 313.731C142.077 314.553 144.737 315.545 147.383 316.558L149.986 317.559C156.407 320.018 163.053 322.353 170.002 322.332C170.502 322.331 170.911 322.469 171.233 322.695M161.526 291.707C163.596 291.454 165.507 291.726 167.161 293.073C169.156 294.698 170.496 297.393 173.364 297.57C174.2 297.622 174.394 298.797 173.563 299.043C171.428 299.675 169.7 298.52 168.246 297.021L167.268 295.999C165.831 294.511 164.505 293.36 162.066 293.449C159.454 293.545 156.838 294.148 154.243 294.455C151.304 294.803 148.365 295.099 145.416 295.355C145.279 295.366 145.256 295.151 145.384 295.119L148.687 294.297M159.528 283.245L159.869 283.211C162.875 282.919 165.624 282.907 168.309 284.524L168.824 284.836C171.244 286.307 173.879 288.04 175.393 290.422C175.64 290.812 175.231 291.271 174.816 291.171C171.907 290.473 169.781 288.339 167.334 286.741C164.589 284.949 161.752 285.244 158.622 285.523C155.591 285.793 152.561 286.163 149.56 286.668C146.74 287.143 143.911 287.891 141.062 288.13L141.063 288.124C140.737 288.124 140.552 287.635 140.884 287.469C143.775 286.026 147.123 285.343 150.267 284.683M250.845 253.534C250.554 252.145 252.263 251.5 253.056 252.603L253.224 252.835C254.936 255.18 257.412 258.123 257.286 261.105C258.79 261.138 260.35 262.052 260.936 263.41C261.207 264.038 261.299 264.783 261.239 265.553C262.607 265.659 264.099 266.557 264.935 267.432C266.321 268.881 266.43 270.929 265.436 272.622C263.268 276.314 258.532 277.657 254.535 277.956L254.392 277.967C250.263 278.252 244.313 278.175 241.481 274.632C238.75 271.215 241.769 268.448 244.864 266.946C244.058 266.21 243.641 265.155 244.033 264.043C244.722 262.087 247.155 261.331 248.529 259.972C250.205 258.315 251.312 256.041 250.87 253.664M56.5959 201.506C56.5921 201.268 56.9265 201.179 57.0433 201.385C58.9992 204.826 60.0216 209.044 61.0635 212.835C62.1547 216.806 63.0356 220.818 63.827 224.859C65.4299 233.041 66.284 241.177 66.3419 249.517C66.3499 250.708 64.41 251.024 64.2203 249.804C62.9604 241.692 61.7534 233.571 60.484 225.461C59.8452 221.382 59.1019 217.319 58.3905 213.252M75.9585 207.5C75.8145 207.025 76.5051 206.866 76.6817 207.3C80.6068 216.935 81.9361 227.854 79.4161 238.019C79.0305 239.574 76.7531 238.9 77.044 237.365M126.588 198.938C126.568 198.583 127.029 198.527 127.203 198.772C129.063 201.392 129.834 204.901 133.098 206.256C134.727 206.932 136.56 206.814 137.999 207.956C138.962 208.72 139.699 209.926 138.977 211.083C138.744 211.456 138.092 211.644 137.776 211.237C137.314 210.646 137.07 209.937 136.443 209.494C135.559 208.868 134.367 208.829 133.353 208.535C132.042 208.155 130.886 207.49 129.939 206.501M157.66 155.231C157.851 155.134 158.035 155.196 158.158 155.362C158.333 155.598 158.311 155.828 158.097 155.99C158.383 156.575 158.722 158.041 158.77 158.255C158.966 159.12 159.174 159.98 159.392 160.84C159.832 162.573 160.217 164.32 160.657 166.054C161.124 167.892 161.679 169.711 162.298 171.503C162.338 171.619 162.382 171.738 162.428 171.858L162.498 172.039L162.516 172.012C162.641 171.813 162.903 171.952 162.872 172.162C162.843 172.353 162.804 172.544 162.772 172.735L162.837 172.907C163.241 173.996 163.518 175.143 162.776 176.103C162.498 176.463 162.193 176.676 161.812 176.739C161.201 178.752 160.435 180.727 159.615 182.624L159.375 183.178C158.168 185.946 156.882 188.678 154.961 191.034C152.863 193.607 149.979 195.364 148.152 198.183C147.302 199.494 146.71 200.873 146.23 202.354L146.05 202.916C145.709 203.964 145.316 204.979 144.333 205.594C144.02 205.79 143.55 205.727 143.297 205.46C141.282 203.328 143.392 199.348 144.607 197.285C146.296 194.415 148.74 192.579 151.188 190.414C153.826 188.08 155.509 184.958 157.137 181.883C158.134 179.998 159.097 178.074 160.11 176.181C159.051 175.245 158.712 173.387 158.354 172.095L158.321 171.979C157.728 169.91 157.257 167.787 156.959 165.654C156.673 163.604 156.553 161.584 156.629 159.522L156.651 158.997M161.596 164.989C161.362 164.668 161.75 164.305 162.07 164.372C164.022 164.775 165.93 165.957 167.681 166.912L167.868 167.013C169.266 167.767 170.673 168.691 171.407 170.155C172.206 171.747 172.14 173.581 172.031 175.31L172.021 175.472C171.887 177.547 171.866 179.702 171.427 181.74C171.202 182.782 170.258 183.076 169.45 182.829C168.49 185.863 165.791 188.098 163.82 190.491C161.307 193.543 161.78 197.663 162.042 201.338C162.149 202.826 160.298 203.249 159.344 202.455L157.148 200.63C156.782 200.326 156.416 200.021 156.052 199.714C155.74 199.452 155.431 199.187 155.124 198.919L154.666 198.515C154.462 198.333 153.566 197.332 153.304 197.29C152.669 197.189 151.161 198.862 150.645 199.387L150.58 199.452C149.608 200.405 148.73 201.43 147.913 202.517C147.762 202.717 147.468 202.551 147.576 202.32C148.308 200.751 149.16 199.25 150.172 197.846L150.376 197.566C151.049 196.66 151.952 195.058 153.14 194.79C154.591 194.464 156.039 195.918 157.094 196.725L157.161 196.776C157.663 197.153 158.159 197.536 158.655 197.922C158.603 195.186 158.949 192.421 160.361 190.063C161.358 188.4 162.85 187.168 164.127 185.739C165.549 184.148 166.291 182.192 167.578 180.534C167.744 180.321 167.973 180.206 168.22 180.17C168.269 178.838 168.466 177.492 168.617 176.174L168.661 175.78C168.814 174.348 169.177 172.598 168.476 171.257C167.813 169.991 166.294 169.096 165.168 168.237L164.25 167.524M98.2636 149.847C97.6761 150.187 97.1269 150.61 96.6287 151.138C95.0604 152.802 93.9391 154.872 92.8479 156.864C92.2604 157.936 91.694 159.021 91.1017 160.091C90.8441 160.556 90.5791 161.017 90.3113 161.477C90.1874 161.689 89.8194 162.11 89.637 162.369C89.8397 162.653 90.0492 162.933 90.263 163.209C90.3445 163.315 95.9704 169.443 97.9314 171.842C100.934 175.516 103.618 179.396 105.913 183.55C108.16 187.618 109.871 191.924 111.953 196.07C112.994 198.146 114.158 200.207 115.641 202.004C115.698 202.074 115.759 202.14 115.817 202.209C116.384 200.68 117.834 199.043 118.546 198.103L118.613 198.014C120.229 195.836 121.935 193.723 123.678 191.647C125.271 189.751 126.903 187.896 128.576 186.071L129.205 185.388C130.37 184.13 131.85 182.247 133.555 181.347C133.373 181.022 133.161 180.699 132.918 180.381C131.32 178.293 129.061 176.778 126.832 175.41L125.386 174.531C119.937 171.21 114.573 167.736 109.843 163.421C107.34 161.139 104.872 158.747 102.768 156.084L102.024 155.143M107.355 148.203C104.804 148.417 102.048 148.366 99.6901 149.198C101.786 151.179 103.779 153.319 105.826 155.334C106.008 153.971 106.381 152.625 106.696 151.296" fill="black"/>
<g clip-path="url(#clip1_189_111)">
<path fill-rule="evenodd" clip-rule="evenodd" d="M189.713 58.6308C188.477 51.1559 192.532 49.605 189.713 42.4994C183.446 29.3335 166.37 29.9008 153.838 28.8885C139.862 28.3528 125.715 30.198 112.83 35.7999C109.752 37.1378 106.792 38.7114 103.954 40.4991C101.5 42.0451 101.838 44.9847 103.385 46.5882C92.2279 62.3872 98.609 83.5941 89.7069 100.224C88.0625 103.197 85.8874 105.863 84.458 108.956C82.2852 113.658 82.146 120.394 87.0733 123.517C94.0132 127.242 97.8858 119.867 101.296 130.558C118.326 167.835 152.565 169.934 185.07 150.499C187.882 148.935 190.752 147.167 192.875 144.709C197.695 139.285 197.128 131.657 197.234 124.883C197.294 120.913 197.304 116.943 197.265 112.972C197.113 96.89 191.783 74.5808 189.713 58.6308Z" fill="white"/>
<path fill-rule="evenodd" clip-rule="evenodd" d="M120.481 13.9224C140.107 5.02003 162.366 1.64403 183.774 3.85843C194.341 4.94969 204.769 7.29092 214.692 11.094L215.562 11.4302C218.012 12.373 220.652 13.3088 222.514 15.228C224.68 17.4584 225.288 20.8312 223.739 23.5864C222.536 25.7272 220.373 27.2629 218.066 28.0824C218.878 28.748 219.65 29.4904 220.373 30.3192C221.592 31.708 221.685 33.6885 220.373 35.0584C217.845 37.6984 214.565 39.6085 211.032 40.524C211.429 42.4408 211.214 44.5624 210.363 46.4728C207.921 51.9566 201.04 52.6102 195.746 52.2846L195.586 52.2744L195.291 55.644C195.134 57.4392 194.059 58.8312 192.235 59.1064C192.171 59.116 192.107 59.1224 192.043 59.1285C194.93 69.5672 196.674 80.3285 198.283 91.0264C199.124 96.6108 199.877 102.208 200.598 107.809L200.837 109.676C201.605 115.714 202.565 121.814 202.898 127.897C203.195 133.417 202.142 138.687 198.741 143.142C195.688 147.135 191.525 150.127 187.048 152.348C176.933 157.369 166.286 161.106 155.099 162.841L154.353 162.956C150.035 163.615 145.586 164.17 141.314 162.975C137.56 161.926 133.624 159.218 134.472 154.87C134.757 153.401 136.811 153.337 137.515 154.473L137.678 154.733C138.522 156.073 139.447 157.317 140.92 158.009C142.645 158.822 144.645 159.049 146.53 159.071C151.794 159.132 157.275 157.82 162.344 156.505C171.81 154.048 181.531 150.041 189.285 143.97C192.584 141.391 195.234 138.166 196.168 134.015C197.323 128.898 196.261 123.305 195.736 118.162C194.656 107.551 193.371 96.9601 192.015 86.3806L191.742 84.2648C190.6 75.42 189.4 66.572 188.83 57.676C188.594 57.3528 188.434 56.9848 188.37 56.5816L188.28 56.0024V56.0024C188.203 55.5064 188.19 55.052 188.245 54.6328C188.248 53.0264 188.293 51.4296 188.386 49.8229C188.401 49.5352 188.414 49.2472 188.424 48.9624C186.754 49.3304 185.07 49.628 183.381 49.8808C171.502 51.6696 159.438 52.1176 147.464 51.228C141.49 50.7829 135.56 50.0184 129.65 49.0616C126.641 48.5752 123.643 48.0376 120.654 47.436C118.494 47.004 116.379 46.4184 114.254 45.868C112.062 49.0584 110.878 52.9848 111.109 56.8408C111.368 61.2408 114.299 65.2312 113.477 69.7272C112.705 73.9349 109.1 75.2396 105.541 76.2817L104.027 76.719C102.863 77.059 102.017 77.387 101.806 78.7864C101.445 81.1896 101.89 83.8936 101.982 86.3096C102.094 89.1672 102.241 92.0248 102.309 94.8824C102.344 96.3608 102.401 97.8456 102.398 99.324C102.395 100.374 102.238 101.09 101.832 101.769C102.146 102.162 102.427 102.588 102.677 103.039C102.757 103.186 102.558 103.343 102.44 103.222C102.123 102.892 101.787 102.594 101.432 102.329C101.253 102.55 101.045 102.774 100.801 103.014L100.782 102.988V102.988C100.021 103.746 98.8112 103.82 97.8669 103.014L97.6191 102.799C96.9279 102.193 96.453 101.689 96.2608 100.687C96.2512 100.636 96.2413 100.585 96.2352 100.534C94.4784 100.473 92.6928 100.889 91.112 101.762C88.6064 103.148 86.8432 105.122 85.8003 107.561C86.216 108.047 86.7024 108.482 87.2688 108.847C87.3488 108.902 87.2784 109.02 87.192 108.978C86.6128 108.706 86.0944 108.37 85.6304 107.977C85.256 108.937 84.9936 109.967 84.8336 111.058C84.2704 114.911 85.2752 119.618 88.7568 121.814C90.264 122.764 91.9856 123.279 93.7712 123.286C94.6413 123.289 95.3936 123.142 96.2384 122.934C96.8112 122.793 97.3808 122.588 97.9792 122.588C98.4912 122.588 98.9648 122.716 99.4032 122.972L99.2816 122.983C98.9862 123.01 99.043 123.023 99.4544 123.023C100.734 123.078 101.467 124.377 100.878 125.506L100.801 125.681C100.785 125.716 100.771 125.745 100.76 125.769L100.714 126.068C100.709 126.097 100.704 126.126 100.699 126.156L100.681 126.217C100.678 126.226 100.675 126.236 100.67 126.246L102.59 129.173C104.944 132.754 107.35 136.322 110.088 139.593C112.008 141.887 114.043 144.137 116.194 146.22C118.126 148.092 120.443 148.994 122.632 150.466C123.8 151.247 124.142 152.882 123.08 153.935C119.963 157.03 115.55 154.572 112.994 152.057C110.574 149.673 108.485 146.806 106.683 143.935C103.486 138.831 100.942 133.404 99.8288 127.513C99.3648 127.938 98.7728 128.204 98.1744 128.412C96.9744 128.828 95.6528 129.001 94.3856 129.046C91.9568 129.126 89.5248 128.537 87.3392 127.494C78.4464 123.254 77.1408 110.556 82.5776 103.068C81.8445 100.942 81.4351 98.6353 80.9902 96.6683L80.7879 95.789C78.5393 85.9673 77.0302 75.6265 81.016 66.0024C81.528 64.7608 82.104 63.5512 82.7856 62.3928C83.3328 61.4616 84.2736 60.4696 84.5328 59.4104C85.1088 57.084 81.5536 54.6392 80.5168 52.7928C79.2976 50.6264 79.1248 48.0696 80.7856 46.0885C80.9968 45.8392 81.2269 45.6085 81.4768 45.4072C79.9024 42.5528 79.8288 38.9624 81.9024 36.1464C83.2656 34.2904 85.3456 32.9912 87.6176 32.5976C89.0064 32.3576 90.6768 32.4472 92.2032 32.876C100.561 25.116 110.098 18.6328 120.481 13.9224ZM88.3855 111.02C90.6162 109.052 93.0802 108.022 96.1202 108.281C99.1762 108.543 102.856 109.807 104.651 112.428C106.069 114.498 103.179 117.535 101.099 115.98C99.205 114.562 97.9407 112.962 95.589 112.201C93.4767 111.519 90.8623 111.081 88.6511 111.471C88.4079 111.513 88.165 111.212 88.3855 111.02Z" fill="black"/>
<path fill-rule="evenodd" clip-rule="evenodd" d="M167.833 136.691C165.476 137.374 162.946 137.435 160.543 136.729C158.363 136.09 156.126 134.682 154.522 132.82C153.097 131.165 152.174 129.155 152.21 127.008C152.214 126.763 152.302 126.559 152.437 126.4C152.582 126.229 152.784 126.111 153.002 126.06C153.225 126.008 153.461 126.027 153.662 126.118C153.844 126.201 154 126.341 154.098 126.546C154.344 126.87 154.59 127.189 154.836 127.499C156.818 129.947 158.738 131.776 161.718 132.432C163.335 132.788 164.95 132.63 166.432 132.087C168.019 131.505 169.453 130.483 170.576 129.175C171.084 128.584 171.684 128.342 172.27 128.338C172.934 128.334 173.591 128.642 174.085 129.136C174.572 129.621 174.897 130.28 174.927 130.969C174.953 131.574 174.755 132.206 174.23 132.77C172.5 134.628 170.259 135.988 167.833 136.691ZM167.761 106.037C170.177 107.506 173.859 110.931 171.259 114.573C168.199 117.783 163.794 114.102 161.623 112.437C159.61 111.147 157.348 114.465 159.216 115.972C174.903 127.586 181.27 106.421 168.983 104.31C167.63 104.078 167.127 105.583 167.761 106.037ZM145.156 99.5743C144.379 99.0777 143.466 98.9072 142.453 99.3678C141.662 99.7276 140.274 100.927 139.308 102.504C138.648 103.583 138.179 104.848 138.277 106.167C138.299 106.473 138.186 106.698 138.008 106.865C137.867 106.997 137.663 107.094 137.424 107.124C137.221 107.15 136.994 107.127 136.809 107.069C136.458 106.96 136.272 106.732 136.202 106.545C135.526 104.75 135.817 102.746 136.575 100.937C137.598 98.4974 139.455 96.4536 140.672 95.7946C142.754 94.6666 145.211 94.6147 147.296 95.7639C149.072 96.7419 150.182 98.321 151.286 99.9306C151.52 100.273 151.753 100.612 151.994 100.946C152.476 101.615 152.524 102.278 152.338 102.846C152.131 103.476 151.603 104.008 150.943 104.286C150.333 104.543 149.625 104.58 148.999 104.315C148.469 104.092 147.984 103.657 147.676 102.919C147.159 101.676 146.297 100.304 145.156 99.5743V99.5743ZM184.601 102.34C184.069 102.618 183.653 102.701 183.063 102.524C182.737 102.426 182.414 102.239 182.162 101.986C181.911 101.736 181.731 101.425 181.661 101.08C181.488 100.228 181.022 99.4301 180.358 98.9102C179.79 98.4659 179.073 98.2304 178.279 98.3632C177.421 98.5064 176.604 99.0565 176.041 99.7051C175.853 99.9221 175.705 100.169 175.557 100.413C175.28 100.871 175.01 101.297 174.628 101.633C174.483 101.761 174.264 101.849 174.053 101.849C173.967 101.849 173.879 101.836 173.796 101.81C172.942 100.953 172.778 100.303 172.806 99.658C172.835 98.9819 173.101 98.2973 173.532 97.6586C174.542 96.1604 176.461 94.932 177.755 94.6538C179.528 94.2728 181.289 94.7301 182.701 95.7204C184.153 96.7393 185.23 98.3212 185.565 100.104C185.646 100.533 185.612 100.997 185.448 101.399C185.288 101.791 185.01 102.128 184.601 102.34ZM149.066 83.6008C148.002 84.6374 146.743 84.798 145.469 84.9408C144.761 85.0209 144.196 85.0855 143.64 85.2109C142.111 85.556 140.601 86.0756 139.222 86.8239C137.781 87.6063 136.211 88.5498 135.082 89.7584C134.813 90.046 134.56 90.3478 134.306 90.6503C134.075 90.9261 133.852 91.1916 133.617 91.4476C133.348 91.7417 133.092 92.0499 132.837 92.3573C132.68 92.6167 132.649 92.6805 132.617 92.7469C132.569 92.8467 132.514 92.9583 132.45 93.0782C132.364 93.2422 132.262 93.4218 132.155 93.5847C131.978 93.8823 131.883 93.9643 131.801 94.001C131.665 94.0617 131.535 94.0916 131.41 94.0754C131.292 94.0602 131.181 94.0038 131.072 93.9113C130.526 93.4498 130.365 92.6923 130.381 91.8883C130.406 90.6682 130.856 89.3174 131.271 88.487C132.236 86.5575 133.573 84.5516 135.182 83.1115C137.018 81.4677 139.026 80.2233 141.332 79.3657C142.766 78.8326 144.425 78.3433 145.987 78.4051C147.111 78.4496 148.184 78.7838 149.07 79.6182C149.614 80.1304 149.876 80.859 149.876 81.5871C149.876 82.3296 149.604 83.0766 149.066 83.6008ZM186.765 93.0935C186.697 93.2044 186.604 93.2809 186.499 93.3268C186.39 93.3749 186.268 93.3887 186.151 93.369C186.035 93.3494 185.924 93.2966 185.836 93.2158C185.752 93.1385 185.688 93.0359 185.659 92.9102C184.953 89.8076 183.581 87.4992 180.653 86.0107C179.213 85.2784 177.557 84.8131 175.989 84.4422C175.534 84.3344 175.053 84.2645 174.568 84.1938C173.048 83.9719 171.518 83.7179 170.528 82.4898C169.931 81.75 169.68 80.804 169.822 79.9387C169.955 79.1241 170.431 78.3771 171.297 77.9295C173.451 76.8156 176.128 77.9086 178.304 78.8397C178.465 78.9088 178.624 78.9766 178.779 79.042C180.906 79.9401 182.847 81.1255 184.442 82.8208C185.708 84.1657 186.88 86.1539 187.352 88.1992C187.745 89.9009 187.653 91.638 186.765 93.0935Z" fill="black"/>
<path fill-rule="evenodd" clip-rule="evenodd" d="M187.599 76.8C195.11 76.8 199.396 78.4153 200.967 78.5411L201.014 78.5445C201.667 78.5863 202.253 78.6409 202.868 78.8787C205.129 79.7494 205.498 82.1208 204.178 83.6153C204.086 86.7076 204.492 90.3209 203.795 93.4232C202.934 106.502 196.783 108.709 193.287 109.515C191.531 109.919 189.451 110.08 187.587 109.653C184.406 109.535 181.261 108.539 178.571 106.805C174.824 104.388 172.041 100.674 171.138 96.2656C170.71 94.1644 170.51 91.9773 170.743 89.8414L170.777 89.5471C169.559 88.9646 168.148 88.8544 166.693 88.803C165.998 88.7782 165.313 88.7561 164.648 88.7856C163.997 88.8582 163.355 88.955 162.71 89.0867C162.006 89.2991 161.341 89.6496 160.727 90.2049L160.685 91.0153C160.57 93.0396 160.304 95.07 159.894 97.0561C159.289 99.9865 158.315 102.785 156.243 104.864C155.542 105.911 154.674 106.846 153.62 107.656C149.793 110.603 144.593 111.685 139.821 111.277C130.132 110.451 124.532 102.76 123.241 99.4721L123.164 99.2729C122.232 96.8289 121.489 93.6579 118.543 93.1328L117.916 93.0202C116.572 92.7678 115.331 92.4165 114.543 91.1049C114.198 90.5323 114.02 89.8919 113.976 89.239C113.516 89.2743 113.057 89.3081 112.6 89.3409C108.949 90.1129 87.0521 90.7675 85.3043 90.7675C85.3043 90.7675 81.9446 92.1816 80.5261 91.0859C79.543 90.3241 79.2195 89.3087 79.7607 88.1584C80.5774 86.4276 84.3449 85.3866 86.0178 85.0569C86.0178 85.0569 113.015 85.2811 114.958 84.9127C116.16 83.6731 118.31 83.8427 120.107 83.6467C121.595 82.5861 123.676 81.8756 125.32 81.4001C125.655 81.2731 125.986 81.1504 126.309 81.0347C129.322 79.9615 132.455 79.3931 135.635 79.0878C138.914 78.7762 142.203 78.9172 145.463 79.3639C146.837 79.5502 148.198 79.7912 149.55 80.1064C151.97 80.4254 154.376 80.9509 156.796 81.5742L157.281 81.7002C159.83 82.3685 162.45 82.9466 165.088 82.4935C167.237 82.1271 169.303 81.3003 171.284 80.4062L171.541 80.2893C175.897 78.3006 182.699 76.8 187.599 76.8ZM149.288 84.0712C147.681 83.7177 146.995 86.1954 148.607 86.5498C149.748 86.8008 150.716 87.3765 151.369 88.3518L151.438 88.4578C152.315 89.8536 154.534 88.5652 153.65 87.1603C152.657 85.5794 151.112 84.4722 149.288 84.0712ZM196.355 82.5349C195.789 82.1359 194.932 82.4321 194.603 82.996C194.241 83.617 194.478 84.3084 195.009 84.7146L195.063 84.7543C195.549 85.0973 196.023 85.7122 196.083 86.3422L196.088 86.421C196.152 88.0697 198.714 88.078 198.65 86.421C198.588 84.7999 197.649 83.4456 196.355 82.5349Z" fill="black"/>
</g>
</g>
<defs>
<clipPath id="clip0_189_111">
<rect width="250" height="250" fill="white"/>
</clipPath>
<clipPath id="clip1_189_111">
<rect width="166.4" height="166.4" fill="white" transform="translate(66.38)"/>
</clipPath>
</defs>
</svg>
