<svg width="500" height="500" viewBox="0 0 500 500" fill="none" xmlns="http://www.w3.org/2000/svg">
<rect width="500" height="500" fill="#004AE8"/>
<rect width="320" height="320" transform="translate(60 120)" fill="#2167FF"/>
<path d="M219.6 171.6H181.8C171.775 171.6 162.16 175.583 155.071 182.671C147.982 189.76 144 199.375 144 209.4C144 219.425 147.982 229.04 155.071 236.129C162.16 243.218 171.775 247.2 181.8 247.2H219.6M219.6 171.6V247.2M219.6 171.6H257.4C262.364 171.6 267.279 172.578 271.865 174.477C276.452 176.377 280.619 179.161 284.129 182.671C287.639 186.182 290.423 190.349 292.323 194.935C294.222 199.521 295.2 204.436 295.2 209.4C295.2 214.364 294.222 219.279 292.323 223.866C290.423 228.452 287.639 232.619 284.129 236.129C280.619 239.639 276.452 242.423 271.865 244.323C267.279 246.222 262.364 247.2 257.4 247.2H219.6" stroke="white" stroke-width="12.96" stroke-linecap="round" stroke-linejoin="round"/>
<path d="M181.8 322.8C171.775 322.8 162.16 326.783 155.071 333.872C147.982 340.96 144 350.575 144 360.6C144 370.625 147.982 380.24 155.071 387.329C162.16 394.418 171.775 398.4 181.8 398.4C191.825 398.4 201.44 394.418 208.529 387.329C215.618 380.24 219.6 370.625 219.6 360.6V322.8M181.8 322.8H219.6M181.8 322.8C171.775 322.8 162.16 318.818 155.071 311.729C147.982 304.64 144 295.025 144 285C144 274.975 147.982 265.36 155.071 258.272C162.16 251.183 171.775 247.2 181.8 247.2H219.6V322.8M219.6 285C219.6 280.036 220.578 275.121 222.477 270.535C224.377 265.949 227.161 261.782 230.671 258.272C234.181 254.762 238.348 251.977 242.935 250.078C247.521 248.178 252.436 247.2 257.4 247.2C262.364 247.2 267.279 248.178 271.865 250.078C276.452 251.977 280.619 254.762 284.129 258.272C287.639 261.782 290.423 265.949 292.323 270.535C294.222 275.121 295.2 280.036 295.2 285C295.2 289.964 294.222 294.88 292.323 299.466C290.423 304.052 287.639 308.219 284.129 311.729C280.619 315.239 276.452 318.023 271.865 319.923C267.279 321.822 262.364 322.8 257.4 322.8C252.436 322.8 247.521 321.822 242.935 319.923C238.348 318.023 234.181 315.239 230.671 311.729C227.161 308.219 224.377 304.052 222.477 299.466C220.578 294.88 219.6 289.964 219.6 285Z" stroke="white" stroke-width="12.96" stroke-linecap="round" stroke-linejoin="round"/>
<rect x="428" y="120" width="8.125" height="130" fill="#3775FB"/>
<rect x="57" y="75.1875" width="7.1875" height="115" transform="rotate(-90 57 75.1875)" fill="#3775FB"/>
<rect x="265" y="75.1875" width="7.1875" height="115" transform="rotate(-90 265 75.1875)" fill="#3775FB"/>
<rect x="428" y="310" width="8.125" height="130" fill="#3775FB"/>
<path d="M400.35 289V286.754C402.174 285.448 403.701 284.296 404.93 283.298C406.178 282.299 407.176 281.378 407.925 280.533C408.674 279.688 409.211 278.891 409.538 278.142C409.883 277.374 410.056 276.597 410.056 275.81C410.056 274.792 409.739 273.966 409.106 273.333C408.472 272.699 407.589 272.382 406.456 272.382C405.266 272.382 404.315 272.786 403.605 273.592C402.914 274.379 402.52 275.464 402.424 276.846L399.746 275.608C399.88 274.398 400.235 273.352 400.811 272.469C401.387 271.586 402.165 270.904 403.144 270.424C404.142 269.944 405.294 269.704 406.6 269.704C407.675 269.704 408.616 269.858 409.422 270.165C410.248 270.472 410.939 270.904 411.496 271.461C412.053 271.998 412.475 272.632 412.763 273.362C413.07 274.091 413.224 274.869 413.224 275.694C413.224 276.904 412.926 278.075 412.331 279.208C411.736 280.322 410.795 281.464 409.509 282.635C408.222 283.806 406.533 285.064 404.44 286.408V286.466C404.67 286.427 404.987 286.408 405.39 286.408C405.794 286.389 406.197 286.379 406.6 286.379C407.003 286.36 407.33 286.35 407.579 286.35H413.57V289H400.35ZM425.075 289V284.248H415.802V282.146C415.84 282.05 415.898 281.934 415.974 281.8C416.07 281.666 416.176 281.512 416.291 281.339L424.211 269.992H427.984V281.858H431.21V284.248H427.984V289H425.075ZM418.682 281.858H425.075V275.147C425.075 274.686 425.085 274.216 425.104 273.736C425.142 273.237 425.171 272.747 425.19 272.267H425.133C424.922 272.728 424.643 273.237 424.298 273.794C423.971 274.331 423.664 274.802 423.376 275.205L418.883 281.598C418.845 281.637 418.806 281.675 418.768 281.714C418.749 281.752 418.72 281.8 418.682 281.858ZM434.84 295.048V274.6H437.576L437.807 278.632L437.404 278.142C437.634 277.394 437.989 276.731 438.469 276.155C438.949 275.579 439.544 275.128 440.255 274.802C440.984 274.475 441.781 274.312 442.645 274.312C443.816 274.312 444.882 274.61 445.842 275.205C446.802 275.8 447.56 276.654 448.117 277.768C448.674 278.862 448.952 280.197 448.952 281.771C448.952 283.346 448.664 284.699 448.088 285.832C447.532 286.946 446.764 287.8 445.784 288.395C444.824 288.99 443.749 289.288 442.559 289.288C441.33 289.288 440.284 288.971 439.42 288.338C438.556 287.685 437.941 286.859 437.576 285.861L437.922 285.371V295.048H434.84ZM441.896 286.782C443.144 286.782 444.114 286.341 444.805 285.458C445.516 284.574 445.871 283.355 445.871 281.8C445.871 280.245 445.525 279.026 444.834 278.142C444.143 277.24 443.183 276.789 441.954 276.789C441.148 276.789 440.437 277 439.823 277.422C439.228 277.826 438.757 278.402 438.412 279.15C438.085 279.88 437.922 280.763 437.922 281.8C437.922 282.818 438.085 283.701 438.412 284.45C438.738 285.198 439.199 285.774 439.794 286.178C440.389 286.581 441.09 286.782 441.896 286.782ZM454.468 274.6L458.529 280.763L459.105 280.85L464.951 289H461.294L457.06 282.664L456.398 282.434L450.753 274.6H454.468ZM464.865 274.6L459.22 282.318L458.586 282.29L453.978 289H450.465L456.599 280.792L457.204 280.85L461.322 274.6H464.865Z" fill="white"/>
<path d="M188.35 77V74.7536C190.174 73.448 191.701 72.296 192.93 71.2976C194.178 70.2992 195.176 69.3776 195.925 68.5328C196.674 67.688 197.211 66.8912 197.538 66.1424C197.883 65.3744 198.056 64.5968 198.056 63.8096C198.056 62.792 197.739 61.9664 197.106 61.3328C196.472 60.6992 195.589 60.3824 194.456 60.3824C193.266 60.3824 192.315 60.7856 191.605 61.592C190.914 62.3792 190.52 63.464 190.424 64.8464L187.746 63.608C187.88 62.3984 188.235 61.352 188.811 60.4688C189.387 59.5856 190.165 58.904 191.144 58.424C192.142 57.944 193.294 57.704 194.6 57.704C195.675 57.704 196.616 57.8576 197.422 58.1648C198.248 58.472 198.939 58.904 199.496 59.4608C200.053 59.9984 200.475 60.632 200.763 61.3616C201.07 62.0912 201.224 62.8688 201.224 63.6944C201.224 64.904 200.926 66.0752 200.331 67.208C199.736 68.3216 198.795 69.464 197.509 70.6352C196.222 71.8064 194.533 73.064 192.44 74.408V74.4656C192.67 74.4272 192.987 74.408 193.39 74.408C193.794 74.3888 194.197 74.3792 194.6 74.3792C195.003 74.36 195.33 74.3504 195.579 74.3504H201.57V77H188.35ZM213.075 77V72.248H203.802V70.1456C203.84 70.0496 203.898 69.9344 203.974 69.8C204.07 69.6656 204.176 69.512 204.291 69.3392L212.211 57.992H215.984V69.8576H219.21V72.248H215.984V77H213.075ZM206.682 69.8576H213.075V63.1472C213.075 62.6864 213.085 62.216 213.104 61.736C213.142 61.2368 213.171 60.7472 213.19 60.2672H213.133C212.922 60.728 212.643 61.2368 212.298 61.7936C211.971 62.3312 211.664 62.8016 211.376 63.2048L206.883 69.5984C206.845 69.6368 206.806 69.6752 206.768 69.7136C206.749 69.752 206.72 69.8 206.682 69.8576ZM222.84 83.048V62.6H225.576L225.807 66.632L225.404 66.1424C225.634 65.3936 225.989 64.7312 226.469 64.1552C226.949 63.5792 227.544 63.128 228.255 62.8016C228.984 62.4752 229.781 62.312 230.645 62.312C231.816 62.312 232.882 62.6096 233.842 63.2048C234.802 63.8 235.56 64.6544 236.117 65.768C236.674 66.8624 236.952 68.1968 236.952 69.7712C236.952 71.3456 236.664 72.6992 236.088 73.832C235.532 74.9456 234.764 75.8 233.784 76.3952C232.824 76.9904 231.749 77.288 230.559 77.288C229.33 77.288 228.284 76.9712 227.42 76.3376C226.556 75.6848 225.941 74.8592 225.576 73.8608L225.922 73.3712V83.048H222.84ZM229.896 74.7824C231.144 74.7824 232.114 74.3408 232.805 73.4576C233.516 72.5744 233.871 71.3552 233.871 69.8C233.871 68.2448 233.525 67.0256 232.834 66.1424C232.143 65.24 231.183 64.7888 229.954 64.7888C229.148 64.7888 228.437 65 227.823 65.4224C227.228 65.8256 226.757 66.4016 226.412 67.1504C226.085 67.88 225.922 68.7632 225.922 69.8C225.922 70.8176 226.085 71.7008 226.412 72.4496C226.738 73.1984 227.199 73.7744 227.794 74.1776C228.389 74.5808 229.09 74.7824 229.896 74.7824ZM242.468 62.6L246.529 68.7632L247.105 68.8496L252.951 77H249.294L245.06 70.664L244.398 70.4336L238.753 62.6H242.468ZM252.865 62.6L247.22 70.3184L246.586 70.2896L241.978 77H238.465L244.599 68.792L245.204 68.8496L249.322 62.6H252.865Z" fill="white"/>
</svg>
