<svg width="250" height="250" viewBox="0 0 250 250" fill="none" xmlns="http://www.w3.org/2000/svg">
<g clip-path="url(#clip0_192_392)">
<path fill-rule="evenodd" clip-rule="evenodd" d="M135.407 114.892C144.241 115.328 157.996 119.115 158.684 121.535C159.757 125.315 157.45 139.485 161.309 147.117C162.955 150.37 169.202 150.079 171.623 151.138C179.722 154.684 203.7 161.407 208.644 169.874C210.624 173.265 222.796 215.352 229.264 236.823C229.993 239.244 230.816 241.483 231.712 243.556L232.041 241.945C234.678 228.968 223.677 284.603 223.677 281.868C223.677 277.594 220.268 259.564 223.677 254.978C227.052 250.439 235.185 257.727 238.845 257.654L238.954 257.653C241.357 257.653 243.441 256.901 245.208 255.399L247.799 254.097C260.977 247.484 268.677 232.857 270.897 232.215C274.44 231.19 280.47 233.373 277.455 236.649C275.445 238.833 270.394 253.697 262.302 259.24L259.251 261.664L259.62 261.857C263.563 263.933 265.882 265.68 266.575 267.099C267.291 268.561 266.948 270.291 265.546 272.288L265.758 272.495C267.531 274.235 268.417 275.401 268.417 275.996V278.898C270.181 281.48 270.621 283.634 269.74 285.359C268.858 287.084 267.46 288.578 265.546 289.843C264.135 293.553 262.456 285.194 260.507 286.765C258.558 288.336 255.189 289.644 250.401 290.689L258.388 237.557L254.877 263.111L253.108 279.351L253.622 279.723C256.002 281.457 257.527 282.742 257.527 284.07C257.527 286.139 247.922 323.803 232.977 325.981C229.745 326.452 212.983 324.142 207.479 319.665L207.56 320.148C208.855 327.97 208.581 332.031 206.738 332.333C184.09 336.046 119.768 337.194 13.7715 335.775C13.1408 279.518 15.9924 242.051 22.3262 223.375C38.5253 175.611 56.3856 159.297 62.6339 157.9C68.1072 156.676 87.0866 149.122 92.3921 147.117C95.8553 145.808 96.5973 141.884 100.544 141.884L100.863 141.886C104.68 141.924 108.064 142.607 109.966 140.644C114.956 135.493 113.561 128.363 115.631 121.535C116.772 117.774 124.566 114.357 135.407 114.892Z" fill="white"/>
<path fill-rule="evenodd" clip-rule="evenodd" d="M111.137 128.38C111.655 127.353 113.032 127.486 113.94 127.952C116.664 129.943 113.814 133.803 113.06 136.233C111.122 140.947 107.755 145.553 103.108 147.756C103.493 152.442 103.929 157.117 104.09 161.818C110.032 169.188 120.051 171.878 128.944 173.947C142.911 177.809 158.675 169.895 163.389 156.089C158.024 153.041 156.288 145.059 157.888 139.49C158.027 139.099 158.634 138.926 158.85 139.363C160.319 142.384 160.123 146.071 161.793 149.056C177.825 150.591 198.515 156.64 209.018 169.605C213.672 176.091 215.516 184.527 217.808 192.045C222.699 207.543 227.162 226.31 231.959 241.823L235.712 257.783C237.262 249.697 209.805 305.884 208.758 297.661L208.74 297.268C208.398 290.725 206.35 278.565 211.425 274.148C216.015 270.64 222.664 267.822 228.424 269.438C238.675 264.877 247.522 257.196 258.439 254.204C261.799 253.513 266.632 254.332 265.838 258.89C263.637 266.861 254.42 269.956 248.12 274.066C252.158 275.161 257.082 280.072 253.927 284.355C253.899 284.431 253.875 284.489 253.851 284.534C256.41 285.668 256.768 288.519 256.14 290.963C256.077 291.609 255.907 291.054 256.286 291.639C259.174 294.362 257.897 301.953 253.548 302.21C253.832 305.807 251.522 309.3 248.596 311.262C245.442 313.375 240.881 313.466 238.27 316.359C232.14 327.169 255.137 253.697 254.468 266.076C258.51 267.588 262.136 272.112 258.464 275.949C258.391 275.958 258.319 275.966 258.246 275.972C256.117 281.652 255.295 287.707 254.17 293.639C252.438 303.761 247.925 313.054 242.162 321.486C235.497 332.648 217.576 330.878 208.548 323.675C208.584 325.565 208.895 327.443 208.29 329.269C207.396 331.24 205.218 330.389 205.003 328.448C200.23 331.132 199.106 322.272 204.411 323.678C204.003 317.273 203.767 310.859 203.575 304.443C197.568 306.388 197.309 296.422 203.453 298.415L203.446 295.66C203.401 274.536 203.634 253.339 206.422 232.382C206.68 230.814 207.116 229.298 207.371 227.739C207.398 227.578 207.65 227.624 207.651 227.778C208.082 257.12 206.165 286.524 208.166 315.876C209.831 316.383 210.495 318.295 211.729 319.408C214.467 321.936 218.195 323.167 221.841 323.596C232.051 325.027 236.46 321.909 241.006 313.034C238.956 314.405 236.185 311.985 237.435 309.816L237.474 309.75C238.772 307.452 242.438 308.829 241.973 311.403C246.545 304.083 248.937 295.828 250.704 287.453L250.943 286.452C251.802 282.897 252.917 278.822 254.98 275.605C242.401 272.4 230.096 262.632 228.127 249.231C224.934 259.265 220.607 269.073 216.483 278.832C215.21 282.225 214.679 285.873 212.854 289.021C212.429 289.748 211.353 289.56 211.112 288.793C209.471 281.453 214.446 274.471 217.029 267.863C219.138 264.129 226.971 254.245 230.725 254.204C226.507 235.716 219.102 210.197 213.744 191.939C208.563 167.286 198.005 162.532 175.639 154.77C179.673 175.329 198.092 195.229 188.291 216.792L188.053 217.351C187.05 219.729 186.218 222.124 186.917 224.734C187.597 227.266 189.143 229.464 190.381 231.742C197.297 244.605 192.536 259.629 189.862 273.025C186.484 288.735 183.147 304.459 179.655 320.145C178.967 323.274 178.52 326.498 177.481 329.531C176.944 331.095 174.266 330.947 174.439 329.121C174.77 325.579 175.764 322.125 176.493 318.647C180.841 296.129 186.724 273.875 190.464 251.258C192.871 234.516 183.398 231.943 183.751 221.125C185.039 215.593 188.447 210.655 188.251 204.759C189.009 186.712 175.863 171.822 174.24 154.27L171.374 153.247C169.942 152.735 168.511 152.218 167.085 151.689C174.592 204.187 172.313 257.832 168.56 310.59C167.793 313.025 168.523 330.03 165.309 328.521C165.146 329.471 164.641 330.405 163.544 330.401C153.576 330.492 143.606 330.649 133.638 330.768C128.844 330.327 122.254 332.157 118.176 329.391C113.467 328.047 112.926 315.296 111.667 310.751L111.176 307.446C103.176 253.436 96.0161 198.312 101.767 143.767C93.7658 144.074 92.1143 152.71 91.5209 158.997C90.0371 172.874 81.0709 184.825 80.6409 198.861C80.6045 202.267 81.2474 205.566 82.6087 208.692C86.2203 216.353 92.4664 225.209 87.798 233.765C82.2769 240.425 82.7548 242.178 84.7808 250.409C90.4808 277.619 99.9467 303.778 108.951 330.013C106.995 340.21 95.2268 302.355 94.1197 299.501C88.9103 302.12 86.0647 293.427 92.0397 292.808C88.2019 279.962 84.6701 267.02 81.7296 253.936L81.6517 253.567C80.3528 247.522 77.7979 240.443 82.1123 235.08C93.2369 223.83 74.7626 211.256 77.093 197.627C75.0807 199.119 72.0347 197.55 72.0805 195.044C71.9892 192.222 75.7791 190.777 77.6028 192.93C79.4778 181.873 86.0013 172.22 87.9754 161.195L88.0646 160.677C88.7335 156.781 88.9221 152.681 90.8359 149.13C88.2307 150.822 85.4564 152.19 82.6029 153.397C87.7049 157.658 77.8251 161.547 78.6426 154.964C50.6632 163.059 44.3392 174.347 34.0663 200.271C35.9852 198.407 39.2723 200.82 38.1237 203.197C37.2073 205.702 33.2097 204.97 33.2112 202.3L32.743 203.417C26.5136 218.312 20.8439 233.568 17.9946 249.509C23.5839 248.719 22.1608 257.652 17.0967 255.134C15.0644 269.31 15.0322 283.687 15.2806 297.978C19.9951 295.506 20.137 303.906 15.3261 301.511C15.502 313.222 15.7597 324.933 15.9538 336.645C15.9932 339.137 12.1481 339.125 12.0875 336.645C11.6384 318.65 10.8199 300.623 11.209 282.623C10.843 251.381 19.8243 221.269 33.2063 193.283C45.0469 161.059 61.4025 157.395 91.4939 148.026C94.2716 143.903 100.206 140.003 105.048 142.592C107.757 138.219 109.132 133.039 111.137 128.38ZM59.5809 240.687C59.6931 240.29 60.2602 240.39 60.2784 240.781C60.5301 245.836 60.3057 250.924 59.96 256.001C59.7505 259.1 59.493 262.196 59.2747 265.274C58.6955 273.395 58.2285 281.525 57.8737 289.661C57.998 289.609 58.1254 289.563 58.2588 289.527C58.8714 289.36 59.4842 289.36 60.0965 289.527C60.6427 289.68 61.1202 289.946 61.5316 290.331L61.6187 290.416C61.9553 290.728 62.1949 291.098 62.3344 291.525C62.5331 291.906 62.6337 292.313 62.6334 292.747L62.6312 292.857C62.6285 293.481 62.4739 294.06 62.1585 294.6C61.8522 295.119 61.4398 295.531 60.9213 295.84C60.3815 296.153 59.802 296.308 59.1776 296.31C59.1109 296.317 59.0439 296.323 58.9775 296.326C58.5132 296.344 58.0799 296.247 57.6793 296.038L57.619 296.019V296.019C57.4674 300.147 57.343 304.277 57.2521 308.407C57.1702 312.006 57.061 315.606 56.9882 319.205L56.9544 321.006V321.006L56.8884 324.985C56.867 326.621 56.8775 328.188 56.3211 329.732L56.2544 329.91C55.8541 330.94 55.5421 332.375 54.471 332.948C53.6162 333.406 52.4639 333.236 51.9727 332.344C51.5602 331.599 51.9178 330.525 52.5276 330.021C52.5154 329.988 52.4973 329.958 52.4821 329.925C52.3881 329.652 52.2453 329.394 52.1607 329.118C51.8935 328.245 51.9666 327.314 51.9636 326.407C51.9636 324.806 52.0178 323.205 52.0606 321.607C52.1546 318.204 52.2638 314.805 52.3969 311.406C52.8476 300.003 53.6963 288.599 54.6684 277.228L54.9982 273.39C55.4377 268.286 55.8925 263.177 56.5364 258.099C56.5664 257.857 56.5971 257.614 56.6304 257.371C56.2847 257.199 55.9633 256.959 55.7083 256.692C54.6867 255.619 54.067 254.016 53.486 252.634L53.3524 252.32C52.7217 250.846 52.1394 249.354 51.8392 247.771L51.8105 247.625C51.6736 246.951 51.4033 245.757 52.1182 245.43C52.4912 245.26 52.7274 245.381 52.849 245.754C52.8645 245.803 52.8517 245.858 52.8248 245.9C53.1189 246.352 53.5798 246.773 53.8709 247.192L54.8673 248.616V248.616L55.3598 249.332C55.9845 250.251 56.6516 251.131 57.34 251.998C57.8825 248.189 58.5469 244.396 59.5809 240.687ZM100.44 325.561C101.686 324.584 103.715 325.115 103.715 326.917C103.715 328.727 101.683 329.249 100.44 328.272L100.378 328.226V328.226L100.318 328.178C99.6412 327.649 99.6185 326.272 100.267 325.698L100.318 325.655C100.357 325.622 100.397 325.592 100.44 325.561ZM46.1464 322.041L46.2535 322.043C46.8175 322.043 47.3421 322.186 47.8303 322.471C48.0426 322.632 48.2518 322.795 48.4641 322.959C48.8522 323.347 49.1191 323.808 49.2677 324.339L49.3802 325.17V325.17C49.395 325.6 49.3071 326.001 49.11 326.374C48.9826 326.762 48.7673 327.098 48.4641 327.381C48.179 327.687 47.8455 327.902 47.4576 328.026C47.1154 328.207 46.7506 328.299 46.3605 328.299L46.2535 328.296C45.6867 328.296 45.1618 328.154 44.6736 327.869C44.4613 327.708 44.2521 327.544 44.0398 327.381C43.6547 326.992 43.3848 326.531 43.2365 326.001C43.1998 325.725 43.1637 325.446 43.124 325.17C43.1092 324.739 43.1998 324.339 43.3939 323.966C43.5213 323.578 43.7366 323.241 44.0398 322.959C44.3252 322.653 44.6584 322.438 45.0466 322.313C45.3885 322.133 45.7559 322.041 46.1464 322.041V322.041ZM188.097 316.276L188.892 316.382V316.382C189.653 316.555 190.265 317.116 190.674 317.756C190.893 318.098 191.011 318.468 191.029 318.866C191.118 319.26 191.099 319.657 190.975 320.054C190.884 320.442 190.705 320.782 190.441 321.07C190.35 321.213 190.244 321.343 190.123 321.458C189.874 321.874 189.498 322.146 189.11 322.426C188.783 322.635 188.427 322.747 188.045 322.765C187.794 322.832 187.539 322.832 187.284 322.765C186.905 322.747 186.55 322.635 186.223 322.426C186.029 322.277 185.835 322.125 185.644 321.977C185.474 321.78 185.316 321.577 185.168 321.364C185.068 321.131 184.971 320.9 184.874 320.67C184.695 320.115 184.783 319.624 184.88 319.069C184.895 318.975 184.919 318.89 184.953 318.799L185.018 318.622C185.193 318.162 185.286 318.005 185.595 317.604L185.713 317.446C185.772 317.368 185.833 317.291 185.902 317.222C186.096 317.022 186.372 316.855 186.59 316.682C187.057 316.412 187.56 316.279 188.097 316.276ZM85.143 314.334L85.2441 314.335C85.6838 314.338 86.0965 314.447 86.4783 314.669L86.9756 315.054V315.054C87.2788 315.36 87.488 315.718 87.6063 316.134C87.6336 316.351 87.6642 316.57 87.6942 316.785C87.7064 317.122 87.6369 317.437 87.482 317.731C87.3852 318.035 87.2151 318.295 86.9756 318.52C86.7545 318.756 86.4904 318.926 86.1871 319.026C85.9225 319.164 85.6378 319.237 85.3353 319.237L85.2441 319.236C84.8013 319.236 84.3889 319.123 84.0068 318.902L83.5095 318.52V318.52C83.2063 318.214 82.9971 317.853 82.8788 317.437C82.8515 317.219 82.8212 317.004 82.7909 316.785C82.7787 316.449 82.8485 316.134 83.0031 315.842C83.1032 315.539 83.27 315.275 83.5095 315.054C83.7309 314.814 83.9947 314.644 84.298 314.547C84.5627 314.408 84.8421 314.338 85.143 314.334V314.334ZM65.1303 313.331C65.7637 313.325 66.4069 313.504 66.9255 313.871C67.4288 314.229 67.8106 314.614 68.0565 315.193C68.1233 315.351 68.1897 315.506 68.2476 315.663C68.5084 316.358 68.5569 317.055 68.196 317.734C67.8473 318.392 67.0953 318.681 66.4218 318.877C65.852 319.047 65.2061 319.075 64.639 318.872C64.357 318.772 64.0811 318.665 63.8263 318.511C63.3503 318.217 63.0925 317.868 62.7741 317.437C62.5254 317.013 62.4011 316.552 62.4011 316.061C62.4011 315.566 62.5254 315.108 62.7741 314.681C63.262 313.847 64.166 313.337 65.1303 313.331ZM32.9867 313.917C33.7876 313.917 34.4908 314.287 34.9732 314.911C35.4611 315.545 35.6401 316.334 35.4248 317.119C35.1973 317.95 34.5093 318.678 33.6569 318.887C33.0264 319.041 32.5106 319.035 31.8829 318.929C31.3522 318.838 30.9462 318.523 30.5396 318.195C30.0756 317.816 29.9331 317.125 30.0089 316.567C30.0817 316.009 30.3397 315.645 30.7309 315.314L30.7336 315.306L30.5881 315.418C30.643 315.369 30.6972 315.318 30.7521 315.266C30.77 315.236 30.7852 315.202 30.8003 315.169C31.0247 314.787 31.328 314.487 31.707 314.262C32.1043 314.032 32.5288 313.917 32.9867 313.917ZM219.658 304.732C220.098 304.613 220.541 304.613 220.98 304.732C221.305 304.807 221.587 304.956 221.827 305.177C222.069 305.335 222.268 305.538 222.418 305.789L222.466 305.875C222.812 306.463 222.866 307.136 222.718 307.791C222.533 308.601 221.787 309.338 220.98 309.529L220.953 309.534V309.534L220.926 309.541C220.598 309.644 220.268 309.659 219.94 309.583C219.61 309.568 219.303 309.471 219.022 309.289C218.664 309.059 218.364 308.762 218.133 308.404C217.951 308.119 217.854 307.813 217.839 307.482C217.781 307.264 217.781 307.045 217.839 306.827C217.854 306.496 217.951 306.19 218.133 305.905L218.521 305.405V305.405L218.561 305.371V305.371C218.87 305.062 219.237 304.85 219.658 304.732ZM189.128 288.684C193.104 288.684 193.097 294.852 189.128 294.852C185.153 294.852 185.159 288.684 189.128 288.684ZM43.5787 287.905C43.9975 287.811 44.4159 287.829 44.8314 287.959C45.0831 288.065 45.3317 288.172 45.5804 288.274L46.2172 288.766V288.766C46.3354 288.866 46.3931 288.975 46.5022 289.118L46.6387 289.296C46.836 289.56 46.8406 289.616 47.0572 290.179C47.2027 290.719 47.2027 291.258 47.0572 291.799C46.9871 292.059 46.8813 292.305 46.7448 292.532C46.6201 292.751 46.4708 292.942 46.3027 293.118L46.2172 293.205C45.9321 293.512 45.5955 293.727 45.2074 293.854C44.9618 293.997 44.698 294.067 44.4159 294.067C43.9975 294.161 43.5787 294.142 43.1636 294.012C42.9119 293.906 42.6632 293.8 42.4142 293.697L41.7777 293.205L41.2865 292.569L41.1298 292.195V292.195L40.9711 291.82L40.8589 290.986C40.8438 290.552 40.9317 290.152 41.1285 289.776C41.2043 289.512 41.3381 289.278 41.5318 289.084C41.6716 288.848 41.8593 288.66 42.0962 288.52C42.2899 288.326 42.5237 288.193 42.7875 288.117C43.0332 287.975 43.297 287.905 43.5787 287.905ZM240.206 283.499C240.536 283.487 240.846 283.556 241.131 283.708C241.231 283.741 241.328 283.784 241.422 283.832C241.789 284.047 242.08 284.338 242.295 284.703C242.471 284.982 242.568 285.282 242.583 285.606C242.649 285.899 242.643 286.193 242.564 286.486L242.538 286.574C242.471 286.813 242.371 287.034 242.238 287.237C242.225 287.262 242.21 287.286 242.192 287.307C241.989 287.629 241.719 287.892 241.385 288.09C241.016 288.302 240.618 288.411 240.188 288.414C239.33 288.414 238.59 287.95 238.138 287.237C238.074 287.137 238.038 287.01 237.993 286.907C237.953 286.81 237.889 286.686 237.855 286.574C237.741 286.143 237.741 285.712 237.855 285.282C237.931 284.966 238.074 284.691 238.289 284.457C238.462 284.193 238.689 283.984 238.972 283.832C239.322 283.628 239.698 283.519 240.097 283.501L240.206 283.499ZM72.3563 280.481C72.7761 280.367 73.1937 280.358 73.6108 280.455L73.7151 280.481C74.0484 280.56 74.3367 280.712 74.5851 280.936C74.861 281.118 75.0827 281.358 75.2431 281.655C75.4739 282.052 75.5891 282.483 75.5918 282.943C75.5891 283.405 75.4739 283.835 75.2431 284.232C75.0157 284.618 74.7094 284.921 74.3246 285.148L73.991 285.309V285.309C73.7121 285.485 73.4149 285.579 73.0931 285.594C72.8781 285.652 72.6625 285.652 72.4506 285.594C72.2319 285.594 72.0288 285.54 71.8411 285.43C71.6349 285.373 71.4587 285.269 71.3071 285.118C71.0432 284.948 70.8373 284.724 70.6857 284.442L70.4398 283.862V283.862L70.3552 283.219V283.219L70.4398 282.58V282.58L70.5735 282.265V282.265C70.6945 281.831 70.9132 281.455 71.2313 281.136C71.5497 280.821 71.9257 280.602 72.3563 280.481ZM222.739 275.366C223.182 275.226 223.622 275.208 224.061 275.305C224.358 275.305 224.637 275.381 224.895 275.533C225.177 275.611 225.42 275.751 225.626 275.957C225.987 276.19 226.269 276.5 226.478 276.885L226.811 277.677V277.677C227.012 278.189 226.939 278.944 226.818 279.46C226.718 279.884 226.524 280.254 226.236 280.569C226.09 280.815 225.896 281.009 225.65 281.155C225.369 281.41 225.046 281.592 224.678 281.7L224.577 281.728L224.541 281.737C224.534 281.74 224.528 281.74 224.522 281.74C224.519 281.743 224.513 281.743 224.51 281.743C224.365 281.779 224.216 281.8 224.061 281.806C223.622 281.903 223.182 281.886 222.739 281.746C222.478 281.637 222.215 281.524 221.951 281.413C221.726 281.243 221.505 281.07 221.281 280.897C221.108 280.673 220.935 280.448 220.762 280.227C220.519 279.848 220.389 279.435 220.371 278.995C220.292 278.702 220.292 278.41 220.371 278.116C220.371 277.816 220.447 277.54 220.595 277.282C220.729 276.87 220.956 276.515 221.281 276.215C221.505 276.042 221.726 275.869 221.951 275.699C222.215 275.587 222.478 275.475 222.739 275.366ZM29.3328 264.51C29.7904 264.385 30.2486 264.385 30.7065 264.51L31.3218 264.768V264.768C31.625 264.931 31.8649 265.152 32.0468 265.435C32.2773 265.683 32.4316 265.977 32.5105 266.314C32.6897 266.775 32.6685 267.506 32.5259 267.976C32.3652 268.51 32.1166 268.934 31.7314 269.334C31.0916 269.995 30.1088 270.186 29.2388 269.986C28.9989 269.932 28.7715 269.826 28.5653 269.695C27.9076 269.289 27.4649 268.579 27.4679 267.794C27.4679 267.709 27.474 267.624 27.4861 267.539C27.4436 267.366 27.4282 267.187 27.4345 266.999L27.5255 266.314V266.314L27.5313 266.296C27.6529 265.862 27.8712 265.486 28.1893 265.168C28.4835 264.877 28.8265 264.666 29.2186 264.54L29.3177 264.51H29.3328ZM197.513 258.912C198.144 258.912 198.704 259.176 199.162 259.594C199.62 260.013 199.817 260.641 199.844 261.241C199.857 261.562 199.79 261.862 199.644 262.141C199.55 262.429 199.39 262.678 199.162 262.891C198.738 263.312 198.11 263.573 197.513 263.573C196.882 263.573 196.321 263.309 195.863 262.891C195.405 262.469 195.208 261.844 195.181 261.241C195.169 260.922 195.236 260.622 195.381 260.343C195.465 260.084 195.604 259.854 195.797 259.658L195.863 259.594C196.288 259.17 196.915 258.912 197.513 258.912ZM216.625 244.53L216.726 244.532C217.26 244.535 217.754 244.669 218.215 244.935C218.415 245.09 218.615 245.242 218.812 245.397C219.179 245.766 219.431 246.2 219.571 246.701C219.713 247.222 219.713 247.747 219.571 248.268C219.522 248.569 219.41 248.86 219.234 249.111C218.973 249.545 218.627 249.894 218.191 250.151C217.739 250.415 217.25 250.545 216.726 250.548C216.202 250.545 215.713 250.415 215.261 250.151C214.825 249.894 214.479 249.545 214.221 249.111C214.042 248.86 213.93 248.569 213.881 248.268C213.739 247.747 213.739 247.222 213.881 246.701C214.011 246.236 214.237 245.829 214.563 245.477L214.64 245.397C214.906 245.109 215.222 244.905 215.589 244.787C215.911 244.618 216.257 244.532 216.625 244.53ZM70.7672 244.693C70.9919 244.632 71.2133 244.632 71.4377 244.693C71.7712 244.708 72.0833 244.808 72.3716 244.99C72.5415 245.123 72.7113 245.254 72.8811 245.385L73.0291 245.562C73.3456 245.948 73.3536 246.013 73.5964 246.601C73.6968 246.928 73.712 247.255 73.6392 247.583C73.6392 247.804 73.5816 248.011 73.4721 248.202C73.4118 248.411 73.3087 248.593 73.154 248.744C73.0445 248.929 72.8993 249.078 72.714 249.187C72.4778 249.402 72.1988 249.551 71.8774 249.627L71.2251 249.714V249.714C71.1405 249.703 71.0525 249.691 70.9676 249.681C70.8653 249.678 70.7659 249.667 70.6685 249.648L70.5701 249.627V249.627L70.4804 249.603C70.3617 249.568 70.2461 249.522 70.1337 249.463C69.9215 249.402 69.7365 249.296 69.5785 249.139C69.3059 248.963 69.0876 248.726 68.9299 248.432L68.8874 248.335V248.335C68.8298 248.232 68.7813 248.126 68.7446 248.011C68.6418 247.829 68.5902 247.635 68.5872 247.425C68.5269 247.147 68.5309 246.871 68.6031 246.595L68.6297 246.503L68.8632 245.948C68.9845 245.761 69.1118 245.569 69.2753 245.415C69.3738 245.327 69.6145 245.139 69.7501 245.045L69.8332 244.99V244.99C70.1216 244.808 70.4339 244.708 70.7672 244.693ZM34.2089 240.357C34.6455 238.637 36.9016 238.095 38.1298 239.323C39.3576 240.551 38.8151 242.807 37.096 243.244L36.8986 243.292V243.292C35.2368 243.714 33.7388 242.213 34.1603 240.551L34.2089 240.357V240.357ZM77.0626 226.065C77.4541 225.944 77.8483 225.926 78.2395 226.013C78.5063 226.013 78.7547 226.08 78.9821 226.213C79.2338 226.283 79.4494 226.411 79.6341 226.592C79.8558 226.723 80.0316 226.902 80.1648 227.123C80.4258 227.408 80.6017 227.742 80.6924 228.124L80.7955 228.909V228.909L80.6924 229.695V229.695C80.5923 229.928 80.4923 230.165 80.3952 230.398L80.1243 230.765C79.9047 231.058 79.8695 231.061 79.3369 231.457C78.9976 231.672 78.6307 231.79 78.2395 231.805C77.9784 231.878 77.7176 231.878 77.4541 231.805C77.1903 231.805 76.9413 231.739 76.7112 231.605C76.4622 231.535 76.2442 231.408 76.0589 231.226C75.7378 231.017 75.4861 230.741 75.3008 230.398C75.2007 230.165 75.101 229.928 75.0039 229.695L74.8975 228.909V228.909L75.0039 228.124V228.124L75.0097 228.1V228.1C75.1492 227.609 75.3981 227.181 75.7556 226.82L76.3442 226.365V226.365C76.5744 226.217 76.814 226.141 77.0626 226.065ZM218.618 226.653C219.458 226.423 220.38 226.665 220.995 227.281C221.611 227.897 221.854 228.815 221.623 229.655C221.396 230.474 220.738 231.138 219.916 231.36C219.671 231.426 219.422 231.463 219.17 231.451C218.748 231.448 218.354 231.341 217.988 231.129L217.514 230.762V230.762C217.284 230.55 217.123 230.298 217.029 230.007C216.88 229.728 216.814 229.428 216.826 229.104L216.823 229.046C216.814 228.931 216.829 228.815 216.866 228.703C216.866 228.585 216.884 228.469 216.914 228.357C217.135 227.539 217.803 226.877 218.618 226.653ZM37.5354 218.442C37.8053 218.432 38.057 218.487 38.2905 218.611C38.5361 218.69 38.7453 218.824 38.9212 219.018C39.1153 219.194 39.2487 219.406 39.3276 219.648C39.4519 219.882 39.5065 220.134 39.4974 220.403C39.4974 220.758 39.4064 221.089 39.2305 221.392C39.1274 221.526 39.0243 221.659 38.9212 221.789C38.6786 222.035 38.3905 222.202 38.057 222.296L37.8629 222.362V222.362C37.5779 222.465 37.2989 222.472 37.0017 222.432C36.6894 222.39 36.401 222.305 36.1466 222.111C35.8976 221.965 35.7008 221.768 35.5552 221.519L35.3885 221.125V221.125C35.3521 220.992 35.3369 220.792 35.3278 220.652C35.3278 220.631 35.3278 220.613 35.3248 220.591C35.3248 220.473 35.3612 220.185 35.3912 220.067C35.4582 219.818 35.5944 219.582 35.7493 219.382C35.8827 219.173 36.0647 219.009 36.2891 218.887L36.3091 218.872V218.872L36.3315 218.857C36.401 218.808 36.4741 218.76 36.5468 218.708C36.8501 218.532 37.1806 218.442 37.5354 218.442ZM194.126 216.288C194.611 216.288 195.063 216.413 195.481 216.655C195.496 216.661 195.511 216.668 195.523 216.674C195.924 216.91 196.242 217.229 196.479 217.629C196.721 218.044 196.842 218.493 196.842 218.972C196.842 219.454 196.721 219.9 196.479 220.316C196.242 220.716 195.924 221.034 195.523 221.271C195.511 221.28 195.496 221.286 195.481 221.292C195.063 221.535 194.611 221.656 194.126 221.659C193.643 221.656 193.192 221.535 192.773 221.292C191.954 220.813 191.442 219.918 191.442 218.972C191.442 218.026 191.954 217.132 192.773 216.655C193.192 216.413 193.643 216.288 194.126 216.288ZM68.1954 212.782L68.278 212.78C68.5994 212.768 68.8993 212.835 69.1753 212.983C69.4634 213.077 69.715 213.238 69.9276 213.466L70.3703 213.835V213.835L70.4988 213.939C70.52 213.957 70.5409 213.975 70.5611 213.993C70.8586 214.293 71.0617 214.645 71.177 215.051C71.2134 215.285 71.2434 215.515 71.2679 215.749C71.3343 216.355 70.9768 216.977 70.5826 217.408C70.3703 217.635 70.1184 217.796 69.8275 217.893C69.5486 218.038 69.2453 218.105 68.9236 218.093C68.2656 218.035 67.6412 217.896 67.1681 217.386C67.1132 217.326 67.0617 217.262 67.0074 217.198L66.6284 216.762V216.762C66.3403 216.471 66.1398 216.128 66.031 215.734C66.0004 215.524 65.9734 215.318 65.9461 215.112C65.9185 214.49 66.2217 213.908 66.6284 213.466C67.0038 213.056 67.6405 212.805 68.1954 212.782ZM52.8886 206.397C56.042 206.397 56.036 211.288 52.8886 211.288C49.7377 211.288 49.7437 206.397 52.8886 206.397ZM211.447 199.539L211.546 199.541C212.068 199.544 212.556 199.674 213.008 199.938L213.596 200.39V200.39C213.954 200.754 214.203 201.178 214.343 201.669C214.376 201.927 214.409 202.185 214.446 202.44C214.461 202.84 214.376 203.213 214.194 203.559C214.079 203.916 213.879 204.228 213.596 204.493C213.333 204.775 213.023 204.975 212.663 205.09C212.317 205.272 211.944 205.357 211.546 205.342C211.022 205.338 210.534 205.208 210.082 204.944C209.885 204.793 209.691 204.641 209.494 204.493C209.163 204.157 208.926 203.769 208.784 203.325L208.751 203.213L208.645 202.44C208.63 202.042 208.714 201.669 208.896 201.324C209.012 200.963 209.212 200.654 209.494 200.39C209.758 200.107 210.07 199.907 210.428 199.792C210.744 199.626 211.084 199.54 211.447 199.539ZM197.243 190.383C197.525 190.373 197.785 190.431 198.031 190.559C198.283 190.64 198.501 190.783 198.686 190.98C199.078 191.293 199.317 191.917 199.317 192.423C199.317 192.93 199.078 193.555 198.686 193.867C198.431 194.119 198.131 194.294 197.785 194.391L197.243 194.464V194.464C196.715 194.489 196.178 194.213 195.802 193.867C195.726 193.797 195.654 193.728 195.578 193.661C195.236 193.345 195.087 192.875 195.065 192.423C195.056 192.184 195.108 191.96 195.217 191.751C195.287 191.532 195.408 191.347 195.578 191.186C195.654 191.119 195.726 191.05 195.802 190.98C196.212 190.601 196.691 190.41 197.243 190.383ZM51.8274 182.129C52.3677 182.131 52.8739 182.258 53.3483 182.512L53.4494 182.568L54.0984 183.072C54.4137 183.363 54.6351 183.708 54.7655 184.106C54.9656 184.488 55.0566 184.903 55.0414 185.346C55.0566 185.789 54.9656 186.201 54.7655 186.583C54.6351 186.983 54.4137 187.326 54.0984 187.617C53.9195 187.851 53.689 188.033 53.413 188.166C53.155 188.272 52.9006 188.381 52.6428 188.491C52.3547 188.581 52.0212 188.594 51.7088 188.609C51.1418 188.606 50.6144 188.463 50.1226 188.178L49.4861 187.687V187.687C49.1798 187.402 48.9612 187.065 48.8338 186.674C48.6534 186.33 48.5619 185.962 48.562 185.569L48.5642 185.461C48.5642 185.437 48.5642 185.41 48.5676 185.382C48.6037 185.097 48.6434 184.812 48.6822 184.527C48.7826 184.109 48.9736 183.742 49.2587 183.432C49.3314 183.287 49.4285 183.169 49.5531 183.072C49.9531 182.671 50.4258 182.398 50.972 182.243C51.257 182.207 51.5421 182.168 51.8274 182.129ZM192.529 174.094L192.621 174.096C193.031 174.096 193.41 174.199 193.762 174.402C193.916 174.521 194.068 174.639 194.219 174.757C194.502 175.039 194.696 175.372 194.802 175.754L194.884 176.355V176.355C194.893 176.667 194.829 176.955 194.686 177.225C194.596 177.504 194.441 177.747 194.219 177.953C194.016 178.174 193.774 178.329 193.492 178.42C193.225 178.562 192.934 178.626 192.621 178.614C192.215 178.614 191.833 178.511 191.481 178.305C191.329 178.189 191.175 178.071 191.023 177.953C190.767 177.694 190.583 177.393 190.472 177.05L190.444 176.955L190.362 176.355C190.35 176.043 190.414 175.754 190.556 175.485C190.647 175.203 190.805 174.96 191.023 174.757C191.229 174.535 191.472 174.381 191.751 174.29C191.994 174.162 192.254 174.097 192.529 174.094V174.094ZM69.5518 170.81L69.6576 170.812C70.261 170.815 70.822 170.966 71.3436 171.269C71.568 171.443 71.7927 171.615 72.0168 171.791C72.4322 172.206 72.7172 172.698 72.8783 173.265L72.9962 174.15V174.15C73.0144 174.611 72.9174 175.039 72.7081 175.436C72.575 175.852 72.3443 176.209 72.0168 176.512C71.7169 176.837 71.3587 177.067 70.9433 177.201C70.546 177.41 70.1185 177.507 69.6576 177.489C69.0541 177.489 68.4931 177.337 67.9715 177.034C67.7474 176.861 67.523 176.686 67.2956 176.512C66.8829 176.094 66.5979 175.603 66.4371 175.039L66.3189 174.15V174.15C66.3007 173.692 66.3977 173.262 66.607 172.864C66.7404 172.452 66.9708 172.091 67.2956 171.791C67.5989 171.464 67.9564 171.233 68.3718 171.1C68.7385 170.906 69.131 170.812 69.5518 170.81ZM181.835 162.473C182.111 162.4 182.387 162.4 182.663 162.473C183.075 162.491 183.461 162.615 183.819 162.842L184.446 163.328V163.328C184.455 163.337 184.464 163.346 184.474 163.358C184.853 163.74 185.116 164.192 185.262 164.711L185.371 165.526V165.526C185.386 165.948 185.298 166.342 185.107 166.706C184.993 167.056 184.805 167.36 184.546 167.623L184.446 167.721C184.164 168.025 183.833 168.24 183.448 168.364C183.206 168.507 182.942 168.577 182.663 168.577C182.251 168.671 181.835 168.653 181.423 168.522C181.177 168.416 180.928 168.313 180.68 168.21L180.601 168.164C179.664 167.652 179.085 166.579 179.085 165.526C179.085 164.474 179.664 163.397 180.601 162.885C180.628 162.873 180.652 162.857 180.68 162.842C181.038 162.615 181.423 162.491 181.835 162.473Z" fill="black"/>
<path fill-rule="evenodd" clip-rule="evenodd" d="M193.04 75.7054C191.891 56.8433 185.77 35.4585 167.756 26.1975C128.044 10.2599 75.8313 50.3955 73.067 91.3972C72.1033 105.432 79.8959 120.769 94.1364 124.671C97.3025 128.865 102.091 131.427 106.817 133.651C163.106 162.855 199.467 139.115 193.04 75.7054V75.7054Z" fill="white"/>
<path fill-rule="evenodd" clip-rule="evenodd" d="M205.863 63.9721C203.874 58.4471 201.773 52.9645 199.562 47.5244C197.409 42.2298 195.464 36.8208 192.791 31.7772C176.822 1.65329 147.784 1.65329 132.774 5.58935C124.989 2.23551 110.409 3.18154 102.304 6.20795C89.1822 11.1074 73.1866 30.3807 67.7177 39.0401C55.643 58.159 48.1074 83.606 56.1281 105.699C57.1764 108.586 58.5134 111.261 60.0187 113.838C59.0705 115.123 57.9791 116.34 56.7701 117.536C53.1773 121.091 49.5845 124.528 46.4809 128.537C43.3966 132.522 40.8397 136.759 38.9362 141.43C35.3471 150.24 35.1743 160.215 39.9194 168.621C44.0477 175.935 51.3609 181.382 59.6002 181.901C60.0233 181.96 60.4469 182.014 60.8723 182.057C61.964 183.855 63.2952 185.511 64.8144 186.954C69.4692 191.381 80.5647 193.653 86.8934 193.798C87.2178 194.059 87.5453 194.32 87.8728 194.578C91.7452 197.625 95.8086 200.7 100.254 202.868C103.265 204.339 107.213 205.567 110.355 204.506C111.78 205.458 114.118 205.258 115.531 204.478C117.854 203.199 119.743 200.894 120.893 198.535C123.679 192.807 123.009 186.539 122.294 180.419C121.505 173.66 120.747 166.898 119.977 160.139C119.373 154.853 118.743 149.48 117.135 144.388C116.305 141.75 115.216 139.215 113.809 136.832C113.845 136.631 113.839 136.431 113.782 136.243C113.321 134.745 112.369 133.96 111.24 132.941C111.095 132.811 110.949 132.677 110.807 132.541C110.243 131.898 109.639 131.301 108.993 130.794C108.745 130.542 108.499 130.288 108.254 130.033C106.213 127.895 104.284 125.648 102.571 123.24C100.909 120.905 99.4081 118.467 97.9798 115.984C96.5273 113.458 95.566 110.671 94.1165 108.163C93.9922 107.948 93.6768 107.906 93.501 108.084C93.0522 108.548 92.7641 109.064 92.8187 109.607L92.5943 109.64C92.5094 108.821 91.7543 108.154 90.7293 108.333C89.1949 108.6 87.9335 108.7 86.6053 108.191C86.8388 106.641 87.0541 105.088 87.2663 103.533C87.6545 100.67 88.0153 97.7986 88.3246 94.9269C89.0736 95.1058 89.8166 95.3636 90.5444 95.691C91.5814 96.155 92.5609 96.7797 93.3979 97.5469C94.2227 98.305 94.7928 99.3269 95.7995 99.8545C96.9579 100.458 98.3558 99.4603 98.0162 98.1503C97.3278 95.503 93.4312 93.9868 91.0204 93.4865C90.1926 93.3136 89.3466 93.2409 88.5005 93.2591C88.6916 91.4154 88.8614 89.5717 89.0009 87.7249C89.0676 86.8516 89.1282 85.9783 89.1858 85.1019C91.0599 84.5348 93.0673 84.365 95.0172 84.6319C95.66 85.1444 96.3029 85.6508 96.9245 86.1632C98.8986 87.7947 100.864 89.4352 102.804 91.1061C102.98 91.2546 103.153 91.4032 103.329 91.5549C104.481 92.5464 105.919 91.5639 105.725 90.1599C104.142 78.655 111.189 69.5032 119.44 62.4135C128.574 54.5626 145.179 53.6484 156.041 40.0495C161.044 41.0677 172.213 44.0917 176.822 51.4362C183.275 61.7282 182.432 70.9497 182.923 82.6244C183.415 94.3083 184.664 106.495 182.011 118.016C179.563 128.638 172.938 137.714 162.658 141.887C162.403 141.99 162.145 142.09 161.888 142.187C156.572 144.191 150.771 144.758 145.179 143.703C138.99 142.533 133.823 139.7 128.674 136.216C128.377 136.019 127.943 136.425 128.167 136.722C134.954 145.717 148.284 148.722 158.858 146.347C159.353 146.235 159.844 146.114 160.332 145.98C157.967 152.782 158.443 160.248 161.524 166.871C163.377 170.855 166.203 174.303 169.645 177.023C173.438 180.019 178.144 182.439 180.776 186.645C183.187 190.499 182.472 194.829 178.344 197.055C177.304 197.619 176.904 199.442 177.935 200.242C178.329 200.545 178.724 200.855 179.127 201.158C181.438 202.902 187.784 206.177 188.812 206.298C197.94 207.38 204.077 200.679 208.01 192.773C212.629 183.494 211.428 172.186 206.34 163.35C202.258 156.26 194.219 149.274 197.415 140.301C198.555 137.095 200.887 134.363 203.153 131.895C205.736 129.084 208.514 126.452 210.991 123.541C213.454 120.651 215.637 117.506 216.856 113.879C218.636 108.579 217.751 102.848 216.413 97.556C213.548 86.1966 209.827 74.9889 205.863 63.9721Z" fill="black"/>
<path fill-rule="evenodd" clip-rule="evenodd" d="M157.036 100.359C159.699 101.182 164.093 103.424 162.705 106.884C160.767 110.062 155.628 107.727 153.137 106.7C150.899 105.959 149.734 109.094 151.898 110.04C169.777 117.113 169.711 98.4456 157.684 98.7197C156.36 98.7497 156.318 100.086 157.036 100.359ZM133.382 76.0188L133.836 75.8862C136.197 75.2024 138.606 74.0216 140.702 75.8641C141.525 76.5876 141.695 78.0911 141.106 78.9935C139.765 81.0498 137.775 80.7356 135.608 80.9109C133.959 81.0443 132.334 81.5289 130.794 82.1345C129.535 82.6297 128.368 83.3268 127.266 84.1043C126.184 84.8688 125.444 86.0639 124.334 86.7519C123.927 87.0042 123.457 86.7446 123.31 86.3356C122.793 84.8846 123.668 83.077 124.408 81.8406C125.312 80.3323 126.685 79.0988 128.162 78.1654C129.778 77.1431 131.566 76.5529 133.382 76.0188V76.0188ZM167.78 74.4575C171.771 74.4563 175.61 76.6757 177.842 79.9292C178.601 81.0345 178.045 82.672 176.956 83.3085C175.735 84.0229 174.429 83.5085 173.624 82.4848L173.577 82.4227C172.297 80.7182 170.647 79.3758 168.691 78.5018C167.736 78.0752 166.681 77.7292 165.649 77.5536L165.315 77.4964C164.848 77.4181 164.305 77.3433 163.883 77.4165C163.656 77.4463 163.448 77.5212 163.256 77.6352C163.349 77.8365 163.111 78.0791 162.891 77.9584C161.899 77.4138 162.021 76.4422 162.84 75.6872C163.998 74.6188 166.284 74.4578 167.78 74.4575Z" fill="black"/>
<path d="M148.461 123.758C153.857 126.262 162.186 126.902 165.642 122.539" stroke="black" stroke-width="3.63888" stroke-linecap="round"/>
<ellipse cx="137.444" cy="89.3919" rx="3.41145" ry="5.45832" fill="black"/>
<ellipse cx="168.261" cy="87.5725" rx="3.41145" ry="5.45832" fill="black"/>
</g>
<defs>
<clipPath id="clip0_192_392">
<rect width="250" height="250" fill="white"/>
</clipPath>
</defs>
</svg>
