<svg width="250" height="250" viewBox="0 0 250 250" fill="none" xmlns="http://www.w3.org/2000/svg">
<g clip-path="url(#clip0_208_355)">
<path fill-rule="evenodd" clip-rule="evenodd" d="M195.178 218.673C192.399 217.682 189.721 216.538 187.281 214.855C180.246 209.618 175.659 201.738 171.325 194.273C165.22 183.414 160.871 171.843 157.865 159.773C156.573 154.587 156.134 148.574 153.199 143.977C146.546 134.349 127.036 135.597 116.676 137.287C109.738 138.514 108.304 146.278 106.728 152.023C105.416 156.796 104.558 161.624 103.837 166.516C102.121 167.644 100.185 168.56 98.3393 169.357C78.2244 175.525 74.689 186.96 67.0062 204.624C54.0298 230.297 18.8186 240.349 13.4999 270.733C10.073 290.792 19.818 309.663 29.865 326.339C39.2218 344.554 52.2845 353.296 73.0874 348.993C92.5994 344.616 111.351 337.294 130.52 331.636C139.804 329.354 149.074 323.416 158.84 325.486C178.963 330.006 199.638 332.13 220.261 331.544C249.216 332.715 249.212 304.924 246.24 283.403C244.158 249.912 227.265 228.407 195.178 218.673V218.673Z" fill="white"/>
<path fill-rule="evenodd" clip-rule="evenodd" d="M197.114 267.135C199.533 268.735 201.568 271.161 203.202 273.714C196.382 273.004 189.574 272.187 182.781 271.255C183.67 270.687 184.568 270.131 185.486 269.606C188.835 267.719 193.374 264.662 197.114 267.135ZM83.8067 287.294C82.5571 286.805 82.0735 284.9 81.5865 283.808C80.0595 280.383 78.6659 276.9 77.2159 273.441C82.7212 271.872 88.0748 270.131 93.7779 269.294C99.91 268.396 106.133 268.178 112.322 268.38C124.857 268.789 137.276 270.838 149.601 273.035C161.911 275.229 174.22 277.337 186.617 278.991C198.762 280.612 210.945 281.798 223.151 282.84C225.522 283.042 229.477 283.895 231.384 282.029C232.894 280.551 232.943 277.825 231.053 276.623C229.876 275.874 228.171 275.863 226.826 275.69C225.133 275.472 223.433 275.327 221.729 275.214C221.035 275.169 220.341 275.126 219.647 275.084C225.22 272.983 231.041 271.837 237.083 272.156C237.425 274.232 238.965 276.368 239.807 278.08C241.279 281.068 242.426 284.093 243.178 287.343C244.752 294.136 244.821 301.187 244.376 308.115C243.968 313.892 243.091 320.281 238.56 324.372C235.129 327.47 230.289 328.617 225.798 328.978C220.579 329.397 215.279 328.949 210.104 328.25C202.845 327.268 195.552 325.97 188.436 324.231C174.653 320.862 161.442 315.501 149.254 308.233C143.31 304.689 137.638 300.702 131.612 297.293C125.473 293.818 118.939 291.123 112.079 289.449C104.402 287.576 96.3766 286.777 88.486 287.239C87.1167 287.319 85.1385 287.816 83.8067 287.294ZM74.9101 283.816C75.7168 286.434 76.3341 289.423 78.056 291.623C79.7616 293.803 82.3347 294.572 85.0003 294.766C88.2144 294.999 91.4663 294.85 94.6874 294.97C101.294 295.215 107.81 296.288 114.125 298.256C120.011 300.091 125.474 302.952 130.737 306.127C135.603 309.062 140.327 312.214 145.195 315.141C143.9 315.735 142.619 316.377 141.331 316.937C138.629 318.11 135.911 319.242 133.181 320.345C127.797 322.521 122.39 324.645 116.928 326.617C105.914 330.594 94.7194 334.069 83.3898 337.029C77.9863 338.441 72.5059 340.09 66.8922 340.325C61.9143 340.533 57.3034 339.126 53.2887 336.166C44.9616 330.027 38.3367 321.166 32.9811 312.426C29.7994 307.234 27.0227 301.778 24.7261 296.136C23.5645 293.284 22.5111 290.387 21.5629 287.456C21.1181 286.08 20.6963 284.697 20.297 283.307C20.1213 282.695 19.953 282.082 19.7863 281.469C28.3011 278.87 36.9171 276.525 45.7354 275.222C50.4435 274.527 55.2144 274.175 59.9741 274.226C62.3367 274.252 64.6979 274.379 67.048 274.623C68.313 274.754 69.5728 274.923 70.8272 275.133C71.3456 275.219 71.8784 275.346 72.4128 275.44C73.2291 278.237 74.0522 281.032 74.9101 283.816ZM250.924 272.695C251.383 271.767 251.576 270.854 251.741 269.843C251.866 269.072 252.199 267.987 251.907 266.986C251.581 265.865 250.692 264.863 250.053 263.907C249.348 262.85 248.644 261.793 247.941 260.735C246.534 258.619 245.13 256.502 243.728 254.383C238.004 245.73 232.319 237.052 226.626 228.379C221.573 220.683 216.605 212.917 211.398 205.324C206.946 198.831 202.094 192.446 195.999 187.396C188.294 181.012 179.119 178.004 169.535 175.657C168.489 174.571 167.091 173.977 165.596 174.098C163.485 171.703 161.807 170.03 161.046 166.985C160.682 165.527 160.796 161.428 159.375 160.565C157.688 159.54 156.807 160.897 156.342 162.427C154.785 167.543 156.572 174.423 160.684 179.548C158.951 185.536 156.654 194.045 152.557 198.842C148.169 203.978 142.101 205.577 135.553 205.682C123.068 205.883 110.595 201.243 101.071 193.201C98.1767 190.756 95.4884 188.027 93.0561 185.123C91.2318 182.945 89.0737 179.583 87.6465 177.043C87.6465 176.052 86.4775 175.017 98.3793 174.217C110.281 173.417 111.184 157.12 111.448 154.902C111.663 153.101 112.578 150.306 111.309 148.837C110.77 148.214 109.665 148.113 108.982 148.537C107.695 149.337 107.271 151.381 106.867 152.77C106.3 154.715 104.446 166.788 100.933 168.186C99.2887 168.84 97.4027 168.852 95.6631 168.973C93.515 169.123 91.3623 169.233 89.2228 169.483C88.4337 169.575 87.5729 169.83 86.7943 169.838C86.2878 169.843 85.7652 169.596 85.2756 169.424C83.6231 168.84 81.9719 169.278 80.2695 169.507C65.218 171.529 49.7201 176.146 36.8817 184.453C25.5659 191.774 17.5937 202.304 12.3332 214.615C6.96587 227.179 3.88939 240.765 1.31115 254.14C0.447469 258.621 -0.306771 263.123 -0.954771 267.641C-1.58101 272.006 -2.36437 276.468 -2.55189 280.878C-2.62613 282.622 -2.20917 284.243 -1.56757 285.837C-0.845011 287.63 0.862829 288.338 2.50091 289.175C6.09675 291.014 9.89003 292.441 13.7982 293.451C16.1857 297.795 18.195 302.308 19.8097 306.991C19.2107 308.178 19.1982 309.951 19.083 311.104C18.7972 313.977 18.675 316.865 18.6494 319.75C18.5979 325.534 18.9457 331.313 19.2183 337.088C19.4948 342.945 20.4139 366.055 20.5636 368.877C20.6801 371.069 20.5233 374.136 21.6782 376.082C23.4529 379.074 27.8331 378.973 29.8619 376.548C80.2695 387.384 175.022 384.12 213.183 378.668C218.148 377.958 216.589 378.745 217.852 377.491C218.799 376.549 219.606 374.936 219.868 373.639C220.218 371.909 219.653 370.343 218.662 368.942C217.621 367.47 217.431 365.086 217.044 363.336C216.129 359.198 215.674 341.025 215.247 339.012C215.114 338.384 214.985 337.721 214.829 337.057C221.829 337.72 229.123 337.72 235.782 335.379C239.559 334.051 243.081 331.966 245.792 328.988C249.074 325.383 250.901 320.844 251.84 316.106C253.052 309.997 253.309 303.669 253.071 297.459C252.74 290.119 251.523 282.676 248.501 275.938C249.495 275.014 250.329 273.9 250.924 272.695Z" fill="black"/>
<path fill-rule="evenodd" clip-rule="evenodd" d="M174.214 27.3276C157.104 22.3058 98.2615 27.4533 96.8064 28.541C94.4253 30.5196 82.843 36.7975 81.0408 38.2308C64.7448 55.5024 80.28 81.1512 79.0845 101.987C79.1606 109.378 76.0112 116.126 74.5635 123.236C73.9523 126.962 74.087 130.816 76.0291 134.161C79.4435 140.139 86.6541 141.351 92.5184 143.761C95.4365 145.017 98.1629 146.799 100.662 148.748C117.489 163.633 126.855 173.827 151.408 170.469C151.533 171.641 152.572 172.793 153.859 172.269C156.874 171.041 159.867 169.739 162.907 168.576C163.557 170.142 165.424 170.589 166.689 169.206L166.696 169.216C172.324 164.65 175.904 158.407 178.563 151.724C180.423 147.868 181.947 143.845 183.111 139.702C183.242 139.233 183.225 138.815 183.106 138.454C188.477 119.944 190.465 100.436 189.051 81.2175C188.765 77.2524 188.016 73.2348 188.2 69.253C188.366 65.6556 189.916 62.2527 191.098 58.9023C197.19 44.6594 187.877 31.812 174.214 27.3276Z" fill="white"/>
<path fill-rule="evenodd" clip-rule="evenodd" d="M176.367 4.20193L176.549 4.06053C178.522 2.51287 180.382 0.484534 183.163 1.24513C185.445 1.86913 186.597 3.75713 187.087 6.03873C187.781 5.31233 188.456 4.56033 189.115 3.78273C190.907 1.67073 194.911 2.76513 195.445 5.45633C196.527 10.8771 196.581 16.3939 195.528 21.8243C195.368 22.6467 195.179 23.4659 194.959 24.2755C196.159 22.7811 197.275 21.2227 198.277 19.5811C199.362 17.7987 201.813 18.6819 201.983 20.5859C202.027 21.0787 202.053 21.5779 202.059 22.0803C202.824 22.3491 203.352 23.1363 203.151 24.1027C202.037 29.4211 200.626 34.6659 198.93 39.8211C201.656 38.3747 204.712 37.5171 207.589 38.5379C212.159 40.1635 213.247 45.1491 212.354 49.4403C211.231 54.8355 207.698 59.3507 203.141 62.3107C202.6 63.1235 202.066 63.9427 201.557 64.7779C201.547 67.1363 201.119 69.4883 200.255 71.6739C199.282 74.1283 197.567 76.2499 195.455 77.8627C194.712 79.4792 192.746 80.6598 191.02 80.3326L190.93 80.3139L190.927 80.3171C191.368 81.8979 191.749 83.4947 192.079 85.0947C194.631 97.4909 193.338 110.395 191.011 122.721L190.936 123.114C188.847 134.084 186.415 145.444 181.688 155.629C177.413 164.839 170.165 172.938 159.807 174.948C147.621 177.312 134.133 173.565 123.653 167.316C119.855 165.05 123.336 159.079 127.119 161.383C132.578 164.704 138.507 167.024 144.779 168.247C150.642 169.386 157.199 169.773 162.821 167.412C170.651 164.122 175.304 156.087 178.248 148.522C179.983 144.058 181.282 139.45 182.491 134.823C184.05 128.874 185.503 122.887 186.594 116.832C188.626 105.54 189.285 93.8115 187.135 82.4867C186.45 78.8739 185.48 75.2387 184.216 71.7443C184.018 71.4979 183.829 71.2227 183.659 70.9219C182.338 68.6051 181.426 65.9715 180.443 63.4659C179.583 61.9715 178.642 60.5347 177.643 59.1299C176.151 57.9827 174.729 56.7562 173.426 55.4179C173.426 55.4179 171.794 54.072 171.324 53.7248L173.468 52.1725L175.612 50.6202L171.324 53.7248C170.246 53.9383 169.155 54.0848 168.098 54.2051C165.087 54.5475 162.059 54.4195 159.064 54.0195C152.587 53.1555 126.476 56.1719 114.93 59.1043C112.525 59.7152 111.391 61.8723 110.117 63.8979C109.012 65.6599 107.607 67.1183 105.921 68.3192L105.733 68.4515C102.437 70.7331 94.5301 67.3911 91.7445 73.8333C88.1477 82.1507 84.693 107.076 86.2834 107.29C90.4434 107.853 92.7474 110.042 96.1362 112.391C96.3602 112.544 96.229 112.96 95.941 112.855C93.7042 112.048 91.2849 111.572 88.9393 111.181C86.8177 110.826 84.5841 110.762 82.5361 111.52C79.3937 112.685 77.861 115.319 77.2306 118.288C76.9842 119.45 76.8754 120.663 76.8626 121.863L76.8607 122.211C76.8624 125.994 77.5679 130.189 80.3154 132.98C81.4834 134.167 83.0674 134.967 84.725 135.188C86.5394 135.431 87.6593 134.612 89.3265 134.186C91.2465 133.696 95.3873 137.733 95.3873 139.181C96.5809 140.295 93.365 137.338 93.7554 137.719L93.7558 137.72L93.7585 137.722C94.0145 137.837 94.2577 137.991 94.4785 138.176C94.8401 138.484 95.1441 138.82 95.3873 139.181C95.9281 139.287 96.4659 140.21 96.8915 140.76C97.7683 141.89 98.5586 142.41 99.3106 143.575C100.658 145.005 101.999 146.439 103.32 147.895C104.911 149.645 106.46 151.435 108.018 153.214L108.799 154.103C109.64 155.06 110.479 156.016 111.317 156.976L111.567 157.258C112.41 158.203 113.057 158.9 113.147 160.26C113.211 161.268 112.127 161.952 111.227 161.722C109.841 161.364 109.197 160.276 108.367 159.196L107.112 157.587L105.931 156.071C105.346 155.316 104.754 154.564 104.165 153.812C103.989 155.197 101.6 151.8 101.6 151.8L100.165 149.72C100.165 149.72 95.6169 146.177 96.8915 144.781L96.9489 144.72L96.9637 144.704C96.7006 144.362 96.556 143.943 96.5326 143.487C96.5042 142.933 96.9747 145.298 96.8915 144.781C96.574 142.81 90.6216 136.181 89.6001 136.608C89.4049 136.69 87.051 136.754 86.8801 136.76C85.3009 137.22 84.3201 137.24 83.0401 136.92C82.8801 136.92 81.9201 136.92 83.0401 136.92C82.4001 137.08 77.1201 135.188 74.8801 126.04C74.8801 125.4 74.7201 123 75.0401 122.52C74.8801 122.2 74.7137 116.178 76.0001 115.64C76.3201 115 76.6465 113 77.9201 111.96C79.2801 110.853 72.0801 120.35 73.1201 119C73.5361 117.038 73.3298 113.357 74.4817 111.744C74.5521 111.648 74.6225 111.552 74.6961 111.46C72.1601 115.64 68.2758 102.432 65.017 95.9936L64.7417 95.4599C62.5284 91.1528 60.5975 86.2969 61.7138 81.3923C61.9122 80.5251 62.2002 79.6963 62.5714 78.9219C61.9794 78.9955 61.3842 79.0627 60.7922 79.1299C59.4322 79.2835 58.0498 77.5299 58.5906 76.2403C58.8754 75.5651 59.189 74.9123 59.5282 74.2787C60.469 72.5315 61.6242 70.9443 62.9842 69.5107C60.6994 69.4499 58.4114 69.4499 56.1522 69.1875C54.0178 68.9411 51.7746 67.7731 51.8403 65.3123C51.9064 62.9661 53.965 61.1901 55.8738 60.0455C57.7525 57.5466 60.1355 55.4698 62.8309 53.9264C62.2977 53.8066 61.7574 53.7177 61.2083 53.6631L60.933 53.6387C59.3938 53.5171 58.0114 53.0947 56.6162 52.4515C55.3682 51.8755 55.3874 50.1283 56.2034 49.2483C58.8414 46.3965 62.7941 47.3251 65.8696 48.9594C65.6555 48.6876 65.4209 48.4259 65.1653 48.1755L65.0094 48.0266C63.4984 46.6195 65.7662 44.3616 67.2722 45.7639C67.748 46.2071 68.1742 46.6887 68.5544 47.1991L68.5906 47.1235C70.5802 43.0878 73.4903 39.4755 76.9333 36.5809L77.7424 35.9081C83.951 30.722 85.8667 28.2639 94.1233 29.0275C93.7713 27.5277 93.8058 25.8405 93.8851 24.4532L93.8962 24.2659C94.213 19.0499 96.1361 12.8067 101.224 10.4643C102.546 9.85953 104.043 10.8483 103.691 12.3619C103.445 13.4339 103.144 14.4771 102.77 15.4915C103.88 14.3235 105.071 13.2323 106.331 12.2275C111.471 8.13153 118.338 4.60833 125.093 5.76033C128.805 6.39713 131.717 8.72673 134.824 10.6723C137.947 12.6307 141.435 13.7923 145.093 14.2115C150.203 14.8003 155.333 14.2083 160.386 13.2739C163.858 11.7603 167.227 9.98753 170.517 8.07713C172.539 6.90273 174.507 5.61953 176.367 4.20193ZM85.634 117.491C86.7156 117.213 87.9284 117.216 89.0132 117.488C91.8132 118.192 94.418 120.535 94.5812 123.488C94.6548 124.823 93.5796 126.099 92.3316 126.442C90.9172 126.832 89.7012 126.141 88.8756 125.034C87.9892 123.85 87.7684 122.567 86.6836 121.491L86.4335 121.248C85.5114 120.366 84.117 119.226 82.8372 119.431C82.6484 119.459 82.5076 119.203 82.6996 119.101C83.7428 118.531 84.4276 117.799 85.634 117.491ZM100.178 103.581C100.672 103.178 101.324 103.651 101.092 104.231L101.074 104.272C100.488 105.507 101.176 106.957 101.887 107.991C102.498 108.883 101.343 109.731 100.53 109.347C98.2451 108.263 98.3635 105.053 100.178 103.581ZM108.53 66.4706C108.488 66.1698 108.888 66.045 108.991 66.3426C110.696 71.293 111.186 75.677 110.907 80.9122L110.881 81.3768C110.58 86.4194 109.697 91.7564 106.645 95.8978C105.938 96.8546 104.491 96.2914 104.725 95.0882C105.663 90.2722 107.464 85.6994 108.165 80.8258C108.898 75.7314 109.227 71.5682 108.53 66.4706ZM92.6003 84.4642C92.8499 83.1426 94.8819 81.7826 95.9091 83.1106C96.2547 83.5618 95.8483 84.1154 95.4323 84.2818C95.0419 84.4354 94.6931 84.2242 94.3091 84.301C93.9985 84.3637 93.7715 84.5575 93.6204 84.8224L93.5891 84.8802C93.2883 85.4562 92.4947 85.0274 92.6003 84.4642ZM91.7681 73.9363C92.4977 72.5859 94.1777 71.7251 95.6145 72.5667C96.0881 72.8451 95.9025 73.6547 95.3265 73.6291L94.9852 73.6153C93.9608 73.578 92.9364 73.5987 92.0753 74.2467C91.8833 74.3907 91.6721 74.1187 91.7681 73.9363Z" fill="black"/>
<path d="M110.72 77.72C106.56 103.96 108.909 113.88 100.16 113.88C91.4122 113.88 82.7204 87.8 79.0404 77.72C79.0404 63.3164 86.1322 51.64 94.8804 51.64C103.629 51.64 110.72 63.3164 110.72 77.72Z" fill="black"/>
<path d="M88.8521 136.371C90.1919 136.368 90.8022 137.779 91.8166 138.337C92.421 138.67 93.1657 138.852 93.6348 139.371C94.1721 139.965 94.6156 140.595 95.1832 141.162C96.0489 142.027 97.0358 142.616 97.5927 143.765C98.2099 145.038 99.5806 146.147 100.58 147.14C101.143 147.701 101.597 148.394 102.121 148.993C102.956 149.948 103.758 150.89 104.451 151.952C104.826 152.527 105.341 152.956 105.781 153.479C106.551 154.395 107.24 155.376 108.014 156.291C109.194 157.684 110.524 159.023 112.141 159.876" stroke="black" stroke-width="3.2" stroke-linecap="round"/>
<path d="M77.4639 111.497C77.2455 111.497 76.7146 112.064 76.6084 112.25C76.3424 112.715 75.9401 113.148 75.6499 113.604C75.5289 113.794 76.1279 115.44 76.0004 115.64C75.8453 115.884 75.0322 114.699 74.8974 114.955C74.7485 115.238 74.6436 115.528 74.6083 115.846C74.5105 116.726 74.1845 117.529 74.1845 118.436C74.1845 118.645 74.2191 118.566 74.1132 118.499C73.9511 118.398 75.6499 126.52 74.0419 118.88C74.0419 119.349 73.9706 119.811 73.9706 120.282C73.9706 121.061 73.9225 121.844 74.0577 122.611C74.1424 123.09 74.2444 123.594 74.3825 124.06C74.4751 124.373 74.4108 125.225 74.6677 125.367C74.7083 125.39 74.6835 125.628 74.6835 125.7C74.6835 126.254 74.7271 126.849 74.8974 127.379C75.106 128.028 75.3186 128.676 75.5232 129.328C75.8959 130.515 76.7371 131.564 77.3807 132.615C77.4531 132.733 77.5277 132.898 77.6421 132.987C77.6554 132.998 77.7201 133.024 77.7094 133.031C77.582 133.116 77.7438 133.504 77.7886 133.601C77.9979 134.058 78.3643 134.43 78.5689 134.885C78.737 135.258 78.9095 135.602 79.2184 135.883C79.4927 136.132 79.7715 136.373 80.0977 136.552C80.2658 136.645 80.4376 136.629 80.6046 136.703C81.1116 136.924 81.7246 137.002 82.2047 137.269C82.5262 137.447 83.0864 137.376 83.4523 137.376C83.7727 137.376 84.4921 137.509 84.7514 137.32C84.824 137.268 84.9474 137.292 85.0366 137.233C85.1979 137.128 88.7755 137.293 88.9604 137.233C89.1859 137.16 85.9553 136.708 86.1931 136.647C86.4983 136.569 86.7929 136.445 87.0644 136.291C87.3899 136.106 87.7867 136.007 88.0863 135.807" stroke="black" stroke-width="1.92" stroke-linecap="round"/>
<ellipse cx="93.4973" cy="103.791" rx="11.8927" ry="7.68" transform="rotate(21.8206 93.4973 103.791)" fill="black"/>
<path fill-rule="evenodd" clip-rule="evenodd" d="M151.523 148.053C147.725 148.053 146.116 147.436 143.645 145.983C141.173 144.531 138.531 142.659 137.906 139.856C137.323 137.243 138.471 134.698 141.01 133.701C142.43 133.143 158.795 131.838 161.362 131.667C163.929 131.497 166.379 131.707 168.027 133.417C172.287 137.835 166.372 143.562 162.592 145.677C159.217 147.566 155.322 148.053 151.523 148.053ZM153.361 144.069C156.504 144.069 161.653 141.77 161.653 140.651C161.653 139.531 146.646 140.643 146.324 141.6C146.002 142.558 150.218 144.069 153.361 144.069ZM157.061 111.277C159.477 112.746 163.159 116.171 160.56 119.813C157.5 123.023 153.094 119.342 150.923 117.677C148.91 116.387 146.648 119.705 148.516 121.212C164.204 132.827 170.57 111.662 158.283 109.551C156.93 109.318 156.428 110.823 157.061 111.277ZM129.773 97.9654C133.889 94.9266 140.046 97.2655 141.06 102.02C141.765 102.391 142.149 102.98 142.233 103.844L142.253 104.06V104.06C142.353 105.085 141.44 106.056 140.528 106.327C139.501 106.631 138.688 106.474 137.735 106.037C136.821 105.619 136.503 104.432 136.669 103.53L136.684 103.455C136.928 102.335 135.968 101.25 135.001 100.806C133.91 100.305 132.686 100.618 131.738 101.282C130.684 102.018 129.809 103.278 129.512 104.533L129.483 104.663C129.249 105.747 129.074 107.779 130.125 108.402C130.311 108.512 130.178 108.764 129.986 108.73C127.702 108.34 126.341 106.966 126.328 104.508C126.313 101.905 127.711 99.4879 129.773 97.9654ZM167.674 97.1005C171.784 95.6426 176.925 99.5591 175.341 104.083C174.302 107.053 170.281 105.862 170.655 102.885L170.668 102.794C170.906 101.245 169.733 100.515 168.295 101.023C166.163 101.777 165.014 105.126 166.013 107.08C166.135 107.32 165.793 107.523 165.65 107.292L165.513 107.072C164.398 105.296 163.38 103.985 163.747 101.716C164.084 99.6247 165.684 97.8058 167.674 97.1005ZM159.338 86.3339C159.327 86.1339 159.538 85.9991 159.717 86.0443C161.178 86.4119 162.501 87.4743 163.832 88.1636C165.284 88.9156 166.771 89.5233 168.348 89.9687C169.885 90.4027 171.437 90.619 173.035 90.6055C174.763 90.5911 176.455 89.9425 178.15 89.9959C180.698 90.0763 182.03 93.7819 179.52 95.0555C175.866 96.9092 170.446 95.5623 166.891 94.0212C164.03 92.7806 159.524 89.8491 159.338 86.3339ZM140.775 87.1809C142.108 85.4644 144.805 85.3614 145.989 87.3838C147.212 89.4734 145.742 91.5684 143.665 92.0007C139.873 93.6958 135.989 94.9931 131.848 95.531L131.287 95.6016C127.683 96.0401 123.134 96.2793 119.877 94.6167C119.558 94.4535 119.654 93.9675 119.974 93.8763C121.81 93.3511 123.866 93.3524 125.755 93.0078C127.551 92.6804 129.332 92.3182 131.081 91.7873C134.537 90.738 137.811 89.2385 140.775 87.1809Z" fill="black"/>
<path fill-rule="evenodd" clip-rule="evenodd" d="M190.455 102.755C187.49 119.952 166.79 121.854 163.112 104.781C163.703 104.56 164.127 104.124 164.038 103.277C164.018 99.5561 165.365 95.6239 169.279 93.5548C173.324 91.4199 178.058 91.2081 182.74 91.262C191.673 91.0796 191.485 97.4815 190.455 102.755M159.872 95.2759C157.068 95.1745 153.521 95.2593 151.01 96.7239C150.319 95.1297 148.525 93.4276 146.713 92.5175C153.45 92.6865 160.385 92.118 167.173 91.6767C165.548 92.6263 164.037 94.0529 163.054 95.7023C162.143 95.2855 160.837 95.3244 159.872 95.2759M147.514 104.578C139.74 127.521 120.335 117.521 118.22 114.581C114.404 109.715 113.686 97.8876 117.01 94.7252C121.768 91.8655 128.504 92.6015 134.125 92.5314C144.451 92.6508 151.785 95.2994 147.514 104.578M199.634 94.026C197.522 93.7892 195.265 93.7415 193.301 94.5388C192.696 92.3354 190.798 90.4932 188.655 89.6826C188.396 89.4036 188.435 89.2538 187.548 89.2956C182.107 87.8935 176.018 88.6354 170.789 90.0732C162.531 90.6695 153.867 91.1396 145.54 91.9612C137.739 88.9575 114.196 88.5172 112.733 95.9207C110.893 95.6847 107.759 94.4428 106.213 96.1274C94.8694 94.4786 83.1486 96.77 71.7562 97.7906C68.8886 98.2434 67.4116 103.123 70.6667 103.056C72.4967 102.63 70.6104 100.018 73.0746 99.8212C84.0664 98.7919 94.8178 97.3316 105.922 97.1607C105.536 98.8047 113.267 98.9116 113.381 97.9516C113.397 97.9588 113.415 97.9636 113.431 97.97C111.521 104.074 113.245 112.859 116.698 116.644C121.535 121.6 133.679 123.022 139.063 119.833C146.009 116.89 153.235 102.116 151.205 97.2076C154.889 96.2066 158.531 96.5071 162.354 97.017C161.479 99.1367 159.968 104.355 162.142 104.807C161.743 115.167 172.739 121.632 182.877 117.382C191.651 113.85 194.719 102.672 193.646 95.8874C194.738 97.697 203.909 95.7268 199.634 94.026" fill="black"/>
</g>
<defs>
<clipPath id="clip0_208_355">
<rect width="250" height="250" fill="white"/>
</clipPath>
</defs>
</svg>
