<svg width="250" height="250" viewBox="0 0 250 250" fill="none" xmlns="http://www.w3.org/2000/svg">
<g clip-path="url(#clip0_204_90)">
<path fill-rule="evenodd" clip-rule="evenodd" d="M238.527 250.468C238.527 247.879 234.943 243.283 234.937 240.937C237.95 240.399 240.469 236.316 239.802 233.76C238.626 232.861 235.543 231.091 234.268 230.265C226.501 230.501 229.453 219.695 228.574 214.202C227.689 208.828 227.031 203.209 225.736 197.804C223.435 193.48 222.356 188.632 220.156 184.329C219.174 182.903 217.587 181.596 217.112 179.939C212.301 174.685 205.678 171.535 200.228 167.085C202.343 166.408 202.202 163.555 202.066 161.723C202.558 159.333 202.032 156.335 199.852 154.989C199.116 152.589 195.896 151.751 194.013 153.28C192.776 147.737 187.937 144.373 182.868 142.316C182.873 142.3 182.877 142.284 182.882 142.268C177.77 140.239 171.643 139.228 166.542 140.368C169.234 110.368 146.258 109.267 134.597 111.788C128.632 113.078 119.682 117.093 117.649 122.674C116.502 125.825 113.208 135.986 112.739 139.228C103.834 134.146 93.5111 127.446 85.7875 137.676C84.241 139.459 82.5296 140.783 80.2154 141.395C72.9898 143.27 63.3994 143.333 59.2925 150.699C56.8378 155.262 59.0455 158.268 58.3859 162.833C25.8602 185.675 -1.32094 269.82 4.7821 308.966C6.25026 322.975 13.4183 347.772 31.1107 344.68C40.1347 354.55 191.598 354.55 207.217 344.68C220.073 348.043 233.136 342.838 238.527 330.525C245.373 313.641 238.118 295.407 236.832 278.087C236.051 273.714 234.889 270.243 234.268 265.766C234.009 263.901 234.902 260.798 234.268 259.078C234.567 257.959 238.527 253.057 238.527 250.468Z" fill="white"/>
<path fill-rule="evenodd" clip-rule="evenodd" d="M166.931 130.672C167.289 132.204 166.962 133.931 167.022 135.503C167.079 137.006 167.257 138.499 167.518 139.98C170.264 138.535 173.509 138.35 176.639 138.815C180.687 139.416 185.372 140.747 188.545 143.452C189.328 144.12 189.977 144.911 190.52 145.783C191.172 146.83 191.589 148.012 192.623 148.761C194.222 149.921 196.205 150.37 197.742 151.656C199.31 152.966 200.283 154.925 200.489 156.947C200.599 158.023 200.421 159.029 200.217 160.079C200.034 161.023 200.124 161.411 200.372 162.32C200.568 163.033 200.195 163.843 199.588 164.237C200.89 165.131 202.174 166.052 203.436 167.011C210.79 172.592 217.008 179.548 221.318 187.734L221.422 187.937L221.543 188.182C222.593 190.34 225.342 196.649 225.683 198.067C225.927 198.808 226.164 199.552 226.384 200.3C226.964 202.283 227.456 204.29 227.864 206.314L227.974 206.867C228.305 208.567 228.875 210.58 228.783 212.392C229.737 217.338 230.583 222.306 231.305 227.294C231.4 227.947 231.139 228.478 230.736 228.831C231.701 228.986 232.66 229.177 233.609 229.369L234.16 229.485L234.436 229.546C236.412 229.991 238.363 230.64 239.657 232.3C241.052 234.096 241.081 236.403 239.679 238.211C238.489 239.747 236.751 240.476 234.937 240.937C234.579 241.027 234.217 241.11 233.855 241.183C233.612 241.234 233.452 240.902 233.682 240.774L234.067 240.561L234.593 240.273C235.961 239.519 237.38 238.668 238.137 237.308C239.164 235.462 238.351 233.753 236.588 232.816C235.112 232.03 233.286 231.829 231.647 231.56L230.97 231.448C229.257 231.175 227.508 230.997 225.779 231.193C224.265 231.366 222.732 231.881 221.51 232.806L221.396 232.895L221.279 232.993C220.207 233.922 218.665 236.009 220.688 236.611C222.233 237.068 224.116 236.954 225.741 237.043L225.951 237.056C227.311 237.148 228.732 237.148 230.108 237.312C230.601 237.369 231.088 237.449 231.564 237.561C232.931 237.884 232.46 239.702 231.257 239.83C230.962 239.862 230.662 239.878 230.361 239.884C229.574 240.476 228.486 240.745 227.555 241.113C226.665 241.465 225.772 241.814 224.873 242.156C225.648 242.192 226.422 242.256 227.193 242.352C227.442 242.38 227.446 242.716 227.193 242.742C225.337 242.931 223.481 243.136 221.631 243.394C218.768 243.792 215.922 244.323 213.142 245.132C211.11 245.726 209.102 246.434 207.155 247.259L206.566 247.513L206.323 247.619C204.555 248.385 202.269 249.281 201.254 250.969C200.722 251.849 200.489 253.209 201.238 254.051C202.039 254.957 203.716 254.854 204.838 254.898L204.928 254.902C207.302 255.017 209.679 255.033 212.057 254.95C217.039 254.774 222.025 254.23 226.918 253.273C227.82 253.097 228.211 254.451 227.302 254.662C221.531 256.003 215.696 256.738 209.774 256.773L209.126 256.774C206.819 257.215 204.557 257.873 202.314 258.615L201.865 258.764C200.54 259.212 198.278 259.657 197.497 260.972C196.979 261.846 197.161 262.444 197.673 262.851C198.575 263.564 200.495 263.698 201.43 263.734C205.174 263.874 208.921 263.9 212.668 263.82C214.54 263.778 216.412 263.712 218.284 263.616C220.115 263.52 222.07 263.248 223.894 263.423C224.678 263.5 224.94 264.652 224.089 264.867C221.84 265.437 219.317 265.387 216.993 265.459L216.726 265.468C214.23 265.558 211.731 265.596 209.235 265.59C207.092 265.581 204.95 265.538 202.81 265.459L200.918 265.384L200.583 265.368C199.575 265.314 198.545 265.198 197.651 264.783C196.825 266.166 197.442 268.018 198.508 269.113C199.522 270.156 200.985 270.668 202.386 270.988C202.518 271.017 202.649 271.046 202.78 271.072C205.859 271.698 208.995 271.644 211.875 273.058C214.297 274.249 216.515 276.233 219.228 276.703C221.654 277.126 223.417 276.057 224.71 274.08C224.78 273.971 224.851 273.862 224.918 273.753C225.935 272.114 226.668 270.31 227.74 268.703C228.288 267.884 228.905 267.097 229.66 266.457C229.999 266.166 232.374 264.905 232.745 264.528C234.342 262.889 232.928 259.443 233.344 257.388C233.83 254.998 235.932 254.156 237.193 252.303C239.59 248.777 233.017 245.474 234.982 241.618C235.008 241.571 235.039 241.536 235.081 241.513C235.254 241.42 235.529 241.536 235.513 241.763C235.295 244.636 238.035 246.614 239.024 249.103C240.15 251.936 238.351 253.651 236.515 255.542C234.159 257.971 235.817 260.691 235.292 263.616C235.224 263.999 235.114 264.337 234.971 264.639C235.373 264.889 235.684 265.302 235.752 265.88C236.56 272.728 237.428 279.554 238.845 286.308L239.149 287.743L239.555 289.657C240.565 294.444 241.508 299.251 241.688 304.145C242.25 308.275 242.474 312.44 242.14 316.598C241.129 329.254 234.054 342.496 221.199 346.38C218.224 347.28 215.068 347.513 212.015 346.883C210.969 346.668 209.504 346.194 208.188 345.478C208.266 346.321 208.329 347.165 208.354 348.006C208.788 348.489 208.984 349.218 208.737 349.842C207.689 349.497 206.736 348.951 205.878 348.203L205.736 348.077C205.227 346.187 205.078 344.119 205.004 342.128L204.985 341.561C204.966 341.011 204.953 340.47 204.934 339.942C204.825 336.656 204.902 333.363 205.071 330.08L205.196 327.663C205.482 322.025 205.714 316.401 205.558 310.748C205.379 304.243 204.822 297.766 204.124 291.296C203.762 287.958 203.353 284.627 202.934 281.296C202.598 278.614 202.035 275.728 202.025 272.963C199.871 272.502 197.756 271.618 196.431 269.811C195.026 267.894 194.819 265.443 196.066 263.478C194.86 261.827 195.849 260.272 197.34 259.222C195.049 257.938 193.772 254.438 193.433 252.003C193.202 250.332 193.129 247.833 193.842 245.954C192.819 245.99 191.795 246.096 190.771 246.272C189.586 246.48 188.425 246.783 187.279 247.161L186.699 247.353C186.406 247.451 186.077 247.567 185.75 247.702C187.82 251.126 185.161 254.23 181.75 255.116C181.1 255.286 180.438 255.404 179.769 255.5C178.262 255.708 176.722 255.772 175.228 255.91C172.368 256.172 169.491 256.547 166.62 256.668C165.99 256.697 165.584 256.403 165.391 255.993C165.385 255.987 165.382 255.983 165.382 255.977C165.315 255.868 165.27 255.753 165.254 255.632C165.264 255.641 165.276 255.648 165.286 255.654C165.148 254.886 165.609 253.952 166.62 253.84C170.764 253.372 174.966 253.35 179.122 253.008L179.389 252.985C180.694 252.873 182.23 252.666 183.264 251.84C184.224 251.072 184.31 250.073 183.926 249.171C183.919 249.193 183.913 249.218 183.91 249.241C183.881 249.42 183.635 249.414 183.555 249.289C183.315 248.924 183.254 248.566 183.315 248.22C183.026 247.888 182.678 247.593 182.3 247.366C180.626 246.348 178.425 246.07 176.521 245.769C174.438 245.44 172.339 245.289 170.236 245.19C166.099 244.994 161.948 245.331 157.878 246.073C157.708 246.102 157.638 245.865 157.804 245.811C159.391 245.286 161.014 244.844 162.655 244.496C162.617 244.489 162.579 244.483 162.54 244.473C162.396 244.438 162.294 244.262 162.342 244.121C162.348 244.098 162.358 244.076 162.368 244.057C161.67 243.737 161.379 242.662 162.224 242.227C164.857 240.867 167.948 240.252 170.838 239.692C173.612 239.158 176.415 238.783 179.222 238.451C183.968 237.894 189.142 237.907 193.708 236.409L193.896 236.346C195.755 235.704 197.975 234.405 198.105 232.211C198.297 228.892 193.366 229.756 191.311 229.836C185.689 230.051 180.073 230.441 174.476 231.043C173.334 231.164 172.191 231.289 171.049 231.417C169.299 231.612 167.545 231.817 165.798 232.034C164.822 232.156 163.824 232.316 162.819 232.47C162.505 232.547 162.198 232.601 161.891 232.63C161.868 232.633 161.849 232.627 161.833 232.617C160.371 232.822 158.902 232.978 157.475 232.934C157.311 232.931 157.209 232.674 157.382 232.598C159.225 231.817 161.276 231.356 163.334 230.994C164.608 230.044 166.146 229.283 167.411 228.547C169.145 227.536 171.132 226.048 173.1 225.443C173.986 224.745 174.991 224.185 175.916 223.804C175.651 223.392 175.555 222.818 175.602 222.336C175.779 220.604 177.164 219.638 178.764 219.298C179.26 219.196 179.833 219.12 180.444 219.091C180.457 218.768 180.601 218.451 180.921 218.214L181.015 218.142L181.082 218.089C182.156 217.217 184.289 214.761 181.721 214.582C180.358 214.486 179.206 215.484 178.121 216.16C175.868 217.564 173.689 217.634 171.116 217.286L169.96 217.12L169.768 217.094C167.907 216.85 166.02 216.816 164.982 218.713C163.868 220.742 163.478 222.592 161.231 223.708C159.084 224.774 156.7 224.985 154.729 226.451C152.617 228.018 151.03 230.22 149.302 232.172C145.491 236.473 141.129 240.272 136.636 243.843L135.837 244.476C131.7 247.746 127.429 250.965 122.796 253.484C122.764 253.5 122.732 253.507 122.704 253.507C122.579 253.494 122.486 253.334 122.598 253.225C128.009 247.968 134.339 243.705 139.897 238.588C142.361 236.32 144.706 233.932 146.962 231.456C148.934 229.283 150.681 226.841 152.979 224.992C154.095 224.092 155.302 223.404 156.652 222.924C157.913 222.473 159.328 222.249 160.489 221.558C162.764 220.208 162.544 217.008 164.819 215.554C166.77 214.308 169.146 214.764 171.309 215.059L171.568 215.094C172.969 215.28 174.419 215.436 175.756 214.883C177.081 214.336 178.146 213.312 179.481 212.768C181.34 212.003 183.977 212.185 184.931 214.23C185.842 216.182 184.598 217.948 183.145 219.244C185.126 219.603 186.864 220.56 187.011 222.512C188.464 222.463 189.913 222.412 191.366 222.361C196.425 222.185 201.51 221.846 206.572 221.936C206.457 221.42 206.406 220.889 206.399 220.348C206.396 220.048 206.409 219.747 206.431 219.44C206.47 218.914 206.815 218.598 207.328 218.543L208.471 218.421L208.854 218.383C210.996 218.181 213.391 218.138 215.024 219.554C215.9 220.32 216.608 222.08 216.179 223.254C217.177 223.596 218.128 224.034 218.995 224.588C220.713 224.012 222.518 224.076 224.246 224.678L224.451 224.751C225.679 225.202 227.42 226.056 228.088 227.274C226.467 216.293 224.284 205.405 221.539 194.648C219.787 190.353 217.574 186.247 214.889 182.457C208.128 172.908 198.386 166.342 189.638 158.793C188.866 159.643 188.035 160.451 187.257 161.229L186.927 161.561C185.343 163.165 183.691 164.7 182.002 166.193C178.473 169.313 174.758 172.192 171.07 175.118C163.635 181.017 156.913 187.28 151.32 194.981C151.219 195.12 150.94 195.039 151.018 194.854C154.854 185.735 162.807 178.802 170.031 172.369C173.83 168.986 177.718 165.685 181.371 162.143C183.074 160.491 184.724 158.783 186.28 156.992L186.667 156.543C187.685 155.352 190.067 151.715 191.642 154.339C191.972 154.888 191.958 155.59 191.642 156.139C191.195 156.92 190.627 157.665 190.006 158.38C192.214 159.581 194.376 160.849 196.491 162.191C196.37 161.545 196.4 160.83 196.513 160.114L196.55 159.887L196.704 159C196.925 157.693 197.039 156.477 196.209 155.201C195.172 153.606 193.216 153.108 191.657 152.186C189.862 151.124 188.924 149.703 187.963 147.898C186.122 144.445 181.963 143.06 178.389 141.949L177.939 141.809C174.636 140.785 171.063 140.238 167.76 141.221C168.07 142.663 168.475 144.085 168.982 145.469C169.521 146.943 170.753 148.582 170.627 150.174C170.54 151.276 169.218 152.453 168.121 151.611C166.568 150.42 166.258 148.479 165.841 146.63C165.439 144.842 165.182 143.01 165.073 141.181C164.967 139.418 165.05 137.656 165.267 135.905L165.434 134.618L165.474 134.32C165.656 133.02 165.926 131.655 166.657 130.636C166.727 130.538 166.899 130.536 166.931 130.672ZM121.866 123.362C121.889 123.466 121.906 123.569 121.921 123.672C122.027 124.11 122.067 124.532 122.054 124.955C122.061 125.108 122.049 125.261 122.021 125.412C121.964 125.91 121.844 126.422 121.681 126.981C121.336 128.17 120.941 129.345 120.499 130.503C119.625 132.792 118.594 134.976 117.319 137.069C115.016 140.85 112.088 143.989 108.637 146.703C109.292 147.243 109.932 147.805 110.574 148.357C113.675 151.026 116.692 153.816 119.615 156.679C124.805 161.765 129.89 166.945 134.857 172.249C137.306 174.865 139.711 177.516 142.102 180.184L142.18 180.274L142.265 180.375C143.114 181.401 144.811 183.85 146.077 183.457C146.717 183.258 147.39 182.304 147.826 181.849L148.629 181.012C148.895 180.732 149.161 180.45 149.421 180.165C154.092 175.048 158.512 169.734 162.661 164.179C164.686 161.469 166.644 158.708 168.53 155.899C169.5 154.455 170.451 152.998 171.384 151.529C172.286 150.108 173.015 148.581 174.344 147.521C175.319 146.743 176.671 147.456 176.425 148.732C176.038 150.741 174.647 152.441 173.552 154.139C172.452 155.845 171.326 157.535 170.175 159.207C167.96 162.426 165.649 165.578 163.255 168.666C161.193 171.325 159.042 173.916 156.833 176.455L156.229 177.146C153.853 179.855 151.521 182.73 148.896 185.202C146.545 187.417 143.977 186.771 141.835 184.62C139.126 181.899 136.611 178.957 134.005 176.138C128.797 170.503 123.534 164.912 118.217 159.379L116.469 157.559C114.431 155.431 112.401 153.291 110.425 151.111L110.169 150.827C107.915 148.291 105.623 145.114 102.418 143.825C102.186 143.732 102.272 143.403 102.522 143.449C104.573 143.828 106.286 144.862 107.88 146.097C109.312 143.726 110.59 141.228 111.704 138.672L110.989 138.362C105.874 136.152 100.11 133.923 94.6181 134.281C92.405 134.425 90.0437 135.264 88.5157 136.925C87.132 138.43 86.4412 140.46 85.1714 142.063C83.717 143.898 81.82 144.725 79.492 144.799L78.36 144.834C77.058 144.876 75.8094 144.944 74.4888 145.231C70.9106 146.006 67.1381 147.265 64.1372 149.414C63.0485 150.194 61.9247 151.266 61.3983 152.447C60.8764 153.617 60.7263 154.986 60.6754 156.249C60.6508 156.865 60.8354 157.678 60.6812 158.267C60.6988 158.2 60.7068 158.236 60.709 158.306C61.1887 158.684 61.5154 159.313 61.5509 159.94C64.5423 158.381 67.6389 157.014 70.7957 155.783C74.3106 154.411 77.9346 153.313 81.5592 152.272C85.1068 151.254 88.82 150.833 92.4364 150.107C92.8968 150.015 93.0568 150.636 92.6277 150.801C88.8268 152.261 85.149 153.992 81.3164 155.365C77.4856 156.738 73.6834 158.225 69.9637 159.876C62.774 163.07 55.829 167.134 50.1647 172.648C44.6325 178.034 40.3653 184.576 36.3967 191.154C32.3999 197.778 28.8328 204.644 25.6536 211.697C19.3644 225.648 14.6482 240.317 11.5432 255.301C8.52148 269.882 6.83316 284.984 7.3954 299.887C7.66228 306.966 8.52692 314.049 10.5378 320.857C11.4984 324.11 12.701 327.288 14.2204 330.321C15.8226 333.52 17.9813 336.37 19.4444 339.623C19.5647 339.89 19.6108 340.147 19.604 340.386C25.844 345.792 35.6111 342.149 42.3644 338.921C57.9036 331.491 73.1548 323.36 87.6508 314.028C101.958 304.818 115.516 294.54 128.755 283.872C127.731 282.816 126.828 281.632 126.035 280.56C124.396 278.345 123.164 275.836 122.316 273.218C121.324 270.153 121.017 266.873 121.299 263.67L121.379 262.764C121.648 259.739 121.96 256.67 122.624 253.714C122.63 253.676 122.659 253.66 122.691 253.66C122.722 253.66 122.755 253.68 122.768 253.714C124.556 259.44 124.7 265.593 126.71 271.244C127.519 273.516 128.774 275.712 130.278 277.596C130.928 278.412 131.689 279.12 132.466 279.811C132.518 279.458 132.588 279.11 132.694 278.768L132.777 278.496C132.882 278.167 133.01 277.801 133.19 277.478C132.937 277.404 132.691 277.324 132.448 277.234C132.255 277.164 132.214 276.854 132.448 276.803C133.084 276.656 133.74 276.582 134.409 276.55C134.515 276.534 134.617 276.531 134.719 276.537C135.971 276.498 137.244 276.588 138.451 276.608C140.54 276.64 142.624 276.678 144.71 276.771C148.704 276.943 153.212 277.708 157.142 276.78C160.713 275.936 164.233 273.554 167.097 271.314C169.599 269.356 171.529 267.03 173.606 264.71C173.457 264.733 173.309 264.755 173.161 264.776L171.822 264.96C170.132 265.185 168.125 265.362 166.784 264.55C166.271 264.24 166.419 263.536 166.94 263.343C168.31 262.841 170.009 263.257 171.468 263.187C172.614 263.132 173.772 263.011 174.902 262.774C175.273 262.697 175.641 262.608 176.006 262.502C178.681 261.731 181.824 259.017 179.699 256.054C179.619 255.942 179.708 255.84 179.817 255.82C179.865 255.811 179.916 255.82 179.958 255.856C182.377 257.858 181.119 261.449 178.831 262.988C178.044 263.52 177.155 263.891 176.233 264.163C176.409 264.486 176.441 264.883 176.23 265.26C174.438 268.454 171.404 271.26 168.562 273.516C165.644 275.833 162.278 278.018 158.659 279.043C154.479 280.22 149.888 279.334 145.648 278.96C143.35 278.758 141.059 278.518 138.764 278.252C138.15 278.182 137.513 278.128 136.866 278.067C137.475 278.867 137.958 279.788 138.275 280.342C139.305 282.14 138.355 284.508 136.358 285.058C136.15 285.116 135.935 285.148 135.724 285.154C135.186 286.233 133.906 287.027 132.722 286.62C132.208 286.444 131.711 286.204 131.235 285.916C123.788 292.457 115.948 298.594 107.884 304.348C92.9308 315.017 77.2568 324.761 61.0044 333.328C57.3436 335.257 53.6548 337.135 49.9348 338.94L46.7329 340.483C43.1889 342.189 39.5618 343.885 35.798 344.943C35.0642 345.15 34.2959 345.316 33.5087 345.444C33.4985 345.515 33.4959 345.582 33.5005 345.647C32.7928 345.741 32.1753 345.755 31.648 345.69L31.5279 345.673C26.9144 345.996 21.9797 344.869 19.0117 341.5C18.517 341.847 17.7957 341.885 17.1592 341.386C13.9583 338.874 12.0501 335.05 10.3756 331.399C8.67764 327.696 7.34676 323.836 6.36884 319.882C4.41556 311.985 3.64084 303.84 3.60001 295.716C3.45236 264.414 11.2917 232.837 24.9084 204.735C28.3618 197.608 32.1685 190.614 36.3944 183.914C40.6088 177.232 45.5026 171.023 51.7698 166.15C53.572 164.749 55.4469 163.468 57.3807 162.288C56.0828 161.644 55.5672 160.008 55.4764 158.555C55.2748 155.327 55.6594 151.608 57.5493 148.885C60.2005 145.064 64.9464 142.708 69.3471 141.562C71.6444 140.965 74.0207 140.616 76.3903 140.498C77.612 140.437 78.8815 140.638 80.0885 140.506C81.1535 140.391 81.812 139.755 82.4245 138.92C83.9935 136.778 85.0149 134.531 87.2655 132.961C89.5746 131.351 92.5669 130.735 95.3487 130.902C98.5893 131.097 101.546 132.373 104.4 133.841C106.976 135.165 109.476 136.632 111.913 138.196C112.36 137.15 112.781 136.095 113.172 135.037C113.931 132.985 114.591 130.868 115.127 128.747C115.67 126.596 115.591 123.756 117.231 122.138C118.657 120.733 121.404 121.285 121.866 123.362ZM232.42 266.871L232.408 266.873C229.09 268.84 227.504 273.753 225.942 275.9C226.07 276.62 226.159 277.353 226.335 278.034C226.739 279.6 227.266 281.152 227.878 282.643C228.953 285.276 230.3 287.785 231.545 290.338C232.547 292.392 233.528 294.483 234.292 296.645C234.209 296.728 234.132 296.826 234.067 296.948C233.239 298.499 232.591 298.194 231.063 297.855L231.062 297.852C230.188 295.177 228.928 292.665 227.795 290.098L227.519 289.472L227.247 288.845C226.3 286.648 225.437 284.431 224.934 282.076C224.614 280.576 224.482 279.033 224.464 277.5C223.635 278.182 222.639 278.672 221.385 278.86C218.701 279.265 216.27 277.585 214.083 276.236L213.591 275.934C212.221 275.101 210.864 274.332 209.286 273.938C207.494 273.491 205.641 273.491 203.82 273.263C203.602 273.234 203.382 273.206 203.161 273.171C203.871 275.523 204.201 278.076 204.624 280.432C205.212 283.734 205.692 287.065 206.153 290.387C207.049 296.825 207.673 303.314 207.99 309.808C208.296 316.094 208.142 322.357 207.914 328.642L207.801 331.707C207.71 334.202 207.635 336.7 207.679 339.196C207.801 339.206 207.922 339.225 208.044 339.254C209.305 339.548 210.166 340.834 211.318 341.408C213.75 342.617 216.688 342.601 219.276 341.99C225.164 340.594 230.06 336.486 233.286 331.465C237.158 325.443 238.579 318.354 238.534 311.263C238.48 303.283 237.188 295.652 235.389 287.947L235.273 287.456C233.759 281.037 232.81 266.932 232.42 266.871ZM67.5424 250.768C67.576 252.915 66.703 255.211 66.2234 257.297C65.7069 259.544 65.1917 261.791 64.6694 264.038L64.1997 266.05C63.8086 267.728 63.423 269.406 63.0774 271.094C62.7933 272.481 62.6742 274.309 62.2086 275.838C67.7469 273.598 73.2938 271.381 78.8314 269.148C85.6538 266.397 92.5082 263.721 99.3466 261.014C106.159 258.319 112.934 255.254 119.884 252.95C121.539 252.399 122.659 255.039 121.075 255.772C114.015 259.046 106.547 261.609 99.3146 264.477L88.8533 268.63C79.2632 272.435 69.6666 276.221 60.0218 279.878C53.4522 282.368 46.9082 284.931 40.297 287.295C37.145 288.422 33.9645 289.488 30.8282 290.655C28.201 291.635 25.3594 293.088 24.3866 295.91C24.3354 296.057 24.1338 295.997 24.1562 295.846C24.5498 293.113 26.5789 291.404 28.8666 290.111C31.9029 288.391 35.238 287.139 38.4431 285.76L38.8794 285.571C45.4243 282.717 52.0221 279.978 58.6394 277.285C58.5738 277.125 58.535 276.953 58.5322 276.774L58.5133 276.779C58.393 275.556 58.9539 274.465 59.3574 273.327L60.5149 270.062C61.2861 267.887 61.9779 265.686 62.6906 263.492C63.4358 261.199 64.1882 258.908 64.9392 256.617C65.5754 254.676 66.0029 252.363 67.0912 250.628C67.2224 250.419 67.584 250.536 67.5424 250.768ZM194.995 245.942L194.912 246.359C194.816 246.846 194.726 247.337 194.704 247.83C194.639 249.12 194.786 250.409 195.129 251.654C195.465 252.886 195.935 254.076 196.604 255.168C197.238 256.194 198.156 257.001 198.742 258.054C198.802 258.166 198.841 258.278 198.857 258.387C199.081 258.294 199.302 258.211 199.516 258.143C201.302 257.577 203.126 257.103 204.975 256.748L204.682 256.729L204.493 256.713C201.402 256.452 198.486 255.441 199.116 251.833C199.473 249.793 201.074 248.426 202.789 247.456L203.004 247.337C203.097 247.286 203.193 247.234 203.286 247.19C201.734 246.928 200.608 246.604 198.704 246.284C197.468 246.076 196.23 245.961 194.995 245.942ZM53.8138 201.5C56.8525 207.639 59.1386 214.167 60.8634 220.79C61.696 223.989 62.4027 227.218 62.9709 230.474L63.1575 231.561L63.2636 232.151C63.7944 235.053 64.4685 238.197 63.689 241.029C63.4346 241.954 61.8986 242.32 61.4685 241.319C60.1712 238.298 60.3536 234.826 59.9776 231.593C59.5824 228.201 59.0432 224.825 58.3712 221.477C57.0804 215.044 55.2687 208.761 53.2492 202.525L53.024 201.833C52.8525 201.371 53.5994 201.067 53.8138 201.5ZM170.614 228.966C169.708 229.392 168.802 229.782 168.002 230.172C167.942 230.204 167.878 230.233 167.814 230.265C168.719 230.112 169.628 229.968 170.537 229.833C170.528 229.538 170.556 229.248 170.614 228.966ZM206.049 225.891C205.912 225.935 205.792 226.006 205.688 226.104L205.637 226.155C205.512 226.272 205.424 226.409 205.372 226.567C205.292 226.72 205.255 226.885 205.262 227.061L205.307 227.401C205.368 227.618 205.478 227.806 205.637 227.966L205.896 228.166C206.07 228.267 206.257 228.324 206.456 228.338L206.542 228.341L206.801 228.341C206.949 228.336 207.088 228.299 207.219 228.23C207.355 228.186 207.475 228.115 207.58 228.017L207.631 227.966C207.756 227.849 207.844 227.712 207.896 227.554C207.964 227.423 208.001 227.283 208.006 227.135L208.006 227.061L207.96 226.72C207.907 226.53 207.816 226.363 207.688 226.217L207.631 226.155L207.372 225.955C207.197 225.854 207.011 225.797 206.812 225.784L206.726 225.781H206.542C206.365 225.774 206.201 225.811 206.049 225.891ZM197.722 225.458C197.042 225.583 196.657 226.407 196.829 227.032C197.019 227.724 197.676 228.032 198.337 227.937L198.403 227.926C199.177 227.784 199.935 227.839 200.672 228.111C201.32 228.35 202.074 227.843 202.246 227.217C202.443 226.502 202.003 225.882 201.352 225.642C200.184 225.211 198.931 225.235 197.722 225.458ZM62.9029 180C64.4513 182.269 65.418 185.286 66.3717 187.879L66.467 188.137C67.4808 190.862 68.4587 193.608 69.3707 196.37C71.1912 201.882 73.5637 207.65 74.0021 213.472C74.083 214.547 72.4386 214.978 71.9618 214.025C70.5918 211.287 69.8552 208.433 69.0446 205.497C68.2715 202.697 67.4661 199.907 66.6603 197.117C65.8549 194.328 65.0757 191.531 64.2824 188.739C63.5109 186.022 62.4366 183.002 62.26 180.174C62.237 179.807 62.725 179.739 62.9029 180ZM97.8499 161.733C99.9167 163.168 101.61 165.266 103.359 167.06C105.133 168.881 106.884 170.719 108.618 172.578C111.516 175.685 114.362 178.843 117.301 181.913C123.159 188.03 129.785 193.658 137.869 196.533C139.825 197.229 138.968 200.368 137.007 199.658C128.739 196.66 121.889 191.117 115.847 184.847C112.718 181.6 109.847 178.129 107.047 174.598C105.737 172.945 104.436 171.287 103.155 169.613L102.388 168.607C100.776 166.48 98.8038 164.36 97.6243 161.959C97.558 161.824 97.7033 161.632 97.8499 161.733Z" fill="black"/>
<path fill-rule="evenodd" clip-rule="evenodd" d="M194.709 68.036C193.521 58.5573 189.79 48.4934 185.866 39.6566C177.042 20.9731 156.842 27.3608 138.733 23.5086C120.862 20.907 107.379 24.6379 89.7786 29.8286C79.8839 32.2526 87.2193 32.8369 88.7809 42.1365C89.6721 47.9313 79.1898 49.5758 81.4391 54.9464C85.9098 65.9755 85.2263 77.7832 85.2311 89.7243C84.9242 97.5278 85.7428 105.155 94.7105 108.46C103.244 112.704 102.045 125.487 112.73 132.014C117.051 140.765 128.82 141.536 137.291 143.566C142.645 144.59 148.059 145.344 153.488 145.832C169.208 147.846 181.784 143.291 190.014 129.287C195.52 120.764 199.621 110.924 198.608 100.595C197.599 89.7179 195.918 78.8981 194.709 68.036Z" fill="white"/>
<path fill-rule="evenodd" clip-rule="evenodd" d="M141.428 3.36193C142.326 2.34497 143.708 2.69377 144.547 3.49793C145.093 3.65889 145.622 3.89825 146.122 4.21505C147.252 4.07009 148.436 4.07009 149.544 4.11073C149.813 3.96001 150.101 3.82593 150.414 3.71073C152.654 2.89185 154.638 3.30785 156.274 4.40417C157.062 3.65857 158.057 3.19073 159.328 3.26145C160.462 3.32481 161.27 3.85857 161.963 4.56161C162.654 3.56545 163.771 2.85473 165.162 2.75585C167.107 2.61761 168.976 3.39745 170.526 4.60481C171.429 3.56929 174.579 2.01409 175.951 2.00833C176.853 1.84449 177.806 4.14913 178.666 4.40897C179.915 4.78625 177.652 6.56737 178.526 7.48481C179.908 6.16129 182.08 7.33473 184.03 7.47361C186.555 7.65601 186.728 9.51233 187.701 11.7971C189.41 12.4816 186.827 9.61793 188.146 11.0099C188.216 11.0832 188.283 11.16 188.354 11.2371C189.064 11.4992 187.173 11.5507 187.762 12.04C189.627 13.5923 187.803 14.2387 187.186 16.44C187.272 16.7923 187.346 17.1507 187.413 17.5088C189.16 17.7744 188.507 18.7827 189.41 20.4243C190.645 22.6771 190.402 25.6464 189.064 27.7971C188.489 28.7223 189.999 20.5418 189.179 21.2234C190.106 23.329 189.662 25.8416 188.167 27.5447C187.803 28.1319 187.676 29.6218 187.173 30.1015C187.728 32.2784 186.74 34.5245 184.769 35.6877L187.48 32.2697C187.452 32.3398 187.423 32.4096 187.394 32.4787C187.372 32.5683 187.345 32.655 187.318 32.7424C187.271 33.5149 188.937 34.273 188.432 34.9872C187.398 36.451 186.117 37.4055 185.437 39.1143L185.369 39.2938C185.077 40.1024 188.294 42.273 187.49 42.0234C191.953 51.1885 194.293 61.3866 195.899 71.3808C196.7 76.3668 197.318 81.37 197.82 86.3924L198.311 91.3938C198.744 95.8394 199.129 100.3 199.131 104.76C199.138 114.85 196.251 124.555 190.056 132.584C184.197 140.174 175.906 145.675 166.539 147.842C156.869 150.075 145.525 149.195 136.853 144.082C134.296 142.578 136.536 138.962 139.138 140.172C144.062 142.463 149.067 144.165 154.526 144.546C159.848 144.92 165.182 144.254 170.229 142.514C178.578 139.631 185.682 133.592 190.248 126.072C192.498 122.366 194.126 118.344 194.994 114.094C196.073 108.798 195.911 103.323 195.514 97.9579L195.486 97.5923C194.702 87.256 193.669 76.856 191.998 66.6227C190.522 57.5735 188.252 48.7075 185.304 40.0378C184.15 39.0215 182.858 38.1805 181.476 37.5418C171.355 37.1191 161.216 37.2426 151.109 37.9408C142.489 38.5402 133.91 39.5543 125.397 41.0322L124.485 41.1923C122.6 41.528 120.507 41.72 118.731 42.4787C117.208 43.1315 116.59 44.3859 116.206 45.928C115.24 49.8288 115.093 54.0979 114.93 58.0979C114.77 62.008 115.131 65.9507 114.818 69.848C114.552 73.1088 113.717 76.4464 111.301 78.8051C110.037 80.04 108.482 80.7152 107.022 81.6528C106.078 82.2579 105.678 82.8816 105.8 84.0016C106.062 86.4528 108.037 89.5408 105.819 91.64C105.429 92.008 104.754 92.056 104.37 91.64C103.454 90.6451 102.19 89.8864 101.106 89.0832C100.651 88.7507 101.029 88.1043 101.544 88.3344C102.222 88.6387 102.914 88.9971 103.621 89.3107C102.059 88.0243 99.8385 87.3936 97.9889 87.0192C97.0577 86.8336 96.0785 86.7792 95.1089 86.8659C94.3921 87.208 93.6593 87.5251 92.9265 87.8352C91.9953 88.2259 91.0545 88.5808 90.1073 88.9171C86.8209 91.5952 87.4929 95.9507 88.1777 100.21C88.5521 102.562 89.3169 103.839 91.3617 105.212C93.7841 106.837 95.1089 107.419 97.7265 108.626C100.178 109.755 101.669 112.037 102.786 114.399L103.251 115.382C104.288 117.559 105.353 119.678 106.77 121.659C108.408 123.954 110.414 126.014 112.603 127.784C113.665 128.641 114.797 129.411 115.967 130.113L116.286 130.303C117.47 130.997 118.318 131.659 118.398 133.128C118.424 133.64 118.101 134.107 117.685 134.373C115.893 135.509 114.11 134.088 112.619 133.096C111.01 132.027 109.47 130.824 108.046 129.512C105.339 127.023 102.997 124.066 101.195 120.856C99.8225 118.412 99.0417 114.972 96.8721 113.077C95.5473 111.922 95.5953 110.632 93.9409 110.421C92.4017 110.223 93.1857 109.903 91.8161 109.144C86.2449 106.05 82.7505 99.8387 84.0721 94.0499C84.2961 93.0736 82.3697 92.1232 82.7569 91.208C82.7569 90.5751 84.1137 89.4099 84.9553 87.2464C85.0193 87.0832 85.0929 86.9299 85.1633 86.7728C85.2464 85.8467 86.5585 86.4307 86.0465 84.648C85.7841 83.7264 85.7457 82.7952 85.8833 81.896C85.2209 81.4515 84.6737 80.84 84.3217 80.088C83.2209 79.5792 82.2449 78.8179 81.6625 77.7299C80.8561 76.2288 82.5585 70.6864 83.1729 69.4416C83.0865 69.2851 83.0033 69.1251 82.9233 68.9616C80.6673 67.5315 82.9329 65.0672 83.1121 62.3344C83.1697 61.4288 79.5537 60.6128 79.8993 59.8771C79.8705 59.7843 79.8417 59.688 79.8161 59.5952C77.9281 58.6352 80.2065 57.0579 79.6497 54.9523C79.0929 52.8336 80.0689 50.7216 81.3809 49.096C79.4609 47.6915 78.3057 45.7299 79.0065 42.7632C79.2913 41.5571 81.1441 46.5392 81.9185 45.6144C81.9153 45.5859 81.9089 45.5571 81.9025 45.528L81.7228 45.3887C79.3526 43.5183 77.9901 41.1347 79.4449 38.2032C80.0977 36.8851 81.0289 35.9664 82.1233 35.3616L82.1777 35.1888C81.3937 33.5088 81.1281 31.6432 81.6689 29.6816C82.1105 28.0659 83.1569 26.7792 84.4945 25.9251C84.4049 25.2016 84.4177 24.4307 84.5617 23.5952C84.8017 22.1843 84.3816 21.8487 85.4056 20.9751C85.444 20.7892 85.1912 21.4778 85.2456 21.2951C85.5912 20.1786 84.6568 21.7146 85.4056 20.8151C86.0232 20.0695 85.3608 20.0439 86.2056 20.0151C86.0648 20.7223 86.1544 19.3274 86.2056 20.0151C86.2295 20.3351 84.8273 20.1264 86.8849 19.1952C87.7297 18.8144 88.6193 18.7027 89.4769 18.7952C90.2065 17.2592 88.1105 16.1459 89.8609 15.9059C90.5425 15.8099 91.1761 15.816 91.7585 15.9027C92.0881 15.7488 92.4305 15.6115 92.7889 15.4864C93.0257 15.4032 93.2657 15.3264 93.5057 15.2499C94.3153 14.2451 95.3809 13.4416 96.6257 12.9587C98.0625 12.3987 99.5249 12.456 100.821 12.9264L101.234 12.84C101.88 11.72 100.03 9.57281 101.614 9.17921C103.413 8.73441 105.259 9.35521 106.674 10.4851C106.68 10.4851 106.686 10.4851 106.696 10.4816C107.435 8.82721 108.699 7.67521 110.821 7.75521C112.142 7.80641 113.336 8.46273 114.258 9.39713C114.77 9.33281 115.282 9.27521 115.797 9.21793C116.341 8.58081 116.946 5.74593 117.614 5.21153C118.709 4.33441 120.133 4.40513 120.939 5.64001C121.115 5.90881 121.278 6.18081 121.442 6.45281L122.181 6.40161C123.051 5.22721 124.238 4.43361 125.864 4.36993C127.355 4.30881 128.418 5.03873 129.227 6.05921C129.886 6.04321 130.549 6.03073 131.211 6.02081C131.982 5.12801 132.891 4.34081 133.928 3.68801C134.722 3.18881 135.893 3.35873 136.536 4.02433C136.971 4.47681 137.375 4.94913 137.751 5.43809C138.72 4.35137 140.03 3.63553 141.428 3.36193ZM91.7713 93.4578C93.2657 92.6066 95.2753 93.5282 96.7217 94.2514C98.4849 95.1314 100.235 96.4594 101.314 98.1234C102.782 100.389 99.3297 102.219 97.7841 100.187C96.8337 98.9362 96.0753 97.6754 94.9233 96.581C93.8705 95.5762 92.3441 94.9042 91.7393 93.5794C91.7169 93.5346 91.7233 93.4834 91.7713 93.4578Z" fill="black"/>
<path fill-rule="evenodd" clip-rule="evenodd" d="M164.542 112.288C165.033 111.434 166.163 110.644 167.197 110.765C171.831 111.308 171.823 116.926 170.034 120.205C168.447 123.113 165.164 124.82 161.879 124.57C158.427 124.308 155.486 122.279 154.191 119.05C153.335 116.914 152.94 112.97 155.217 111.535C155.259 111.508 155.329 111.515 155.362 111.554C156.454 112.824 156.497 114.731 157.453 116.145C158.342 117.46 159.723 118.546 161.341 118.714C162.549 118.839 163.772 118.403 164.244 117.319C164.5 116.732 164.471 116.413 164.375 116.009L164.288 115.658C163.985 114.429 163.849 113.493 164.542 112.288ZM165.781 87.6526C168.197 89.1215 171.879 92.5464 169.279 96.1878C166.22 99.3985 161.814 95.7172 159.643 94.0523C157.63 92.762 155.368 96.0806 157.236 97.5873C172.923 109.202 179.29 88.0367 167.003 85.9257C165.65 85.6931 165.147 87.1983 165.781 87.6526ZM140.263 77.5808C141.746 75.3555 145.132 75.6832 145.949 78.3238C146.391 79.7542 145.78 81.04 145.812 82.4685C145.838 83.6752 145.759 85.0198 145.389 86.1885C144.546 88.8534 142.149 90.7357 139.313 90.6576C136.487 90.5798 133.998 88.791 132.814 86.2717C131.626 83.7427 131.878 81.1254 132.745 78.5539C132.787 78.4304 132.949 78.3706 133.046 78.4746C134.071 79.5639 134.822 80.7139 135.598 81.9338L136.394 83.1841C137.002 84.1255 137.886 85.3282 139.021 85.2526L139.192 85.2358C139.507 85.2087 139.459 85.2714 139.702 84.8413C139.815 84.6422 139.794 84.2723 139.849 84.0374L139.868 83.9581V83.9581L139.857 83.9153C139.833 83.8016 139.81 83.5872 139.79 83.2153L139.786 83.1331C139.704 81.3933 139.212 79.1574 140.263 77.5808ZM177.86 79.0622C177.594 76.2161 181.596 75.5841 182.926 77.6901C183.62 78.7883 183.822 80.1678 183.975 81.4748L184.047 82.0952C184.204 83.4376 184.267 84.8341 183.684 86.0862C182.766 88.0584 180.77 89.101 178.617 88.9358C176.561 88.7778 174.686 87.5858 173.697 85.7762C172.815 84.1614 171.939 81.0088 173.009 79.3246C173.074 79.2226 173.203 79.2094 173.292 79.2882C174.304 80.1864 174.469 81.8248 175.07 82.995C175.691 84.2021 176.632 85.3784 178.058 85.5618C179.422 85.7371 179.944 84.9918 179.596 83.691C179.147 82.0117 178.029 80.8693 177.86 79.0622ZM141.344 60.6602L141.998 60.4096C144.24 59.5627 147.318 58.5838 149.141 60.4068C150.265 61.531 150.479 63.187 149.677 64.5588C148.704 66.2206 146.96 66.2615 145.275 66.5063C143.36 66.7847 141.411 67.314 139.627 68.0686C137.618 68.9188 135.754 69.9786 133.927 71.1623C132.19 72.2871 130.46 74.1255 128.382 74.4721C128.297 74.4862 128.201 74.4497 128.179 74.3566C127.707 72.3246 129.018 70.3249 130.189 68.7396C131.605 66.8202 133.321 65.2449 135.239 63.8324C137.091 62.4689 139.206 61.4836 141.344 60.6602ZM182.069 67.8848L182.269 67.8497C183.629 67.6234 184.861 67.6755 185.885 68.7523C186.667 69.5737 186.969 70.6384 186.596 71.7244C186.252 72.7264 185.483 73.7443 184.366 73.9542C180.597 74.6633 176.422 74.5462 172.634 74.0092C170.901 73.7634 169.152 73.4627 167.464 72.9884L166.687 72.7633C165.278 72.3607 163.664 71.9401 162.64 70.9036C162.272 70.5312 162.485 69.998 162.925 69.8256C164.711 69.126 167.159 69.4982 169.064 69.4435C171.28 69.3801 173.499 69.214 175.704 68.9852C177.859 68.7612 179.944 68.2745 182.069 67.8848Z" fill="black"/>
<path fill-rule="evenodd" clip-rule="evenodd" d="M196.985 82.1572C194.183 99.5038 174.624 101.422 171.149 84.2012C171.707 83.9777 172.108 83.5376 172.024 82.6833C172.005 78.9305 173.277 74.964 176.976 72.8769C180.798 70.7234 185.271 70.5099 189.695 70.5642C198.135 70.3802 197.958 76.8378 196.985 82.1572M168.087 74.613C165.438 74.5108 162.087 74.5963 159.714 76.0736C159.061 74.4656 157.366 72.7486 155.654 71.8306C162.02 72.0011 168.572 71.4276 174.986 70.9825C173.451 71.9403 172.023 73.3794 171.094 75.0431C170.233 74.6227 168.999 74.6619 168.087 74.613M156.411 83.9964C149.065 107.139 130.73 97.0518 128.731 94.086C125.126 89.1781 124.447 77.2475 127.588 74.0576C132.084 71.173 138.448 71.9154 143.759 71.8447C153.516 71.9652 160.446 74.6367 156.411 83.9964M205.658 73.3523C203.662 73.1134 201.53 73.0653 199.674 73.8695C199.103 71.6469 197.309 69.7887 195.284 68.971C195.039 68.6897 195.076 68.5385 194.239 68.5807C189.097 67.1664 183.344 67.9147 178.403 69.3651C170.6 69.9665 162.414 70.4408 154.545 71.2695C147.174 68.2397 124.93 67.7956 123.547 75.2634C121.808 75.0254 118.847 73.7727 117.386 75.4719C106.668 73.8087 95.593 76.1201 84.8285 77.1495C82.119 77.6063 80.7233 82.5282 83.7991 82.4609C85.5282 82.0314 83.7459 79.3961 86.0743 79.1979C96.4602 78.1596 106.619 76.6866 117.111 76.5142C116.746 78.1725 124.051 78.2803 124.159 77.312C124.174 77.3193 124.191 77.3241 124.207 77.3306C122.402 83.4876 124.031 92.3486 127.293 96.1665C131.863 101.166 143.338 102.6 148.426 99.3836C154.989 96.4148 161.817 81.5125 159.899 76.5615C163.379 75.5518 166.82 75.8549 170.433 76.3692C169.606 78.5074 168.178 83.7709 170.232 84.2273C169.855 94.6774 180.246 101.198 189.824 96.9111C198.115 93.3489 201.014 82.0736 200 75.2298C201.032 77.0551 209.698 75.0679 205.658 73.3523" fill="black"/>
</g>
<defs>
<clipPath id="clip0_204_90">
<rect width="250" height="250" fill="white"/>
</clipPath>
</defs>
</svg>
