<svg width="250" height="250" viewBox="0 0 250 250" fill="none" xmlns="http://www.w3.org/2000/svg">
<g clip-path="url(#clip0_214_541)">
<path fill-rule="evenodd" clip-rule="evenodd" d="M20.9387 340.225C31.4885 363.686 44.531 384.429 59.9765 405.145C58.8936 356.196 57.9608 306.984 56.3643 257.585C46.5832 276.673 36.1614 293.947 22.2485 312.897C11.3413 324.557 16.427 329.397 20.9387 340.225ZM-13.6468 912.901C-14.8692 911.171 -14.1457 908.971 -12.4548 907.848C-16.0551 900.083 -5.20618 894.089 0.133662 888.244C12.2709 875.073 31.3916 856.193 33.0937 839.562C38.8818 801.831 42.19 763.967 51.4588 726.678C56.9657 702.993 72.2546 683.989 79.086 660.724C90.966 599.238 75.619 537.577 78.2724 475.478C44.7909 472.193 49.1269 476.37 52.7132 448.512C50.4722 446.956 48.2892 445.308 46.2489 443.648C40.9036 446.501 34.5935 453.495 28.7074 453.125C26.8444 452.689 25.5013 450.353 24.2233 448.346C14.7711 433.437 5.98454 418.863 -2.6177 403.837C-50.1879 328.807 -39.4283 311.816 4.94422 239.892C23.6313 212.115 46.5845 171.694 82.1842 168.889C86.4818 168.892 91.013 168.663 94.7151 165.96C94.7413 161.654 96.9407 160.265 102.52 159.478C105.662 159.155 108.127 157.322 111.194 158.07C113.382 150.762 112.944 144.886 115.318 137.655C123.451 125.315 149.837 131.472 159.499 135.342C171.506 139.518 160.085 158.209 167.921 166.745C169.629 167.699 171.408 168.157 173.684 168.156C183.392 165.994 188.123 177.654 192.712 185.345C205.848 186.965 215.693 188.916 221.736 193.653C227.278 197.838 231.352 204.57 236.769 218.491C248.112 243.32 255.549 267.978 258.835 291.765C261.694 307.884 269.637 321.834 276.013 336.474C291.666 374.594 298.424 399.843 294.677 433.395C290.703 432.682 286.696 431.237 282.513 430.698L280.822 434.7C280.714 434.619 280.67 434.53 280.663 434.505C275.754 468.088 289.22 536.471 245.288 527.473C241.411 564.43 229.048 597.284 214.172 628.187C208.156 639.814 202.106 652.101 202.206 665.753L204.471 665.804C204.856 665.812 204.979 665.891 204.981 665.891C205.412 665.997 204.911 669.361 204.428 671.263C197.321 696.379 191.175 721.492 185.657 746.912C184.492 750.337 183.989 759.558 181.294 761.121C181.411 762.38 177.693 764.848 177.406 764.768C178.054 769.618 175.707 771.789 175.786 776.713C175.773 776.596 179.083 776.768 178.939 776.668C180.915 776.669 183.154 780.865 183.181 783.709C183.361 787.135 180.467 790.355 179.455 793.716C177.886 801.092 178.131 808.569 177.433 815.991C184.02 817.486 182.542 824.491 176.766 824.836C176.766 824.835 175.714 834.622 175.921 839.501C179.884 839.976 181.645 843.509 182.954 846.25C187.828 846.304 192.39 848.523 196.916 850.834C207.466 856.006 217.827 861.423 227.225 866.91C235.517 872.424 253.59 878.488 244.206 890.086C244.348 890.385 242.193 895.767 239.284 895.277C224.936 896.671 170.372 884.818 157.749 882.189C153.465 881.17 134.717 878.728 142.503 872.398C139.601 864.292 139.473 848.911 148.225 847.033C149.075 839.417 155.484 836.744 161.876 839.562C161.836 834.083 162.178 829.341 162.235 823.86C159.158 823.454 155.751 822.312 154.862 819.978C154.019 818.689 154.346 814.303 157.514 814.27C157.607 814.264 159.896 814.374 159.988 814.372C159.621 805.504 160.394 797.978 159.067 789.095C158.355 786.146 156.026 785.665 154.502 784.148C153.072 779.736 157.471 776.172 161.235 775.429C162.194 770.944 160.17 766.192 161.235 761.79C158.781 761.709 156.865 761.583 155.271 760.092C154.578 759.414 153.445 759.619 152.565 759.559C151.711 750.298 145.936 742.388 144.654 733.479C142.85 722.933 146.251 711.929 147.47 701.181C148.457 692.243 146.883 683.096 146.098 674.317C113.752 725.954 70.0745 775.716 62.2546 838.573C61.422 843.411 60.917 848.824 65.3778 853.563L65.5692 853.617C66.7033 855.895 67.4159 860.237 68.2293 862.586C72.4418 865.914 68.5753 872.307 65.5324 875.188C64.6095 876.24 63.8226 877.46 62.9797 878.563C47.0847 897.552 45.2866 919.009 14.7743 917.561C7.27318 917.091 -10.2795 917.33 -13.6468 912.901Z" fill="white"/>
<path fill-rule="evenodd" clip-rule="evenodd" d="M114.062 140.567C116.638 138.82 112.971 153.976 112.964 155.434C112.334 158.589 111.217 162.362 108.526 164.41C109.726 174.235 111.219 184.028 113.057 193.751L114.138 193.893C130.177 196.02 146.321 198.944 162.628 197.421C171.416 197.491 177.228 191.473 180.775 184.013L180.043 181.386V181.386C168.893 174.535 160.438 160.667 165.467 147.565C165.793 146.714 167.153 147.06 166.855 147.949C164.745 153.862 165.632 160.525 168.628 165.952C170.5 166.948 172.494 166.88 174.5 166.816C184.18 165.4 189.733 176.395 193.902 183.245L197.548 183.785C211.499 185.859 224.953 188.314 231.842 202.614L232.471 203.953C242.215 224.714 251.324 246.063 256.631 268.432C259.275 280.205 260.231 292.336 264.109 303.818C272.161 325.139 283.507 345.176 289.659 367.249C293.476 375.212 304.219 435.164 293.62 435.62C289.809 434.477 285.928 433.552 282.004 432.896C282.609 433.357 282.83 434.141 282.715 434.941C281.345 444.551 281.243 454.285 281.249 463.976C281.81 487.236 281.732 536.41 247.105 530.148C244.268 558.593 234.574 586.114 223.799 612.448C217.396 629.421 204.98 644.905 204.356 663.549C208.644 663.614 206.984 669.073 206.455 671.706C205.014 678.151 203.136 684.494 201.236 690.82C194.541 713.493 190.547 736.926 184.814 759.86C184.503 760.964 183.982 761.716 183.316 762.225C183.205 764.605 179.596 765.985 177.563 765.185C177.849 768.075 177.77 770.994 177.81 773.893L177.819 774.436L178.443 774.429C181.16 773.729 183.906 778.129 184.673 780.391C187.252 786.713 181.271 791.352 180.827 797.37C180.421 803.091 179.882 808.757 179.636 814.493C187.097 817.407 183.79 827.158 176.487 827.06C176.829 830.616 176.875 834.203 177.025 837.764C180.204 838.598 182.584 841.279 184.148 844.078C190.572 844.512 196.433 848.315 202.155 851.005C211.003 855.373 219.707 860.042 228.245 864.993C236.555 870.536 255.057 876.813 246.971 889.623C249.006 891.378 247.584 894.82 245.729 896.256L245.665 896.305C243.822 897.748 241.383 897.748 239.118 897.511C212.799 898.17 185.068 889.993 158.897 884.653L156.258 884.181C150.739 883.182 145.132 882.012 140.238 879.328C138.085 877.572 137.558 873.292 139.761 871.565C137.502 863.388 139.54 849.027 148.478 845.866C149.541 839.797 154.438 835.454 160.676 837.3C160.707 833.418 161.023 829.579 161.092 825.696C158.001 825.114 155.15 823.911 153.659 820.973C152.019 818.048 153.798 813.137 157.521 813.3C157.647 807.249 157.305 801.301 157.255 795.261L157.25 794.897C157.23 792.942 157.309 790.784 156.481 788.989C155.63 787.136 153.364 786.954 152.359 785.194C150.156 780.463 154.568 774.911 159.115 773.639C159.685 770.47 159.39 767.115 159.963 763.917C157.54 763.776 155.476 763.213 153.723 761.837C152.51 761.652 150.366 762.194 150.228 760.449C149.735 753.335 146.148 746.996 143.889 740.362C139.224 727.451 143.457 713.97 145.079 700.912C145.844 694.25 145.038 687.562 144.356 680.89C113.57 729.133 74.0852 775.784 64.9611 833.988C64.4552 840.536 61.7809 845.929 66.4779 851.578C68.0593 852.048 69.3972 859.434 70.0075 861.309C74.82 865.764 70.6235 873.711 66.4395 877.159C64.435 880.619 61.7544 883.655 59.2462 886.753L58.4385 888.109C53.1259 897.002 47.4517 905.92 40.2478 913.371C28.1265 922.354 7.82059 919.8 -6.45013 918.183L-7.57467 918C-10.5829 917.501 -13.9508 916.795 -15.6885 914.106C-17.1733 911.812 -16.9749 908.836 -15.1285 907.114C-16.9608 901.835 -12.7861 896.643 -8.85973 893.402C6.35691 879.901 19.475 864.025 29.6939 846.426C33.61 817.967 37.6312 789.517 41.9854 761.12C45.4993 737.63 50.852 714.102 62.1547 693.028L63.163 691.108C68.4605 681.041 73.7694 671.15 76.7726 660.077C82.9966 636.882 81.5057 612.606 80.644 588.861C79.5348 551.806 76.8958 514.733 77.2395 477.649C70.2705 476.917 51.3659 477.361 48.3912 470.196C47.4161 463.367 49.7019 456.413 50.2187 449.591C48.7467 448.56 47.3099 447.476 45.9115 446.362C43.3195 448.298 40.6443 450.122 37.8955 451.824C31.3204 456.561 26.235 457.316 22.1675 449.53C10.3918 430.908 -0.965006 412.014 -11.6824 392.762C-21.6236 374.293 -33.9442 355.863 -36.4677 334.598C-40.1362 296.335 4.72971 235.077 27.1944 203.987C41.1384 187.106 59.2158 169.115 82.3595 168.129L82.6549 168.116C85.699 167.997 89.9444 168.248 92.4139 166.244C92.8929 159.337 99.9806 159.367 105.246 158.228C106.336 157.392 107.991 157.193 109.387 157.265C111.276 151.831 111.707 145.822 114.062 140.567ZM49.0247 851.354C43.2477 848.342 36.3555 848.105 30.2759 850.483C22.7395 864.462 13.089 877.221 2.12514 888.678C-1.87582 894.271 -16.9133 901.645 -9.41374 909.19L-7.89062 909.469C3.45584 911.524 14.9716 913.115 26.5287 912.182C34.1914 910.057 40.3779 904.377 45.2522 898.234C51.305 890.385 56.3021 881.745 61.8371 873.523C66.8071 865.093 69.4275 864.98 65.5303 854.967C65.5239 855.161 65.4759 855.363 65.3767 855.561C64.0007 858.339 59.7767 858.087 57.3927 857.04C54.2855 855.674 52.0263 852.934 49.0247 851.354ZM-5.56348 911.783C-5.44828 911.837 -5.32988 911.891 -5.21148 911.943C-5.12508 911.943 -5.03868 911.946 -4.95228 911.949L-5.56348 911.783V911.783ZM213.512 861.465C204.945 857.629 189.232 846.441 180.481 848.147C174.016 850.124 168.055 853.671 161.163 854.177L160.866 854.188C155.948 854.403 147.204 856.038 145.355 850.253C142.906 854.935 142.102 860.726 142.139 866.023C142.037 870.533 144.1 874.108 148.894 874.467L153.331 875.585C181.447 882.652 209.826 889.394 238.801 891.482C246.406 886.734 246.594 880.478 238.529 876.141C230.385 870.931 222.004 866.074 213.512 861.465ZM47.9144 752.451C42.8789 783.984 39.4974 815.698 34.6216 847.245C51.6267 842.979 56.6545 858.265 62.9768 853.997C58.5422 848.164 59.0773 843.756 60.388 836.97C62.9896 814.088 71.5038 792.316 82.0616 772C83.2648 769.677 84.5 767.37 85.7512 765.072C72.1768 766.307 57.5643 762.433 47.9144 752.451ZM152.766 842.371C151.597 844.179 151.138 846.366 150.766 848.457C150.574 849.539 150.679 851.133 150.295 852.345C157.598 852.561 164.945 850.865 171.524 847.725C166.299 847.35 154.797 848.238 152.766 842.371ZM148.225 847.034C147.514 847.54 146.9 848.125 146.369 848.775C146.19 849.783 146.711 850.883 147.556 851.507C147.726 850.03 147.931 848.501 148.225 847.034ZM162.491 825.92C162.513 830.481 162.791 834.984 162.74 839.543C162.733 841.127 163.203 843.123 162.235 844.467L163.772 844.628C167.624 845.026 171.553 845.363 175.403 844.922C175.527 838.987 175.531 833.024 175.921 827.091C171.174 827.061 167.164 826.263 162.491 825.92ZM177.201 844.096C177.195 844.282 177.191 844.471 177.198 844.653C177.751 844.548 178.302 844.426 178.846 844.279C178.399 844.236 177.94 844.312 177.502 844.157C177.401 844.146 177.297 844.132 177.201 844.096ZM160.619 843.389C160.132 843.939 159.183 844.04 158.583 843.671C158.462 843.696 158.34 843.712 158.212 843.719L158.103 843.716V843.716L158.52 843.822C159.389 844.04 160.062 844.172 160.955 844.301C160.798 844.02 160.692 843.712 160.619 843.389ZM180.599 843.363C180.487 843.571 180.334 843.747 180.145 843.888C180.359 843.818 180.577 843.747 180.788 843.667C180.731 843.565 180.667 843.463 180.599 843.363ZM155.425 842.112C155.508 842.299 155.687 842.59 155.892 842.743C155.71 842.551 155.55 842.34 155.425 842.112ZM177.08 839.171C177.083 839.283 177.086 839.392 177.093 839.501C177.152 839.445 177.219 839.38 177.304 839.347C177.227 839.29 177.15 839.232 177.08 839.171ZM157.499 814.298C153.919 815.463 155.172 819.958 157.883 821.431C160.83 823.376 165.281 823.072 168.664 823.367C172.299 823.622 181.832 825.609 180.148 819.258C179.892 818.8 179.55 818.509 179.172 818.276C179.14 818.356 179.105 818.429 179.07 818.503C178.922 822.939 164.138 820.538 161.585 818.848L161.424 818.778C159.275 817.851 157.241 817.47 157.499 814.298ZM161.876 762.285C162.652 765.763 162.397 769.379 162.887 772.867C163.194 773.878 162.801 774.554 162.17 774.899L162.622 775.032C166.541 776.155 170.494 776.685 174.574 775.77C174.12 772.114 175.137 767.975 175.649 764.278C175.732 763.856 175.767 763.437 175.86 763.053L161.876 762.285V762.285ZM177.406 763.136C177.474 763.658 177.465 764.227 177.524 764.768C177.537 764.749 177.55 764.73 177.569 764.717C178.081 764.272 178.545 763.7 179.035 763.207C178.498 763.198 177.947 763.166 177.406 763.136ZM154.83 371.863L154.494 371.93C160.345 401.251 164.951 430.947 166.545 460.855L166.567 461.294C166.725 464.235 167.122 467.49 165.166 469.937C163.102 472.519 159.886 472.845 156.836 473.316C131.035 477.239 104.867 478.565 78.785 477.716C81.7981 517.918 82.914 558.239 84.8266 598.506L84.9125 600.617C85.8187 623.383 86.0321 646.768 78.5124 668.542C66.4938 695.547 51.521 721.235 48.1162 751.303C59.1373 759.652 73.9248 764.782 87.5626 761.777C103.774 731.412 125.539 704.632 143.556 675.447C177.342 616.754 174.004 545.764 173.147 480.679C173.026 480.226 173.481 480.069 173.454 480.599C173.803 480.567 174.167 480.73 174.235 481.13C176.291 494.771 175.558 508.657 175.47 522.404C175.439 532.66 176.148 543.312 175.393 553.38C174.325 587.969 170.005 623.03 157.121 655.371C173.061 658.939 182.893 675.537 200.407 664.481C200.41 644.294 213.806 627.549 220.759 609.316C230.146 587.331 237.179 564.377 242.201 541.015L242.734 538.519C243.388 535.466 244.104 532.299 245.217 529.367C243.888 527.75 245.031 524.63 244.996 521.853C243.1 521.853 240.666 521.064 240.435 518.877L240.426 518.775C239.032 503.403 238.914 487.604 241.793 472.398L241.387 472.422C234.186 472.845 199.743 474.289 198.807 468.493C197.524 458.775 200.625 449.14 201.259 439.492C202.396 417.691 202.122 395.807 201.972 373.978C195.061 374.896 188.426 373.575 181.588 373.355C172.911 372.712 163.974 373.297 155.401 371.956L154.83 371.863ZM262.536 431.52C262.19 431.927 261.813 432.173 261.429 432.298C261.432 441.536 259.569 450.621 254.466 458.621C252.225 461.59 251.021 465.011 249.947 468.534C250.255 469.492 249.868 470.596 249.147 471.143C244.43 485.496 243.944 500.864 245.685 515.773C250.989 507.983 253.093 498.687 254.577 489.52C254.657 489.06 255.419 489.066 255.502 489.52C257.263 499.319 254.279 509.108 250.427 518.064C248.289 519.87 248.75 523.977 248.501 526.534C287.602 532.24 274.004 457.071 279.013 433.92C279.105 433.283 279.646 432.82 280.261 432.624C274.396 431.728 268.453 431.662 262.536 431.52ZM104.327 159.876L103.65 160.047C96.5182 161.834 94.6228 161.873 94.1697 170.269C92.3937 182.124 85.8378 192.464 82.8906 203.927C81.7117 207.975 82.9591 215.436 88.5479 214.34C90.3591 213.783 91.7703 216.228 90.4007 217.524C86.3527 221.358 82.4231 225.309 78.4711 229.236C94.3405 282.868 114.956 335.107 140.068 385.085C141.063 387.069 138.078 388.813 137.089 386.829C112.124 336.691 91.3608 284.469 75.2457 230.823L74.7588 229.197C74.0468 227.222 83.1476 220.144 84.8039 217.834C68.2097 209.83 91.3201 181.819 91.9943 168.349C87.1898 170.239 81.8615 169.586 76.8455 170.407C67.2071 172.099 58.7476 177.675 51.2282 183.693C20.6845 210.697 1.16549 248.086 -18.3593 283.326C-31.6566 306.319 -38.0659 334.425 -24.7232 358.884C-9.23995 390.243 8.72037 420.469 27.7095 449.812C29.7956 452.525 33.002 449.41 35.2007 448.266C47.8301 440.667 58.7815 430.329 67.2039 418.24C45.1197 390.518 24.5745 360.233 13.1265 326.503C12.2116 318.297 23.7002 308.788 27.8919 301.658C37.1495 288.878 45.7975 275.649 54.0551 262.209C53.7953 260.88 54.3444 259.419 55.7511 259.46L56.5662 258.098C62.8551 247.623 63.5628 247.229 57.3159 260.032C60.4932 307.397 59.9642 355.679 61.3383 403.342C65.0535 408.266 68.8775 413.108 72.7911 417.872C85.4861 409.112 100.42 403.399 115.758 401.629L116.343 401.571C122.807 400.916 134.006 399.415 134.878 408.062C133.822 418.48 112.319 412.623 105.444 418.532C116.714 423.079 129.628 424.361 139.975 431.217C143.294 433.156 149.8 439.333 143.444 441.697C140.67 441.934 137.806 440.855 135.034 440.618C138.153 441.671 141.022 443.453 142.849 446.247C144.164 448.164 145.124 452.142 141.981 452.961C134.818 453.164 127.684 450.825 120.628 449.662L121.255 449.916C126.398 452.025 134.394 455.812 127.466 461.397C120.531 464.991 112.134 458.876 105.227 457.244C86.6189 452.909 72.8548 464.789 53.7799 451.927C53.2442 457.592 51.5322 463.42 52.058 469.089C56.6404 473.384 70.9338 473.242 77.3191 473.812L77.3251 473.767C77.3897 473.146 77.0812 470.192 78.0359 471.466C78.1255 472.263 78.2215 473.056 78.3207 473.853C101.54 474.525 124.85 473.743 147.897 470.743L148.871 470.615C152.41 470.142 156.11 469.831 159.584 468.986C163.138 468.507 163.145 464.714 162.768 461.921C157.888 358.785 116.043 261.805 104.327 159.876ZM170.097 168.395C170.92 169.62 171.832 170.788 172.817 171.892C174.332 169.539 178.032 168.211 179.077 171.716C180.259 175.322 181.952 179.029 182.001 182.849C206.187 261.838 206.801 345.83 206.33 427.761C207.054 440.756 203.031 453.477 203.403 466.401C216.651 468.311 230.091 468.475 243.393 467.06C243.787 466.026 244.232 465.009 244.736 464.01C264.649 439.689 254.089 409.211 244.5 382.868C238.703 383.113 232.87 382.745 227.067 382.817C228.86 388.376 229.322 394.259 230.276 400.007C230.926 404.104 231.756 408.168 232.708 412.202L232.964 413.278C233.323 414.766 233.8 416.372 233.278 417.847C232.766 419.303 231 419.892 229.828 418.759C227.717 416.347 227.943 412.754 227.262 409.764L227.093 408.509C225.937 400.021 224.469 391.228 226.568 382.813C224.482 382.365 218.783 384.012 218.484 381.204C218.571 376.566 215.214 366.518 218.952 363.463C221.176 361.764 225 362.302 227.608 362.196C230.622 362.075 233.633 361.962 236.644 361.982C212.445 303.395 219.175 285.36 221.63 227.054L221.704 225.275C221.697 224.891 222.315 224.795 222.382 225.182C226.082 249.065 221.15 273.245 223.487 297.204C227.636 342.725 256.43 381.809 261.243 427.111C271.626 425.905 282.126 427.385 292.19 429.995C292.401 428.155 292.564 426.308 292.68 424.462C294.589 390.647 282.746 357.807 268.927 327.479C260.646 311.381 255.526 294.199 253.384 276.235C249.224 252.835 239.888 230.794 230.583 209.058C224.7 192.805 211.984 188.973 196.216 187.085C201.534 195.918 206.82 204.769 212.097 213.627C213.274 216.305 209.665 218.217 208.091 219.867C227.462 230.45 216.151 263.131 216.552 281.444C215.114 298.271 214.571 315.195 212.036 331.905C211.851 333.063 210.078 332.724 210.061 331.639C210.296 306.601 213.275 281.664 214.584 256.666L214.775 254.468C215.781 242.65 216.611 225.9 202.555 222.685C200.638 222.372 200.491 219.518 202.03 218.66C204.078 217.518 205.873 216.122 207.48 214.462C199.376 201.426 192.309 187.693 183.78 174.942C177.718 167.162 178.287 169.906 170.097 168.395ZM130.951 407.427C129.384 402.803 114.175 405.815 110.116 406.317C95.1463 409.149 80.0807 415.786 68.6791 426.007C67.9751 426.637 67.1431 426.628 66.4871 426.285C61.3803 432.821 55.483 438.744 49.0151 443.949C50.1991 444.884 51.4151 445.789 52.6663 446.656C53.2647 446.72 53.8055 447.031 54.0487 447.588C71.8443 460.505 84.9355 450.429 103.422 452.756C110.324 454.15 116.68 458.549 123.792 458.733C129.012 457.544 124.416 455.358 121.978 454.512C116.09 451.697 110.08 449.146 104.063 446.618L100.679 445.197C98.4615 444.266 99.2231 440.909 101.7 441.495C106.036 442.519 110.385 443.492 114.737 444.449C123.106 446.159 131.675 448.353 140.132 449.185C138.252 443.95 118.305 438.296 112.506 436.215C110.316 435.179 104.069 435.376 104.782 431.974C105.358 428.809 112.005 432.434 114.222 432.692C123.269 434.991 132.503 436.384 141.722 437.786C131.82 427.834 116.471 426.975 103.825 422.314L103.477 422.235C101.228 421.71 98.1475 420.721 99.9758 418.161C106.473 408.564 132.039 413.421 130.951 407.427ZM112.241 353.991C116.853 350.2 119.324 357.987 119.031 361.607C119.249 364.612 119.483 367.616 119.678 370.621C119.392 372.971 121.891 381.535 118.548 381.613C103.936 380.87 89.3478 381.058 74.7305 380.176C74.7113 383.13 74.5673 386.08 74.718 389.037C74.6384 392.735 75.9209 396.428 75.1721 400.083C74.7145 401.763 72.4329 401.991 71.5427 400.557C68.8723 394.264 70.7078 386.147 72.5993 379.783C61.615 377.047 66.8528 368.022 66.8809 360.285C66.8649 360.08 67.0697 359.975 67.2364 360.013C69.9734 363.841 66.4089 368.952 67.9721 373.114C69.5388 377.528 76.0365 377.269 79.9625 377.32L80.4393 377.328C92.5081 377.536 104.569 378.034 116.638 378.269C116.123 374.199 115.982 370.026 115.672 365.959C115.281 363.034 115.844 359.568 114.359 356.947C107.649 359.133 100.662 360.003 93.6073 359.866C85.1971 360.094 76.358 360.851 68.1353 359.847C79.9209 358.022 92.9433 358.289 104.955 355.975C107.342 355.356 109.779 354.108 112.241 353.991ZM54.2249 266.119C46.9529 280.018 38.5942 293.244 29.6905 306.122C27.7833 308.871 25.8249 311.585 23.8351 314.279L23.5898 314.594C19.5765 319.723 15.3219 323.937 19.1177 330.72C28.9625 354.674 42.1436 377.169 57.4153 398.045C56.4473 354.069 55.5926 310.081 54.2249 266.119ZM236.913 362.685C218.655 366.518 218.313 359.34 221.361 379.655C228.683 379.705 236.001 379.539 243.326 379.658C241.233 373.985 239.063 368.336 236.913 362.685ZM176.072 172.093C175.307 172.081 174.136 172.531 173.358 172.483C174.857 174.085 176.507 175.541 178.244 176.825L178.551 177.05L178.412 176.783C177.676 175.342 177.067 173.685 176.231 172.341L176.072 172.093Z" fill="black"/>
<path fill-rule="evenodd" clip-rule="evenodd" d="M196.878 59.0169C193.581 47.1174 180.981 41.925 169.633 41.101C138.909 37.9071 107.635 55.0348 94.0143 82.8079C83.1109 103.897 82.7695 126.05 106.207 138.092C107.487 138.797 108.824 139.552 110.189 140.236C111.375 141.339 112.596 142.399 113.929 143.288C126.692 151.681 142.356 155.31 157.536 154.523C179.949 154.071 187.951 138.863 192.847 119.359C198.011 99.9417 200.899 78.8722 196.878 59.0169V59.0169Z" fill="white"/>
<path fill-rule="evenodd" clip-rule="evenodd" d="M211.59 171.179C210.544 168.014 209.232 164.945 208.006 161.845C207.747 160.299 207.574 158.741 207.53 157.169C207.36 151.557 208.41 145.896 209.587 140.43C211.981 129.323 214.518 118.331 215.792 107.019C218.067 86.7854 216.713 65.7454 207.51 47.275C199.536 31.275 186.022 18.1902 168.566 13.2878C163.406 11.8378 158.095 11.0382 152.747 10.7188C152.085 10.6135 151.424 10.5105 150.766 10.4113C143.328 9.29 135.799 8.73128 128.28 9.2148C115.813 10.017 103.463 13.5998 93.0792 20.6858C82.6251 27.8209 75.1973 37.8254 71.741 50.0279C68.1455 62.7223 68.4504 76.4705 62.2415 88.3719C60.4072 91.8881 58.2661 95.2308 56.2242 98.6292C50.8063 104.674 44.924 111.395 43.6351 119.707C42.0447 129.979 47.9551 138.661 53.5487 146.677C58.6047 153.915 65.4655 163.912 60.2623 172.824C57.8079 177.029 53.8751 180.174 50.9215 184.008C47.8591 187.989 45.4687 192.558 44.2335 197.441C41.9135 206.612 44.0479 216.171 50.2527 223.339C53.4847 227.07 57.6351 229.537 62.1279 231.461C66.7263 233.425 71.2191 235.291 75.0207 238.635C76.7583 240.161 78.3487 241.835 79.8527 243.589C81.2543 245.781 82.8863 247.829 84.7263 249.704C86.7519 251.768 90.7199 248.942 88.8607 246.513C88.7231 246.334 88.5887 246.158 88.4511 245.979C87.0911 244.206 85.7247 242.433 84.2943 240.718C80.0287 233.959 78.3871 225.685 80.5087 217.79C81.0591 215.739 81.8335 213.793 82.797 211.957C83.0015 212.491 83.2255 213.019 83.4623 213.541C84.3839 215.563 85.677 217.959 87.3215 220.008C87.3855 221.412 87.597 222.805 88.0063 224.168C90.5407 232.619 99.0143 236.789 106.656 240.033C107.405 240.353 108.144 240.661 108.87 240.965C110.867 241.799 112.979 238.955 111.734 237.239C111.408 236.789 111.091 236.328 110.79 235.861C107.206 230.312 105.501 223.675 106.467 217.064C107.485 210.072 111.606 204.286 115.699 198.734C119.718 193.275 124.035 187.704 125.833 181.045C127.824 173.688 126.013 166.353 122.941 159.582C120.128 153.386 116.381 147.675 113.239 141.649C114.315 142.722 115.425 143.76 116.568 144.761C117.855 145.887 119.176 147.175 120.7 147.969C121.827 148.555 122.956 147.151 122.064 146.202C120.89 144.954 119.389 143.99 118.087 142.877C116.836 141.809 115.622 140.697 114.437 139.556C112.979 138.151 111.592 136.679 110.254 135.164C109.184 132.437 108.302 129.637 107.584 126.795C106.608 122.949 105.705 118.856 105.776 114.869C105.846 110.779 107.971 107.915 110.8 105.169C111.998 104.007 113.208 102.858 114.415 101.707C116.986 99.8193 119.412 97.7105 121.768 95.6074C125.967 91.8599 130.027 87.8986 133.905 83.8215C134.946 82.7278 135.977 81.6218 136.996 80.5031C140.556 76.85 143.952 73.0356 147.152 69.0894C150.333 67.931 153.389 66.3982 156.256 64.5934C155.008 65.8574 153.747 67.1054 152.493 68.363C149.699 71.1662 146.797 73.9822 143.558 76.2666C143.225 76.5038 143.427 77.0062 143.837 76.9262C147.955 76.1038 151.808 74.7342 155.405 72.5518C159.062 70.331 162.285 67.3134 165.293 64.2862C166.995 63.5182 168.637 62.5294 170.137 61.5566C170.217 61.5054 170.297 61.451 170.377 61.3994C168.899 66.0846 166.73 71.3902 162.105 73.0606C161.955 73.115 161.965 73.3646 162.144 73.355C166.04 73.1265 169.17 71.3738 171.642 68.8193C173.63 67.3889 175.527 65.873 177.337 64.2228C179.091 62.6241 180.752 60.9095 182.329 59.1342C180.125 63.5018 177.655 67.7726 175.219 71.995C175.091 72.219 175.36 72.523 175.59 72.3662C180.733 68.8846 184.633 64.3918 187.824 59.0794C188.295 58.2974 188.744 57.5025 189.183 56.7015C188.852 57.955 188.491 59.2004 188.104 60.4394C187.403 62.6823 186.714 64.9303 186.012 67.1719C185.634 68.3806 185.173 69.5617 184.667 70.7226C184.304 71.5534 183.83 72.3825 183.757 73.2935C183.752 73.354 183.818 73.3937 183.871 73.3806C185.921 72.8679 187.831 70.5294 189.292 69.0807C190.105 68.274 190.868 67.3886 191.569 66.4548C191.699 71.833 191.789 77.2119 191.67 82.6062C191.45 92.5134 190.81 102.417 189.99 112.292C189.267 121.022 188.733 130.184 183.862 137.771C180.093 143.643 173.981 147.707 167.341 149.675C166.755 149.851 166.166 150.008 165.574 150.149C155.961 152.43 146.387 149.845 137.888 145.275C135.334 143.902 133.152 147.627 135.616 149.159C144.838 154.901 156.528 156.856 166.966 154.283C166.637 166.612 172.713 178.309 178.758 188.766C182.141 194.619 185.526 200.433 187.917 206.779C189.945 212.168 191.325 217.758 191.789 223.509C192.339 230.286 191.798 237.102 190.851 243.822C190.8 244.187 190.749 244.555 190.694 244.919C190.483 246.363 191.779 247.572 193.184 246.833C199.395 243.569 202.073 236.612 203.702 230.181C205.225 224.155 206.259 218.011 206.835 211.825C207.68 214.158 208.365 216.549 208.896 218.987C208.97 219.336 209.04 219.685 209.11 220.033C209.513 222.072 212.598 221.928 213.091 220.033C213.181 219.691 213.267 219.349 213.347 219.003C215.891 208.715 216.576 197.985 215.232 187.467C214.525 181.934 213.344 176.475 211.59 171.179Z" fill="black"/>
<path fill-rule="evenodd" clip-rule="evenodd" d="M201.467 83.7954C200.254 63.8908 193.795 41.3241 174.786 31.5513C132.879 14.7327 77.7803 57.0866 74.8632 100.354C73.8462 115.165 82.0696 131.349 97.0971 135.467C100.438 139.894 105.491 142.597 110.478 144.943C169.879 175.762 208.249 150.71 201.467 83.7954V83.7954Z" fill="white"/>
<path fill-rule="evenodd" clip-rule="evenodd" d="M212.974 73.4615C210.874 67.6311 208.657 61.8455 206.324 56.1047C204.052 50.5175 202 44.8096 199.178 39.4871C182.327 7.69831 135.181 26.3264 119.341 30.48C111.127 26.9408 112.244 38.111 103.69 41.3047C89.8432 46.475 95.0436 38.0135 89.2724 47.1514C76.5303 67.3271 65.6983 94.1805 74.1623 117.494C75.2685 120.542 76.6794 123.364 78.2679 126.083C77.2673 127.439 79.899 127.618 78.6797 129.986C78.0023 138.658 81.521 141.84 85.179 144.738C116.484 169.538 85.179 133.538 86.299 145.858C88.5287 153.19 91.1989 154.041 91.1989 154.041C91.1989 154.041 77.819 158.658 78.299 158.978C78.779 159.298 80.0486 159.95 81.197 160.898C81.3692 161.041 82.2856 162.039 82.4589 162.178C83.5789 163.458 84.066 164.194 84.066 164.194C88.0589 171.458 81.7464 175.042 81.7464 175.042C84.8662 177.391 91.6071 181.314 91.6071 181.314C91.6071 181.314 98.8844 184.142 102.186 183.069C102.213 183.06 102.24 183.051 102.266 183.042C104.059 182.437 105.979 180.258 107.259 178.985C109.71 177.635 111.27 173.788 112.482 171.298C115.423 165.254 116.551 161.916 115.796 155.458C114.964 148.326 123.153 182.076 122.34 174.943C121.703 169.366 121.037 163.695 119.341 158.322C118.465 155.538 117.316 152.863 115.831 150.348C115.869 150.137 115.863 149.926 115.802 149.727C115.316 148.146 119.111 147.318 117.921 146.242C117.767 146.105 117.613 145.964 117.463 145.82C116.868 145.142 116.231 144.511 115.549 143.977C115.287 143.711 113.428 140.882 113.169 140.614C111.015 138.358 110.58 138.546 108.772 136.006C107.018 133.542 105.434 130.969 103.927 128.348C102.394 125.682 96.5799 122.742 95.0503 120.095C94.9191 119.868 94.5863 119.823 94.4007 120.012C93.9271 120.502 93.6231 121.046 93.6807 121.618L93.4439 121.654C93.3543 120.79 92.5575 120.086 91.4759 120.274C89.8567 120.556 88.5255 120.662 87.1239 120.124C87.3703 118.489 87.5975 116.85 87.8215 115.209C88.2311 112.188 88.6119 109.158 88.9383 106.127C89.7287 106.316 90.5127 106.588 91.2807 106.934C92.3751 107.423 93.4087 108.082 94.2919 108.892C95.1623 109.692 95.7639 110.77 96.8263 111.327C98.0487 111.964 99.5239 110.911 99.1655 109.529C98.4391 106.735 94.3271 105.135 91.7831 104.607C90.9095 104.425 90.0167 104.348 89.1239 104.367C89.3255 102.422 89.5047 100.476 89.6519 98.5271C89.7223 97.6055 89.7863 96.6839 89.8471 95.7591C91.8247 95.1607 93.9431 94.9815 96.0007 95.2631C96.6791 95.8039 97.3575 96.3383 98.0135 96.8791C100.097 98.6007 102.17 100.332 104.218 102.095C104.404 102.252 104.586 102.409 104.772 102.569C105.988 103.615 107.505 102.578 107.3 101.097C105.629 88.9559 113.066 79.2983 121.773 71.8167C131.412 63.5319 148.935 62.5672 160.397 48.2167C165.677 49.2912 177.463 52.4823 182.327 60.2327C189.137 71.0935 188.247 80.8247 188.766 93.1447C189.284 105.474 184.522 121.215 181.722 133.372C179.14 144.582 174.388 150.319 163.54 154.722C163.271 154.831 162.999 154.937 162.727 155.039C157.117 157.154 150.996 157.753 145.095 156.639C138.564 155.404 133.111 152.415 127.677 148.738C127.364 148.53 126.906 148.959 127.143 149.273C134.305 158.764 152.212 162.895 163.37 160.39C163.892 160.271 164.41 160.143 164.926 160.002C162.43 167.18 169.332 158.418 172.583 165.407C174.538 169.612 177.521 173.25 181.153 176.121C185.156 179.282 204.202 174.476 206.98 178.914C209.524 182.981 194.689 170.911 190.334 173.26C189.236 173.855 188.814 175.778 189.902 176.623C190.318 176.943 190.734 177.27 191.159 177.59C193.598 179.43 179.815 182.886 180.9 183.014C190.532 184.156 197.009 177.084 201.159 168.742C206.033 158.95 218.846 187.657 213.476 178.332C209.169 170.85 200.686 163.478 204.058 154.009C205.262 150.626 207.722 147.743 210.113 145.138C212.839 142.172 199.13 139.394 201.745 136.322C204.343 133.273 206.647 129.954 207.934 126.127C209.812 120.534 208.878 114.486 207.466 108.902C204.442 96.9143 217.156 85.0871 212.974 73.4615Z" fill="black"/>
<path d="M91.6071 181.314C91.6071 181.314 84.8662 177.391 81.7464 175.042L81.4997 175.18C80.4021 175.775 79.9797 177.698 81.0677 178.543C81.4837 178.863 81.8996 179.189 82.3252 179.509C84.7636 181.349 91.4612 184.805 92.546 184.933C96.198 185.367 99.3964 184.619 102.186 183.069C98.8844 184.142 91.6071 181.314 91.6071 181.314Z" fill="black"/>
<path fill-rule="evenodd" clip-rule="evenodd" d="M153.046 137.516C150.895 136.638 148.976 135.174 147.573 133.304C147.085 132.654 146.958 131.968 147.061 131.34C147.176 130.634 147.593 129.994 148.163 129.565C148.734 129.134 149.449 128.922 150.14 129.03C150.74 129.124 151.338 129.453 151.811 130.135L151.91 130.271C152.744 131.4 153.831 132.326 155.07 132.923C156.264 133.498 157.599 133.766 158.981 133.61C161.612 133.313 163.426 131.89 165.354 129.957C165.593 129.713 165.832 129.461 166.073 129.206C166.224 128.974 166.435 128.825 166.669 128.747C166.928 128.66 167.222 128.665 167.491 128.759C167.75 128.849 167.982 129.021 168.138 129.249C168.286 129.466 168.369 129.734 168.342 130.043C168.166 132.046 167.119 133.833 165.631 135.237C163.979 136.796 161.789 137.874 159.728 138.252C157.456 138.669 155.142 138.37 153.046 137.516V137.516ZM160.799 106.616C163.216 108.085 166.898 111.51 164.298 115.152C161.238 118.362 156.833 114.681 154.662 113.016C152.649 111.726 150.387 115.044 152.254 116.551C167.942 128.166 174.308 107.001 162.021 104.89C160.669 104.657 160.166 106.162 160.799 106.616ZM132.687 93.1058C132.954 89.7918 138.001 89.0393 138.503 92.3186C138.953 95.2562 138.424 97.9548 137.1 100.6C135.836 103.126 132.658 101.947 132.418 99.6467C132.096 96.5626 132.521 95.1673 132.687 93.1058ZM171.107 91.6387C171.811 90.7171 172.827 90.0879 174.044 90.4435C177.847 91.5548 176.726 96.9542 175.391 99.5823C174.665 101.01 172.319 101.371 171.259 100.115C169.531 98.0655 168.703 93.9731 170.9 91.9545C170.96 91.8502 171.026 91.7449 171.107 91.6387ZM137.047 78.6048L137.648 78.4996C139.506 78.1782 141.817 77.8693 143.132 79.3635C143.829 80.1558 144.069 81.6284 143.132 82.3868C141.483 83.7212 139.66 83.2041 137.685 83.3171C136.056 83.4105 134.492 83.68 132.923 84.1283C129.483 85.1116 126.679 86.9068 123.741 88.878C123.355 89.1366 122.961 88.6435 123.145 88.2828C124.842 84.9603 128.129 82.231 131.422 80.5673C133.179 79.6793 135.102 78.9427 137.047 78.6048ZM167.64 77.1164L168.1 77.2105C173.104 78.2565 179.605 80.3458 181.975 85.2609C182.065 85.9559 181.97 86.1048 181.892 86.2021L181.866 86.2345C181.802 86.3176 181.751 86.4322 181.45 86.5268C181.367 86.5069 181.282 86.4858 181.197 86.4634C180.111 86.1788 179.251 85.7866 178.419 85.3797L177.517 84.9353C176.471 84.4221 175.415 83.9277 174.296 83.5626C171.908 82.7838 169.452 82.2351 166.958 81.9421C166.417 81.8787 165.897 81.6962 165.486 81.3835C165.096 81.0867 164.798 80.6758 164.662 80.1296C164.487 79.4227 164.537 78.8875 164.916 78.2497C165.202 77.7708 165.61 77.4389 166.078 77.2483C166.556 77.0539 167.1 77.0081 167.64 77.1164Z" fill="black"/>
</g>
<defs>
<clipPath id="clip0_214_541">
<rect width="250" height="250" fill="white"/>
</clipPath>
</defs>
</svg>
