<svg width="250" height="250" viewBox="0 0 250 250" fill="none" xmlns="http://www.w3.org/2000/svg">
<rect width="250" height="250" fill="black"/>
<path fill-rule="evenodd" clip-rule="evenodd" d="M204.284 92.6C204.284 101.198 197.289 108.169 188.661 108.169H172.755V77.0312H188.661C197.289 77.0312 204.284 84.0014 204.284 92.6ZM188.661 103.073C194.466 103.073 199.171 98.3843 199.171 92.6C199.171 86.8154 194.466 82.1265 188.661 82.1265H177.868V103.073H188.661Z" fill="white"/>
<path fill-rule="evenodd" clip-rule="evenodd" d="M146.341 92.6C146.341 101.198 153.335 108.169 161.963 108.169H177.869V77.0312H161.963C153.335 77.0312 146.341 84.0014 146.341 92.6ZM161.963 103.073C156.159 103.073 151.453 98.3843 151.453 92.6C151.453 86.8154 156.159 82.1265 161.963 82.1265H172.757V103.073H161.963Z" fill="white"/>
<path fill-rule="evenodd" clip-rule="evenodd" d="M146.341 118.642C146.341 127.24 153.335 134.21 161.963 134.21H177.869V103.073L161.963 103.073C153.335 103.073 146.341 110.043 146.341 118.642ZM161.963 129.115C156.159 129.115 151.453 124.426 151.453 118.642C151.453 112.857 156.159 108.169 161.963 108.169L172.757 108.168V129.115H161.963Z" fill="white"/>
<path fill-rule="evenodd" clip-rule="evenodd" d="M146.341 144.684C146.341 153.3 153.424 160.253 162.034 160.253C170.722 160.253 177.869 153.237 177.869 144.543V129.115L161.963 129.116C153.335 129.116 146.341 136.086 146.341 144.684ZM162.034 155.158C156.211 155.158 151.453 150.451 151.453 144.684C151.453 138.9 156.159 134.211 161.963 134.211L172.757 134.21V144.543C172.757 150.387 167.935 155.158 162.034 155.158Z" fill="white"/>
<path fill-rule="evenodd" clip-rule="evenodd" d="M172.752 118.642C172.752 127.24 179.746 134.21 188.374 134.21H188.658C197.286 134.21 204.281 127.24 204.281 118.642C204.281 110.043 197.286 103.073 188.658 103.073H188.374C179.746 103.073 172.752 110.043 172.752 118.642ZM188.374 129.115C182.57 129.115 177.865 124.426 177.865 118.642C177.865 112.857 182.57 108.168 188.374 108.168H188.658C194.463 108.168 199.168 112.857 199.168 118.642C199.168 124.426 194.463 129.115 188.658 129.115H188.374Z" fill="white"/>
<path fill-rule="evenodd" clip-rule="evenodd" d="M84.9546 152.921L87.8019 155.472C87.5544 156.177 87.42 156.936 87.42 157.726C87.42 161.485 90.4692 164.533 94.2306 164.533C97.992 164.533 101.041 161.485 101.041 157.726C101.041 157 100.927 156.301 100.717 155.644L103.765 152.915L103.909 152.786C114.426 143.402 123.566 135.246 130.028 127.467C134.635 121.921 138.154 116.252 139.834 110.106C142.813 109.379 145.023 106.694 145.023 103.493C145.023 100.529 143.128 98.0082 140.483 97.0734C138.15 84.0564 126.816 74.5332 113.023 74.5332C108.123 74.5332 103.639 76.4025 99.9486 78.7494C98.9262 79.3998 97.941 80.1018 96.9981 80.8368C96.1524 80.4606 95.2158 80.2515 94.2306 80.2515C93.3075 80.2515 92.4273 80.4351 91.6248 80.7675C90.7089 80.0574 89.7537 79.3794 88.7634 78.7494C85.0734 76.4025 80.589 74.5332 75.6888 74.5332C61.9272 74.5332 50.613 84.0135 48.2448 96.9852C45.4614 97.8405 43.4385 100.431 43.4385 103.493C43.4385 106.789 45.7818 109.538 48.8937 110.166C50.5806 116.288 54.0915 121.939 58.6836 127.467C65.1456 135.246 74.2863 143.402 84.8031 152.786L84.9546 152.921ZM53.9151 109.231C57.5409 121.628 70.3734 133.098 88.341 149.13L91.1547 151.65C92.0787 151.182 93.1239 150.918 94.2306 150.918C95.4012 150.918 96.5025 151.213 97.4646 151.733L100.371 149.13C118.276 133.154 131.081 121.708 134.758 109.362C132.749 108.178 131.401 105.993 131.401 103.493C131.401 100.756 133.018 98.3958 135.348 97.3149C133.189 87.0672 124.143 79.6158 113.023 79.6158C108.593 79.6158 104.273 81.7053 100.551 84.5178C100.867 85.3032 101.041 86.1606 101.041 87.0591C101.041 90.8187 97.992 93.8664 94.2306 93.8664C90.4692 93.8664 87.42 90.8187 87.42 87.0591C87.42 86.1057 87.6159 85.1982 87.9699 84.3744C84.2916 81.6345 80.043 79.6158 75.6888 79.6158C64.5288 79.6158 55.4577 87.1212 53.3409 97.4256C55.5483 98.5518 57.0597 100.846 57.0597 103.493C57.0597 105.904 55.8063 108.022 53.9151 109.231ZM47.796 101.406C48.3867 100.713 49.2666 100.274 50.2491 100.274C51.3342 100.274 52.2936 100.809 52.8774 101.631C53.2509 102.157 53.4705 102.799 53.4705 103.493C53.4705 105.272 52.0284 106.713 50.2491 106.713C48.4701 106.713 47.0277 105.272 47.0277 103.493C47.0277 102.697 47.3169 101.969 47.796 101.406ZM97.452 157.726C97.452 157.603 97.4451 157.482 97.4319 157.363C97.3743 156.851 97.197 156.376 96.9282 155.965C96.3762 155.122 95.4387 154.553 94.3662 154.509L94.3449 154.508C94.3068 154.506 94.269 154.506 94.2306 154.506C92.4516 154.506 91.0092 155.948 91.0092 157.726C91.0092 157.873 91.0191 158.017 91.038 158.158C91.0494 158.243 91.0644 158.327 91.0821 158.41C91.3962 159.86 92.6865 160.946 94.2306 160.946C96.0096 160.946 97.452 159.504 97.452 157.726ZM138.212 106.713C137.28 106.713 136.44 106.317 135.851 105.684C135.767 105.594 135.688 105.499 135.615 105.399C135.223 104.865 134.991 104.206 134.991 103.493C134.991 102.66 135.307 101.9 135.827 101.329C136.416 100.68 137.267 100.274 138.212 100.274C139.207 100.274 140.097 100.724 140.687 101.433C140.772 101.534 140.85 101.64 140.922 101.752C141.245 102.254 141.433 102.851 141.433 103.493C141.433 105.272 139.991 106.713 138.212 106.713ZM94.2306 83.8392C95.3427 83.8392 96.3228 84.4023 96.9018 85.2588C97.1874 85.6815 97.3755 86.1759 97.4331 86.709C97.4457 86.8239 97.452 86.9406 97.452 87.0591C97.452 88.8372 96.0096 90.279 94.2306 90.279C92.4513 90.279 91.0092 88.8372 91.0092 87.0591C91.0092 87.0078 91.0104 86.9571 91.0128 86.9064C91.0926 85.1991 92.5026 83.8392 94.2306 83.8392Z" fill="white"/>
<mask id="mask0_245_2700" style="mask-type:alpha" maskUnits="userSpaceOnUse" x="53" y="79" width="83" height="73">
<path d="M91.1556 151.65L88.3419 149.13C70.3746 133.098 57.5418 121.628 53.916 109.232C55.8072 108.022 57.0609 105.904 57.0609 103.494C57.0609 100.846 55.5492 98.5522 53.3418 97.426C55.4586 87.1213 64.5297 79.6162 75.6897 79.6162C80.0439 79.6162 84.2925 81.6349 87.9708 84.3748C87.6168 85.1986 87.4209 86.1061 87.4209 87.0592C87.4209 90.8191 90.4701 93.8668 94.2315 93.8668C97.9929 93.8668 101.042 90.8191 101.042 87.0592C101.042 86.161 100.868 85.3033 100.552 84.5182C104.274 81.7057 108.594 79.6162 113.024 79.6162C124.144 79.6162 133.19 87.0676 135.349 97.3153C133.019 98.3962 131.402 100.756 131.402 103.494C131.402 105.993 132.75 108.178 134.759 109.362C131.082 121.708 118.276 133.154 100.372 149.13L97.4655 151.734C96.5034 151.214 95.4021 150.918 94.2315 150.918C93.1248 150.918 92.0796 151.182 91.1556 151.65Z" fill="#236DF6"/>
</mask>
<g mask="url(#mask0_245_2700)">
<path d="M139.125 77.8198H49.5176V158.758H139.125V77.8198Z" fill="#80C9F0"/>
<path d="M148.049 78.9888H33.5439V164.533H148.049V78.9888Z" fill="white"/>
<mask id="mask1_245_2700" style="mask-type:luminance" maskUnits="userSpaceOnUse" x="49" y="58" width="117" height="116">
<path d="M165.071 58.0918H49.083V173.641H165.071V58.0918Z" fill="white"/>
</mask>
<g mask="url(#mask1_245_2700)">
<path d="M49.2412 173.63H164.768V58.103H49.2412V173.63Z" fill="#8296FF"/>
<path d="M126.954 139.118C128.171 138.962 129.512 138.77 130.912 138.554V135.864H116.459C112.318 136.267 109.397 136.52 109.383 136.997C109.356 137.858 118.825 138.422 118.775 139.043C118.692 140.073 92.4636 139.57 92.2389 141.296C92.1519 141.966 96.045 142.46 95.943 143.173C95.7414 144.577 80.3739 144.47 76.2705 145.282V146.274C77.5392 146.656 79.5579 147.023 79.5102 147.477C79.473 147.835 78.1833 147.919 76.2705 147.993V149.641H79.1394C79.893 148.398 99.5613 148.745 99.7893 147.156C99.8916 146.444 95.9985 145.949 96.0855 145.279C96.3102 143.553 122.539 144.056 122.621 143.026C122.671 142.406 113.203 141.842 113.229 140.981C113.251 140.274 119.651 140.058 126.954 139.118Z" fill="#5E77FF"/>
<path d="M91.057 147.701C91.057 147.701 92.9479 147.777 91.6339 147.976C90.3199 148.175 88.2052 148.36 88.2052 148.36C88.2052 148.36 91.0183 148.883 90.0733 149.031C89.1283 149.18 85.0576 148.972 85.0576 148.972C85.0576 148.972 86.3476 149.321 85.9375 149.401C85.5271 149.482 83.5 149.291 83.5 149.291C83.5 149.291 86.6062 149.472 84.6331 148.813C84.6331 148.813 89.7385 149.127 89.0095 148.74C88.2799 148.353 87.2704 148.16 87.2704 148.16C87.2704 148.16 93.4813 147.916 91.057 147.701Z" fill="#8296FF"/>
<path d="M125.128 134.452C127.386 134.291 129.875 134.095 132.472 133.873V131.114H105.654C97.9709 131.528 92.5517 131.788 92.5244 132.277C92.4749 133.16 110.043 133.738 109.952 134.374C109.799 135.431 61.13 134.915 60.7133 136.685C60.5513 137.372 67.7756 137.879 67.586 138.61C67.2119 140.049 38.6971 139.94 31.083 140.773V141.79C33.4367 142.182 37.1828 142.558 37.0946 143.024C37.0249 143.391 34.6319 143.477 31.083 143.553V145.243H36.4061C37.8043 143.968 74.3 144.324 74.723 142.695C74.9126 141.964 67.6889 141.457 67.8506 140.77C68.2673 138.999 116.936 139.515 117.089 138.459C117.181 137.823 99.6122 137.244 99.6614 136.362C99.7022 135.637 111.578 135.415 125.128 134.452Z" fill="#5E77FF"/>
<path d="M164.649 62.3501H49.1494V113.35H164.649V62.3501Z" fill="#BEC9FF"/>
<path d="M49.1143 73.1172H147.669C143.435 79.2912 133.335 85.4424 121.102 89.3103C109.56 92.9601 101.482 91.3572 110.858 86.2887C107.944 87.5646 96.3526 93.6441 93.1123 94.6683C80.1007 98.7831 57.748 100.049 49.1143 98.0901V73.1172Z" fill="#99A9FF"/>
<path d="M162.049 73.1172C142.002 87.6069 123.424 96.1728 103.351 101.345C97.7438 102.791 92.0777 104.149 86.2613 104.446C84.1973 104.552 79.2272 105.014 78.1856 102.409C77.3969 100.436 80.4911 98.6385 85.6511 95.1942C85.2998 95.7615 85.2134 96.3024 85.4351 96.8568C86.4764 99.4623 91.4465 98.9994 93.5108 98.8938C99.3269 98.5965 104.993 97.2381 110.601 95.793C130.425 90.6843 144.231 83.5233 159.04 73.0908L162.049 73.1172Z" fill="#99A9FF"/>
<path d="M96.1654 111.683C93.1342 108.018 91.993 112.025 91.993 112.025C90.4084 106.702 82.9348 109.866 82.9348 109.866C78.1984 103.133 68.3887 107.829 68.3887 107.829C69.2755 103.437 64.0966 104.092 64.0966 104.092C63.5728 99.465 57.7057 101.216 57.7057 101.216C54.9763 95.6478 51.8143 93.9246 49.2412 93.6519V113.971H104.463C101.602 109.664 96.1654 111.683 96.1654 111.683Z" fill="#FFFCFA"/>
<path d="M117.745 112.379C120.776 109.83 121.917 112.617 121.917 112.617C123.501 108.914 130.975 111.115 130.975 111.115C135.712 106.431 145.521 109.698 145.521 109.698C144.635 106.643 149.813 107.099 149.813 107.099C150.337 103.88 156.204 105.098 156.204 105.098C158.933 101.225 162.096 100.026 164.669 99.8359V113.971H109.447C112.308 110.975 117.745 112.379 117.745 112.379Z" fill="#FFFCFA"/>
<path d="M73.8318 90.6564H61.9014C61.9014 90.6564 62.259 89.0637 63.0375 89.253C63.816 89.4423 64.1529 90.1779 65.0157 89.9469C65.8782 89.7156 66.1728 88.1799 67.2459 88.7268C68.319 89.274 68.0874 90.3528 69.3501 90.0027C70.6125 89.6526 71.2857 89.295 72.5481 89.8209C73.8108 90.3471 73.8318 90.6564 73.8318 90.6564Z" fill="#FFFCFA"/>
<path d="M133.622 90.5683H121.691C121.691 90.5683 122.049 88.9753 122.828 89.1646C123.606 89.3539 123.943 90.0898 124.805 89.8585C125.668 89.6272 125.963 88.0915 127.036 88.6384C128.109 89.1856 127.877 90.2644 129.14 89.9143C130.403 89.5642 131.076 89.2066 132.338 89.7328C133.601 90.2587 133.622 90.5683 133.622 90.5683Z" fill="#FFFCFA"/>
<path d="M104.731 139.399C104.731 139.399 107.483 139.51 105.57 139.799C103.658 140.088 100.579 140.358 100.579 140.358C100.579 140.358 104.674 141.12 103.299 141.336C101.923 141.552 95.9979 141.25 95.9979 141.25C95.9979 141.25 97.8756 141.757 97.2783 141.874C96.681 141.992 93.7305 141.714 93.7305 141.714C93.7305 141.714 98.2521 141.976 95.3796 141.018C95.3796 141.018 102.811 141.476 101.75 140.912C100.688 140.348 99.219 140.068 99.219 140.068C99.219 140.068 108.259 139.712 104.731 139.399Z" fill="#FFFCFA"/>
<path d="M82.7306 131.114C82.7306 131.114 79.9784 131.225 81.8912 131.514C83.8037 131.803 86.882 132.073 86.882 132.073C86.882 132.073 82.787 132.834 84.1628 133.051C85.5386 133.267 91.4639 132.964 91.4639 132.964C91.4639 132.964 89.5859 133.471 90.1832 133.589C90.7805 133.707 93.7313 133.429 93.7313 133.429C93.7313 133.429 89.2097 133.691 92.0819 132.733C92.0819 132.733 84.65 133.19 85.7114 132.627C86.7731 132.063 88.2425 131.783 88.2425 131.783C88.2425 131.783 79.2023 131.427 82.7306 131.114Z" fill="#FFFCFA"/>
<path d="M112.679 120.68H111.446V116.975H133.309V121.148H113.303C113.303 120.889 113.024 120.68 112.679 120.68Z" fill="#5E77FF"/>
<path d="M105.257 120.68V115.909H82.9912V120.68H84.2245H104.024H105.257Z" fill="#001CB5"/>
<path d="M76.2528 114.401H55.3896V115.571H76.716L76.2528 114.401Z" fill="#BEC9FF"/>
<path d="M75.7127 113.932H55.1543V114.4H76.2389C75.9482 114.4 75.7127 114.191 75.7127 113.932Z" fill="white"/>
<path d="M76.8016 115.786L76.7164 115.571H54.2197L54.9388 116.975H76.8016V115.786Z" fill="#001CB5"/>
<path d="M75.5686 120.68H76.8013V116.975H54.9385V121.148H74.9452C74.9452 120.889 75.2236 120.68 75.5686 120.68Z" fill="#5E77FF"/>
<path d="M75.9483 121.616H75.5685C75.2235 121.616 74.9451 121.406 74.9451 121.147H54.5103C54.2688 121.147 54.0732 121.339 54.0732 121.576C54.0732 121.813 54.2688 122.004 54.5103 122.004H76.0428L75.9483 121.616Z" fill="#BEC9FF"/>
<path d="M76.0429 122.004H54.502V122.37H76.1317L76.0429 122.004Z" fill="#0029FF"/>
<path d="M76.6409 125.202H76.424C76.424 124.79 76.3661 123.875 76.3346 123.409H52.6595C52.6595 123.409 52.5953 124.07 53.3633 124.262C53.3633 124.262 53.0435 124.99 53.8115 125.202C53.8115 125.202 53.6837 126.31 54.5156 126.31C55.3475 126.31 76.6409 126.31 76.6409 126.31V125.202Z" fill="#0029FF"/>
<path d="M111.608 125.202H111.825C111.825 124.79 111.883 123.875 111.914 123.409H135.59C135.59 123.409 135.654 124.07 134.886 124.262C134.886 124.262 135.206 124.991 134.438 125.202C134.438 125.202 134.565 126.31 133.733 126.31C132.902 126.31 111.608 126.31 111.608 126.31V125.202Z" fill="#0029FF"/>
<path d="M82.3314 104.657V99.749H77.46V104.657H82.3314Z" fill="#5E77FF"/>
<path d="M105.917 104.657V99.749H110.788V104.657H105.917Z" fill="#5E77FF"/>
<path d="M76.2513 113.486H77.0496V112.75H54.8496V113.95H75.7017C75.7017 113.694 75.9477 113.486 76.2513 113.486Z" fill="#0029FF"/>
<path d="M112.07 113.486H111.25V112.75H134.05V113.95H112.634C112.634 113.694 112.382 113.486 112.07 113.486Z" fill="#0029FF"/>
<path d="M74.8718 147.805V147.26H75.2252V146.715H75.4877L75.9227 144.886L75.6644 144.86V144.315H76.0154V143.77H76.2884V143.225H76.6409V126.31H54.5156V148.349H74.4173V147.805H74.8718Z" fill="#0029FF"/>
<path d="M113.377 147.805V147.26H113.024V146.715H112.761L112.327 144.886L112.584 144.86V144.315H112.234V143.77H111.961V143.225H111.608V126.31H133.733V148.349H113.832V147.805H113.377Z" fill="#0029FF"/>
<path d="M76.5642 123.409H52.6593L51.8271 122.369H76.5642V123.409Z" fill="#2245FF"/>
<path d="M55.9097 126.31H55.1543V123.409H55.9097V126.31Z" fill="#3D5CFF"/>
<path d="M58.0249 126.31H57.2695V123.409H58.0249V126.31Z" fill="#3D5CFF"/>
<path d="M60.1402 126.31H59.3848V123.409H60.1402V126.31Z" fill="#3D5CFF"/>
<path d="M62.2541 126.31H61.499V123.409H62.2541V126.31Z" fill="#3D5CFF"/>
<path d="M64.3703 126.31H63.6152V123.409H64.3703V126.31Z" fill="#3D5CFF"/>
<path d="M66.4846 126.31H65.7295V123.409H66.4846V126.31Z" fill="#3D5CFF"/>
<path d="M68.6001 126.31H67.8447V123.409H68.6001V126.31Z" fill="#3D5CFF"/>
<path d="M70.7154 126.31H69.96V123.409H70.7154V126.31Z" fill="#3D5CFF"/>
<path d="M72.8293 126.31H72.0742V123.409H72.8293V126.31Z" fill="#3D5CFF"/>
<path d="M74.9452 126.31H74.1895V123.409H74.9452V126.31Z" fill="#3D5CFF"/>
<path d="M74.8976 127.196H61.8311V126.31H74.8976V127.196Z" fill="#3D5CFF"/>
<path d="M74.5194 127.197H62.208V127.878H74.5194V127.197Z" fill="#001CB5"/>
<path d="M74.0303 127.877H62.6963V148.349H74.0303V127.877Z" fill="#5E77FF"/>
<path d="M72.216 148.35H64.5117V136.835H72.216V148.35Z" fill="#F4B33E"/>
<path d="M68.3642 129.403C68.3339 129.401 63.6152 129.713 63.6152 135.957H73.1135C73.1135 129.713 68.3948 129.401 68.3642 129.403Z" fill="#001CB5"/>
<path d="M68.3642 129.403C68.3339 129.401 63.6152 129.713 63.6152 135.957H73.1135C73.1135 129.713 68.3948 129.401 68.3642 129.403Z" stroke="#8296FF" stroke-width="0.156015" stroke-miterlimit="10" stroke-linecap="round" stroke-linejoin="round"/>
<path d="M71.2666 130.768V135.958" stroke="#8296FF" stroke-width="0.156015" stroke-miterlimit="10" stroke-linecap="round" stroke-linejoin="round"/>
<path d="M70.0488 129.912V135.958" stroke="#8296FF" stroke-width="0.156015" stroke-miterlimit="10" stroke-linecap="round" stroke-linejoin="round"/>
<path d="M68.8301 129.477V135.958" stroke="#8296FF" stroke-width="0.156015" stroke-miterlimit="10" stroke-linecap="round" stroke-linejoin="round"/>
<path d="M67.6143 129.547V135.957" stroke="#8296FF" stroke-width="0.156015" stroke-miterlimit="10" stroke-linecap="round" stroke-linejoin="round"/>
<path d="M66.3965 130.065V135.958" stroke="#8296FF" stroke-width="0.156015" stroke-miterlimit="10" stroke-linecap="round" stroke-linejoin="round"/>
<path d="M65.1787 131.061V135.957" stroke="#8296FF" stroke-width="0.156015" stroke-miterlimit="10" stroke-linecap="round" stroke-linejoin="round"/>
<path d="M73.0281 134.577H63.7002" stroke="#8296FF" stroke-width="0.156015" stroke-miterlimit="10" stroke-linecap="round" stroke-linejoin="round"/>
<path d="M72.7778 133.359H63.9482" stroke="#8296FF" stroke-width="0.156015" stroke-miterlimit="10" stroke-linecap="round" stroke-linejoin="round"/>
<path d="M72.2966 132.142H64.4336" stroke="#8296FF" stroke-width="0.156015" stroke-miterlimit="10" stroke-linecap="round" stroke-linejoin="round"/>
<path d="M71.423 130.924H65.3057" stroke="#8296FF" stroke-width="0.156015" stroke-miterlimit="10" stroke-linecap="round" stroke-linejoin="round"/>
<path d="M71.3177 148.349H65.4092V138.046H71.3177V148.349Z" fill="#8296FF"/>
<path d="M70.9505 148.35V144.323C70.9505 144.018 70.7033 143.771 70.3988 143.771C70.3034 143.771 70.2146 143.797 70.1366 143.84V141.754C70.1366 140.702 69.2843 139.849 68.2331 139.849C67.1813 139.849 66.329 140.702 66.329 141.754V143.771C66.0242 143.771 65.7773 144.018 65.7773 144.323V148.35H70.9505Z" fill="#001CB5"/>
<path d="M68.0135 143.771V141.754C68.0135 141.004 68.4464 140.359 69.0749 140.048C68.8211 139.922 68.5358 139.849 68.2331 139.849C67.1813 139.849 66.329 140.702 66.329 141.754V143.771C66.0242 143.771 65.7773 144.018 65.7773 144.323V148.35H67.4618V144.323C67.4618 144.018 67.7087 143.771 68.0135 143.771Z" fill="#94421C"/>
<path d="M74.5192 120.162H62.2549V117.743H74.5192V120.162Z" fill="white"/>
<path d="M83.5037 143.77H76.2881V143.226H83.5037V143.77Z" fill="#2245FF"/>
<path d="M83.7776 144.315H76.0166V143.771H83.7776V144.315Z" fill="#001CB5"/>
<path d="M83.1461 123.124L83.4782 121.616H83.0231L82.7324 123.124H82.4L82.6562 121.616H82.2002L81.9863 123.124H81.6539L81.8339 121.616H80.9027L80.8094 123.124H80.4764L80.5361 121.616H80.0804L80.0633 123.124H79.7303L79.7135 121.616H79.2584L79.3175 123.124H78.9845L78.8915 121.616H77.96L78.1397 123.124H77.8076L77.594 121.616H77.1377L77.3939 123.124H77.0615L76.7711 121.616H76.3157L76.6484 123.124H76.3154C76.3154 123.124 76.4246 124.636 76.4246 125.202H83.3693C83.3693 124.447 83.4149 123.722 83.4692 123.124H83.1461Z" fill="#2245FF"/>
<path d="M82.9225 99.1588C82.9225 99.4849 82.6579 99.7498 82.3312 99.7498H77.4601C77.1337 99.7498 76.8691 99.4849 76.8691 99.1588C76.8691 98.8324 77.1337 98.5669 77.4601 98.5669H82.3312C82.6579 98.5669 82.9225 98.8324 82.9225 99.1588Z" fill="#001CB5"/>
<path d="M79.8954 93.9458C79.8954 93.9458 77.46 96.9149 77.46 98.1716V98.5661H82.3314V98.1716C82.3314 96.9149 79.8954 93.9458 79.8954 93.9458Z" fill="#3D5CFF"/>
<path d="M80.4143 102.904V100.747C80.4143 100.461 80.1824 100.229 79.8968 100.229C79.6112 100.229 79.3799 100.461 79.3799 100.747V102.904H80.4143Z" fill="white"/>
<path d="M78.5594 102.904V100.747C78.5594 100.461 78.4124 100.229 78.2315 100.229C78.0503 100.229 77.9033 100.461 77.9033 100.747V102.904H78.5594Z" fill="white"/>
<path d="M81.8895 102.904V100.747C81.8895 100.461 81.7425 100.229 81.5616 100.229C81.3804 100.229 81.2334 100.461 81.2334 100.747V102.904H81.8895Z" fill="white"/>
<path d="M82.7871 113.465H77.0049V111.515H82.7871V113.465Z" fill="#3D5CFF"/>
<path d="M84.0785 113.933C84.0785 114.191 83.8427 114.401 83.552 114.401H76.2401C75.9494 114.401 75.7139 114.191 75.7139 113.933C75.7139 113.675 75.9494 113.465 76.2401 113.465H83.552C83.8427 113.465 84.0785 113.675 84.0785 113.933Z" fill="#0029FF"/>
<path d="M84.8486 121.148C84.8486 121.406 84.569 121.616 84.2252 121.616H75.5687C75.224 121.616 74.9453 121.406 74.9453 121.148C74.9453 120.89 75.224 120.68 75.5687 120.68H84.2252C84.569 120.68 84.8486 120.89 84.8486 121.148Z" fill="#0029FF"/>
<path d="M77.3488 115.909H76.8496L76.2529 114.401H76.8496L77.3488 115.909Z" fill="white"/>
<path d="M78.4674 115.909H77.9682L77.5908 114.401H78.1875L78.4674 115.909Z" fill="white"/>
<path d="M79.586 115.909H79.0871L78.9287 114.401H79.5251L79.586 115.909Z" fill="white"/>
<path d="M80.7047 115.909H80.2061L80.267 114.401H80.8637L80.7047 115.909Z" fill="white"/>
<path d="M81.8238 115.909H81.3252L81.6054 114.401H82.2021L81.8238 115.909Z" fill="white"/>
<path d="M82.941 115.909H82.4424L82.941 114.401H83.5386L82.941 115.909Z" fill="white"/>
<path d="M76.6475 123.124H76.3148L75.9482 121.616H76.3151L76.6475 123.124Z" fill="white"/>
<path d="M77.3936 123.124H77.0609L76.7705 121.616H77.1374L77.3936 123.124Z" fill="white"/>
<path d="M78.1398 123.124H77.8076L77.5938 121.616H77.9601L78.1398 123.124Z" fill="white"/>
<path d="M79.3166 123.124H78.9836L78.8906 121.616H79.2569L79.3166 123.124Z" fill="white"/>
<path d="M80.0617 123.124H79.7287L79.7119 121.616H80.0788L80.0617 123.124Z" fill="white"/>
<path d="M80.8086 123.124H80.4756L80.5353 121.616H80.9019L80.8086 123.124Z" fill="white"/>
<path d="M81.9857 123.124H81.6533L81.8333 121.616H82.1996L81.9857 123.124Z" fill="white"/>
<path d="M82.7321 123.124H82.3994L82.6556 121.616H83.0225L82.7321 123.124Z" fill="white"/>
<path d="M83.4779 123.124H83.1455L83.4779 121.616H83.8442L83.4779 123.124Z" fill="white"/>
<path d="M82.9428 115.909H82.4442L82.9428 114.401H82.2024L81.8244 115.909H81.3258L81.6057 114.401H80.8644L80.7054 115.909H80.2071L80.2677 114.401H79.5261L79.587 115.909H79.0881L78.9297 114.401H78.1884L78.4683 115.909H77.9694L77.5917 114.401H76.8504L77.3499 115.909H76.8504L76.8018 115.785V120.68H82.992V115.785L82.9428 115.909Z" fill="#2245FF"/>
<path d="M82.7871 104.966C82.7871 105.137 82.6485 105.276 82.4772 105.276H77.3148C77.1438 105.276 77.0049 105.137 77.0049 104.966C77.0049 104.795 77.1438 104.657 77.3148 104.657H82.4772C82.6485 104.657 82.7871 104.795 82.7871 104.966Z" fill="#2245FF"/>
<path d="M82.332 107.412H77.4606L76.5645 106.125H83.2281L82.332 107.412Z" fill="#0029FF"/>
<path d="M77.9408 143.225H76.6406V125.201H77.9408V143.225Z" fill="#8296FF"/>
<path d="M80.5463 143.225H79.2461V125.201H80.5463V143.225Z" fill="#D47C28"/>
<path d="M81.8484 143.225H80.5479V125.201H81.8484V143.225Z" fill="#CB7026"/>
<path d="M83.153 143.225H81.8525V125.201H83.153V143.225Z" fill="#BA5E23"/>
<path d="M84.128 144.887H75.665V144.315H84.128V144.887Z" fill="#8296FF"/>
<path d="M84.304 146.715H75.4873L75.9223 144.887H83.8696L84.304 146.715Z" fill="#2245FF"/>
<path d="M84.5679 147.26H75.2256V146.715H84.5679V147.26Z" fill="#E1882A"/>
<path d="M84.9196 147.804H74.8711V147.259H84.9196V147.804Z" fill="#CE7C26"/>
<path d="M85.3755 148.349H74.418V147.805H85.3755V148.349Z" fill="#8296FF"/>
<path d="M82.3314 105.276H77.46V106.125H82.3314V105.276Z" fill="#5E77FF"/>
<path d="M77.46 111.514H82.3314V107.411H77.46V111.514Z" fill="#2245FF"/>
<path d="M111.684 123.409H135.588L136.421 122.37H111.684V123.409Z" fill="#2245FF"/>
<path d="M132.337 126.31H133.092V123.409H132.337V126.31Z" fill="#3D5CFF"/>
<path d="M130.223 126.31H130.979V123.409H130.223V126.31Z" fill="#3D5CFF"/>
<path d="M128.108 126.31H128.864V123.409H128.108V126.31Z" fill="#3D5CFF"/>
<path d="M125.993 126.31H126.748V123.409H125.993V126.31Z" fill="#3D5CFF"/>
<path d="M123.878 126.31H124.634V123.409H123.878V126.31Z" fill="#3D5CFF"/>
<path d="M121.764 126.31H122.519V123.409H121.764V126.31Z" fill="#3D5CFF"/>
<path d="M119.647 126.31H120.403V123.409H119.647V126.31Z" fill="#3D5CFF"/>
<path d="M117.533 126.31H118.288V123.409H117.533V126.31Z" fill="#3D5CFF"/>
<path d="M115.418 126.31H116.173V123.409H115.418V126.31Z" fill="#3D5CFF"/>
<path d="M113.304 126.31H114.059V123.409H113.304V126.31Z" fill="#3D5CFF"/>
<path d="M113.351 127.196H126.418V126.31H113.351V127.196Z" fill="#3D5CFF"/>
<path d="M113.729 127.196H126.04V127.878H113.729V127.196Z" fill="#001CB5"/>
<path d="M114.217 127.877H125.55V148.349H114.217V127.877Z" fill="#5E77FF"/>
<path d="M116.032 148.35H123.736V136.835H116.032V148.35Z" fill="#F4B33E"/>
<path d="M119.885 129.404C119.915 129.401 124.634 129.713 124.634 135.958H115.136C115.136 129.713 119.854 129.401 119.885 129.404Z" fill="#001CB5"/>
<path d="M119.885 129.404C119.915 129.401 124.634 129.713 124.634 135.958H115.136C115.136 129.713 119.854 129.401 119.885 129.404Z" stroke="#8296FF" stroke-width="0.156015" stroke-miterlimit="10" stroke-linecap="round" stroke-linejoin="round"/>
<path d="M116.982 130.768V135.958" stroke="#8296FF" stroke-width="0.156015" stroke-miterlimit="10" stroke-linecap="round" stroke-linejoin="round"/>
<path d="M118.199 129.912V135.958" stroke="#8296FF" stroke-width="0.156015" stroke-miterlimit="10" stroke-linecap="round" stroke-linejoin="round"/>
<path d="M119.417 129.477V135.958" stroke="#8296FF" stroke-width="0.156015" stroke-miterlimit="10" stroke-linecap="round" stroke-linejoin="round"/>
<path d="M120.634 129.547V135.957" stroke="#8296FF" stroke-width="0.156015" stroke-miterlimit="10" stroke-linecap="round" stroke-linejoin="round"/>
<path d="M121.853 130.065V135.958" stroke="#8296FF" stroke-width="0.156015" stroke-miterlimit="10" stroke-linecap="round" stroke-linejoin="round"/>
<path d="M123.069 131.061V135.957" stroke="#8296FF" stroke-width="0.156015" stroke-miterlimit="10" stroke-linecap="round" stroke-linejoin="round"/>
<path d="M115.22 134.577H124.548" stroke="#8296FF" stroke-width="0.156015" stroke-miterlimit="10" stroke-linecap="round" stroke-linejoin="round"/>
<path d="M115.47 133.36H124.3" stroke="#8296FF" stroke-width="0.156015" stroke-miterlimit="10" stroke-linecap="round" stroke-linejoin="round"/>
<path d="M115.952 132.142H123.815" stroke="#8296FF" stroke-width="0.156015" stroke-miterlimit="10" stroke-linecap="round" stroke-linejoin="round"/>
<path d="M116.827 130.924H122.944" stroke="#8296FF" stroke-width="0.156015" stroke-miterlimit="10" stroke-linecap="round" stroke-linejoin="round"/>
<path d="M116.93 148.349H122.838V138.046H116.93V148.349Z" fill="#8296FF"/>
<path d="M117.297 148.349V144.322C117.297 144.017 117.544 143.77 117.849 143.77C117.944 143.77 118.032 143.796 118.111 143.839V141.753C118.111 140.701 118.964 139.848 120.014 139.848C121.066 139.848 121.919 140.701 121.919 141.753V143.77C122.223 143.77 122.47 144.017 122.47 144.322V148.349H117.297Z" fill="#001CB5"/>
<path d="M120.235 143.771V141.754C120.235 141.004 119.801 140.359 119.173 140.048C119.427 139.922 119.712 139.849 120.015 139.849C121.067 139.849 121.919 140.702 121.919 141.754V143.771C122.224 143.771 122.471 144.018 122.471 144.323V148.35H120.786V144.323C120.786 144.018 120.539 143.771 120.235 143.771Z" fill="#94421C"/>
<path d="M111.995 114.401H132.859V115.571H111.532L111.995 114.401Z" fill="#BEC9FF"/>
<path d="M113.729 120.162H125.993V117.743H113.729V120.162Z" fill="white"/>
<path d="M104.743 143.77H111.959V143.226H104.743V143.77Z" fill="#2245FF"/>
<path d="M104.472 144.315H112.233V143.771H104.472V144.315Z" fill="#001CB5"/>
<path d="M105.102 123.124L104.771 121.616H105.226L105.516 123.124H105.848L105.593 121.616H106.048L106.262 123.124H106.595L106.415 121.616H107.346L107.439 123.124H107.772L107.713 121.616H108.168L108.185 123.124H108.518L108.535 121.616H108.991L108.931 123.124H109.265L109.358 121.616H110.289L110.109 123.124H110.441L110.655 121.616H111.11L110.855 123.124H111.188L111.478 121.616H111.933L111.601 123.124H111.934C111.934 123.124 111.824 124.636 111.824 125.202H104.879C104.879 124.447 104.834 123.722 104.78 123.124H105.102Z" fill="#2245FF"/>
<path d="M105.326 99.1588C105.326 99.4849 105.591 99.7498 105.917 99.7498H110.789C111.115 99.7498 111.379 99.4849 111.379 99.1588C111.379 98.8324 111.115 98.5669 110.789 98.5669H105.917C105.591 98.5669 105.326 98.8324 105.326 99.1588Z" fill="#001CB5"/>
<path d="M108.353 93.9458C108.353 93.9458 110.788 96.9149 110.788 98.1716V98.5661H105.917V98.1716C105.917 96.9149 108.353 93.9458 108.353 93.9458Z" fill="#3D5CFF"/>
<path d="M107.835 102.904V100.747C107.835 100.461 108.067 100.229 108.353 100.229C108.638 100.229 108.87 100.461 108.87 100.747V102.904H107.835Z" fill="white"/>
<path d="M109.69 102.904V100.747C109.69 100.461 109.837 100.229 110.018 100.229C110.2 100.229 110.346 100.461 110.346 100.747V102.904H109.69Z" fill="white"/>
<path d="M106.358 102.904V100.747C106.358 100.461 106.505 100.229 106.687 100.229C106.868 100.229 107.015 100.461 107.015 100.747V102.904H106.358Z" fill="white"/>
<path d="M105.461 113.465H111.243V111.515H105.461V113.465Z" fill="#3D5CFF"/>
<path d="M104.169 113.933C104.169 114.191 104.405 114.401 104.696 114.401H112.008C112.298 114.401 112.534 114.191 112.534 113.933C112.534 113.675 112.298 113.465 112.008 113.465H104.696C104.405 113.465 104.169 113.675 104.169 113.933Z" fill="#0029FF"/>
<path d="M103.4 121.148C103.4 121.406 103.68 121.616 104.024 121.616H112.68C113.025 121.616 113.304 121.406 113.304 121.148C113.304 120.89 113.025 120.68 112.68 120.68H104.024C103.68 120.68 103.4 120.89 103.4 121.148Z" fill="#0029FF"/>
<path d="M110.899 115.909H111.399L111.996 114.401H111.399L110.899 115.909Z" fill="white"/>
<path d="M109.781 115.909H110.28L110.658 114.401H110.061L109.781 115.909Z" fill="white"/>
<path d="M108.661 115.909H109.16L109.318 114.4H108.723L108.661 115.909Z" fill="white"/>
<path d="M107.543 115.909H108.041L107.981 114.401H107.385L107.543 115.909Z" fill="white"/>
<path d="M106.425 115.909H106.924L106.644 114.401H106.047L106.425 115.909Z" fill="white"/>
<path d="M105.307 115.909H105.806L105.307 114.401H104.71L105.307 115.909Z" fill="white"/>
<path d="M111.601 123.124H111.934L112.3 121.616H111.933L111.601 123.124Z" fill="white"/>
<path d="M110.854 123.124H111.187L111.478 121.616H111.11L110.854 123.124Z" fill="white"/>
<path d="M110.109 123.124H110.442L110.656 121.616H110.289L110.109 123.124Z" fill="white"/>
<path d="M108.932 123.124H109.265L109.358 121.616H108.991L108.932 123.124Z" fill="white"/>
<path d="M108.184 123.124H108.518L108.535 121.616H108.168L108.184 123.124Z" fill="white"/>
<path d="M107.44 123.124H107.772L107.714 121.616H107.347L107.44 123.124Z" fill="white"/>
<path d="M106.263 123.124H106.595L106.416 121.616H106.049L106.263 123.124Z" fill="white"/>
<path d="M105.516 123.124H105.849L105.593 121.616H105.227L105.516 123.124Z" fill="white"/>
<path d="M104.77 123.124H105.102L104.77 121.616H104.403L104.77 123.124Z" fill="white"/>
<path d="M105.306 115.909H105.805L105.306 114.401H106.046L106.424 115.909H106.923L106.643 114.401H107.385L107.543 115.909H108.041L107.981 114.401H108.723L108.662 115.909H109.16L109.319 114.401H110.06L109.781 115.909H110.28L110.657 114.401H111.399L110.899 115.909H111.399L111.447 115.785V120.68H105.257V115.785L105.306 115.909Z" fill="#2245FF"/>
<path d="M105.461 104.967C105.461 105.137 105.599 105.276 105.771 105.276H110.934C111.104 105.276 111.243 105.137 111.243 104.967C111.243 104.796 111.104 104.657 110.934 104.657H105.771C105.599 104.657 105.461 104.796 105.461 104.967Z" fill="#2245FF"/>
<path d="M105.917 107.412H110.788L111.684 106.125H105.021L105.917 107.412Z" fill="#0029FF"/>
<path d="M104.12 144.887H112.583V144.315H104.12V144.887Z" fill="#8296FF"/>
<path d="M103.943 146.715H112.76L112.325 144.887H104.378L103.943 146.715Z" fill="#3D5CFF"/>
<path d="M103.681 147.26H113.022V146.715H103.681V147.26Z" fill="#E1882A"/>
<path d="M103.328 147.805H113.377V147.26H103.328V147.805Z" fill="#CE7C26"/>
<path d="M102.873 148.349H113.831V147.805H102.873V148.349Z" fill="#8296FF"/>
<path d="M105.917 105.276H110.788V106.125H105.917V105.276Z" fill="#5E77FF"/>
<path d="M110.788 111.514H105.917V107.411H110.788V111.514Z" fill="#2245FF"/>
<path d="M106.397 143.225H105.097V125.201H106.397V143.225Z" fill="#8296FF"/>
<path d="M109.002 143.225H107.702V125.201H109.002V143.225Z" fill="#D47C28"/>
<path d="M110.305 143.225H109.005V125.201H110.305V143.225Z" fill="#CB7026"/>
<path d="M111.607 143.225H110.307V125.201H111.607V143.225Z" fill="#BA5E23"/>
<path d="M112.534 113.932H133.093V114.4H112.008C112.299 114.4 112.534 114.191 112.534 113.932Z" fill="white"/>
<path d="M111.446 115.786L111.531 115.571H134.028L133.309 116.975H111.446V115.786Z" fill="#001CB5"/>
<path d="M112.3 121.616H112.68C113.025 121.616 113.304 121.406 113.304 121.147H133.739C133.979 121.147 134.176 121.339 134.176 121.576C134.176 121.813 133.979 122.004 133.739 122.004H112.206L112.3 121.616Z" fill="#BEC9FF"/>
<path d="M112.206 122.004H133.747V122.37H112.117L112.206 122.004Z" fill="#0029FF"/>
<path d="M104.879 125.202C104.879 124.447 104.833 123.722 104.78 123.124H104.771L104.543 122.187H83.7049L83.4772 123.124H83.4679C83.4139 123.722 83.3683 124.447 83.3683 125.202H83.1514V143.226H83.5036V143.771H83.7763V144.316H84.1273V144.887H83.8696L84.304 146.715H84.5671V147.26H84.9199V147.805H85.3744V148.35H86.3614H86.3605C86.3605 147.26 85.7506 147.26 85.7506 147.26V136.835C86.3362 136.835 86.3656 136.395 86.3626 135.876H84.7234V134.843H85.4509C85.8649 125.352 94.1236 124.016 94.1236 124.016C94.1236 124.016 102.382 125.352 102.796 134.843H103.524V135.876H101.885C101.882 136.395 101.911 136.835 102.497 136.835V147.26C102.497 147.26 101.888 147.26 101.888 148.35H101.887H102.873V147.805H103.327V147.26H103.681V146.715H103.943L104.378 144.887H104.12V144.316H104.471V143.771H104.744V143.226H105.096V125.202H104.879Z" fill="#001CB5"/>
<path d="M85.5337 120.68H84.7441V115.909H85.5337V120.68Z" fill="#3D5CFF"/>
<path d="M88.1008 120.68H87.3115V115.909H88.1008V120.68Z" fill="#3D5CFF"/>
<path d="M90.6686 120.68H89.8799V115.909H90.6686V120.68Z" fill="#3D5CFF"/>
<path d="M93.2359 120.68H92.4463V115.909H93.2359V120.68Z" fill="#3D5CFF"/>
<path d="M95.8024 120.68H95.0137V115.909H95.8024V120.68Z" fill="#3D5CFF"/>
<path d="M98.3694 120.68H97.5801V115.909H98.3694V120.68Z" fill="#3D5CFF"/>
<path d="M100.936 120.68H100.147V115.909H100.936V120.68Z" fill="#3D5CFF"/>
<path d="M103.503 120.68H102.714V115.909H103.503V120.68Z" fill="#3D5CFF"/>
<path d="M84.7236 134.843H86.9634C86.9634 134.843 86.9955 135.378 86.6784 135.378C86.6784 135.378 86.7672 135.876 86.4117 135.876H84.7236V134.843Z" fill="#3D5CFF"/>
<path d="M103.524 134.843H101.284C101.284 134.843 101.253 135.378 101.569 135.378C101.569 135.378 101.481 135.876 101.837 135.876H103.524V134.843Z" fill="#3D5CFF"/>
<path d="M102.798 134.843C102.383 125.352 94.1248 124.016 94.1248 124.016C94.1248 124.016 85.8658 125.352 85.4521 134.843H86.3812C86.806 126.394 94.1248 125.202 94.1248 125.202C94.1248 125.202 101.444 126.394 101.868 134.843H102.798Z" fill="#0029FF"/>
<path d="M105.916 105.277H105.771C105.599 105.277 105.46 105.138 105.46 104.967C105.46 104.796 105.599 104.658 105.771 104.658H105.916V103.325H82.3311V104.658H82.4766C82.6479 104.658 82.7865 104.796 82.7865 104.967C82.7865 105.138 82.6479 105.277 82.4766 105.277H82.3311V105.7H105.916V105.277Z" fill="#3D5CFF"/>
<path d="M105.468 106.768L105.04 106.125H105.916V105.7H82.3311V106.125H83.2275L82.779 106.768H105.468Z" fill="#001CB5"/>
<path d="M83.5515 114.401H104.695C104.405 114.401 104.169 114.191 104.169 113.933C104.169 113.675 104.405 113.465 104.695 113.465H105.46V111.515H105.916V107.411L105.468 106.769H82.779L82.3311 107.411V111.515H82.7865V113.465H83.5515C83.8422 113.465 84.078 113.675 84.078 113.933C84.078 114.191 83.8422 114.401 83.5515 114.401Z" fill="#5E77FF"/>
<path d="M105.257 115.909V115.786L105.306 115.909L104.709 114.401H104.696H83.552H83.5397L82.9424 115.909L82.9913 115.786V115.909H105.257Z" fill="#0029FF"/>
<path d="M104.404 121.616H104.024C103.679 121.616 103.4 121.406 103.4 121.148C103.4 120.89 103.679 120.68 104.024 120.68H84.2239C84.5677 120.68 84.8473 120.89 84.8473 121.148C84.8473 121.406 84.5677 121.616 84.2239 121.616H83.8435L83.8252 121.692H104.422L104.404 121.616Z" fill="#3D5CFF"/>
<path d="M104.423 121.681H83.8264L83.7061 122.187H104.544L104.423 121.681Z" fill="#0029FF"/>
<path d="M86.3607 148.35C86.3607 147.26 85.7505 147.26 85.7505 147.26V136.836C86.3361 136.836 86.3655 136.395 86.3628 135.876H84.7236V147.26H84.8391V147.805H85.2936V148.35H86.3607Z" fill="#3D5CFF"/>
<path d="M101.887 135.876C101.883 136.395 101.913 136.836 102.499 136.836V147.26C102.499 147.26 101.889 147.26 101.889 148.35H102.875V147.805H103.329V147.26H103.526V135.876H101.887Z" fill="#3D5CFF"/>
<path d="M84.7236 122.889V134.843H85.4511C85.8648 125.352 94.1238 124.016 94.1238 124.016C94.1238 124.016 102.382 125.352 102.797 134.843H103.524V122.889H84.7236Z" fill="#3D5CFF"/>
<path d="M103.098 112.724H85.1484V108.268H103.098V112.724Z" fill="white"/>
<path d="M87.9039 124.761C87.9039 125.274 87.4869 125.691 86.9736 125.691C86.4594 125.691 86.043 125.274 86.043 124.761C86.043 124.246 86.4594 123.83 86.9736 123.83C87.4869 123.83 87.9039 124.246 87.9039 124.761Z" fill="#0029FF"/>
<path d="M87.4246 124.761C87.4246 125.01 87.2227 125.211 86.974 125.211C86.7247 125.211 86.5234 125.01 86.5234 124.761C86.5234 124.512 86.7247 124.311 86.974 124.311C87.2227 124.311 87.4246 124.512 87.4246 124.761Z" fill="#5E77FF"/>
<path d="M102.207 124.761C102.207 125.274 101.79 125.691 101.276 125.691C100.762 125.691 100.345 125.274 100.345 124.761C100.345 124.246 100.762 123.83 101.276 123.83C101.79 123.83 102.207 124.246 102.207 124.761Z" fill="#0029FF"/>
<path d="M101.726 124.761C101.726 125.01 101.524 125.211 101.276 125.211C101.026 125.211 100.825 125.01 100.825 124.761C100.825 124.512 101.026 124.311 101.276 124.311C101.524 124.311 101.726 124.512 101.726 124.761Z" fill="#5E77FF"/>
<path d="M111.616 143.225H105.109V125.201H111.616V143.225Z" fill="#3D5CFF"/>
<path d="M83.1989 143.225H76.6445V125.201H83.1989V143.225Z" fill="#3D5CFF"/>
<path d="M118.542 90.3877C118.542 90.3877 120.227 90.4924 120.816 91.5391C120.816 91.5391 121.474 89.9341 122.486 89.8297C122.486 89.8297 120.933 89.7379 120.881 90.9418C120.881 90.9418 119.29 89.6116 118.542 90.3877Z" fill="#001CB5"/>
<path d="M126.959 96.4604C126.959 96.4604 129.437 96.6143 130.302 98.1533C130.302 98.1533 131.27 95.7935 132.758 95.6396C132.758 95.6396 130.475 95.5049 130.398 97.2749C130.398 97.2749 128.06 95.3189 126.959 96.4604Z" fill="#001CB5"/>
<path d="M122.45 86.7421C122.45 86.7421 123.557 87.2764 123.665 88.1434C123.665 88.1434 124.55 87.2434 125.261 87.4513C125.261 87.4513 124.24 86.9626 123.873 87.7588C123.873 87.7588 123.168 86.425 122.45 86.7421Z" fill="#001CB5"/>
</g>
</g>
</svg>
