<svg width="250" height="250" viewBox="0 0 250 250" fill="none" xmlns="http://www.w3.org/2000/svg">
<g clip-path="url(#clip0_200_102)">
<path fill-rule="evenodd" clip-rule="evenodd" d="M114.146 125.855C122.045 119.84 141.877 117.135 150.307 122.927C158.634 128.743 159.542 138.148 163.423 146.8C167.084 145.074 173.13 147.547 174.191 150.944C175.508 152.546 175.567 157.047 176.475 159.201C215.976 165.489 221.973 196.285 226.728 231.248C233.018 266.726 247.296 302.127 241.098 338.634C241.905 339.803 242.542 340.939 243.131 342.288C244.542 344.689 242.724 348.087 239.879 347.955C236.195 347.632 232.548 347.19 228.847 347.052C218.588 346.696 208.32 346.738 198.057 346.869L196.657 346.887C144.935 347.531 93.215 348.8 41.4902 349.136C39.6137 349.139 38.695 347.456 38.9455 345.796C39.4502 342.453 39.9183 339.109 40.407 335.765C28.1727 338.997 15.1667 339.81 2.96698 336.105C2.11354 335.236 4.95546 335.707 5.40634 335.575C-5.82118 327.903 -2.46822 311.741 -1.47366 300.1C4.71066 260.211 6.89082 216.078 30.7849 182.04C41.1219 168.15 56.2767 157.152 73.6908 154.677L74.1739 154.611C79.2658 153.932 84.9406 153.714 89.3926 150.944C94.3997 146.946 96.5334 139.561 101.801 139.491C103.541 139.469 105.907 141.669 108.453 143.163C108.643 139.877 110.414 137.103 110.805 134.555L110.837 134.337C111.245 131.366 110.686 128.693 114.146 125.855ZM199.038 232.302C187.937 224.59 159.261 228.465 158.605 228.897C157.159 229.848 156.537 229.932 155.755 231.166C154.983 231.269 154.212 231.375 153.442 231.484C151.896 231.989 153.041 233.891 154.827 233.212C153.753 237.844 156.913 241.138 158.172 245.717C158.58 247.204 158.187 249.878 158.172 251.397C158.294 253.334 160.435 255.622 160.078 257.565C158.809 264.473 151.924 271.213 154.827 277.912C156.75 281.696 162.534 283.626 166.38 284.912C174.348 287.97 188.231 284.797 192.86 277.912C195.329 274.24 198.19 264.977 199.663 262.104L199.989 257.546C200.794 246.216 201.509 234.019 199.038 232.302Z" fill="white"/>
<path fill-rule="evenodd" clip-rule="evenodd" d="M99.867 138.823C100.633 138.145 101.767 138.997 101.28 139.914C100.186 141.975 99.0635 143.927 97.5947 145.748C96.7041 146.853 95.7502 147.897 94.7835 148.93C97.2644 151.076 99.3921 153.741 101.401 156.238C103.971 159.432 106.4 162.762 109.284 165.684C112.128 168.566 115.273 170.581 119.076 171.925L119.844 172.192C123.665 173.533 127.748 175.344 129.901 178.961C130.326 179.674 129.47 180.555 128.752 180.11C125.01 177.794 120.614 177.328 116.541 175.797C112.606 174.318 109.176 172.042 106.146 169.138C103.121 166.238 100.581 162.939 97.931 159.709C95.3108 156.516 92.4897 153.788 89.3905 151.087C84.6079 154.304 79.1487 155.704 73.5977 157.079L72.9918 157.229C67.434 158.605 61.906 160.203 56.6919 162.599C52.0948 164.712 47.5732 167.234 43.8286 170.672C39.8535 174.32 36.7598 178.979 33.9281 183.535C27.594 193.729 23.1409 204.897 19.2206 216.201C15.1431 227.958 11.7326 239.951 8.9793 252.087C7.57898 258.26 6.4417 264.476 5.50698 270.736C5.05706 273.751 4.65738 276.773 4.30634 279.801C3.93162 283.035 3.84554 286.361 2.85354 289.47C2.42826 290.803 1.4241 291.356 0.418977 291.309L0.214825 293.862C-0.0558901 297.266 -0.308255 300.671 -0.393503 304.097C-0.534915 309.792 -0.470796 315.471 -0.0611225 321.154L-0.00310282 321.929C0.318817 326.077 1.03818 330.738 4.15722 333.775C7.3873 336.92 12.3547 337.909 16.7083 337.966C26.8481 338.098 36.6087 333.307 45.5815 329.104C54.8225 324.775 63.811 319.971 72.5841 314.76C77.0519 312.106 81.4715 309.364 85.8347 306.542C87.9758 305.156 90.1019 303.748 92.2119 302.316C93.4206 301.497 94.5659 300.598 95.7963 299.87C95.1934 299.309 94.9243 298.427 95.4292 297.656C91.8724 294.569 90.3921 289.059 90.219 284.601C90.0791 281.003 90.6087 277.415 91.0267 273.85C91.2375 272.053 91.498 270.259 91.7684 268.469C91.8753 267.762 91.9569 267.006 92.0817 266.26C82.4775 271.538 72.6043 276.238 62.4695 280.413C57.2747 282.554 52.0132 284.478 46.6791 286.242L45.598 286.598C40.5439 288.252 35.369 289.815 30.1441 290.761C29.8647 290.811 29.6379 290.399 29.9361 290.267C35.0279 288.02 40.2961 286.125 45.4644 284.056L46.3137 283.71V283.71C46.2161 283.705 46.115 283.692 46.0094 283.666C42.9783 282.935 39.971 281.807 36.9982 280.858C34.2391 279.977 31.1393 279.424 28.5604 278.094C28.362 277.992 28.4731 277.716 28.6663 277.703C31.5649 277.502 34.7115 278.347 37.5534 278.844L38.621 279.031C40.4095 279.346 42.2376 279.685 44.0174 280.127C44.0817 279.531 44.4148 278.932 44.8887 278.581C50.1038 274.719 49.5742 266.919 50.1319 261.167L50.5455 256.896C51.273 249.423 52.0427 241.95 53.2119 234.532C53.2743 234.136 53.8871 234.25 53.8897 234.624C53.95 243.819 53.2559 252.972 52.908 262.152L52.8541 263.658C52.6617 269.323 52.511 275.206 48.9431 279.564C49.442 279.273 50.1166 279.273 50.5207 279.754C51.0174 280.345 51.3041 281.008 51.2951 281.66C54.5191 280.308 57.7291 278.921 60.9233 277.506C71.1931 272.956 81.2475 267.865 91.0359 262.356C92.0894 261.763 93.0907 262.228 93.6116 263.01L93.6868 262.999C93.6994 262.998 93.7121 262.996 93.7252 262.996L93.7998 262.993C93.8027 262.993 93.8055 262.993 93.8081 262.993C95.186 262.236 97.0631 262.775 98.2455 263.88C98.2804 263.913 98.3102 263.949 98.3412 263.984C99.8382 263.312 101.236 262.405 102.504 261.255C105.1 258.902 107.299 255.993 109.216 253.076C112.746 247.703 115.744 241.729 120.512 237.306C124.387 233.713 129.19 231.475 134.229 230.071C134.208 229.924 134.264 229.767 134.366 229.663C134.625 229.397 134.809 229.306 135.144 229.467C135.17 229.48 135.186 229.498 135.197 229.517L135.689 228.677C135.957 228.221 136.233 227.762 136.328 227.641C136.901 226.921 137.489 226.206 138.087 225.506C139.101 224.321 140.255 223.152 141.593 222.33C144.521 220.531 147.599 221.549 150.609 222.532C152.428 223.126 154.241 223.74 156.056 224.343L156.244 224.404C157.598 224.839 159.182 225.22 159.787 226.654C160.027 227.222 160.064 227.811 159.952 228.382C172.811 225.112 187.094 226.615 199.642 230.453C200.123 230.601 200.604 230.997 200.706 231.517C202.143 238.89 202.784 246.452 202.133 253.95C201.572 260.423 200.138 266.767 197.435 272.693L197.281 273.027C194.741 278.519 190.716 285.29 184.567 287.011C180.855 288.05 176.749 287.437 172.963 287.247C169.283 287.062 165.522 287.035 161.877 286.456C158.631 285.941 155.787 284.486 153.781 281.847C152.05 279.57 151.139 276.818 150.392 274.08C150.051 274.189 149.711 274.304 149.377 274.435C147.967 274.986 146.772 275.875 145.692 276.921C143.41 279.13 141.641 281.813 139.254 283.922C137.093 285.83 134.631 287.314 131.99 288.455C126.518 290.82 120.647 291.765 114.859 293.018L114.455 293.106C110.097 294.062 105.649 295.236 101.803 297.505C101.727 298.173 101.423 298.801 100.935 299.213C101.614 299.85 101.901 300.859 101.305 301.805C99.6398 304.448 96.7715 305.952 94.1964 307.642L94.0289 307.752C91.4958 309.432 88.9406 311.078 86.3646 312.69C81.1278 315.969 75.7815 319.067 70.3598 322.029C61.6395 326.793 52.7319 331.287 43.6631 335.363C44.2075 338.041 44.0086 340.802 44.4177 343.498L44.4804 343.883C44.6552 344.883 44.4191 345.72 43.73 346.374L43.6571 346.441L43.6583 346.432L43.5937 346.491L43.5721 346.509L43.5793 346.503C43.4999 346.576 43.4179 346.644 43.3344 346.702L43.2279 346.77V346.77C42.5642 347.174 41.7096 347.169 41.03 346.813L40.9524 346.77L40.8219 346.695C39.9239 346.179 39.3047 344.899 39.6772 343.883C40.5927 341.384 40.9387 338.717 41.7841 336.202L41.1134 336.502V336.502L40.2294 336.887C30.6684 341.022 20.0482 344.503 9.63082 341.685C5.02794 340.439 0.725857 337.804 -1.57718 333.509C-3.84342 329.284 -4.16374 324.377 -4.28406 319.676C-4.43254 313.874 -4.1215 307.983 -3.35638 302.231C-2.84278 298.37 -2.22166 294.436 -1.26358 290.615C-1.75638 290.18 -2.11862 289.556 -2.2143 288.784C-2.66646 285.134 -1.8751 281.34 -1.39062 277.709C-0.917343 274.164 -0.394463 270.627 0.196897 267.1C1.39082 259.977 2.77802 252.869 4.39306 245.829C7.2673 233.301 11.0628 220.995 15.6324 208.984L16.0326 207.938C20.2551 196.959 25.1442 186.214 31.9521 176.569C35.2087 171.955 38.6513 167.771 43.2529 164.446C47.5639 161.331 52.4267 159.087 57.4449 157.373C62.4686 155.657 67.6321 154.507 72.8868 153.792C78.2235 153.066 83.8564 152.62 88.8347 150.431C88.2049 149.302 88.7454 147.778 89.8052 147.078C93.3719 144.722 96.6702 141.656 99.867 138.823ZM214.045 241.294C214.194 241.067 214.549 241.211 214.484 241.479C212.749 248.586 211.12 255.707 210.057 262.95C208.137 276.022 208.491 289.264 208.647 302.433L208.655 303.114C208.736 310.207 208.848 317.301 209.083 324.391C209.201 327.974 209.435 331.593 209.308 335.178C209.238 337.123 208.72 338.963 208.536 340.885C208.375 342.565 208.519 344.271 208.599 345.954C208.653 347.072 207.002 347.025 206.889 345.954L206.746 344.568C206.559 342.815 206.328 341.073 205.754 339.395C205.063 337.376 204.732 335.394 204.492 333.275C204.125 330.028 203.961 326.748 203.82 323.478L203.723 321.217C203.131 307.551 203.152 293.822 204.11 280.171L204.18 279.196C205.128 266.292 206.774 252.35 214.045 241.294ZM177.067 159.967C176.614 159.781 176.773 159.096 177.275 159.215L178.187 159.433C184.873 161.034 191.438 162.77 197.679 165.75C203.924 168.731 209.211 173.183 213.412 178.657C221.578 189.297 224.972 202.228 227.651 215.147C230.628 229.503 233.339 243.911 236.342 258.262L236.9 260.935C239.679 274.301 242.302 287.675 244.236 301.2L244.374 302.181C246.324 316.088 247.497 330.478 245.369 344.422C244.949 347.18 240.358 346.493 240.537 343.768C241.056 335.888 241.427 328.05 241.068 320.153C240.709 312.255 239.968 304.391 238.864 296.561C237.935 289.973 236.549 283.466 235.323 276.929L235.131 275.897C234.105 270.337 233.046 264.783 231.99 259.229L230.412 250.913C228.047 238.461 225.636 225.997 222.911 213.624L222.749 212.895C220.083 200.991 216.152 188.521 208.153 179.067C200.037 169.473 188.417 164.641 177.067 159.967ZM147.574 286.238C147.769 285.804 148.452 285.851 148.662 286.238C149.484 287.756 149.576 289.693 149.731 291.406L149.748 291.583C149.945 293.673 150.12 295.771 150.228 297.868C150.431 301.849 150.528 305.824 150.516 309.81C150.503 313.894 150.421 317.974 150.2 322.052L150.141 323.145C149.94 326.689 149.603 330.642 147.918 333.741C147.306 334.868 145.641 334.536 145.287 333.397C144.125 329.667 144.722 325.245 145.02 321.425L145.251 318.444C145.48 315.463 145.698 312.48 145.872 309.496C146.109 305.412 146.305 301.325 146.493 297.24C146.555 295.913 146.621 294.585 146.691 293.259L146.798 291.269C146.89 289.604 146.883 287.777 147.574 286.238ZM16.9665 291.525L17.4807 291.028C19.0593 289.483 21.0541 287.104 23.3877 287.252C24.3183 287.31 24.9112 288.083 24.7183 288.998C24.3061 290.956 22.3096 291.971 20.8725 293.166C19.2981 294.475 17.8143 295.873 16.3333 297.285C15.0195 298.538 13.7559 299.825 12.5227 301.153L12.0616 301.653C11.6196 302.136 8.4717 304.983 8.81206 305.722L8.83059 305.755C8.92531 305.896 8.76755 306.091 8.61043 306.041C7.25107 305.612 7.33587 304.446 7.84979 303.266C8.83731 300.998 10.5666 298.9 12.0767 296.963C13.5827 295.03 15.2127 293.231 16.9665 291.525V291.525ZM152.5 234.644C151.448 232.159 147.576 232.212 145.378 232.36C139.842 232.734 133.852 234.135 128.926 236.722C123.819 239.405 120.38 243.703 117.302 248.456L117.158 248.679C114.158 253.342 111.268 258.863 106.571 262.069C104.178 263.703 101.384 265.194 98.4811 265.84C98.2817 266.191 97.9588 266.468 97.5355 266.569L97.3387 266.614C96.5118 266.797 95.2273 266.999 94.1179 266.878C94.1252 267.42 94.1195 267.959 94.1332 268.473C94.1723 269.947 94.1889 271.427 94.1889 272.901C94.1895 275.991 94.0235 279.087 94.1524 282.176C94.2667 284.908 94.6526 287.764 95.9646 290.206C96.9268 291.998 98.1969 293.184 99.73 294.316C103.502 292.018 107.766 290.617 112.095 289.563C117.329 288.289 122.689 287.439 127.804 285.712C130.266 284.88 132.633 283.792 134.778 282.314C137.054 280.744 138.793 278.62 140.582 276.543L140.861 276.221C142.687 274.127 144.679 272.124 147.259 270.988C149.48 270.011 152.409 269.836 154.351 268.324C155.367 267.532 155.452 266.383 155.559 265.207C154.315 265.385 152.998 265.1 151.758 264.954L151.115 264.879C149.943 264.74 148.797 264.586 147.643 264.288C147.429 264.233 147.429 263.909 147.643 263.854C149.007 263.502 150.359 263.352 151.758 263.188L152.086 263.147C153.352 262.981 154.682 262.73 155.923 263.009C156.146 262.162 156.467 261.353 156.919 260.542C157.552 259.404 158.75 258.114 158.912 256.784C158.96 256.387 158.868 255.919 158.681 255.568L158.616 255.448C158.538 255.307 158.444 255.165 158.308 255.076C158.293 255.094 158.261 255.114 158.191 255.136C157.236 255.437 156.403 254.969 155.961 254.249C154.083 254.482 152.034 254.403 150.274 254.481L148.494 254.567C146.591 254.654 144.603 254.692 142.815 254.308C142.566 254.255 142.49 253.839 142.74 253.732C144.938 252.793 147.603 252.493 149.956 252.132C151.27 251.93 152.593 251.776 153.911 251.599C154.789 251.48 155.72 251.285 156.629 251.238C158.908 248.4 157.68 243.924 154.508 242.702C153.352 243.21 152.313 242.915 151.051 242.806C149.791 242.698 148.527 242.625 147.262 242.63C144.727 242.642 142.04 243.308 139.529 243.021C139.121 242.974 138.742 242.431 139.148 242.1C141.07 240.531 143.824 240.02 146.263 239.686L146.769 239.618C147.587 239.511 148.582 239.354 149.613 239.261C149.847 238.806 150.265 238.462 150.894 238.377C151.081 238.351 151.269 238.336 151.456 238.32L151.453 238.301V238.301C152.987 238.228 152.92 235.638 152.5 234.644ZM47.5175 283.1C47.4905 283.142 47.4608 283.181 47.4292 283.22L47.3806 283.276L47.6327 283.174L47.5175 283.1V283.1ZM179.259 229.092C172.804 228.399 166.341 228.545 159.867 228.731C159.349 230.425 157.547 231.868 155.801 231.922C157.168 234.004 157.31 236.821 156.35 239.029C158.387 239.839 160.141 241.295 161.206 243.369C162.683 246.243 162.489 249.442 161.03 252.099C162.276 253.227 163.011 255.058 162.937 256.784C162.855 258.709 161.708 260.353 160.754 261.947C159.724 263.67 159.69 265.187 159.373 267.118C158.91 269.943 157.005 271.656 154.553 272.726L154.684 273.239C155.316 275.699 156.102 278.295 157.909 280.094C160.232 282.408 163.837 282.387 166.908 282.533L167.056 282.54C169.867 282.681 172.677 282.846 175.488 283.005L177.596 283.123C180.831 283.301 183.939 283.322 186.581 281.183C190.893 277.691 193.85 271.912 195.721 266.796C199.649 256.059 199.696 244.275 197.893 233.091C191.846 231.142 185.573 229.771 179.259 229.092ZM125.582 246.907L125.63 246.91C126.959 247.062 127.872 248.138 128.197 249.415C128.669 251.27 128.437 252.948 129.574 254.622C130.743 256.345 131.461 257.724 131.631 259.851C131.701 260.727 131.669 261.6 131.864 262.457L132.005 263.057C132.155 263.698 132.278 264.314 132.203 265.002C132.135 265.629 131.83 266.117 131.201 266.318C129.152 266.973 127.57 265.463 127.041 263.554C126.584 261.905 127.194 259.939 126.549 258.39C126.192 257.532 125.532 256.814 125.16 255.949C124.791 255.093 124.606 254.198 124.547 253.267C124.434 251.505 125.992 249.389 125.123 247.793C124.938 247.453 125.147 246.897 125.582 246.907ZM98.3654 228.732C99.7529 228.45 101.327 227.804 102.695 228.341C103.399 228.617 103.746 229.475 103.152 230.071C102.12 231.105 100.621 231.163 99.2311 231.407L99.1087 231.429C97.4655 231.733 95.8195 232.021 94.1711 232.294C91.07 232.808 87.9615 233.262 84.8422 233.648C81.6383 234.044 78.4255 234.397 75.2083 234.663L73.9628 234.765C71.2451 234.982 68.4172 235.146 65.7507 234.73C65.3631 234.67 65.4255 234.105 65.7507 234.006C68.6719 233.122 71.8764 232.885 74.8966 232.511C78.1075 232.113 81.3129 231.692 84.51 231.193C87.702 230.694 90.8899 230.159 94.0659 229.568C95.5014 229.301 96.9347 229.022 98.3654 228.732ZM148.431 225.893C147.213 225.462 145.874 224.823 144.554 225.037C142.279 225.405 140.254 227.622 138.453 229.082L139.357 228.906C143.984 228.017 150.112 227.059 153.996 230.001C154.006 229.984 154.014 229.967 154.025 229.95C154.338 229.474 154.702 229.102 155.098 228.695C155.136 228.659 155.173 228.622 155.209 228.585L155.422 228.357L154.933 228.187C153.885 227.817 152.644 227.339 152.448 227.269L152.434 227.264C151.098 226.812 149.76 226.364 148.431 225.893ZM110.414 128.909C110.224 126.46 114.035 126.48 114.224 128.909C114.636 134.211 113.443 139.464 110.874 144.112C110.856 144.146 110.835 144.176 110.815 144.208C112.421 145.044 114.046 145.846 115.707 146.563C117.831 147.48 119.996 148.315 122.199 149.024C124.192 149.665 126.647 149.918 128.323 151.252C131.856 154.066 130.529 159.905 129.849 163.689L129.743 164.287C129.404 166.234 129.16 168.232 129.981 170.101C130.857 172.098 132.631 173.579 134.212 175.007L134.532 175.297C135.933 176.573 137.534 178.125 138.562 179.855C139.5 177.915 140.779 176.33 142.132 174.545C143.097 173.272 142.41 172.852 141.717 171.608C141.049 170.41 140.724 169.134 140.932 167.768C141.317 165.245 143.334 163.423 145.341 162.053C147.711 160.437 150.356 159.24 152.807 157.736C157.841 154.647 162.745 151.114 167.162 147.192C167.284 147.083 167.496 147.225 167.398 147.373C163.908 152.681 159.817 157.268 154.788 161.161C152.749 162.739 150.607 164.049 148.45 165.425L147.83 165.823C146.964 166.384 145.884 167.134 145.493 168.089C145.099 169.049 145.939 169.774 146.391 170.569C147.827 173.096 147.134 175.453 145.432 177.595L145.353 177.694C143.661 179.778 142.379 181.717 141.766 184.38C140.449 190.101 142.284 196.059 144.205 201.43L144.281 201.641C145.32 204.536 146.424 207.41 147.327 210.351L147.575 211.164C148.393 213.87 149.063 216.539 148.145 219.321C147.833 220.267 146.543 220.491 146.007 219.601C144.116 216.46 143.644 212.681 142.459 209.228C141.304 205.863 139.977 202.559 138.862 199.18C137.425 194.829 136.463 190.146 136.985 185.583C136.97 185.557 136.953 185.532 136.94 185.504L136.574 184.704C135.577 182.537 134.614 180.645 132.8 178.919C130.908 177.117 128.855 175.523 127.366 173.342C124.132 168.606 126.132 163.337 126.523 158.158L126.568 157.523C126.638 156.448 126.677 154.987 125.975 154.242C125.185 153.405 123.332 153.191 122.284 152.82C119.575 151.861 116.905 150.744 114.362 149.403C111.942 148.126 109.597 146.715 107.414 145.063L106.307 144.231C104.562 142.913 102.751 141.475 101.581 139.682C101.446 139.475 101.676 139.142 101.92 139.241C103.873 140.034 105.658 141.295 107.486 142.392C107.514 142.325 107.547 142.257 107.585 142.189C109.846 138.097 110.776 133.563 110.414 128.909ZM172.809 156.946C173.587 154.812 177.134 154.977 176.993 157.512C176.884 159.46 176.057 161.219 175.301 162.987L175.22 163.177C174.439 165.02 173.538 166.75 172.459 168.439C170.397 171.668 167.982 174.664 165.402 177.492C163.064 180.056 159.994 181.624 156.457 181.363C154.967 181.253 153.463 180.874 152.157 180.13C150.606 179.245 148.921 176.59 146.942 177.233C146.751 177.295 146.572 177.015 146.738 176.882C149.022 175.042 151.615 177.895 153.803 178.582C157.098 179.617 160.48 178.473 162.602 175.808C164.816 173.027 166.855 169.912 168.716 166.883C169.661 165.345 170.524 163.749 171.269 162.104C172.02 160.443 172.191 158.639 172.809 156.946ZM167.497 143.812C167.401 143.518 167.767 143.237 168.025 143.406C169.527 144.383 170.827 145.674 172.212 146.806C173.748 148.062 175.296 149.292 176.867 150.503C179.158 152.269 176.501 155.52 174.485 153.591C171.725 150.952 168.703 147.501 167.497 143.812ZM159.255 133.483C159.865 131.131 163.472 132.101 162.946 134.425L162.929 134.496C161.933 138.335 163.351 142.243 166.378 144.732L166.489 144.822C168.404 146.355 165.691 149.034 163.795 147.516C159.656 144.203 157.934 138.576 159.255 133.483Z" fill="black"/>
<path fill-rule="evenodd" clip-rule="evenodd" d="M144.173 9.08313C162.343 9.08313 181.137 23.167 187.797 32.1542C193.397 39.7103 196.412 73.8785 196.412 96.9697C196.412 101.799 199.077 110.903 198.299 115.522C195.449 132.45 183.032 146.647 158.457 146.647C133.881 146.647 116.261 136.905 97.9944 110.751C89.1315 110.751 84.8362 103.955 84.7738 93.2285C84.7114 82.5025 93.3288 78.6001 93.3288 78.6001C93.3288 78.6001 90.2563 36.2707 97.9944 25.2502C105.733 14.2296 126.003 9.08313 144.173 9.08313Z" fill="white"/>
<path fill-rule="evenodd" clip-rule="evenodd" d="M136.527 3.09789C147.999 1.93629 159.24 2.91229 170.546 4.93181C171.41 5.08829 171.9 5.65501 172.082 6.33629C177.407 6.57949 182.738 6.97021 188.056 7.26141C189.986 7.36701 191.08 9.27389 190.2 10.9958C190.024 11.3379 189.842 11.6707 189.656 12.0035L189.889 11.9266C191.489 11.4134 193.217 11.1604 194.776 11.975C196.76 13.0118 197.538 15.2995 197.1 17.4051C196.987 17.9427 196.799 18.4579 196.584 18.9606C197.02 18.9318 197.458 18.9414 197.893 18.999C200.21 19.3062 201.932 21.0822 202.053 23.447C202.232 27.0179 199.932 30.6406 197.221 33.1971C197.615 34.007 197.765 34.9606 197.602 35.927C197.275 37.8374 195.868 38.9814 194.237 39.7277C194.917 41.888 195.239 44.1465 195.049 46.4547C194.985 47.2253 194.312 47.8617 193.6 48.0179C196.252 55.3184 197.594 63.1565 198.559 70.7939C199.247 76.2278 199.586 81.6934 199.627 87.1683C199.648 89.6401 199.607 92.1147 199.503 94.5869L199.461 95.5139C199.333 98.1862 199.327 100.992 198.847 103.636C200.485 106.423 201.144 109.882 201.423 113.005C201.768 116.871 201.221 120.858 200.002 124.535C195.4 138.429 181.512 147.197 167.563 149.476C154.652 151.585 139.711 148.746 132.165 137.018C132.047 136.832 132.3 136.679 132.447 136.801C137.845 141.191 144.107 143.149 150.911 144.103C162.674 145.748 175.896 142.957 185.336 135.559C189.867 132.007 193.135 126.836 194.572 121.271C195.304 118.426 195.557 115.459 195.269 112.532C194.975 109.562 193.66 107.028 192.831 104.221C192.552 103.274 192.847 102.394 193.426 101.767C193.589 99.4883 193.973 97.1907 194.12 94.919C194.283 92.3363 194.383 89.7539 194.418 87.1683C194.485 81.8051 194.261 76.4323 193.81 71.0918C192.984 61.3123 190.792 51.7702 189.506 42.0739C189.03 42.5011 188.347 42.6765 187.631 42.3033L187.557 42.2627L187.167 42.039C187.144 42.039 187.119 42.0422 187.096 42.0451C184.424 42.3046 181.653 41.9334 179.093 41.1363C176.415 40.3046 173.928 39.0246 171.707 37.319C171.285 39.4595 171.109 41.6227 171.106 43.8051C171.103 45.1683 169.66 45.8758 168.514 45.2934C163.436 42.7139 158.584 39.7414 153.98 36.4006C153.442 39.1558 152.904 41.9107 152.363 44.6691C152.156 45.7318 150.802 46.1606 149.935 45.655C146.485 43.6483 143.506 41.0214 141.08 37.8979C140.596 38.824 140.111 39.7499 139.622 40.6738L138.885 42.0579C138.159 43.4179 137.186 44.9222 135.596 45.3571C133.912 45.8179 132.507 44.727 131.941 43.2035C131.768 42.7302 131.608 42.2435 131.461 41.7539C130.027 45.0278 128.408 48.2278 126.578 51.2806C123.832 55.8595 120.536 59.9395 117.25 64.1251C116.252 65.3958 114.543 64.1827 114.405 62.9478C114.325 62.2214 114.258 61.4918 114.2 60.7651C112.285 64.6294 110.287 68.4576 108.11 72.1747L108.422 73.3961V73.3961C109.32 77.0051 110.066 80.6397 110.877 84.2678C111.139 85.4384 110.517 87.112 109.149 87.3113C107.515 87.5494 105.969 88.3843 104.296 87.8099C102.471 87.1833 102.11 85.6061 101.248 84.111C101.077 83.8131 100.877 83.5395 100.662 83.2797L100.607 83.3507V83.3507C100.472 83.527 100.152 83.335 100.232 83.1334L100.326 82.9005V82.9005C99.5861 82.1149 98.7003 81.4595 97.8859 80.7545C95.9506 80.4285 93.7736 80.7856 92.4402 81.5718C89.4034 83.3635 88.0085 87.0563 87.9797 90.4518C87.9445 94.4262 89.1762 98.8934 91.2562 102.292C92.1717 103.786 93.4261 105.136 95.0834 105.799C96.7285 106.458 98.5109 106.253 100.184 106.874C101.292 107.287 101.973 108.516 101.304 109.629C101.26 109.706 101.208 109.776 101.16 109.85L101.658 110.511C102 110.968 102.357 111.458 102.69 111.968C103.541 112.948 104.437 113.892 105.304 114.855C106.907 116.631 108.463 118.455 110.04 120.256C111.528 121.956 113.103 123.552 114.725 125.123C116.258 126.612 118.172 127.863 119.58 129.45C120.949 130.999 121.32 133.703 119.067 134.599C116.575 135.593 114.368 133.263 112.69 131.71L112.62 131.645C109.544 128.815 106.766 125.58 104.56 122.019C102.376 123.506 99.2152 123.648 97.0395 122.161C95.8946 121.379 95.0162 120.064 94.5893 118.634C94.1867 118.724 93.7845 118.777 93.3922 118.771C93.1902 118.888 92.9877 119.002 92.7829 119.108C91.1602 119.952 89.1669 119.575 88.4245 117.78C87.7484 116.15 88.4451 114.298 89.054 112.728L89.1797 112.403C89.5253 111.508 89.9061 110.532 90.3797 109.613C89.0613 108.621 87.9346 107.389 86.9813 105.988C83.7781 101.268 82.1781 94.3651 82.8853 88.7334C83.3109 85.335 84.9074 81.815 87.5218 79.5235L87.4261 79.2739V79.2739C86.6933 77.415 86.0274 75.5491 85.5957 73.5846C85.0901 71.287 84.8434 68.9062 84.6197 66.567C84.1461 61.6262 84.2741 56.5734 84.9045 51.6518C86.0885 42.3878 89.0901 33.2934 94.4181 25.5846C92.9074 23.7763 91.7109 21.6483 92.3346 19.2006C92.6197 18.0771 93.269 17.0118 94.2485 16.3683C94.789 16.0134 95.4325 15.959 95.9733 15.6646L96.1359 15.5751C96.3734 15.4365 96.1917 15.4512 96.0501 14.807C95.4901 12.2339 95.9541 9.74781 98.7861 8.89341C101.452 8.09021 103.973 9.79581 105.551 11.8278C109.679 8.89949 115.119 7.36701 119.903 6.06461C125.343 4.58909 130.923 3.66781 136.527 3.09789ZM91.9382 89.402C91.9187 87.306 93.9059 86.0132 95.8614 86.3559C97.1745 86.5844 98.2699 87.368 99.2984 88.178L99.7999 88.5748C101.052 89.5581 102.49 90.6182 103.237 92.0103C104.331 94.0647 102.018 96.8292 99.8582 95.3892C98.3765 94.3962 97.4268 92.8052 96.4549 91.3272L96.3542 91.1748C95.9126 90.5124 95.5254 89.8084 94.9203 89.2772L94.7896 89.1627C94.5907 88.9932 94.3771 88.8385 94.1203 88.7652C93.6248 88.6227 92.7071 88.8222 92.4886 89.4121L92.4691 89.4724C92.3891 89.7703 91.9414 89.706 91.9382 89.402Z" fill="black"/>
<path fill-rule="evenodd" clip-rule="evenodd" d="M171.693 122.011C169.336 122.694 166.806 122.755 164.403 122.05C162.223 121.41 159.986 120.002 158.382 118.14C156.957 116.485 156.034 114.475 156.07 112.328C156.074 112.083 156.162 111.879 156.297 111.72C156.442 111.549 156.644 111.431 156.862 111.381C157.085 111.328 157.321 111.347 157.522 111.438C157.704 111.521 157.86 111.661 157.958 111.866C158.204 112.19 158.45 112.509 158.696 112.819C160.678 115.267 162.598 117.096 165.578 117.752C167.195 118.108 168.81 117.95 170.292 117.407C171.879 116.825 173.312 115.803 174.436 114.495C174.944 113.904 175.544 113.662 176.13 113.658C176.794 113.654 177.451 113.962 177.945 114.456C178.432 114.941 178.757 115.6 178.787 116.289C178.813 116.894 178.615 117.526 178.09 118.09C176.36 119.948 174.119 121.308 171.693 122.011ZM171.621 91.3576C174.037 92.8264 177.719 96.2514 175.119 99.8928C172.059 103.103 167.654 99.4222 165.483 97.7573C163.47 96.467 161.208 99.7855 163.076 101.292C178.763 112.907 185.13 91.7417 172.843 89.6306C171.49 89.398 170.987 90.9032 171.621 91.3576ZM149.016 84.8945C148.239 84.3978 147.326 84.2273 146.313 84.688C145.522 85.0478 144.134 86.2474 143.168 87.8242C142.508 88.903 142.039 90.1686 142.137 91.4868C142.159 91.7929 142.046 92.0187 141.868 92.1856C141.727 92.3174 141.523 92.4143 141.284 92.4445C141.081 92.4703 140.854 92.4471 140.669 92.3894C140.318 92.2797 140.132 92.0518 140.062 91.8657C139.385 90.0698 139.677 88.0657 140.435 86.2577C141.458 83.8176 143.315 81.7738 144.532 81.1148C146.614 79.9868 149.071 79.9349 151.156 81.0841C152.932 82.0621 154.042 83.6412 155.146 85.2508C155.38 85.5929 155.613 85.9326 155.854 86.2663C156.336 86.9349 156.384 87.598 156.198 88.1667C155.991 88.7966 155.463 89.3283 154.803 89.6065C154.193 89.8636 153.485 89.8998 152.859 89.6356C152.329 89.4124 151.844 88.9773 151.536 88.239C151.019 86.9957 150.157 85.624 149.016 84.8945V84.8945ZM188.461 87.6607C187.929 87.9378 187.513 88.0214 186.923 87.8446C186.597 87.7466 186.274 87.5588 186.022 87.3063C185.771 87.0561 185.591 86.7449 185.521 86.3997C185.348 85.5478 184.882 84.7503 184.218 84.2304C183.65 83.7861 182.933 83.5506 182.139 83.6834C181.281 83.8266 180.464 84.3767 179.901 85.0253C179.713 85.2423 179.565 85.4888 179.417 85.7336C179.14 86.1914 178.87 86.617 178.488 86.9532C178.343 87.0811 178.124 87.1697 177.913 87.1697C177.827 87.1697 177.739 87.1557 177.656 87.1298C176.802 86.2729 176.638 85.6229 176.666 84.9782C176.695 84.3021 176.961 83.6175 177.392 82.9788C178.402 81.4806 180.321 80.2522 181.615 79.974C183.388 79.593 185.149 80.0503 186.561 81.0406C188.013 82.0595 189.09 83.6414 189.425 85.4241C189.506 85.8535 189.472 86.3169 189.308 86.7188C189.148 87.1114 188.87 87.4477 188.461 87.6607ZM152.926 68.9209C151.862 69.9576 150.603 70.1182 149.329 70.261C148.621 70.3411 148.056 70.4056 147.5 70.5311C145.971 70.8761 144.461 71.3958 143.082 72.1441C141.641 72.9264 140.071 73.8699 138.942 75.0786C138.673 75.3662 138.42 75.668 138.166 75.9705C137.935 76.2463 137.712 76.5118 137.477 76.7678C137.208 77.0619 136.952 77.3701 136.697 77.6775C136.54 77.9369 136.509 78.0006 136.477 78.0671C136.429 78.1668 136.374 78.2785 136.31 78.3983C136.223 78.5624 136.122 78.742 136.015 78.9049C135.838 79.2025 135.743 79.2845 135.661 79.3212C135.525 79.3819 135.395 79.4118 135.27 79.3956C135.152 79.3804 135.041 79.3239 134.932 79.2315C134.386 78.7699 134.225 78.0125 134.241 77.2085C134.266 75.9884 134.716 74.6376 135.131 73.8072C136.096 71.8776 137.433 69.8718 139.042 68.4317C140.878 66.7879 142.886 65.5434 145.192 64.6859C146.626 64.1528 148.285 63.6635 149.847 63.7253C150.971 63.7698 152.044 64.1039 152.93 64.9384C153.474 65.4506 153.736 66.1792 153.736 66.9072C153.736 67.6498 153.464 68.3968 152.926 68.9209ZM190.625 78.4137C190.557 78.5246 190.464 78.601 190.359 78.6469C190.25 78.6951 190.128 78.7089 190.011 78.6892C189.895 78.6696 189.784 78.6167 189.696 78.536C189.612 78.4587 189.548 78.3561 189.519 78.2304C188.813 75.1278 187.441 72.8194 184.513 71.3309C183.073 70.5986 181.417 70.1333 179.849 69.7624C179.394 69.6546 178.913 69.5847 178.428 69.5139C176.908 69.2921 175.378 69.038 174.388 67.81C173.791 67.0702 173.54 66.1241 173.682 65.2589C173.815 64.4443 174.291 63.6973 175.157 63.2497C177.311 62.1358 179.988 63.2288 182.164 64.1599C182.325 64.229 182.484 64.2968 182.639 64.3622C184.766 65.2602 186.707 66.4457 188.302 68.1409C189.568 69.4859 190.74 71.4741 191.212 73.5194C191.605 75.2211 191.513 76.9582 190.625 78.4137Z" fill="black"/>
<path fill-rule="evenodd" clip-rule="evenodd" d="M204.081 85.5156C201.201 103.161 181.099 105.113 177.528 87.5949C178.101 87.3675 178.513 86.9198 178.427 86.0508C178.407 82.2332 179.715 78.1984 183.517 76.0753C187.445 73.8847 192.042 73.6674 196.588 73.7227C205.264 73.5355 205.081 80.1044 204.081 85.5156M174.381 77.8413C171.658 77.7373 168.214 77.8243 165.775 79.3271C165.104 77.6913 163.362 75.9448 161.602 75.0109C168.145 75.1844 174.879 74.601 181.471 74.1482C179.893 75.1226 178.425 76.5865 177.471 78.2788C176.586 77.8511 175.318 77.8911 174.381 77.8413M162.38 87.3864C154.831 110.928 135.986 100.667 133.932 97.65C130.226 92.6574 129.529 80.5212 132.757 77.2763C137.377 74.3419 143.918 75.0971 149.377 75.0252C159.405 75.1478 166.527 77.8654 162.38 87.3864M212.995 76.5588C210.944 76.3158 208.752 76.2668 206.845 77.0849C206.258 74.824 204.415 72.9338 202.333 72.102C202.081 71.8158 202.119 71.662 201.259 71.705C195.974 70.2663 190.061 71.0275 184.983 72.5029C176.964 73.1147 168.55 73.5971 160.462 74.4401C152.887 71.358 130.024 70.9063 128.604 78.5029C126.816 78.2607 123.773 76.9864 122.271 78.7149C111.255 77.0231 99.8728 79.3744 88.8093 80.4215C86.0245 80.8861 84.5901 85.8929 87.7513 85.8245C89.5285 85.3875 87.6966 82.7068 90.0897 82.5051C100.764 81.449 111.205 79.9506 121.989 79.7752C121.614 81.4621 129.121 81.5718 129.232 80.5868C129.248 80.5942 129.265 80.5991 129.281 80.6057C127.426 86.8689 129.101 95.8826 132.453 99.7664C137.151 104.852 148.944 106.311 154.173 103.039C160.919 100.019 167.936 84.8597 165.965 79.8234C169.542 78.7962 173.079 79.1046 176.791 79.6277C175.941 81.8028 174.474 87.157 176.585 87.6214C176.198 98.2516 186.877 104.885 196.722 100.524C205.242 96.9002 208.222 85.4305 207.18 78.4687C208.24 80.3255 217.147 78.3039 212.995 76.5588" fill="black"/>
</g>
<defs>
<clipPath id="clip0_200_102">
<rect width="250" height="250" fill="white"/>
</clipPath>
</defs>
</svg>
