<svg width="250" height="250" viewBox="0 0 250 250" fill="none" xmlns="http://www.w3.org/2000/svg">
<g clip-path="url(#clip0_210_449)">
<path fill-rule="evenodd" clip-rule="evenodd" d="M112.929 136.623C130.099 135.393 153.64 138.797 158.606 158.374C160.146 165.498 163.181 168.625 168.279 173.284C200.64 214.704 87.7319 221.666 81.9277 181.276C69.6999 185.73 56.3892 186.673 44.154 191.174C37.5182 193.625 69.2661 209.245 63.5 213.29C39.9867 229.99 -20.959 235.415 -44.3884 252.235C-35.3218 256.41 -18.0841 272.351 -25.1081 283.062C-26.7443 285.149 -29.1731 286.587 -31.3216 288.112L-32.4545 288.921C-34.8918 290.668 -38.9948 293.645 -41.2636 295.263L-41.682 295.567C-41.8461 295.686 -42.0312 295.819 -42.1983 295.939C-25.8367 319.86 -6.68824 341.932 14.5521 361.638C16.3607 363.319 15.6199 367.079 13.0023 367.516L9.88383 367.974C-0.185476 369.441 -10.4461 370.76 -20.5932 369.964C-30.4758 368.889 -36.431 360.141 -43.1868 353.804C-56.6777 340.015 -69.2361 325.306 -80.6748 309.767L-80.913 309.439C-84.4731 304.574 -89.1984 299.602 -89.5442 293.32C-90.175 291.431 -88.5151 288.725 -86.9202 287.437L-86.3757 286.652C-77.8217 274.349 -68.1406 262.485 -56.0114 253.576C-56.0566 252.248 -55.4428 250.853 -54.2274 249.973L30 227.154C43.079 218.153 21.6986 193.711 35.8753 186.443C50.3713 179.463 66.73 179.189 81.5853 173.364C81.9002 169.166 90.7268 168.094 90.4481 168.742C99.761 163.121 104.555 156.433 106.034 150.286C107.512 144.139 105.675 138.533 112.929 136.623ZM238.283 268.325C253.957 244.741 268.898 270.835 275.423 286.562C283.133 308.085 267.167 334.56 256.852 353.114C253.053 358.267 248.057 369.135 241.361 369.923C224.49 369.854 207.596 368.666 190.716 368.312C179.816 365.608 195.109 349.228 205.673 355.211C208.873 356.409 210.472 360.042 213.593 361.208C214.73 361.451 214.809 360.944 215.271 359.811L215.337 359.653C216.162 357.694 216.961 355.724 217.773 353.759C224.646 336.834 231.912 320.059 239.136 303.291C240.679 299.65 238.515 296.65 235.701 294.484C233.547 292.71 224.285 288.381 233.011 290.287C229.651 282.487 233.689 274.571 238.283 268.325ZM199.368 236.04C200.877 235.852 202.815 237.373 203.047 238.846C204.972 251.059 202.828 263.134 200.256 275.081L199.783 277.268C198.835 281.626 197.775 286.068 195.41 289.888C192.996 293.785 189.344 296.723 185.152 298.509C171.704 303.868 154.98 298.568 145.087 288.549C138.758 279.88 144.322 268.99 145.384 259.489C144.38 256.928 144.01 253.967 143.429 251.328L143.359 251.012L141.103 241.165C140.606 238.993 142.189 236.021 144.789 236.32C162.925 238.4 181.255 238.306 199.368 236.04Z" fill="white"/>
<path fill-rule="evenodd" clip-rule="evenodd" d="M262.703 265.24C262.649 264.997 262.94 264.811 263.129 264.994C266.319 268.069 268.572 271.998 271.045 275.64C273.401 279.109 275.964 282.443 277.721 286.271C279.353 289.829 280.405 293.438 280.719 297.349C281.033 301.231 280.626 305.122 279.941 308.945C278.594 316.478 275.714 323.611 272.553 330.539C269.479 337.274 266.005 343.818 262.338 350.242L261.023 352.536C259.42 355.328 257.799 358.116 256.063 360.821C253.903 364.187 251.932 367.663 249.084 370.472C247.061 372.472 243.25 370.472 244.172 367.614C244.572 366.37 244.885 365.198 245.506 364.043C245.977 363.163 246.508 362.309 247.007 361.442C248.005 359.707 248.994 357.967 249.993 356.232C252.089 352.587 254.297 349.01 256.373 345.352C259.977 339.01 263.378 332.549 266.386 325.899L266.74 325.115C269.508 318.957 272.131 312.579 273.346 305.918C274.626 298.901 273.481 292.287 270.988 285.691C269.698 282.28 268.249 278.945 266.741 275.624L266.452 274.989C264.996 271.819 263.453 268.666 262.703 265.24ZM107.775 143.857C107.804 143.733 108.015 143.723 108.035 143.857C108.931 149.816 106.937 156.12 103.689 161.077C101.916 163.784 99.7305 166.229 97.1545 168.194L96.9539 168.345C94.3224 170.312 90.7668 172.212 87.5001 170.936C87.3977 170.897 87.3017 170.853 87.2121 170.802C87.5801 171.371 87.9193 171.97 88.2649 172.568C89.2921 174.35 90.2137 176.197 91.2153 177.995C93.0073 181.211 95.1417 184.088 97.8393 186.606C108.626 196.675 123.773 199.068 137.997 198.953L139.002 198.944C145.25 198.9 153.422 199.219 158.246 194.696C160.838 192.268 162.265 188.814 163.555 185.573C164.822 182.395 165.689 179.115 166.742 175.883C164.543 174.376 162.527 172.536 160.943 170.386C159.292 168.146 158.044 165.624 157.324 162.933L157.218 162.531C156.661 160.385 156.101 157.546 156.998 155.518C157.1 155.285 157.484 155.301 157.593 155.518C158.076 156.488 158.169 157.582 158.467 158.619C158.812 159.826 159.203 161.026 159.718 162.168C160.713 164.382 162.028 166.488 163.606 168.331C164.908 169.857 166.319 171.259 167.932 172.437C168.882 170.795 171.087 170.574 172.934 171.115C175.409 171.838 177.85 172.767 180.236 173.747L180.713 173.944C183.071 174.923 185.737 175.822 187.945 177.157C189.286 177.797 190.572 178.44 191.782 179.01C197.809 181.841 203.747 184.845 209.658 187.908L210.924 188.565C213.401 189.854 215.855 191.157 218.009 192.955C220.201 194.786 221.903 197.288 223.503 199.634C227.161 204.997 230.607 210.514 234.223 215.906C241.526 226.786 236.828 237.666 244.172 248.52C245.948 251.148 247.951 253.71 249.545 256.45C251.071 259.068 251.03 261.755 250.732 264.677L250.676 265.214C250.106 270.573 249.125 275.72 246.118 280.315C241.385 287.541 245.929 292.04 238.041 295.137C239.004 295.854 239.91 296.629 241.059 297.122C242.825 297.877 244.71 298.268 246.62 298.424C248.659 298.588 250.956 298.078 252.607 299.464C253.27 300.017 253.289 301.349 252.607 301.902C251.02 303.198 248.968 302.827 247.034 302.61L246.918 302.597C245.123 302.398 243.353 302.066 241.667 301.406C241.251 301.243 240.838 301.061 240.438 300.859C240.451 300.894 240.457 300.936 240.451 300.981C240.162 303.186 239.538 305.27 238.878 307.377L238.46 308.712C237.609 311.438 236.751 314.158 235.868 316.878C234.187 322.057 232.357 327.186 230.519 332.308L228.934 336.729C227.305 341.263 225.656 345.792 223.833 350.251C222.707 353.003 221.574 355.755 220.444 358.504C219.34 361.189 218.422 364.088 217.052 366.645C215.926 368.75 212.854 367.243 213.347 365.08C213.993 362.242 215.212 359.426 216.143 356.664C217.091 353.861 218.019 351.054 218.982 348.257C220.657 343.399 222.512 338.605 224.377 333.815L226.225 329.067C228.038 324.416 229.873 319.768 231.833 315.176L232.047 314.673C234.084 309.87 236.187 304.469 239.887 300.748C239.935 300.696 240.003 300.67 240.07 300.664C239.161 300.171 238.31 299.573 237.561 298.866L237.524 298.829C237.228 298.515 236.006 296.971 235.612 296.046C235.1 296.229 234.588 296.405 234.076 296.577C233.183 296.878 232.444 296.661 231.923 296.184L230.929 296.799C229.867 297.447 228.725 298.063 227.551 298.094C226.073 298.133 224.911 297.317 224.121 296.114C223.411 295.038 222.988 293.877 222.089 292.914C221.205 291.967 220.181 291.168 219.136 290.405L217.903 289.508C215.643 287.858 213.451 286.191 211.631 284.011C210.716 282.91 209.491 281.605 208.934 280.283C208.825 280.028 208.758 279.788 208.745 279.554C208.623 280.379 208.499 281.208 208.374 282.034C206.627 293.653 205.215 305.352 204.764 317.102C204.543 322.897 204.444 328.699 204.703 334.497C204.831 337.394 205.043 340.286 205.334 343.173C205.478 344.619 205.628 346.062 205.804 347.502L205.845 347.836C205.896 348.277 205.929 348.704 205.891 349.109C207.299 349.803 208.108 351.557 208.671 352.926C209.1 353.97 208.767 354.984 208.076 355.717C208.902 356.469 209.638 357.352 210.255 358.363C210.38 358.568 210.111 358.728 209.951 358.6C208.937 357.794 207.846 357.131 206.707 356.622C206.108 356.85 205.455 356.91 204.854 356.744C204.201 356.565 203.638 356.13 203.231 355.576C199.996 355.045 196.633 355.694 193.721 357.72C193.116 358.142 192.569 358.619 192.047 359.137C191.958 359.228 191.865 359.342 191.772 359.454L192.407 359.699C192.671 359.798 192.887 359.876 192.969 359.893C193.524 360.006 194.087 360.066 194.65 360.115L195.494 360.184C198.735 360.453 201.967 360.542 204.982 361.899C205.615 362.184 205.395 363.16 204.796 363.323C202.595 363.92 200.41 363.874 198.17 363.714L197.689 363.678C195.606 363.518 193.369 363.528 191.337 362.952C191.823 364.283 191.161 366.021 189.129 366.293C183.027 367.106 176.886 366.722 170.777 366.184C164.607 365.64 158.441 365.125 152.255 364.802C132.247 363.749 112.208 363.951 92.1814 364.237L80.8644 364.401C71.8392 364.528 62.8125 364.628 53.7876 364.558L49.5632 364.519C47.7778 364.502 45.9915 364.48 44.2081 364.427L43.1385 364.392C41.0137 364.315 38.2009 364.635 36.3545 363.377C34.8313 362.341 34.4921 360.44 35.4105 358.908C35.6761 358.466 36.0409 358.072 36.4217 357.688C37.2025 351.016 37.6409 344.312 38.0889 337.611C39.6441 314.162 38.7353 290.834 35.1481 267.621C25.5225 270.562 11.0441 343.251 1.80892 347.21C-3.18628 349.35 -8.15588 351.571 -13.0679 353.901C-17.5511 356.029 -17.0535 289.688 -21.8439 291.07C-22.2793 291.457 -22.8882 291.641 -23.4282 291.469L-23.4983 291.445H-23.5015C-23.9943 291.56 -24.5415 291.49 -25.0791 291.166C-25.1879 291.101 -25.2967 291.034 -25.4055 290.966L-25.5687 290.862C-27.2551 289.8 -33.9511 357.491 -35.1447 355.891C-36.5943 357.235 -33.1527 289.468 -34.6855 290.715C-36.3495 292.072 -38.0071 293.435 -39.6519 294.811C-40.3047 295.358 -41.0247 295.88 -41.6007 296.51L-41.6844 296.603C-41.6977 296.618 -41.7105 296.633 -41.7223 296.648C-39.2295 298.261 -37.0471 300.709 -35.0919 302.837C-32.9924 305.121 -30.9654 307.477 -28.9551 309.843L-27.0089 312.138C-13.2469 328.389 0.655964 345.229 18.4729 357.173C21.2889 359.061 18.6041 363.659 15.8073 361.73C10.5145 358.085 5.50651 354.037 0.696915 349.777C-7.73189 342.318 -15.3159 333.95 -22.4167 325.23C-26.0103 320.817 -29.4983 316.296 -32.9159 311.746L-34.0758 310.202C-35.6215 308.143 -37.1591 306.078 -38.6311 303.966L-38.9391 303.524C-40.2302 301.661 -41.6033 299.568 -42.4359 297.422C-42.7559 297.746 -43.1175 298.017 -43.6455 298.222C-44.5479 298.574 -45.6551 297.835 -45.8759 296.955C-46.4135 294.821 -44.5575 293.55 -43.0471 292.417C-41.2135 291.048 -44.3447 358.726 -42.4727 357.411L-41.804 356.939C-39.463 355.278 -37.1098 353.574 -34.5591 352.262C-34.4823 352.16 -34.3895 352.064 -34.2839 351.981C-34.1623 351.885 -34.0439 351.792 -33.9223 351.699C-36.9687 346.758 -40.3095 342.01 -44.0375 337.523C-46.8407 334.148 -49.8167 330.925 -52.9655 327.872L-54.38 326.503C-56.5196 324.436 -53.7444 253.34 -56.1191 251.544L-56.8625 252.387C-57.8551 253.51 -58.8576 254.624 -59.9175 255.678C-62.0039 257.752 -64.0615 259.868 -66.1095 261.982C-69.5106 265.502 -72.7966 269.129 -76.0721 272.761L-77.7095 274.577C-81.1207 278.363 -84.7751 282.078 -87.8759 286.123L-88.0307 286.328C-89.3845 288.143 -90.3481 290.153 -89.7191 292.459C-89.1121 294.683 -87.669 296.655 -86.4252 298.575L-86.3015 298.766C-81.2231 306.677 -75.7831 314.386 -69.9559 321.762C-58.2855 336.536 -44.9735 350.539 -29.0887 360.811C-26.8871 362.235 -28.9447 365.774 -31.1495 364.334C-40.4263 358.27 -48.9479 350.988 -56.7879 343.166C-63.9847 335.989 -70.5063 328.085 -76.6183 319.973C-79.5975 316.014 -82.4519 311.973 -85.1879 307.842C-87.8407 303.832 -90.9095 299.708 -92.8327 295.285C-93.8406 292.958 -94.2119 290.44 -93.3863 287.989C-92.6291 285.736 -91.1318 283.865 -89.5741 282.106L-89.4279 281.941C-85.8471 277.918 -82.2023 273.944 -78.5255 270.008C-74.8359 266.059 -70.9767 262.251 -67.0375 258.555C-63.9431 255.646 -60.7175 253.083 -57.2679 250.709C-57.5783 250.488 -57.8887 250.277 -58.2055 250.072C-59.1687 249.445 -59.4119 248.104 -58.5671 247.253C-56.2599 244.923 -58.6007 311.897 -56.0983 309.776C-53.7463 307.782 -51.3943 305.786 -49.0423 303.789C-44.2551 299.731 -39.4679 295.67 -34.6807 291.61C-26.0823 284.317 -17.5319 276.973 -8.96228 269.648C-5.38895 266.595 -1.78228 263.579 1.81513 260.555L25.2066 194.176L28.3326 188.552C29.9342 187.21 31.57 183.884 33.3913 182.861C37.6769 180.454 30.8291 182.412 35.5508 181.137L35.8649 181.051C41.1609 179.602 47 176 51.5 175.5C53.1607 174.478 62.5817 170.699 67.9865 169.697C72.8441 168.795 77.8169 168.021 82.7705 167.906C83.9993 167.438 85.5417 167.275 86.7513 167.774C87.2505 167.982 87.7721 168.286 88.2361 168.67C90.6585 167.819 93.0489 165.413 95.3113 163.973C97.5705 162.536 99.5705 160.648 101.254 158.568C104.732 154.261 106.553 149.173 107.775 143.857ZM163.459 289.71C161.539 289.576 159.811 290.37 158.096 291.214C159.062 291.634 160.029 292.05 160.995 292.462L167.427 295.208V295.208C169.552 296.114 171.801 296.901 173.821 298.017C173.965 298.097 174.08 298.194 174.166 298.306C176.265 296.962 178.486 295.762 180.614 294.485C181.101 294.194 181.59 293.902 182.08 293.611C179.545 294.459 176.947 294.885 174.195 294.088C170.525 293.029 167.337 289.982 163.459 289.71ZM168.719 283.272L168.374 283.038C166.511 281.76 164.289 280.118 162.027 281.266C160.962 281.807 160.088 282.68 159.039 283.263C157.983 283.851 156.821 284.303 155.643 284.575C153.688 285.026 151.448 285.093 149.346 284.657L149.378 287.499V287.499C150.968 288.155 152.549 288.828 154.13 289.506C155.156 289.155 156.144 288.733 157.183 288.271L157.883 287.957C159.883 287.057 161.903 286.456 164.114 286.741C168.277 287.275 171.423 290.37 175.403 291.4C180.283 292.668 184.687 289.026 189.298 288.127C190.058 287.977 190.842 287.889 191.621 287.876L191.88 287.874L191.995 287.807C192.987 287.224 194.472 286.668 195.163 285.688C195.915 284.626 195.979 282.847 196.226 281.599C196.251 281.474 196.277 281.346 196.299 281.221C195.864 281.221 195.423 281.243 194.975 281.327C193.567 281.586 192.242 282.085 190.93 282.642C188.45 283.695 186.024 284.895 183.413 285.595C180.856 286.283 178.184 286.61 175.551 286.229C172.981 285.857 170.847 284.699 168.719 283.272ZM169.12 273.281L168.734 273.033C167.717 272.384 166.551 271.712 165.305 271.95C164.191 272.165 163.234 273.051 162.265 273.598C160.137 274.798 157.749 275.454 155.314 275.621C153.289 275.758 151.186 275.512 149.237 274.91L149.305 281.202V281.202C150.018 281.429 150.757 281.592 151.535 281.65C153.897 281.826 156.201 281.259 158.181 279.957L159.183 279.292C160.898 278.165 162.507 277.271 164.777 277.682C167.023 278.091 168.908 279.531 170.745 280.786L171.046 280.988C173.155 282.38 175.293 283.279 177.881 283.301C180.674 283.323 183.436 282.546 186.037 281.589C188.62 280.642 191.074 279.506 193.836 279.157C194.681 279.051 195.711 279.019 196.681 279.186C196.809 278.472 196.93 277.762 197.045 277.048C197.295 275.515 197.509 273.986 197.695 272.453C192.796 271.134 188.271 275.4 183.721 276.715C181.081 277.477 178.207 277.467 175.567 276.731C173.124 276.049 171.204 274.634 169.12 273.281ZM169.132 262.686C168.086 262.485 167.052 262.968 166.163 263.464C163.894 264.722 161.936 266.472 159.366 267.134C156.06 267.986 152.444 267.253 149.161 265.861C149.174 267.803 149.19 269.746 149.206 271.688C149.824 271.922 150.457 272.11 151.104 272.261C153.401 272.786 155.836 272.715 158.099 272.053C160.406 271.377 162.176 269.554 164.489 268.984C166.855 268.4 169.085 269.536 170.992 270.829L171.566 271.22C173.745 272.699 175.858 273.984 178.585 274.235C181.468 274.501 183.974 273.598 186.55 272.402L187.15 272.124C190.411 270.626 194.645 268.921 197.9 270.626C198.156 268.206 198.342 265.787 198.467 263.365C198.019 263.198 197.555 263.077 197.02 263.074C195.744 263.067 194.403 263.47 193.212 263.89C190.611 264.808 188.188 266.177 185.612 267.16C183.171 268.094 180.467 268.581 177.862 268.162C175.449 267.774 173.638 266.514 171.971 264.786L171.729 264.53C170.998 263.752 170.215 262.897 169.132 262.686ZM171.042 253.704C169.836 253.068 168.367 252.475 166.972 252.661C165.641 252.836 164.754 253.739 163.934 254.705L163.49 255.233C162.024 256.968 160.58 258.427 158.319 259.141C155.977 259.877 153.494 259.589 151.314 258.51C150.54 258.126 149.82 257.65 149.097 257.179L149.135 262.283V262.283C150.582 263.003 152.054 263.653 153.67 264.046C156.652 264.773 159.186 264.235 161.737 262.59L162.005 262.416C163.926 261.155 165.895 259.653 168.268 259.512C170.584 259.373 172.321 260.657 173.846 262.228L174.025 262.414C175.948 264.443 177.89 265.432 180.751 265.198C183.525 264.972 186.12 263.747 188.661 262.692L188.892 262.597C191.215 261.643 193.894 260.661 196.444 261.026C197.055 261.112 197.846 261.301 198.55 261.63C198.652 259.243 198.7 256.853 198.71 254.459C197.26 253.202 195.004 252.994 193.19 253.509C190.348 254.315 188.022 256.395 185.308 257.525C182.902 258.526 180.393 258.75 177.938 257.803C175.404 256.824 173.417 254.958 171.042 253.704ZM198.55 243.65C194.304 243.797 190.15 246.558 186.096 247.611C181.566 248.786 177.87 247.184 173.835 245.406L173.315 245.176C171.244 244.268 169.02 243.451 166.726 243.822C164.489 244.188 162.512 245.426 160.588 246.546L160.22 246.758C156.716 248.752 153.149 250.118 149.059 249.777C149.081 251.061 149.072 252.341 149.075 253.595C149.747 253.979 150.393 254.414 151.008 254.811L151.228 254.951C153.178 256.17 155.188 256.972 157.513 256.219C159.76 255.49 160.816 253.534 162.358 251.925C163.776 250.446 165.625 249.548 167.699 249.634C169.929 249.723 172.038 250.706 173.881 251.906C175.724 253.106 177.507 254.657 179.664 255.259C184.502 256.603 188.646 251.486 193.222 250.69C195.142 250.354 197.26 250.779 198.71 251.937C198.694 249.179 198.633 246.414 198.55 243.65ZM161.999 242.491C161.401 242.514 160.803 242.539 160.204 242.565C157.99 242.661 155.775 242.77 153.561 242.894C152.028 242.977 150.143 243.448 148.639 242.981C148.601 243.134 148.55 243.282 148.483 243.426C148.71 244.558 148.851 245.73 148.937 246.914C150.326 247.064 151.737 247.013 153.107 246.728C156.393 246.046 159.062 243.973 161.999 242.491ZM198.485 241.541C190.399 242.098 182.251 241.906 174.151 242.081L173.18 242.104C173.141 242.104 173.103 242.107 173.065 242.107C173.993 242.467 174.915 242.88 175.833 243.299L176.751 243.72C178.921 244.718 181.129 245.534 183.557 245.358C186.159 245.17 188.61 244.107 191.042 243.25C193.362 242.43 196.034 241.88 198.508 242.238C198.501 242.005 198.495 241.774 198.485 241.541Z" fill="black"/>
<path fill-rule="evenodd" clip-rule="evenodd" d="M180.993 57.4308C179.757 49.9558 183.812 48.4049 180.993 41.2993C174.726 28.1334 157.65 28.7007 145.118 27.6884C131.141 27.1527 116.995 28.9979 104.11 34.5998C101.032 35.9378 98.0717 37.5113 95.2339 39.299C92.7801 40.8451 93.1174 43.7846 94.6646 45.3881C83.5078 61.1871 89.8889 82.394 80.9869 99.0243C79.3424 101.997 77.1673 104.663 75.7379 107.756C73.5651 112.458 73.4259 119.194 78.3533 122.317C85.2931 126.042 89.1657 118.667 92.5757 129.358C109.605 166.635 143.845 168.734 176.349 149.299C179.162 147.735 182.032 145.967 184.155 143.509C188.975 138.085 188.408 130.457 188.514 123.683C188.574 119.713 188.584 115.743 188.545 111.772C188.393 95.6899 183.063 73.3808 180.993 57.4308Z" fill="white"/>
<path fill-rule="evenodd" clip-rule="evenodd" d="M111.761 12.7224C131.386 3.81995 153.646 0.443954 175.054 2.65835C185.62 3.74962 176.647 2.51676 186.571 6.31984L188.601 10.2301C191.051 11.1729 193.691 12.1088 195.553 14.028C197.72 16.2584 198.327 19.6312 196.779 22.3864C195.575 24.5272 197.892 26.0628 195.585 26.8824C196.398 27.548 197.169 28.2904 197.892 29.1192C199.111 30.508 199.204 32.4884 197.892 33.8584C195.364 36.4984 197.844 38.4084 194.311 39.324C194.708 41.2408 194.494 43.3624 193.643 45.2728C191.2 50.7566 192.32 51.4101 187.025 51.0845L186.865 51.0744L186.571 54.444C186.414 56.2392 185.339 57.6312 183.515 57.9064C183.451 57.916 183.386 57.9224 183.323 57.9284C186.209 68.3672 187.953 79.1284 189.563 89.8264C190.404 95.4107 191.156 101.008 191.877 106.609L192.116 108.476C192.884 114.514 193.844 120.614 194.177 126.697C194.475 132.217 188.622 144.847 185.22 149.302C182.167 153.295 178.004 156.287 173.527 158.508C163.412 163.528 154.126 166.185 142.939 167.92H141.019C136.701 168.579 131.425 165.53 127.153 164.335C123.4 163.286 119.463 160.578 120.311 156.23C120.596 154.761 122.651 154.697 123.355 155.833L123.517 156.093C124.361 157.432 125.286 158.677 126.76 159.368C128.484 160.182 130.484 160.408 132.369 160.431C137.633 160.492 143.755 163.98 148.823 162.665C158.289 160.207 168.011 156.201 175.764 150.13C179.063 147.551 186.513 136.966 187.447 132.815C188.603 127.698 187.54 122.105 187.015 116.962C185.935 106.351 184.65 95.76 183.294 85.1805L183.022 83.0648C181.88 74.22 180.68 65.372 180.11 56.476C179.873 56.1528 179.713 55.7848 179.649 55.3816L179.56 54.8024C179.483 54.3064 179.47 53.852 179.524 53.4328C179.527 51.8264 179.572 50.2296 179.665 48.6228C179.681 48.3352 179.694 48.0472 179.703 47.7624C178.033 48.1304 176.35 48.428 174.66 48.6808C162.782 50.4696 158.353 57.3656 146.379 56.476C140.404 56.0308 127.16 57.7784 121.249 56.8216C118.241 56.3352 115.243 55.7976 112.254 55.196C110.094 54.764 108.584 54.5502 106.459 53.9998C104.267 57.1902 102.158 51.7848 102.388 55.6408C102.647 60.0408 105.579 64.0312 104.756 68.5272C103.984 72.7348 100.379 74.0395 96.8204 75.0816L95.3067 75.5189C94.1422 75.8589 93.2966 76.1869 93.0858 77.5864C92.7242 79.9896 93.169 82.6935 93.2618 85.1095C93.3738 87.9671 93.5207 90.8248 93.5882 93.6824C93.6234 95.1608 93.6807 96.6456 93.6778 98.124C93.6746 99.1736 93.5178 99.8904 93.1114 100.568C93.425 100.962 93.7063 101.388 93.9562 101.839C94.0362 101.986 93.8378 102.143 93.7197 102.022C93.4026 101.692 93.0662 101.394 92.7114 101.128C92.5322 101.35 92.3242 101.574 92.0807 101.814L92.0618 101.788C91.3002 102.546 90.0906 102.62 89.1462 101.814L88.8985 101.599C88.2073 100.993 87.7324 100.488 87.5402 99.4872C87.5306 99.436 87.5206 99.3848 87.5146 99.3336C85.7578 99.2728 83.9722 99.6884 82.3914 100.562C79.8858 101.948 78.1226 103.922 77.0797 106.361C77.4954 106.847 77.9818 107.282 78.5482 107.647C78.6282 107.702 78.5578 107.82 78.4714 107.778C77.8922 107.506 77.3738 107.17 76.9098 106.777C76.5354 107.737 76.273 108.767 76.113 109.858C75.5498 113.711 76.5546 118.418 80.0362 120.614C81.5434 121.564 83.265 122.079 85.0506 122.086C85.9206 122.088 86.673 121.942 87.5178 121.734C88.0906 121.593 88.6602 121.388 89.2586 121.388C89.7706 121.388 90.2442 121.516 90.6826 121.772L90.561 121.783C90.2655 121.81 90.3223 121.823 90.7338 121.823C92.0138 121.878 92.7463 123.177 92.1578 124.306L92.0806 124.481C92.0643 124.516 92.0505 124.545 92.0397 124.568L91.9932 124.868C91.9886 124.897 91.9837 124.926 91.9786 124.956L91.9608 125.017C91.9576 125.026 91.954 125.036 91.9498 125.046L93.8695 127.973C96.2231 131.554 98.6293 135.122 101.367 138.393C103.287 140.687 105.323 142.937 107.473 145.02C109.406 146.892 111.723 147.794 113.911 149.266C115.08 150.047 115.422 151.682 114.36 152.735C111.243 155.83 106.83 153.372 104.273 150.857C101.854 148.473 99.7642 145.606 97.9626 142.735C94.7658 137.631 92.2218 132.204 91.1082 126.313C90.6442 126.738 90.0522 127.004 89.4538 127.212C88.2538 127.628 86.9322 127.801 85.665 127.846C83.2362 127.926 80.8042 127.337 78.6186 126.294C69.7258 122.054 68.4202 109.356 73.857 101.868C73.1239 99.742 72.7144 97.4352 72.2696 95.4682L72.0672 94.5889C69.8187 84.7672 63.8295 74.4264 67.8154 64.8024C68.3274 63.5608 68.9034 62.3512 69.585 61.1928C70.1322 60.2616 68.193 59.2696 68.4522 58.2104C69.0282 55.884 69.953 53.4392 68.9162 51.5928C67.697 49.4264 67.5242 46.8696 69.185 44.8884C69.3962 44.6392 69.6262 44.4084 69.8762 44.2072C68.3018 41.3528 71.1082 37.7624 73.1818 34.9464C74.545 33.0904 76.625 31.7912 78.897 31.3976C80.2858 31.1576 85.0929 23.171 86.6193 23.5998C94.9774 15.8398 101.377 17.4328 111.761 12.7224ZM79.6648 109.82C81.8955 107.852 84.3595 106.822 87.3995 107.081C90.4555 107.343 94.1355 108.607 95.9304 111.228C97.3483 113.298 94.4587 116.335 92.3787 114.78C90.4843 113.362 89.22 111.762 86.8683 111.001C84.756 110.319 82.1416 109.881 79.9304 110.271C79.6872 110.313 79.4443 110.012 79.6648 109.82Z" fill="black"/>
<path fill-rule="evenodd" clip-rule="evenodd" d="M155.177 111.772C157.777 108.131 154.095 104.706 151.678 103.237C151.045 102.783 151.548 101.278 152.9 101.51C165.187 103.621 158.821 124.786 143.134 113.172C141.266 111.665 143.528 108.347 145.541 109.637C145.643 109.715 145.75 109.798 145.861 109.884C148.123 111.633 152.261 114.832 155.177 111.772ZM130.447 75.1203L129.846 75.2255C127.902 75.5634 125.979 76.3 124.221 77.188C120.928 78.8517 117.641 81.581 115.945 84.9036C115.761 85.2642 116.154 85.7573 116.54 85.4988C119.479 83.5276 122.282 81.7324 125.723 80.749C127.291 80.3007 128.856 80.0312 130.484 79.9378C130.989 79.9089 131.483 79.9212 131.968 79.9332C133.38 79.9682 134.704 80.001 135.931 79.0076C136.868 78.2492 136.628 76.7765 135.931 75.9842C134.616 74.4901 132.305 74.7989 130.447 75.1203ZM162.5 73.8312L162.04 73.7371C161.5 73.6288 160.956 73.6746 160.478 73.869C160.01 74.0596 159.602 74.3916 159.316 74.8705C158.937 75.5082 158.886 76.0434 159.062 76.7503C159.198 77.2965 159.496 77.7075 159.886 78.0043C160.297 78.317 160.817 78.4994 161.358 78.5628C163.852 78.8558 166.308 79.4045 168.696 80.1833C169.815 80.5484 170.871 81.0429 171.917 81.556L172.819 82.0004C173.651 82.4073 174.511 82.7995 175.597 83.0841C175.682 83.1065 175.767 83.1276 175.85 83.1475C176.116 83.0641 176.187 82.9652 176.244 82.886C176.251 82.8754 176.259 82.8651 176.266 82.8552L176.292 82.8229C176.37 82.7255 176.465 82.5766 176.375 81.8816C174.005 76.9666 167.504 74.8772 162.5 73.8312ZM137.445 125.65C138.386 126.023 146.341 126.388 151.039 126.174C154.242 126.03 162.551 124.088 162.551 123.255C162.551 122.422 162.197 121.669 161.893 121.701C160.657 121.834 150.812 121.943 143.879 122.019C140.816 122.053 138.322 122.081 137.391 122.101C136.933 122.111 136.453 122.101 135.967 122.088C135.63 123.131 136.504 125.277 137.445 125.65ZM153.371 119.587C157.069 119.555 161.56 119.516 164.761 119.705C165.903 119.772 166.466 121.404 166.546 122.178C167.305 129.375 161.558 135.116 155.212 137.34C149.324 139.404 141.548 139.794 136.297 135.938C134.015 134.265 132.287 131.945 131.161 129.362C130.553 127.97 130.108 126.527 129.862 125.029C129.838 124.888 129.812 124.74 129.785 124.588C129.596 123.512 129.366 122.209 129.734 121.225C130.265 119.809 131.673 119.794 132.967 119.779C133.074 119.778 133.181 119.777 133.286 119.775C133.806 119.764 134.327 119.753 134.848 119.742C136.221 119.712 137.594 119.682 138.966 119.666C141.917 119.633 144.868 119.624 147.818 119.615C148.844 119.612 149.87 119.609 150.895 119.605C151.657 119.602 152.492 119.594 153.371 119.587Z" fill="black"/>
<ellipse cx="129.5" cy="93.1998" rx="4" ry="5.76" fill="black"/>
<ellipse cx="165.34" cy="90.9597" rx="4" ry="5.76" fill="black"/>
</g>
<defs>
<clipPath id="clip0_210_449">
<rect width="250" height="250" fill="white"/>
</clipPath>
</defs>
</svg>
