<svg width="66" height="15" viewBox="0 0 66 15" fill="none" xmlns="http://www.w3.org/2000/svg">
<rect width="66" height="15" rx="7.5" fill="#CCFFDD"/>
<path d="M17.0881 4.45455H17.8807V8.78835C17.8807 9.2358 17.7752 9.6353 17.5643 9.98686C17.3555 10.3363 17.0604 10.6122 16.679 10.8146C16.2976 11.0149 15.8501 11.1151 15.3366 11.1151C14.8232 11.1151 14.3757 11.0149 13.9943 10.8146C13.6129 10.6122 13.3168 10.3363 13.1058 9.98686C12.897 9.6353 12.7926 9.2358 12.7926 8.78835V4.45455H13.5852V8.72443C13.5852 9.04403 13.6555 9.32848 13.7962 9.57777C13.9368 9.82493 14.1371 10.0199 14.397 10.1626C14.6591 10.3033 14.9723 10.3736 15.3366 10.3736C15.701 10.3736 16.0142 10.3033 16.2763 10.1626C16.5384 10.0199 16.7386 9.82493 16.8771 9.57777C17.0178 9.32848 17.0881 9.04403 17.0881 8.72443V4.45455ZM19.4635 11V4.45455H21.6752C22.1887 4.45455 22.6084 4.54723 22.9344 4.7326C23.2625 4.91584 23.5054 5.16406 23.6631 5.47727C23.8208 5.79048 23.8996 6.13991 23.8996 6.52557C23.8996 6.91122 23.8208 7.26172 23.6631 7.57706C23.5075 7.8924 23.2668 8.14382 22.9408 8.33132C22.6148 8.51669 22.1972 8.60938 21.6879 8.60938H20.1027V7.90625H21.6624C22.0139 7.90625 22.2963 7.84553 22.5093 7.72408C22.7224 7.60263 22.8769 7.43857 22.9727 7.23189C23.0708 7.02308 23.1198 6.78764 23.1198 6.52557C23.1198 6.26349 23.0708 6.02912 22.9727 5.82244C22.8769 5.61577 22.7213 5.45384 22.5061 5.33665C22.2909 5.21733 22.0054 5.15767 21.6496 5.15767H20.2561V11H19.4635ZM30.4434 6.5H29.6508C29.604 6.27202 29.5219 6.07173 29.4047 5.89915C29.2897 5.72656 29.1491 5.58168 28.9829 5.46449C28.8188 5.34517 28.6366 5.25568 28.4363 5.19602C28.2361 5.13636 28.0273 5.10653 27.8099 5.10653C27.4136 5.10653 27.0546 5.20668 26.7329 5.40696C26.4133 5.60724 26.1586 5.90234 25.969 6.29226C25.7815 6.68217 25.6878 7.16051 25.6878 7.72727C25.6878 8.29403 25.7815 8.77237 25.969 9.16229C26.1586 9.5522 26.4133 9.8473 26.7329 10.0476C27.0546 10.2479 27.4136 10.348 27.8099 10.348C28.0273 10.348 28.2361 10.3182 28.4363 10.2585C28.6366 10.1989 28.8188 10.1104 28.9829 9.99325C29.1491 9.87393 29.2897 9.72798 29.4047 9.5554C29.5219 9.38068 29.604 9.1804 29.6508 8.95455H30.4434C30.3838 9.28906 30.2751 9.58842 30.1175 9.85263C29.9598 10.1168 29.7638 10.3416 29.5294 10.527C29.295 10.7102 29.0319 10.8498 28.74 10.9457C28.4502 11.0415 28.1402 11.0895 27.8099 11.0895C27.2517 11.0895 26.7552 10.9531 26.3206 10.6804C25.8859 10.4077 25.5439 10.0199 25.2947 9.51705C25.0454 9.0142 24.9207 8.41761 24.9207 7.72727C24.9207 7.03693 25.0454 6.44034 25.2947 5.9375C25.5439 5.43466 25.8859 5.04688 26.3206 4.77415C26.7552 4.50142 27.2517 4.36506 27.8099 4.36506C28.1402 4.36506 28.4502 4.413 28.74 4.50888C29.0319 4.60476 29.295 4.74538 29.5294 4.93075C29.7638 5.11399 29.9598 5.33771 30.1175 5.60192C30.2751 5.86399 30.3838 6.16335 30.4434 6.5ZM37.247 7.72727C37.247 8.41761 37.1223 9.0142 36.873 9.51705C36.6238 10.0199 36.2818 10.4077 35.8471 10.6804C35.4125 10.9531 34.916 11.0895 34.3578 11.0895C33.7995 11.0895 33.3031 10.9531 32.8684 10.6804C32.4338 10.4077 32.0918 10.0199 31.8425 9.51705C31.5932 9.0142 31.4686 8.41761 31.4686 7.72727C31.4686 7.03693 31.5932 6.44034 31.8425 5.9375C32.0918 5.43466 32.4338 5.04688 32.8684 4.77415C33.3031 4.50142 33.7995 4.36506 34.3578 4.36506C34.916 4.36506 35.4125 4.50142 35.8471 4.77415C36.2818 5.04688 36.6238 5.43466 36.873 5.9375C37.1223 6.44034 37.247 7.03693 37.247 7.72727ZM36.4799 7.72727C36.4799 7.16051 36.3851 6.68217 36.1955 6.29226C36.008 5.90234 35.7534 5.60724 35.4316 5.40696C35.112 5.20668 34.7541 5.10653 34.3578 5.10653C33.9615 5.10653 33.6025 5.20668 33.2807 5.40696C32.9611 5.60724 32.7065 5.90234 32.5169 6.29226C32.3294 6.68217 32.2356 7.16051 32.2356 7.72727C32.2356 8.29403 32.3294 8.77237 32.5169 9.16229C32.7065 9.5522 32.9611 9.8473 33.2807 10.0476C33.6025 10.2479 33.9615 10.348 34.3578 10.348C34.7541 10.348 35.112 10.2479 35.4316 10.0476C35.7534 9.8473 36.008 9.5522 36.1955 9.16229C36.3851 8.77237 36.4799 8.29403 36.4799 7.72727ZM38.5797 4.45455H39.5257L41.7502 9.88778H41.8269L44.0513 4.45455H44.9973V11H44.2559V6.02699H44.1919L42.1465 11H41.4306L39.3851 6.02699H39.3212V11H38.5797V4.45455ZM47.3792 4.45455V11H46.5866V4.45455H47.3792ZM54.1587 4.45455V11H53.3917L49.8249 5.8608H49.761V11H48.9684V4.45455H49.7354L53.315 9.60653H53.3789V4.45455H54.1587ZM60.2192 6.5C60.1489 6.2848 60.0562 6.09197 59.9411 5.92152C59.8282 5.74893 59.6929 5.60192 59.5352 5.48047C59.3797 5.35902 59.2029 5.26633 59.0047 5.20241C58.8066 5.13849 58.5892 5.10653 58.3527 5.10653C57.9649 5.10653 57.6123 5.20668 57.2948 5.40696C56.9774 5.60724 56.7249 5.90234 56.5374 6.29226C56.3499 6.68217 56.2561 7.16051 56.2561 7.72727C56.2561 8.29403 56.3509 8.77237 56.5406 9.16229C56.7302 9.5522 56.9869 9.8473 57.3108 10.0476C57.6347 10.2479 57.999 10.348 58.4039 10.348C58.7789 10.348 59.1091 10.2681 59.3946 10.1083C59.6823 9.94638 59.906 9.71839 60.0658 9.42436C60.2277 9.1282 60.3087 8.77983 60.3087 8.37926L60.5516 8.4304H58.5828V7.72727H61.0757V8.4304C61.0757 8.96946 60.9607 9.43821 60.7306 9.83665C60.5026 10.2351 60.1872 10.544 59.7845 10.7635C59.384 10.9808 58.9237 11.0895 58.4039 11.0895C57.8243 11.0895 57.3151 10.9531 56.8762 10.6804C56.4394 10.4077 56.0985 10.0199 55.8534 9.51705C55.6105 9.0142 55.4891 8.41761 55.4891 7.72727C55.4891 7.20952 55.5583 6.74396 55.6968 6.33061C55.8374 5.91513 56.0356 5.56143 56.2913 5.26953C56.547 4.97763 56.8495 4.75391 57.199 4.59837C57.5484 4.44283 57.933 4.36506 58.3527 4.36506C58.6979 4.36506 59.0196 4.41726 59.3179 4.52166C59.6183 4.62393 59.8857 4.76989 60.1201 4.95952C60.3566 5.14702 60.5537 5.3718 60.7114 5.63388C60.8691 5.89382 60.9777 6.18253 61.0374 6.5H60.2192Z" fill="black"/>
<rect x="3" y="4" width="7" height="7" rx="3.5" fill="#19BD00"/>
</svg>
