<svg width="69" height="15" viewBox="0 0 69 15" fill="none" xmlns="http://www.w3.org/2000/svg">
<rect width="69" height="15" rx="7.5" fill="#CCFFDD"/>
<path d="M17.983 4.45455V11H17.2159L13.6491 5.8608H13.5852V11H12.7926V4.45455H13.5597L17.1392 9.60653H17.2031V4.45455H17.983ZM19.569 11V4.45455H23.5193V5.15767H20.3616V7.36932H23.3147V8.07244H20.3616V10.2969H23.5704V11H19.569ZM26.1368 11L24.347 4.45455H25.1524L26.5203 9.78551H26.5843L27.9777 4.45455H28.8726L30.2661 9.78551H30.33L31.6979 4.45455H32.5033L30.7135 11H29.8953L28.4507 5.78409H28.3996L26.955 11H26.1368ZM36.0221 11V4.45455H39.9724V5.15767H36.8147V7.36932H39.7678V8.07244H36.8147V10.2969H40.0235V11H36.0221ZM41.6695 4.45455L43.6127 9.96449H43.6894L45.6325 4.45455H46.4635L44.0601 11H43.2419L40.8385 4.45455H41.6695ZM47.483 11V4.45455H51.4333V5.15767H48.2757V7.36932H51.2288V8.07244H48.2757V10.2969H51.4845V11H47.483ZM58.0523 4.45455V11H57.2852L53.7185 5.8608H53.6546V11H52.8619V4.45455H53.629L57.2085 9.60653H57.2725V4.45455H58.0523ZM59.2804 5.15767V4.45455H64.1895V5.15767H62.1312V11H61.3386V5.15767H59.2804Z" fill="black"/>
<rect x="3" y="4" width="7" height="7" rx="3.5" fill="#19BD00"/>
</svg>
