<svg width="100" height="100" viewBox="0 0 100 100" fill="none" xmlns="http://www.w3.org/2000/svg">
<g clip-path="url(#clip0_287_236)">
<g clip-path="url(#clip1_287_236)">
<path d="M2.12005 49.4016C2.11772 57.8035 4.31307 66.0074 8.48749 73.2384L1.72083 97.9446L27.0045 91.3151C33.9977 95.1221 41.833 97.1169 49.7952 97.1175H49.8162C76.1011 97.1175 97.4976 75.7287 97.5088 49.4392C97.5138 36.7 92.5573 24.7209 83.5518 15.7085C74.548 6.6969 62.5732 1.7314 49.8142 1.72559C23.5263 1.72559 2.13129 23.1132 2.12044 49.4016" fill="url(#paint0_linear_287_236)"/>
<path d="M0.417323 49.386C0.41461 58.0903 2.68864 66.5876 7.0119 74.0775L0.00259399 99.6694L26.1929 92.8023C33.4092 96.7368 41.534 98.8112 49.8014 98.8143H49.8227C77.0507 98.8143 99.2158 76.6562 99.2274 49.4256C99.2321 36.2287 94.0972 23.819 84.77 14.4837C75.4417 5.14961 63.0386 0.00542636 49.8227 0C22.5902 0 0.428175 22.155 0.417323 49.386ZM16.0146 72.7876L15.0367 71.2353C10.9258 64.6988 8.75608 57.1454 8.75918 49.3891C8.76771 26.7554 27.1879 8.34109 49.8383 8.34109C60.8072 8.34574 71.1158 12.6217 78.8693 20.3798C86.6224 28.1388 90.8886 38.4527 90.8859 49.4225C90.8759 72.0562 72.4553 90.4729 49.8227 90.4729H49.8065C42.4371 90.469 35.2096 88.4899 28.9065 84.75L27.4065 83.8605L11.8646 87.9353L16.0146 72.7876Z" fill="url(#paint1_linear_287_236)"/>
<path d="M37.4747 28.7395C36.5499 26.6841 35.5766 26.6426 34.6972 26.6066C33.977 26.5756 33.1538 26.5779 32.3313 26.5779C31.508 26.5779 30.1704 26.8876 29.0398 28.1221C27.908 29.3578 24.7189 32.3438 24.7189 38.4171C24.7189 44.4903 29.1425 50.3601 29.7592 51.1845C30.3766 52.0074 38.2991 64.8694 50.8464 69.8175C61.2743 73.9295 63.3964 73.1116 65.6596 72.9054C67.9231 72.7 72.9634 69.9202 73.9917 67.0376C75.0208 64.1554 75.0208 61.6849 74.7123 61.1686C74.4038 60.6543 73.5805 60.3454 72.346 59.7283C71.1115 59.1113 65.0421 56.1244 63.9107 55.7124C62.7789 55.3008 61.9561 55.0954 61.1328 56.3314C60.3096 57.5655 57.9456 60.3454 57.2251 61.1686C56.5053 61.9938 55.7848 62.0965 54.5507 61.4791C53.3154 60.8597 49.3398 59.5578 44.6231 55.3527C40.9534 52.0806 38.4758 48.0399 37.7557 46.8039C37.0355 45.5698 37.6786 44.9008 38.2976 44.2857C38.8522 43.7326 39.5324 42.8442 40.1503 42.1237C40.7658 41.4027 40.9712 40.8884 41.3828 40.0651C41.7948 39.2411 41.5886 38.5202 41.2805 37.9027C40.9712 37.2853 38.5724 31.1802 37.4747 28.7395Z" fill="white"/>
</g>
</g>
<defs>
<linearGradient id="paint0_linear_287_236" x1="4791.12" y1="9623.63" x2="4791.12" y2="1.72559" gradientUnits="userSpaceOnUse">
<stop stop-color="#1FAF38"/>
<stop offset="1" stop-color="#60D669"/>
</linearGradient>
<linearGradient id="paint1_linear_287_236" x1="4961.24" y1="9966.94" x2="4961.24" y2="0" gradientUnits="userSpaceOnUse">
<stop stop-color="#F9F9F9"/>
<stop offset="1" stop-color="white"/>
</linearGradient>
<clipPath id="clip0_287_236">
<rect width="100" height="100" fill="white"/>
</clipPath>
<clipPath id="clip1_287_236">
<rect width="99.23" height="100" fill="white"/>
</clipPath>
</defs>
</svg>
