<svg width="1000" height="600" viewBox="0 0 1000 600" fill="none" xmlns="http://www.w3.org/2000/svg">
<g clip-path="url(#clip0_143_1615)">
<rect width="1000" height="600" fill="white"/>
<g opacity="0.66">
<path d="M950 840L950 -240" stroke="url(#paint0_linear_143_1615)" stroke-width="3"/>
<path d="M890 840L890 -240" stroke="url(#paint1_linear_143_1615)" stroke-width="3"/>
<path d="M830 840L830 -240" stroke="url(#paint2_linear_143_1615)" stroke-width="3"/>
<path d="M770 840L770 -240" stroke="url(#paint3_linear_143_1615)" stroke-width="3"/>
<path d="M710 840L710 -240" stroke="url(#paint4_linear_143_1615)" stroke-width="3"/>
<path d="M650 840L650 -240" stroke="url(#paint5_linear_143_1615)" stroke-width="3"/>
<path d="M590 840L590 -240" stroke="url(#paint6_linear_143_1615)" stroke-width="3"/>
<path d="M530 840L530 -240" stroke="url(#paint7_linear_143_1615)" stroke-width="3"/>
<path d="M470 840L470 -240" stroke="url(#paint8_linear_143_1615)" stroke-width="3"/>
<path d="M410 840L410 -240" stroke="url(#paint9_linear_143_1615)" stroke-width="3"/>
<path d="M350 840L350 -240" stroke="url(#paint10_linear_143_1615)" stroke-width="3"/>
<path d="M290 840L290 -240" stroke="url(#paint11_linear_143_1615)" stroke-width="3"/>
<path d="M230 840L230 -240" stroke="url(#paint12_linear_143_1615)" stroke-width="3"/>
<path d="M170 840L170 -240" stroke="url(#paint13_linear_143_1615)" stroke-width="3"/>
<path d="M110 840L110 -240" stroke="url(#paint14_linear_143_1615)" stroke-width="3"/>
<path d="M50.0001 840L50 -240" stroke="url(#paint15_linear_143_1615)" stroke-width="3"/>
</g>
<g opacity="0.66">
<path d="M1040 30L-40 30" stroke="url(#paint16_linear_143_1615)" stroke-width="3"/>
<path d="M1040 90L-40 90" stroke="url(#paint17_linear_143_1615)" stroke-width="3"/>
<path d="M1040 150L-40 150" stroke="url(#paint18_linear_143_1615)" stroke-width="3"/>
<path d="M1040 210L-40 210" stroke="url(#paint19_linear_143_1615)" stroke-width="3"/>
<path d="M1040 270L-40 270" stroke="url(#paint20_linear_143_1615)" stroke-width="3"/>
<path d="M1040 330L-40 330" stroke="url(#paint21_linear_143_1615)" stroke-width="3"/>
<path d="M1040 390L-40 390" stroke="url(#paint22_linear_143_1615)" stroke-width="3"/>
<path d="M1040 450L-40 450" stroke="url(#paint23_linear_143_1615)" stroke-width="3"/>
<path d="M1040 510L-40 510" stroke="url(#paint24_linear_143_1615)" stroke-width="3"/>
<path d="M1040 570L-40 570" stroke="url(#paint25_linear_143_1615)" stroke-width="3"/>
</g>
<g filter="url(#filter0_d_143_1615)">
<rect x="334.53" y="204" width="560" height="148" transform="rotate(4.07991 334.53 204)" fill="white" shape-rendering="crispEdges"/>
<rect x="336.846" y="206.672" width="555" height="143" transform="rotate(4.07991 336.846 206.672)" stroke="black" stroke-width="5" shape-rendering="crispEdges"/>
<path d="M433.694 261.746L390.156 258.64L388.881 276.515L423.609 278.992L422.398 295.973L387.67 293.496L385.357 325.925L363.397 324.359L369.407 240.093L434.905 244.765L433.694 261.746ZM480.141 247.991C490.185 248.708 497.803 251.647 502.996 256.808C508.279 261.89 510.642 268.346 510.083 276.177C509.47 284.774 506.236 291.131 500.382 295.247C494.528 299.364 486.579 301.064 476.535 300.347L474.41 301.351L457.684 300.158L455.49 330.928L433.913 329.389L439.923 245.123L480.141 247.991ZM474.372 285.692C478.628 285.996 481.88 285.373 484.13 283.822C486.379 282.271 487.637 279.624 487.904 275.878C488.166 272.218 487.293 269.461 485.286 267.607C483.28 265.753 480.149 264.674 475.893 264.371L460.316 263.26L458.795 284.581L474.372 285.692ZM486.939 291.209L510.901 334.88L486.643 333.15L467.697 294.712L486.939 291.209ZM590.884 340.585L568.285 338.973L563.769 319.531L534.914 317.472L527.557 336.068L505.469 334.493L541.1 252.339L567.401 254.215L590.884 340.585ZM540.065 302.826L560.749 304.301L552.839 269.474L540.065 302.826ZM696.578 263.429L690.567 347.695L671.161 346.311L673.92 307.625L676.407 281.753L676.152 281.735L650.733 344.854L632.986 343.588L616.783 277.5L616.527 277.482L615.317 303.445L612.558 342.131L593.023 340.738L599.034 256.472L630.314 258.703L640.533 302.549L643.982 320.761L644.237 320.779L650.355 303.378L666.574 261.289L696.578 263.429ZM701.567 348.48L707.578 264.214L773.203 268.895L771.992 285.876L728.327 282.761L727.107 299.87L761.834 302.347L760.696 318.306L725.968 315.829L724.739 333.066L770.064 336.298L768.853 353.279L701.567 348.48ZM816.212 271.963C829.405 272.904 839.231 277.283 845.688 285.101C852.231 292.925 855.022 303.561 854.063 317.01C853.104 330.458 848.831 340.591 841.244 347.407C833.742 354.229 823.395 357.17 810.201 356.229L774.452 353.679L780.463 269.413L816.212 271.963ZM809.215 339.476C816.365 339.986 821.709 338.228 825.247 334.203C828.876 330.099 830.991 323.834 831.592 315.407C832.193 306.981 830.986 300.521 827.97 296.028C825.045 291.457 820.007 288.916 812.858 288.406L801.239 287.577L797.596 338.647L809.215 339.476Z" fill="#1C1BE2"/>
<rect x="323.902" y="192.693" width="21" height="21" transform="rotate(4.07991 323.902 192.693)" fill="#A9DEF7" stroke="#DE2BAE" stroke-width="3"/>
<rect x="882.153" y="232.579" width="21" height="21" transform="rotate(4.07991 882.153 232.579)" fill="white" stroke="#1C1BE2" stroke-width="3"/>
<rect x="873.011" y="380.723" width="21" height="21" transform="rotate(4.07991 873.011 380.723)" fill="white" stroke="#1C1BE2" stroke-width="3"/>
<rect x="313.372" y="340.318" width="21" height="21" transform="rotate(4.07991 313.372 340.318)" fill="white" stroke="#1C1BE2" stroke-width="3"/>
</g>
<g filter="url(#filter1_d_143_1615)">
<rect x="106" y="109.614" width="371" height="148" transform="rotate(-5.50852 106 109.614)" fill="#1C1BE2" shape-rendering="crispEdges"/>
<rect x="108.728" y="111.862" width="366" height="143" transform="rotate(-5.50852 108.728 111.862)" stroke="black" stroke-width="5" shape-rendering="crispEdges"/>
<path d="M171.011 221.892L138.693 140.136L162.009 137.888L182.681 202.892L191.313 135.062L211.189 133.145L232.995 197.911L240.621 130.306L263.172 128.132L246.946 214.568L223.121 216.866L209.251 177.054L203.451 156.909L203.196 156.934L201.479 177.803L195.601 219.52L171.011 221.892ZM288.026 125.735L296.135 209.825L274.221 211.938L266.111 127.848L288.026 125.735ZM339.162 120.803C349.185 119.837 357.187 121.465 363.166 125.69C369.223 129.821 372.628 135.793 373.382 143.608C374.209 152.187 372.079 158.993 366.992 164.027C361.905 169.062 354.35 172.062 344.328 173.029L342.4 174.372L325.709 175.981L328.67 206.687L307.138 208.764L299.029 124.674L339.162 120.803ZM339.754 158.939C344.001 158.529 347.104 157.372 349.064 155.469C351.023 153.565 351.823 150.745 351.463 147.007C351.11 143.355 349.791 140.782 347.503 139.288C345.216 137.794 341.949 137.252 337.702 137.661L322.158 139.16L324.21 160.438L339.754 158.939ZM353.065 162.284L383.966 201.354L359.758 203.689L334.675 168.944L353.065 162.284ZM387.336 201.029L379.227 116.939L444.715 110.624L446.349 127.569L402.775 131.771L404.422 148.844L439.077 145.502L440.613 161.428L405.957 164.77L407.616 181.971L452.846 177.609L454.481 194.554L387.336 201.029Z" fill="white"/>
<rect x="94.5406" y="100.17" width="21" height="21" transform="rotate(-5.50852 94.5406 100.17)" fill="white" stroke="#1C1BE2" stroke-width="3"/>
<rect x="462.831" y="64.6524" width="21" height="21" transform="rotate(-5.50852 462.831 64.6524)" fill="white" stroke="#1C1BE2" stroke-width="3"/>
<rect x="477.039" y="211.969" width="21" height="21" transform="rotate(-5.50852 477.039 211.969)" fill="white" stroke="#1C1BE2" stroke-width="3"/>
<rect x="108.748" y="247.487" width="21" height="21" transform="rotate(-5.50852 108.748 247.487)" fill="white" stroke="#1C1BE2" stroke-width="3"/>
</g>
<path d="M106 502L105 502L105 503L106 503L106 502ZM893 502L893 503L894 503L894 502L893 502ZM106.707 477.763C106.317 477.373 105.683 477.373 105.293 477.763L98.9289 484.127C98.5384 484.518 98.5384 485.151 98.9289 485.542C99.3195 485.932 99.9526 485.932 100.343 485.542L106 479.885L111.657 485.542C112.047 485.932 112.681 485.932 113.071 485.542C113.462 485.151 113.462 484.518 113.071 484.127L106.707 477.763ZM893.707 476.293C893.317 475.902 892.683 475.902 892.293 476.293L885.929 482.657C885.538 483.047 885.538 483.68 885.929 484.071C886.319 484.462 886.953 484.462 887.343 484.071L893 478.414L898.657 484.071C899.047 484.462 899.681 484.462 900.071 484.071C900.462 483.68 900.462 483.047 900.071 482.657L893.707 476.293ZM106 503L893 503L893 501L106 501L106 503ZM107 502L107 478.471L105 478.471L105 502L107 502ZM894 502L894 477L892 477L892 502L894 502Z" fill="#2928FB"/>
<rect x="340" y="522" width="271" height="38" rx="19" fill="white"/>
<rect x="340" y="522" width="271" height="38" rx="19" stroke="#1C1BE2" stroke-width="2"/>
<path d="M373.833 553.5C373.087 553.5 372.407 553.453 371.793 553.36C371.18 553.28 370.58 553.147 369.993 552.96C369.407 552.773 368.773 552.527 368.093 552.22C367.813 552.087 367.58 551.947 367.393 551.8C367.207 551.653 367.113 551.433 367.113 551.14C367.113 550.713 367.247 550.387 367.513 550.16C367.767 549.947 368.12 549.84 368.573 549.84C368.813 549.84 369.12 549.92 369.493 550.08C369.867 550.253 370.293 550.447 370.773 550.66C371.267 550.887 371.813 551.08 372.413 551.24C373.013 551.413 373.66 551.5 374.353 551.5C375.06 551.5 375.72 551.207 376.333 550.62C376.947 550.033 377.44 549.207 377.813 548.14C378.2 547.087 378.393 545.84 378.393 544.4C378.393 544.067 378.387 543.707 378.373 543.32C378.36 542.92 378.347 542.5 378.333 542.06C377.853 542.967 377.333 543.813 376.773 544.6C376.213 545.387 375.633 546.027 375.033 546.52C374.447 547 373.853 547.24 373.253 547.24C372.52 547.24 371.987 547.067 371.653 546.72C371.333 546.36 371.173 545.793 371.173 545.02C371.173 544.367 371.22 543.653 371.313 542.88C371.42 542.093 371.56 541.3 371.733 540.5C371.907 539.7 372.107 538.94 372.333 538.22C372.573 537.487 372.827 536.853 373.093 536.32C373.293 535.933 373.6 535.74 374.013 535.74C374.28 535.74 374.547 535.867 374.813 536.12C375.093 536.373 375.233 536.713 375.233 537.14C375.233 537.38 375.173 537.727 375.053 538.18C374.933 538.633 374.787 539.147 374.613 539.72C374.453 540.28 374.287 540.873 374.113 541.5C373.94 542.113 373.793 542.72 373.673 543.32C373.553 543.907 373.493 544.44 373.493 544.92C373.493 544.973 373.533 545 373.613 545C373.773 545 373.987 544.867 374.253 544.6C374.533 544.32 374.84 543.96 375.173 543.52C375.52 543.067 375.867 542.573 376.213 542.04C376.573 541.493 376.92 540.953 377.253 540.42C377.587 539.887 377.887 539.4 378.153 538.96C378.113 538.747 378.087 538.56 378.073 538.4C378.073 538.227 378.073 538.08 378.073 537.96C378.073 537.413 378.167 536.96 378.353 536.6C378.553 536.24 378.94 536.06 379.513 536.06C379.887 536.06 380.173 536.2 380.373 536.48C380.573 536.747 380.673 537.127 380.673 537.62C380.673 537.833 380.64 538.08 380.573 538.36C380.507 538.627 380.373 539.053 380.173 539.64L380.393 539.02C380.513 540.22 380.613 541.287 380.693 542.22C380.787 543.153 380.833 544.08 380.833 545C380.833 546.733 380.54 548.233 379.953 549.5C379.38 550.78 378.567 551.767 377.513 552.46C376.473 553.153 375.247 553.5 373.833 553.5ZM386.88 548.68C386.053 548.68 385.387 548.393 384.88 547.82C384.373 547.233 384.12 546.293 384.12 545C384.12 544.173 384.213 543.347 384.4 542.52C384.6 541.68 384.873 540.887 385.22 540.14C385.58 539.38 385.993 538.707 386.46 538.12C386.94 537.533 387.467 537.073 388.04 536.74C388.613 536.393 389.207 536.22 389.82 536.22C390.86 536.22 391.673 536.5 392.26 537.06C392.847 537.62 393.14 538.333 393.14 539.2C393.14 539.867 392.953 540.473 392.58 541.02C392.22 541.553 391.727 542.033 391.1 542.46C390.473 542.887 389.773 543.273 389 543.62C388.227 543.967 387.433 544.28 386.62 544.56C386.553 545.04 386.52 545.467 386.52 545.84C386.52 546.067 386.647 546.18 386.9 546.18C387.5 546.18 388.14 546.087 388.82 545.9C389.513 545.7 390.213 545.447 390.92 545.14C391.627 544.82 392.307 544.493 392.96 544.16C393.613 543.813 394.207 543.487 394.74 543.18C395.287 542.86 395.733 542.607 396.08 542.42C396.44 542.22 396.673 542.12 396.78 542.12C397.073 542.12 397.287 542.207 397.42 542.38C397.553 542.553 397.62 542.74 397.62 542.94C397.62 543.033 397.44 543.24 397.08 543.56C396.733 543.88 396.253 544.26 395.64 544.7C395.04 545.127 394.36 545.573 393.6 546.04C392.853 546.493 392.073 546.927 391.26 547.34C390.46 547.74 389.68 548.06 388.92 548.3C388.173 548.553 387.493 548.68 386.88 548.68ZM386.96 542.78C387.507 542.46 388.047 542.127 388.58 541.78C389.127 541.42 389.58 541.02 389.94 540.58C390.3 540.127 390.48 539.6 390.48 539C390.48 538.827 390.433 538.713 390.34 538.66C390.247 538.593 390.113 538.56 389.94 538.56C389.473 538.56 389.047 538.767 388.66 539.18C388.287 539.593 387.953 540.127 387.66 540.78C387.38 541.42 387.147 542.087 386.96 542.78ZM397.392 548.76C396.965 548.76 396.579 548.64 396.232 548.4C395.885 548.173 395.612 547.873 395.412 547.5C395.212 547.113 395.112 546.7 395.112 546.26C395.112 545.433 395.292 544.627 395.652 543.84C396.025 543.053 396.512 542.307 397.112 541.6C397.712 540.893 398.365 540.247 399.072 539.66C399.792 539.06 400.505 538.547 401.212 538.12C401.932 537.693 402.585 537.36 403.172 537.12C403.772 536.88 404.239 536.76 404.572 536.76C404.959 536.76 405.272 536.847 405.512 537.02C405.765 537.18 405.892 537.433 405.892 537.78C405.892 537.887 405.865 537.973 405.812 538.04C405.985 538.08 406.125 538.18 406.232 538.34C406.339 538.5 406.392 538.74 406.392 539.06C406.392 539.193 406.359 539.54 406.292 540.1C406.225 540.66 406.152 541.34 406.072 542.14C406.005 542.94 405.972 543.773 405.972 544.64C405.972 544.773 405.992 544.893 406.032 545C406.072 545.093 406.159 545.14 406.292 545.14C406.825 545.14 407.365 545.033 407.912 544.82C408.472 544.593 409.012 544.32 409.532 544C410.065 543.667 410.545 543.34 410.972 543.02C411.412 542.687 411.779 542.413 412.072 542.2C412.379 541.973 412.579 541.86 412.672 541.86C413.125 541.86 413.352 542.087 413.352 542.54C413.352 542.66 413.205 542.913 412.912 543.3C412.632 543.673 412.245 544.107 411.752 544.6C411.259 545.08 410.705 545.56 410.092 546.04C409.492 546.507 408.865 546.893 408.212 547.2C407.572 547.507 406.952 547.66 406.352 547.66C405.619 547.66 405.059 547.487 404.672 547.14C404.299 546.793 404.032 546.327 403.872 545.74C403.725 545.14 403.645 544.467 403.632 543.72C402.952 544.693 402.245 545.56 401.512 546.32C400.792 547.067 400.079 547.66 399.372 548.1C398.665 548.54 398.005 548.76 397.392 548.76ZM404.472 538.74C403.165 539.367 401.992 540.087 400.952 540.9C399.912 541.7 399.085 542.54 398.472 543.42C397.872 544.3 397.572 545.147 397.572 545.96C397.572 546.187 397.679 546.3 397.892 546.3C398.145 546.3 398.479 546.153 398.892 545.86C399.319 545.567 399.779 545.18 400.272 544.7C400.765 544.207 401.259 543.66 401.752 543.06C402.245 542.447 402.705 541.82 403.132 541.18C403.559 540.54 403.899 539.927 404.152 539.34C404.245 539.127 404.352 538.927 404.472 538.74ZM412.658 548.88C412.324 548.88 412.038 548.76 411.798 548.52C411.571 548.28 411.458 547.933 411.458 547.48C411.458 547.28 411.484 546.953 411.538 546.5C411.604 546.033 411.684 545.5 411.778 544.9C411.884 544.3 411.984 543.673 412.078 543.02C412.184 542.367 412.271 541.747 412.338 541.16C412.418 540.573 412.471 540.073 412.498 539.66C412.524 539.153 412.658 538.793 412.898 538.58C413.138 538.353 413.424 538.24 413.758 538.24C414.024 538.24 414.264 538.307 414.478 538.44C414.704 538.56 414.844 538.82 414.898 539.22C414.964 539.607 414.971 540.167 414.918 540.9C415.504 539.833 416.098 538.88 416.698 538.04C417.311 537.2 417.951 536.533 418.618 536.04C419.724 535.2 420.724 534.78 421.618 534.78C422.124 534.78 422.458 534.893 422.618 535.12C422.778 535.347 422.858 535.58 422.858 535.82C422.858 535.98 422.818 536.127 422.738 536.26C422.671 536.393 422.524 536.533 422.298 536.68C422.071 536.827 421.724 537.02 421.258 537.26C420.631 537.58 420.011 538 419.398 538.52C418.798 539.04 418.198 539.707 417.598 540.52C416.998 541.333 416.391 542.333 415.778 543.52C415.164 544.707 414.531 546.12 413.878 547.76C413.758 548.213 413.584 548.513 413.358 548.66C413.144 548.807 412.911 548.88 412.658 548.88ZM434.81 548.68C433.983 548.68 433.317 548.393 432.81 547.82C432.303 547.233 432.05 546.293 432.05 545C432.05 544.173 432.143 543.347 432.33 542.52C432.53 541.68 432.803 540.887 433.15 540.14C433.51 539.38 433.923 538.707 434.39 538.12C434.87 537.533 435.397 537.073 435.97 536.74C436.543 536.393 437.137 536.22 437.75 536.22C438.79 536.22 439.603 536.5 440.19 537.06C440.777 537.62 441.07 538.333 441.07 539.2C441.07 539.867 440.883 540.473 440.51 541.02C440.15 541.553 439.657 542.033 439.03 542.46C438.403 542.887 437.703 543.273 436.93 543.62C436.157 543.967 435.363 544.28 434.55 544.56C434.483 545.04 434.45 545.467 434.45 545.84C434.45 546.067 434.577 546.18 434.83 546.18C435.43 546.18 436.07 546.087 436.75 545.9C437.443 545.7 438.143 545.447 438.85 545.14C439.557 544.82 440.237 544.493 440.89 544.16C441.543 543.813 442.137 543.487 442.67 543.18C443.217 542.86 443.663 542.607 444.01 542.42C444.37 542.22 444.603 542.12 444.71 542.12C445.003 542.12 445.217 542.207 445.35 542.38C445.483 542.553 445.55 542.74 445.55 542.94C445.55 543.033 445.37 543.24 445.01 543.56C444.663 543.88 444.183 544.26 443.57 544.7C442.97 545.127 442.29 545.573 441.53 546.04C440.783 546.493 440.003 546.927 439.19 547.34C438.39 547.74 437.61 548.06 436.85 548.3C436.103 548.553 435.423 548.68 434.81 548.68ZM434.89 542.78C435.437 542.46 435.977 542.127 436.51 541.78C437.057 541.42 437.51 541.02 437.87 540.58C438.23 540.127 438.41 539.6 438.41 539C438.41 538.827 438.363 538.713 438.27 538.66C438.177 538.593 438.043 538.56 437.87 538.56C437.403 538.56 436.977 538.767 436.59 539.18C436.217 539.593 435.883 540.127 435.59 540.78C435.31 541.42 435.077 542.087 434.89 542.78ZM446.085 548C445.765 548 445.445 547.893 445.125 547.68C444.818 547.453 444.565 547.133 444.365 546.72C444.165 546.293 444.065 545.78 444.065 545.18C444.065 544.38 444.171 543.527 444.385 542.62C444.611 541.713 444.885 540.807 445.205 539.9C445.525 538.993 445.838 538.14 446.145 537.34C446.291 536.953 446.471 536.693 446.685 536.56C446.898 536.413 447.178 536.34 447.525 536.34C448.311 536.34 448.705 536.733 448.705 537.52C448.705 537.653 448.645 537.913 448.525 538.3C448.405 538.673 448.245 539.133 448.045 539.68C447.858 540.227 447.658 540.82 447.445 541.46C447.245 542.087 447.058 542.727 446.885 543.38C446.725 544.02 446.598 544.627 446.505 545.2C446.811 544.733 447.151 544.153 447.525 543.46C447.911 542.753 448.318 542.013 448.745 541.24C449.185 540.467 449.625 539.747 450.065 539.08C450.505 538.4 450.938 537.847 451.365 537.42C451.791 536.993 452.198 536.78 452.585 536.78C452.918 536.78 453.231 536.847 453.525 536.98C453.831 537.1 454.098 537.34 454.325 537.7C454.551 538.047 454.725 538.547 454.845 539.2C454.978 539.853 455.045 540.713 455.045 541.78C455.045 542.313 455.091 542.833 455.185 543.34C455.291 543.833 455.465 544.247 455.705 544.58C455.945 544.9 456.285 545.06 456.725 545.06C457.485 545.06 458.165 544.92 458.765 544.64C459.365 544.36 459.891 544.033 460.345 543.66C460.798 543.287 461.178 542.96 461.485 542.68C461.671 542.493 461.831 542.347 461.965 542.24C462.111 542.133 462.231 542.08 462.325 542.08C462.605 542.08 462.805 542.153 462.925 542.3C463.058 542.447 463.125 542.647 463.125 542.9C463.125 543.033 463.011 543.28 462.785 543.64C462.558 544 462.238 544.413 461.825 544.88C461.425 545.333 460.965 545.773 460.445 546.2C459.925 546.627 459.365 546.98 458.765 547.26C458.165 547.54 457.551 547.68 456.925 547.68C455.871 547.68 454.998 547.493 454.305 547.12C453.625 546.733 453.118 546.093 452.785 545.2C452.451 544.293 452.285 543.06 452.285 541.5C452.285 541.46 452.285 541.393 452.285 541.3C452.285 540.887 452.278 540.52 452.265 540.2C452.265 539.88 452.245 539.62 452.205 539.42C451.978 539.833 451.705 540.327 451.385 540.9C451.078 541.473 450.745 542.087 450.385 542.74C450.025 543.38 449.651 544.013 449.265 544.64C448.878 545.253 448.491 545.813 448.105 546.32C447.731 546.827 447.371 547.233 447.025 547.54C446.678 547.847 446.365 548 446.085 548ZM469.565 537.3C470.299 535.553 470.945 533.753 471.505 531.9C471.612 531.527 471.765 531.24 471.965 531.04C472.179 530.84 472.472 530.74 472.845 530.74C473.152 530.74 473.385 530.833 473.545 531.02C473.705 531.193 473.785 531.433 473.785 531.74C473.785 531.993 473.679 532.447 473.465 533.1C473.252 533.74 472.992 534.553 472.685 535.54C472.379 536.527 472.072 537.667 471.765 538.96C471.459 540.253 471.199 541.673 470.985 543.22C470.772 544.767 470.665 546.42 470.665 548.18C470.665 548.66 470.572 549.053 470.385 549.36C470.212 549.68 469.905 549.84 469.465 549.84C468.985 549.84 468.632 549.673 468.405 549.34C468.192 549.007 468.085 548.58 468.085 548.06C468.085 547.033 468.119 546.18 468.185 545.5C468.265 544.807 468.345 544.213 468.425 543.72C467.772 544.84 467.079 545.807 466.345 546.62C465.625 547.42 464.932 548.033 464.265 548.46C463.599 548.9 463.025 549.12 462.545 549.12C461.759 549.12 461.119 548.9 460.625 548.46C460.132 548.02 459.885 547.353 459.885 546.46C459.885 545.767 460.052 545.053 460.385 544.32C460.719 543.573 461.159 542.84 461.705 542.12C462.252 541.4 462.852 540.727 463.505 540.1C464.172 539.46 464.839 538.9 465.505 538.42C466.172 537.927 466.792 537.54 467.365 537.26C467.939 536.98 468.405 536.84 468.765 536.84C469.165 536.84 469.432 536.993 469.565 537.3ZM469.105 538.38C469.025 538.433 468.939 538.487 468.845 538.54C468.765 538.58 468.685 538.627 468.605 538.68C468.099 539 467.559 539.387 466.985 539.84C466.412 540.28 465.845 540.773 465.285 541.32C464.725 541.853 464.212 542.413 463.745 543C463.292 543.573 462.925 544.147 462.645 544.72C462.379 545.28 462.245 545.82 462.245 546.34C462.245 546.433 462.285 546.5 462.365 546.54C462.445 546.58 462.519 546.6 462.585 546.6C463.052 546.6 463.552 546.393 464.085 545.98C464.632 545.567 465.185 544.993 465.745 544.26C466.319 543.513 466.885 542.64 467.445 541.64C468.019 540.64 468.572 539.553 469.105 538.38ZM487.666 548.88C487.386 548.88 487.12 548.82 486.866 548.7C486.613 548.58 486.386 548.347 486.186 548C485.986 547.667 485.826 547.173 485.706 546.52C485.586 545.853 485.526 544.973 485.526 543.88C485.526 542.853 485.58 541.873 485.686 540.94C485.793 539.993 485.946 539.153 486.146 538.42C486.346 537.673 486.586 537.087 486.866 536.66C487.146 536.22 487.46 536 487.806 536C488.113 536 488.366 536.147 488.566 536.44C488.766 536.733 488.866 537.153 488.866 537.7C488.866 538.127 488.813 538.687 488.706 539.38C488.613 540.073 488.5 540.82 488.366 541.62C488.233 542.407 488.113 543.173 488.006 543.92C487.913 544.653 487.866 545.28 487.866 545.8C487.866 545.893 487.88 545.987 487.906 546.08C487.933 546.16 487.973 546.2 488.026 546.2C488.106 546.2 488.24 546.007 488.426 545.62C488.613 545.233 488.84 544.727 489.106 544.1C489.386 543.46 489.686 542.767 490.006 542.02C490.34 541.273 490.686 540.54 491.046 539.82C491.42 539.087 491.793 538.433 492.166 537.86C492.486 537.367 492.866 536.987 493.306 536.72C493.746 536.453 494.153 536.32 494.526 536.32C494.86 536.32 495.186 536.407 495.506 536.58C495.84 536.753 496.113 537.013 496.326 537.36C496.54 537.707 496.646 538.14 496.646 538.66C496.646 538.86 496.62 539.193 496.566 539.66C496.526 540.113 496.473 540.633 496.406 541.22C496.34 541.793 496.273 542.373 496.206 542.96C496.14 543.533 496.08 544.047 496.026 544.5C495.986 544.953 495.966 545.273 495.966 545.46C495.966 545.487 495.966 545.52 495.966 545.56C495.966 545.707 495.973 545.853 495.986 546C496 546.133 496.04 546.2 496.106 546.2C496.253 546.2 496.44 546.033 496.666 545.7C496.906 545.353 497.173 544.893 497.466 544.32C497.773 543.747 498.093 543.107 498.426 542.4C498.76 541.693 499.1 540.967 499.446 540.22C499.806 539.46 500.16 538.74 500.506 538.06C500.773 537.487 501 537.127 501.186 536.98C501.373 536.82 501.553 536.74 501.726 536.74C501.966 536.74 502.22 536.86 502.486 537.1C502.753 537.34 502.886 537.713 502.886 538.22C502.886 538.393 502.88 538.567 502.866 538.74C502.853 538.913 502.806 539.093 502.726 539.28C502.193 540.627 501.64 541.873 501.066 543.02C500.506 544.153 499.946 545.14 499.386 545.98C498.826 546.82 498.286 547.473 497.766 547.94C497.246 548.407 496.76 548.64 496.306 548.64C495.373 548.64 494.653 548.393 494.146 547.9C493.653 547.393 493.406 546.713 493.406 545.86C493.406 545.54 493.426 545.133 493.466 544.64C493.506 544.133 493.553 543.587 493.606 543C493.673 542.4 493.74 541.807 493.806 541.22C493.873 540.633 493.94 540.093 494.006 539.6C494.033 539.413 494 539.293 493.906 539.24C493.826 539.187 493.753 539.247 493.686 539.42C493.513 539.873 493.326 540.367 493.126 540.9C492.926 541.433 492.74 541.9 492.566 542.3C492.286 542.967 491.96 543.68 491.586 544.44C491.226 545.2 490.833 545.92 490.406 546.6C489.98 547.267 489.533 547.813 489.066 548.24C488.6 548.667 488.133 548.88 487.666 548.88ZM505.255 548.88C504.922 548.88 504.635 548.76 504.395 548.52C504.169 548.28 504.055 547.933 504.055 547.48C504.055 547.28 504.082 546.953 504.135 546.5C504.202 546.033 504.282 545.5 504.375 544.9C504.482 544.3 504.582 543.673 504.675 543.02C504.782 542.367 504.869 541.747 504.935 541.16C505.015 540.573 505.069 540.073 505.095 539.66C505.122 539.153 505.255 538.793 505.495 538.58C505.735 538.353 506.022 538.24 506.355 538.24C506.622 538.24 506.862 538.307 507.075 538.44C507.302 538.56 507.442 538.82 507.495 539.22C507.562 539.607 507.569 540.167 507.515 540.9C508.102 539.833 508.695 538.88 509.295 538.04C509.909 537.2 510.549 536.533 511.215 536.04C512.322 535.2 513.322 534.78 514.215 534.78C514.722 534.78 515.055 534.893 515.215 535.12C515.375 535.347 515.455 535.58 515.455 535.82C515.455 535.98 515.415 536.127 515.335 536.26C515.269 536.393 515.122 536.533 514.895 536.68C514.669 536.827 514.322 537.02 513.855 537.26C513.229 537.58 512.609 538 511.995 538.52C511.395 539.04 510.795 539.707 510.195 540.52C509.595 541.333 508.989 542.333 508.375 543.52C507.762 544.707 507.129 546.12 506.475 547.76C506.355 548.213 506.182 548.513 505.955 548.66C505.742 548.807 505.509 548.88 505.255 548.88ZM514.794 548.76C514.368 548.76 513.981 548.64 513.634 548.4C513.288 548.173 513.014 547.873 512.814 547.5C512.614 547.113 512.514 546.7 512.514 546.26C512.514 545.433 512.694 544.627 513.054 543.84C513.428 543.053 513.914 542.307 514.514 541.6C515.114 540.893 515.768 540.247 516.474 539.66C517.194 539.06 517.908 538.547 518.614 538.12C519.334 537.693 519.988 537.36 520.574 537.12C521.174 536.88 521.641 536.76 521.974 536.76C522.361 536.76 522.674 536.847 522.914 537.02C523.168 537.18 523.294 537.433 523.294 537.78C523.294 537.887 523.268 537.973 523.214 538.04C523.388 538.08 523.528 538.18 523.634 538.34C523.741 538.5 523.794 538.74 523.794 539.06C523.794 539.193 523.761 539.54 523.694 540.1C523.628 540.66 523.554 541.34 523.474 542.14C523.408 542.94 523.374 543.773 523.374 544.64C523.374 544.773 523.394 544.893 523.434 545C523.474 545.093 523.561 545.14 523.694 545.14C524.228 545.14 524.768 545.033 525.314 544.82C525.874 544.593 526.414 544.32 526.934 544C527.468 543.667 527.948 543.34 528.374 543.02C528.814 542.687 529.181 542.413 529.474 542.2C529.781 541.973 529.981 541.86 530.074 541.86C530.528 541.86 530.754 542.087 530.754 542.54C530.754 542.66 530.608 542.913 530.314 543.3C530.034 543.673 529.648 544.107 529.154 544.6C528.661 545.08 528.108 545.56 527.494 546.04C526.894 546.507 526.268 546.893 525.614 547.2C524.974 547.507 524.354 547.66 523.754 547.66C523.021 547.66 522.461 547.487 522.074 547.14C521.701 546.793 521.434 546.327 521.274 545.74C521.128 545.14 521.048 544.467 521.034 543.72C520.354 544.693 519.648 545.56 518.914 546.32C518.194 547.067 517.481 547.66 516.774 548.1C516.068 548.54 515.408 548.76 514.794 548.76ZM521.874 538.74C520.568 539.367 519.394 540.087 518.354 540.9C517.314 541.7 516.488 542.54 515.874 543.42C515.274 544.3 514.974 545.147 514.974 545.96C514.974 546.187 515.081 546.3 515.294 546.3C515.548 546.3 515.881 546.153 516.294 545.86C516.721 545.567 517.181 545.18 517.674 544.7C518.168 544.207 518.661 543.66 519.154 543.06C519.648 542.447 520.108 541.82 520.534 541.18C520.961 540.54 521.301 539.927 521.554 539.34C521.648 539.127 521.754 538.927 521.874 538.74ZM529.529 554.42C529.156 554.42 528.863 554.287 528.649 554.02C528.449 553.767 528.349 553.373 528.349 552.84C528.349 552.107 528.416 551.233 528.549 550.22C528.683 549.207 528.863 548.133 529.089 547C529.316 545.867 529.563 544.753 529.829 543.66C530.149 542.407 530.463 541.267 530.769 540.24C531.089 539.213 531.409 538.393 531.729 537.78C532.063 537.153 532.396 536.84 532.729 536.84C533.036 536.84 533.303 536.953 533.529 537.18C533.769 537.393 533.889 537.713 533.889 538.14C533.889 538.447 533.809 538.887 533.649 539.46C533.489 540.02 533.289 540.72 533.049 541.56C533.503 540.813 533.969 540.08 534.449 539.36C534.943 538.64 535.443 537.987 535.949 537.4C536.456 536.813 536.949 536.347 537.429 536C537.909 535.653 538.363 535.48 538.789 535.48C539.296 535.48 539.743 535.627 540.129 535.92C540.529 536.213 540.843 536.613 541.069 537.12C541.296 537.627 541.409 538.2 541.409 538.84C541.409 540.027 541.196 541.18 540.769 542.3C540.343 543.407 539.749 544.4 538.989 545.28C538.243 546.16 537.369 546.86 536.369 547.38C535.369 547.887 534.289 548.14 533.129 548.14C532.796 548.14 532.489 548.107 532.209 548.04C531.943 547.987 531.696 547.92 531.469 547.84C531.309 548.693 531.156 549.567 531.009 550.46C530.876 551.367 530.736 552.32 530.589 553.32C530.429 554.053 530.076 554.42 529.529 554.42ZM538.989 537.84C538.696 537.84 538.323 538.04 537.869 538.44C537.429 538.84 536.949 539.367 536.429 540.02C535.909 540.66 535.383 541.36 534.849 542.12C534.329 542.867 533.829 543.6 533.349 544.32C532.883 545.04 532.483 545.667 532.149 546.2C533.163 546.093 534.056 545.827 534.829 545.4C535.603 544.96 536.263 544.427 536.809 543.8C537.356 543.173 537.796 542.513 538.129 541.82C538.476 541.113 538.729 540.427 538.889 539.76C539.049 539.093 539.129 538.513 539.129 538.02C539.129 537.9 539.083 537.84 538.989 537.84ZM545.756 541.3C545.236 541.3 544.809 541.2 544.476 541C544.156 540.8 543.996 540.467 543.996 540C543.996 539.867 544.189 539.7 544.576 539.5C544.962 539.287 545.489 539.08 546.156 538.88C546.836 538.667 547.616 538.493 548.496 538.36C549.376 538.213 550.302 538.14 551.276 538.14C552.089 538.14 552.649 538.24 552.956 538.44C553.276 538.64 553.436 538.973 553.436 539.44C553.436 539.627 553.222 539.827 552.796 540.04C552.369 540.253 551.789 540.46 551.056 540.66C550.322 540.847 549.496 541 548.576 541.12C547.669 541.24 546.729 541.3 545.756 541.3ZM563.513 548.9C563.206 548.9 562.926 548.773 562.673 548.52C562.433 548.28 562.313 547.873 562.313 547.3C562.313 546.873 562.346 546.28 562.413 545.52C562.493 544.747 562.639 543.753 562.853 542.54C562.386 543.5 561.899 544.353 561.393 545.1C560.886 545.847 560.386 546.433 559.893 546.86C559.413 547.273 558.953 547.48 558.513 547.48C557.806 547.48 557.246 547.267 556.833 546.84C556.419 546.4 556.213 545.58 556.213 544.38C556.213 543.807 556.259 543.16 556.353 542.44C556.459 541.72 556.593 541 556.753 540.28C556.913 539.56 557.073 538.92 557.233 538.36C557.406 537.787 557.559 537.36 557.693 537.08C557.799 536.84 557.933 536.653 558.093 536.52C558.266 536.387 558.486 536.32 558.753 536.32C559.179 536.32 559.506 536.46 559.733 536.74C559.959 537.02 560.073 537.307 560.073 537.6C560.073 537.827 560.019 538.153 559.913 538.58C559.819 539.007 559.699 539.48 559.553 540C559.419 540.52 559.279 541.053 559.133 541.6C558.986 542.147 558.859 542.66 558.753 543.14C558.659 543.62 558.613 544.027 558.613 544.36C558.613 544.773 558.773 544.98 559.093 544.98C559.279 544.98 559.519 544.8 559.813 544.44C560.119 544.08 560.439 543.6 560.773 543C561.119 542.387 561.466 541.72 561.813 541C562.173 540.267 562.499 539.527 562.793 538.78C563.099 538.02 563.359 537.32 563.573 536.68C563.706 536.28 563.886 536 564.113 535.84C564.339 535.68 564.599 535.6 564.893 535.6C565.346 535.6 565.693 535.727 565.933 535.98C566.186 536.233 566.313 536.593 566.313 537.06C566.313 537.273 566.279 537.633 566.213 538.14C566.146 538.647 566.059 539.24 565.953 539.92C565.859 540.6 565.746 541.32 565.613 542.08C565.479 542.84 565.346 543.587 565.213 544.32C565.093 545.053 564.973 545.727 564.853 546.34C564.733 546.94 564.633 547.42 564.553 547.78C564.419 548.313 564.259 548.633 564.073 548.74C563.886 548.847 563.699 548.9 563.513 548.9ZM569.041 554.42C568.668 554.42 568.374 554.287 568.161 554.02C567.961 553.767 567.861 553.373 567.861 552.84C567.861 552.107 567.928 551.233 568.061 550.22C568.194 549.207 568.374 548.133 568.601 547C568.828 545.867 569.074 544.753 569.341 543.66C569.661 542.407 569.974 541.267 570.281 540.24C570.601 539.213 570.921 538.393 571.241 537.78C571.574 537.153 571.908 536.84 572.241 536.84C572.548 536.84 572.814 536.953 573.041 537.18C573.281 537.393 573.401 537.713 573.401 538.14C573.401 538.447 573.321 538.887 573.161 539.46C573.001 540.02 572.801 540.72 572.561 541.56C573.014 540.813 573.481 540.08 573.961 539.36C574.454 538.64 574.954 537.987 575.461 537.4C575.968 536.813 576.461 536.347 576.941 536C577.421 535.653 577.874 535.48 578.301 535.48C578.808 535.48 579.254 535.627 579.641 535.92C580.041 536.213 580.354 536.613 580.581 537.12C580.808 537.627 580.921 538.2 580.921 538.84C580.921 540.027 580.708 541.18 580.281 542.3C579.854 543.407 579.261 544.4 578.501 545.28C577.754 546.16 576.881 546.86 575.881 547.38C574.881 547.887 573.801 548.14 572.641 548.14C572.308 548.14 572.001 548.107 571.721 548.04C571.454 547.987 571.208 547.92 570.981 547.84C570.821 548.693 570.668 549.567 570.521 550.46C570.388 551.367 570.248 552.32 570.101 553.32C569.941 554.053 569.588 554.42 569.041 554.42ZM578.501 537.84C578.208 537.84 577.834 538.04 577.381 538.44C576.941 538.84 576.461 539.367 575.941 540.02C575.421 540.66 574.894 541.36 574.361 542.12C573.841 542.867 573.341 543.6 572.861 544.32C572.394 545.04 571.994 545.667 571.661 546.2C572.674 546.093 573.568 545.827 574.341 545.4C575.114 544.96 575.774 544.427 576.321 543.8C576.868 543.173 577.308 542.513 577.641 541.82C577.988 541.113 578.241 540.427 578.401 539.76C578.561 539.093 578.641 538.513 578.641 538.02C578.641 537.9 578.594 537.84 578.501 537.84Z" fill="#1C1BE2"/>
<path d="M440.253 468.687C441.525 468.71 442.518 468.678 443.522 468.734C446.234 468.669 464.012 467.275 466.658 466.674C469.738 465.928 472.283 464.524 474.048 461.947C474.283 461.646 474.328 461.278 474.473 460.988C474.976 459.928 475.579 459.672 476.549 460.186C477.14 460.565 477.732 460.945 478.345 461.504C479.917 463.212 480.385 465.511 480.026 467.732C479.373 475.61 472.709 478.161 466.013 478.994C462.353 479.449 450.043 480.344 446.316 480.264C442.321 480.216 438.393 479.979 434.453 480.378C432.935 480.567 432.099 479.674 431.843 478.346C431.232 474.16 431.726 470.11 433.503 466.172C434.554 463.684 436.53 462.078 438.595 460.461L441.063 458.432C441.476 458.109 441.889 457.785 442.302 457.462C448.89 452.835 461.518 442.834 465.496 435.449C467.049 432.626 468.852 423.064 463.07 423.964C457.736 424.808 453.581 430.039 453.142 435.262C452.996 436.277 453.219 437.338 453.441 438.398C453.675 439.547 454.154 440.485 455.314 441.066C455.504 441.133 455.705 441.29 455.816 441.457C455.77 444.001 453.469 446.645 451.471 447.346C446.08 449.195 443.125 445.12 443.125 445.12C442.623 445.455 442.109 445.7 441.484 445.777C439.431 446.033 437.245 444.491 436.766 442.828C433.381 431.644 445.554 417.982 456.726 415.958C460.364 415.325 464.103 415.494 467.606 416.691C472.337 418.279 475.894 421.372 477.498 426.25C478.69 430 478.352 433.85 477 437.554C471.04 454.524 453.875 457.927 441.313 467.739C440.979 467.962 440.744 468.263 440.253 468.687ZM480.551 452.526C479.508 443.408 481.545 434.995 486.025 427.275C490.103 419.969 497.44 412.619 506.067 411.275C513.556 410.253 519.602 413.672 523.012 420.682C524.951 424.612 525.83 428.764 526.005 433.094C526.303 439.131 525.205 444.889 522.869 450.166C520.198 456.391 515.371 464.97 509.387 468.615C508.45 469.094 507.646 469.919 506.898 470.466C504.709 471.826 502.477 472.828 500.066 473.128C495.513 473.694 491.285 471.772 488.073 468.545C483.456 464.223 481.317 458.686 480.551 452.526ZM514.942 422.864C514.329 421.581 513.973 420.174 513.17 418.823C512.457 417.461 510.962 417.103 509.421 417.839C507.089 418.764 503.805 422.98 502.598 424.943C496.286 435.429 492.651 447.032 492.554 459.375C492.53 461.372 492.953 463.314 493.655 465.312C494.401 467.667 495.538 468.795 497.145 468.595C500.092 468.229 503.119 464.136 504.66 461.949C508.034 456.997 510.057 451.396 512.17 445.784C514.496 439.693 515.63 429.125 514.942 422.864ZM530.332 457.489C531.604 457.512 532.597 457.479 533.601 457.535C536.313 457.47 554.091 456.076 556.736 455.475C559.817 454.73 562.362 453.325 564.127 450.749C564.362 450.447 564.407 450.079 564.552 449.789C565.055 448.729 565.658 448.473 566.628 448.987C567.219 449.367 567.811 449.747 568.424 450.305C569.996 452.014 570.463 454.313 570.105 456.533C569.452 464.411 562.788 466.962 556.092 467.795C552.431 468.25 540.122 469.146 536.395 469.065C532.4 469.018 528.472 468.781 524.532 469.18C523.014 469.369 522.178 468.475 521.922 467.147C521.311 462.962 521.805 458.911 523.582 454.973C524.632 452.485 526.609 450.88 528.674 449.263L531.142 447.234C531.555 446.91 531.968 446.587 532.381 446.263C538.969 441.637 551.597 431.635 555.574 424.25C557.128 421.428 558.931 411.865 553.149 412.765C547.815 413.61 543.66 418.841 543.221 424.063C543.075 425.079 543.298 426.139 543.52 427.199C543.754 428.349 544.233 429.287 545.393 429.868C545.583 429.935 545.784 430.091 545.895 430.259C545.849 432.803 543.548 435.446 541.55 436.148C536.159 437.997 533.204 433.922 533.204 433.922C532.702 434.256 532.188 434.501 531.563 434.579C529.51 434.834 527.324 433.293 526.845 431.63C523.46 420.445 535.633 406.783 546.805 404.76C550.443 404.126 554.182 404.296 557.685 405.492C562.416 407.08 565.973 410.174 567.577 415.052C568.769 418.802 568.431 422.652 567.079 426.356C561.119 443.325 543.953 446.729 531.392 456.541C531.057 456.764 530.823 457.065 530.332 457.489ZM580.153 435.519C580.889 435.609 581.436 435.632 582.161 435.632C584.516 435.612 590.153 434.276 592.497 433.441C593.099 433.185 593.334 432.883 593.524 432.225C596.465 423.065 599.507 413.983 602.37 404.924C602.705 403.975 602.873 403.138 603.119 402.201L603.701 399.59C603.88 398.843 604.193 398.441 604.985 398.252C606.213 397.918 607.485 397.941 608.791 398.232C611.112 398.669 612.997 399.976 614.882 401.283C615.484 401.752 615.651 402.366 615.483 403.203C615.349 403.582 615.382 403.85 615.17 404.33C608.184 421.064 602.177 442.029 598.974 460.016C598.604 462.147 597.711 462.984 595.423 462.815C593.693 462.758 592.009 462.333 590.458 461.528C588.416 460.422 587.369 458.557 587.627 456.259C587.841 453.603 588.501 450.892 588.983 448.203C589.128 447.187 589.531 446.049 589.811 444.654C588.326 445.111 587.009 445.456 585.703 445.89C573.795 447.824 569.589 446.08 568.189 437.007C567.722 433.982 579.9 412.341 583.733 405.246C584.314 404.086 584.817 403.026 585.487 401.855C585.923 400.984 586.771 400.516 587.765 400.484C591.023 400.441 593.711 402.373 595.573 404.953C596.354 406.125 596.297 407.129 595.538 408.312C590.712 415.439 583.305 428.056 580.622 434.192C580.488 434.571 580.354 434.95 580.153 435.519Z" fill="black"/>
<path d="M930.625 187H905.375C902.959 187 901 188.343 901 190C901 191.657 902.959 193 905.375 193H930.625C933.041 193 935 191.657 935 190C935 188.343 933.041 187 930.625 187Z" fill="#0029FF"/>
<path d="M921 177.247C921 174.901 919.657 173 918 173C916.343 173 915 174.901 915 177.247V201.753C915 204.099 916.343 206 918 206C919.657 206 921 204.099 921 201.753V177.247Z" fill="#0029FF"/>
<path d="M118.625 58H93.3753C90.9589 58 89 59.3431 89 61C89 62.6569 90.9589 64 93.3753 64H118.625C121.041 64 123 62.6569 123 61C123 59.3431 121.041 58 118.625 58Z" fill="#0029FF"/>
<path d="M109 48.2466C109 45.9013 107.657 44 106 44C104.343 44 103 45.9013 103 48.2466V72.7534C103 75.0987 104.343 77 106 77C107.657 77 109 75.0987 109 72.7534V48.2466Z" fill="#0029FF"/>
</g>
<defs>
<filter id="filter0_d_143_1615" x="300.875" y="191.091" width="633.228" height="254.076" filterUnits="userSpaceOnUse" color-interpolation-filters="sRGB">
<feFlood flood-opacity="0" result="BackgroundImageFix"/>
<feColorMatrix in="SourceAlpha" type="matrix" values="0 0 0 0 0 0 0 0 0 0 0 0 0 0 0 0 0 0 127 0" result="hardAlpha"/>
<feOffset dx="10" dy="21"/>
<feGaussianBlur stdDeviation="9.7"/>
<feComposite in2="hardAlpha" operator="out"/>
<feColorMatrix type="matrix" values="0 0 0 0 0 0 0 0 0 0 0 0 0 0 0 0 0 0 0.17 0"/>
<feBlend mode="normal" in2="BackgroundImageFix" result="effect1_dropShadow_143_1615"/>
<feBlend mode="normal" in="SourceGraphic" in2="effect1_dropShadow_143_1615" result="shape"/>
</filter>
<filter id="filter1_d_143_1615" x="88.9035" y="60.9995" width="416.691" height="221.027" filterUnits="userSpaceOnUse" color-interpolation-filters="sRGB">
<feFlood flood-opacity="0" result="BackgroundImageFix"/>
<feColorMatrix in="SourceAlpha" type="matrix" values="0 0 0 0 0 0 0 0 0 0 0 0 0 0 0 0 0 0 127 0" result="hardAlpha"/>
<feOffset dy="8"/>
<feGaussianBlur stdDeviation="2"/>
<feComposite in2="hardAlpha" operator="out"/>
<feColorMatrix type="matrix" values="0 0 0 0 0 0 0 0 0 0 0 0 0 0 0 0 0 0 0.25 0"/>
<feBlend mode="normal" in2="BackgroundImageFix" result="effect1_dropShadow_143_1615"/>
<feBlend mode="normal" in="SourceGraphic" in2="effect1_dropShadow_143_1615" result="shape"/>
</filter>
<linearGradient id="paint0_linear_143_1615" x1="949" y1="300" x2="950" y2="300" gradientUnits="userSpaceOnUse">
<stop stop-color="white" stop-opacity="0"/>
<stop offset="0.405"/>
<stop offset="1" stop-color="white" stop-opacity="0"/>
</linearGradient>
<linearGradient id="paint1_linear_143_1615" x1="889" y1="300" x2="890" y2="300" gradientUnits="userSpaceOnUse">
<stop stop-color="white" stop-opacity="0"/>
<stop offset="0.405"/>
<stop offset="1" stop-color="white" stop-opacity="0"/>
</linearGradient>
<linearGradient id="paint2_linear_143_1615" x1="829" y1="300" x2="830" y2="300" gradientUnits="userSpaceOnUse">
<stop stop-color="white" stop-opacity="0"/>
<stop offset="0.405"/>
<stop offset="1" stop-color="white" stop-opacity="0"/>
</linearGradient>
<linearGradient id="paint3_linear_143_1615" x1="769" y1="300" x2="770" y2="300" gradientUnits="userSpaceOnUse">
<stop stop-color="white" stop-opacity="0"/>
<stop offset="0.405"/>
<stop offset="1" stop-color="white" stop-opacity="0"/>
</linearGradient>
<linearGradient id="paint4_linear_143_1615" x1="709" y1="300" x2="710" y2="300" gradientUnits="userSpaceOnUse">
<stop stop-color="white" stop-opacity="0"/>
<stop offset="0.405"/>
<stop offset="1" stop-color="white" stop-opacity="0"/>
</linearGradient>
<linearGradient id="paint5_linear_143_1615" x1="649" y1="300" x2="650" y2="300" gradientUnits="userSpaceOnUse">
<stop stop-color="white" stop-opacity="0"/>
<stop offset="0.405"/>
<stop offset="1" stop-color="white" stop-opacity="0"/>
</linearGradient>
<linearGradient id="paint6_linear_143_1615" x1="589" y1="300" x2="590" y2="300" gradientUnits="userSpaceOnUse">
<stop stop-color="white" stop-opacity="0"/>
<stop offset="0.405"/>
<stop offset="1" stop-color="white" stop-opacity="0"/>
</linearGradient>
<linearGradient id="paint7_linear_143_1615" x1="529" y1="300" x2="530" y2="300" gradientUnits="userSpaceOnUse">
<stop stop-color="white" stop-opacity="0"/>
<stop offset="0.405"/>
<stop offset="1" stop-color="white" stop-opacity="0"/>
</linearGradient>
<linearGradient id="paint8_linear_143_1615" x1="469" y1="300" x2="470" y2="300" gradientUnits="userSpaceOnUse">
<stop stop-color="white" stop-opacity="0"/>
<stop offset="0.405"/>
<stop offset="1" stop-color="white" stop-opacity="0"/>
</linearGradient>
<linearGradient id="paint9_linear_143_1615" x1="409" y1="300" x2="410" y2="300" gradientUnits="userSpaceOnUse">
<stop stop-color="white" stop-opacity="0"/>
<stop offset="0.405"/>
<stop offset="1" stop-color="white" stop-opacity="0"/>
</linearGradient>
<linearGradient id="paint10_linear_143_1615" x1="349" y1="300" x2="350" y2="300" gradientUnits="userSpaceOnUse">
<stop stop-color="white" stop-opacity="0"/>
<stop offset="0.405"/>
<stop offset="1" stop-color="white" stop-opacity="0"/>
</linearGradient>
<linearGradient id="paint11_linear_143_1615" x1="289" y1="300" x2="290" y2="300" gradientUnits="userSpaceOnUse">
<stop stop-color="white" stop-opacity="0"/>
<stop offset="0.405"/>
<stop offset="1" stop-color="white" stop-opacity="0"/>
</linearGradient>
<linearGradient id="paint12_linear_143_1615" x1="229" y1="300" x2="230" y2="300" gradientUnits="userSpaceOnUse">
<stop stop-color="white" stop-opacity="0"/>
<stop offset="0.405"/>
<stop offset="1" stop-color="white" stop-opacity="0"/>
</linearGradient>
<linearGradient id="paint13_linear_143_1615" x1="169" y1="300" x2="170" y2="300" gradientUnits="userSpaceOnUse">
<stop stop-color="white" stop-opacity="0"/>
<stop offset="0.405"/>
<stop offset="1" stop-color="white" stop-opacity="0"/>
</linearGradient>
<linearGradient id="paint14_linear_143_1615" x1="109" y1="300" x2="110" y2="300" gradientUnits="userSpaceOnUse">
<stop stop-color="white" stop-opacity="0"/>
<stop offset="0.405"/>
<stop offset="1" stop-color="white" stop-opacity="0"/>
</linearGradient>
<linearGradient id="paint15_linear_143_1615" x1="49" y1="300" x2="50" y2="300" gradientUnits="userSpaceOnUse">
<stop stop-color="white" stop-opacity="0"/>
<stop offset="0.405"/>
<stop offset="1" stop-color="white" stop-opacity="0"/>
</linearGradient>
<linearGradient id="paint16_linear_143_1615" x1="500" y1="30" x2="500" y2="31" gradientUnits="userSpaceOnUse">
<stop stop-color="white" stop-opacity="0"/>
<stop offset="0.5"/>
<stop offset="1" stop-color="white" stop-opacity="0"/>
</linearGradient>
<linearGradient id="paint17_linear_143_1615" x1="500" y1="90" x2="500" y2="91" gradientUnits="userSpaceOnUse">
<stop stop-color="white" stop-opacity="0"/>
<stop offset="0.5"/>
<stop offset="1" stop-color="white" stop-opacity="0"/>
</linearGradient>
<linearGradient id="paint18_linear_143_1615" x1="500" y1="150" x2="500" y2="151" gradientUnits="userSpaceOnUse">
<stop stop-color="white" stop-opacity="0"/>
<stop offset="0.5"/>
<stop offset="1" stop-color="white" stop-opacity="0"/>
</linearGradient>
<linearGradient id="paint19_linear_143_1615" x1="500" y1="210" x2="500" y2="211" gradientUnits="userSpaceOnUse">
<stop stop-color="white" stop-opacity="0"/>
<stop offset="0.5"/>
<stop offset="1" stop-color="white" stop-opacity="0"/>
</linearGradient>
<linearGradient id="paint20_linear_143_1615" x1="500" y1="270" x2="500" y2="271" gradientUnits="userSpaceOnUse">
<stop stop-color="white" stop-opacity="0"/>
<stop offset="0.5"/>
<stop offset="1" stop-color="white" stop-opacity="0"/>
</linearGradient>
<linearGradient id="paint21_linear_143_1615" x1="500" y1="330" x2="500" y2="331" gradientUnits="userSpaceOnUse">
<stop stop-color="white" stop-opacity="0"/>
<stop offset="0.5"/>
<stop offset="1" stop-color="white" stop-opacity="0"/>
</linearGradient>
<linearGradient id="paint22_linear_143_1615" x1="500" y1="390" x2="500" y2="391" gradientUnits="userSpaceOnUse">
<stop stop-color="white" stop-opacity="0"/>
<stop offset="0.5"/>
<stop offset="1" stop-color="white" stop-opacity="0"/>
</linearGradient>
<linearGradient id="paint23_linear_143_1615" x1="500" y1="450" x2="500" y2="451" gradientUnits="userSpaceOnUse">
<stop stop-color="white" stop-opacity="0"/>
<stop offset="0.5"/>
<stop offset="1" stop-color="white" stop-opacity="0"/>
</linearGradient>
<linearGradient id="paint24_linear_143_1615" x1="500" y1="510" x2="500" y2="511" gradientUnits="userSpaceOnUse">
<stop stop-color="white" stop-opacity="0"/>
<stop offset="0.5"/>
<stop offset="1" stop-color="white" stop-opacity="0"/>
</linearGradient>
<linearGradient id="paint25_linear_143_1615" x1="500" y1="570" x2="500" y2="571" gradientUnits="userSpaceOnUse">
<stop stop-color="white" stop-opacity="0"/>
<stop offset="0.5"/>
<stop offset="1" stop-color="white" stop-opacity="0"/>
</linearGradient>
<clipPath id="clip0_143_1615">
<rect width="1000" height="600" fill="white"/>
</clipPath>
</defs>
</svg>
