<svg width="1000" height="1000" viewBox="0 0 1000 1000" fill="none" xmlns="http://www.w3.org/2000/svg">
<g clip-path="url(#clip0_168_5824)">
<rect width="1000" height="1000" fill="#FFFCF0"/>
<g opacity="0.66">
<path d="M950 1040L950 -40.0002" stroke="url(#paint0_linear_168_5824)" stroke-width="3"/>
<path d="M890 1040L890 -40.0002" stroke="url(#paint1_linear_168_5824)" stroke-width="3"/>
<path d="M830 1040L830 -40.0002" stroke="url(#paint2_linear_168_5824)" stroke-width="3"/>
<path d="M770 1040L770 -40.0002" stroke="url(#paint3_linear_168_5824)" stroke-width="3"/>
<path d="M710 1040L710 -40.0002" stroke="url(#paint4_linear_168_5824)" stroke-width="3"/>
<path d="M650 1040L650 -40.0002" stroke="url(#paint5_linear_168_5824)" stroke-width="3"/>
<path d="M590 1040L590 -40.0002" stroke="url(#paint6_linear_168_5824)" stroke-width="3"/>
<path d="M530 1040L530 -40.0002" stroke="url(#paint7_linear_168_5824)" stroke-width="3"/>
<path d="M470 1040L470 -40.0002" stroke="url(#paint8_linear_168_5824)" stroke-width="3"/>
<path d="M410 1040L410 -40.0002" stroke="url(#paint9_linear_168_5824)" stroke-width="3"/>
<path d="M350 1040L350 -40.0002" stroke="url(#paint10_linear_168_5824)" stroke-width="3"/>
<path d="M290 1040L290 -40.0002" stroke="url(#paint11_linear_168_5824)" stroke-width="3"/>
<path d="M230 1040L230 -40.0002" stroke="url(#paint12_linear_168_5824)" stroke-width="3"/>
<path d="M170 1040L170 -40.0002" stroke="url(#paint13_linear_168_5824)" stroke-width="3"/>
<path d="M110 1040L110 -40.0002" stroke="url(#paint14_linear_168_5824)" stroke-width="3"/>
<path d="M50 1040L49.9999 -40.0002" stroke="url(#paint15_linear_168_5824)" stroke-width="3"/>
</g>
<g opacity="0.66">
<path d="M1040 30L-40 30" stroke="url(#paint16_linear_168_5824)" stroke-width="3"/>
<path d="M1040 90L-40 90" stroke="url(#paint17_linear_168_5824)" stroke-width="3"/>
<path d="M1040 150L-40 150" stroke="url(#paint18_linear_168_5824)" stroke-width="3"/>
<path d="M1040 210L-40 210" stroke="url(#paint19_linear_168_5824)" stroke-width="3"/>
<path d="M1040 270L-40 270" stroke="url(#paint20_linear_168_5824)" stroke-width="3"/>
<path d="M1040 330L-40 330" stroke="url(#paint21_linear_168_5824)" stroke-width="3"/>
<path d="M1040 390L-40 390" stroke="url(#paint22_linear_168_5824)" stroke-width="3"/>
<path d="M1040 450L-40 450" stroke="url(#paint23_linear_168_5824)" stroke-width="3"/>
<path d="M1040 510L-40 510" stroke="url(#paint24_linear_168_5824)" stroke-width="3"/>
<path d="M1040 570L-40 570" stroke="url(#paint25_linear_168_5824)" stroke-width="3"/>
<path d="M1040 630L-40 630" stroke="url(#paint26_linear_168_5824)" stroke-width="3"/>
<path d="M1040 690L-40 690" stroke="url(#paint27_linear_168_5824)" stroke-width="3"/>
<path d="M1040 750L-40 750" stroke="url(#paint28_linear_168_5824)" stroke-width="3"/>
<path d="M1040 810L-40 810" stroke="url(#paint29_linear_168_5824)" stroke-width="3"/>
<path d="M1040 870L-40 870" stroke="url(#paint30_linear_168_5824)" stroke-width="3"/>
<path d="M1040 930L-40 930" stroke="url(#paint31_linear_168_5824)" stroke-width="3"/>
<path d="M1040 990L-40 990" stroke="url(#paint32_linear_168_5824)" stroke-width="3"/>
</g>
<path d="M211 808.5H209.5V810L209.5 928.5H91.5L91.5 810.5L148 810.5H149.5V809L149.5 751.5H267.5V808.5L211 808.5Z" fill="#1C1BE2" stroke="black" stroke-width="3"/>
<path d="M448.5 810.5V928.5L270.5 928.5L270.5 810.5L448.5 810.5Z" fill="#1C1BE2" stroke="black" stroke-width="3"/>
<path d="M871.5 809L871.5 750.5L988.5 750.5V928.5L691.5 928.5L691.5 810.5L870 810.5H871.5V809Z" fill="#1C1BE2" stroke="black" stroke-width="3"/>
<path d="M187.813 789.416C189.785 789.416 191.435 788.691 191.435 787.564C191.435 784.183 176.098 788.973 176.098 779.916C176.098 775.005 180.647 771.865 187.853 771.865C194.656 771.865 197.916 774.683 199.285 778.346L192.12 779.916C191.677 778.587 189.866 777.299 187.128 777.299C184.995 777.299 183.264 778.064 183.264 779.231C183.264 782.734 199.044 777.621 199.044 786.799C199.044 791.791 194.374 794.85 187.209 794.85C180.365 794.85 177.105 792.032 175.736 788.369L182.861 786.799C183.344 788.128 185.196 789.416 187.813 789.416ZM214.634 785.551V785.109C213.105 786.316 206.463 785.27 206.463 787.926C206.463 789.054 207.67 789.698 209.361 789.698C212.38 789.698 214.634 787.604 214.634 785.551ZM214.675 790.664V789.899C213.306 792.918 209.884 794.81 206.141 794.81C201.994 794.81 198.935 792.717 198.935 788.731C198.935 779.553 214.715 783.498 214.715 780.52V780.077C214.715 778.628 213.024 777.46 210.649 777.46C208.556 777.46 206.865 778.426 206.503 779.916H200.062C200.384 775.085 204.893 771.905 211.213 771.905C217.452 771.905 222.122 775.246 222.122 779.714V787.967C222.122 788.45 222.323 788.651 222.806 788.651H223.933V794.246H218.217C215.842 794.246 214.675 793.079 214.675 790.664ZM226.724 789.416V778.225H222.698V772.509H226.724V766.068H234.211V772.509H239.243V778.225H234.211V786.477C234.211 787.363 234.694 787.806 235.58 787.806H239.243V794.246H231.554C228.334 794.246 226.724 792.636 226.724 789.416Z" fill="white"/>
<path d="M137.446 872.786C125.057 872.786 119.616 863.682 119.616 853.393C119.616 843.105 124.949 834.001 137.446 834.001C149.944 834.001 155.223 843.105 155.223 853.393C155.223 863.682 149.836 872.786 137.446 872.786ZM137.392 864.49C142.187 864.49 144.449 859.211 144.449 853.339C144.449 847.468 142.241 842.297 137.392 842.297C132.544 842.297 130.39 847.414 130.39 853.339C130.39 859.265 132.598 864.49 137.392 864.49ZM171.231 872.247H160.942C160.942 859.75 165.521 851.023 171.823 843.805H154.693V834.54H182.381V843.859C174.463 852.1 171.231 861.204 171.231 872.247ZM130.422 905.247H120.229V882.304H130.389C138.419 882.304 142.418 885.745 142.418 893.677C142.418 901.609 137.6 905.247 130.422 905.247ZM126.784 886.958V900.56H130.389C133.634 900.56 135.699 898.233 135.699 893.71C135.699 889.154 133.831 886.958 130.389 886.958H126.784ZM143.492 905.247V882.304H162.371V886.991H150.047V891.022H160.765V895.545H150.047V900.56H162.371V905.247H143.492ZM174.09 900.953C176.679 900.953 178.416 899.479 178.941 897.446L184.775 898.725C183.529 903.346 179.432 905.935 173.729 905.935C167.305 905.935 161.963 902.625 161.996 893.743C161.996 884.893 167.272 881.616 173.729 881.616C179.399 881.616 183.496 884.139 184.742 888.794L178.908 890.072C178.351 888.04 176.646 886.598 174.057 886.598C171.304 886.598 168.682 888.236 168.682 893.743C168.682 899.249 171.304 900.953 174.09 900.953Z" fill="white"/>
<path d="M323.158 840.103C320.35 840.103 318.16 842.012 317.318 844.764L307.322 842.574C309.456 835.442 316.532 831.567 324.394 831.567C333.21 831.567 338.826 836.452 338.826 843.528C338.826 852.57 329.336 859.308 320.182 863.97H338.714V872H308.164V863.464C315.409 858.354 327.932 851.783 327.932 844.82C327.932 842.18 326.078 840.103 323.158 840.103ZM350.946 862.229V853.58H372.398V862.229H350.946ZM401.678 872H390.952C390.952 858.972 395.726 849.874 402.296 842.349H384.438V832.69H413.303V842.405C405.048 850.997 401.678 860.488 401.678 872ZM367.004 886.934V892.538H371.753C373.735 892.538 375.033 891.376 375.033 889.667C375.033 887.891 373.667 886.934 371.582 886.934H367.004ZM372.847 897.389H367.004V906H360.204V882.082H373.53C378.655 882.082 382.004 884.747 382.004 889.633C382.004 894.724 378.382 897.389 372.847 897.389ZM405.854 906V894.485L400.865 906H394.544L389.521 894.485V906H382.688V882.082H391.127L397.653 898.38H397.722L404.282 882.082H412.688V906H405.854Z" fill="white"/>
<path d="M712.663 869V831.293H743.745V838.996H723.437V845.621H741.105V853.055H723.437V869H712.663ZM757.057 869V851.331L742.782 831.293H755.118L762.498 843.359L769.77 831.293H782.106L767.831 851.385V869H757.057ZM782.87 869V831.293H793.374L807.488 853.594V831.293H818.207V869H807.488L793.644 847.076V869H782.87ZM838.12 869H821.367V831.293H838.066C851.263 831.293 857.835 836.949 857.835 849.985C857.835 863.021 849.917 869 838.12 869ZM832.14 838.942V861.297H838.066C843.399 861.297 846.792 857.472 846.792 850.039C846.792 842.551 843.722 838.942 838.066 838.942H832.14Z" fill="white"/>
<path d="M718.333 910L712.397 892.614H718.011L721.041 904.437H721.09L724.096 892.614H728.343L731.373 904.437H731.422L734.428 892.614H740.066L734.13 910H728.666L726.232 902.375L723.798 910H718.333ZM743.128 901.58H748.592C748.419 900.512 747.326 899.742 745.91 899.742C744.519 899.742 743.575 900.463 743.128 901.58ZM752.939 904.263H742.955C743.253 905.877 744.321 906.697 745.836 906.697C746.904 906.697 747.773 906.25 748.071 905.579H752.715C752.368 908.51 749.611 910.472 745.662 910.472C740.645 910.472 737.888 907.864 737.888 903.294C737.888 898.873 740.719 896.216 745.612 896.216C750.232 896.216 752.964 898.799 752.989 903.095C752.989 903.12 752.989 903.667 752.939 904.263ZM761.776 910H757.455L752.214 896.588H757.604L759.64 904.412L762.099 896.588H766.619L769.078 904.412L771.09 896.588H776.504L771.214 910H766.893L764.359 903.095L761.776 910ZM782.806 910.348C777.988 910.348 775.206 907.616 775.206 903.145C775.206 898.674 777.988 896.216 782.806 896.216C787.6 896.216 790.58 898.674 790.58 903.145C790.58 907.616 787.6 910.348 782.806 910.348ZM782.881 906.92C784.57 906.92 785.613 905.654 785.613 903.22C785.613 900.81 784.57 899.643 782.881 899.643C781.117 899.643 780.174 900.81 780.174 903.22C780.174 905.654 781.117 906.92 782.881 906.92ZM795.874 900.86V910H790.931V899.593C790.931 897.582 791.95 896.588 794.036 896.588H800.593V900.86H795.874ZM816.47 896.588L810.584 901.754C811.304 901.953 811.999 902.251 812.372 902.921L816.669 910H811.18L808.15 904.884C808.026 904.66 807.877 904.511 807.678 904.387L805.964 905.852V910H801.022V891.372H805.964V900.388L810.509 896.588H816.47ZM817.724 910H816.209V906.175H820.704V910C820.704 911.54 818.519 912.956 816.184 913.427V911.465C816.904 911.167 817.674 910.72 817.724 910ZM835.412 898.153L833.823 902.996H837.076L835.462 898.153H835.412ZM825.701 910L832.705 892.614H838.169L845.198 910H839.585L838.269 906.423H832.631L831.314 910H825.701ZM855.416 896.216C858.421 896.216 859.961 898.153 859.961 900.984V910H854.993V902.251C854.993 900.413 854.025 899.469 852.932 899.469C851.765 899.469 850.622 900.512 850.622 902.251V910H845.679V896.588H850.398L850.622 899.593C851.293 897.557 852.932 896.216 855.416 896.216ZM868.007 899.494C866.343 899.494 865.325 900.959 865.325 903.244C865.325 905.604 866.393 907.119 867.982 907.119C869.547 907.119 870.491 905.629 870.491 903.22C870.491 900.786 869.522 899.494 868.007 899.494ZM870.491 899.792V891.372H875.458V910H870.491V906.771C869.82 908.932 867.908 910.373 865.523 910.373C862.419 910.373 860.258 907.939 860.258 903.493C860.258 899.121 862.369 896.24 865.598 896.24C867.908 896.24 869.82 897.656 870.491 899.792ZM886.549 896.216C889.554 896.216 891.094 898.153 891.094 900.984V910H886.127V902.251C886.127 900.413 885.158 899.469 884.065 899.469C882.898 899.469 881.755 900.512 881.755 902.251V910H876.813V891.372H881.755V899.593C882.426 897.557 884.065 896.216 886.549 896.216ZM896.632 901.58H902.096C901.922 900.512 900.829 899.742 899.414 899.742C898.023 899.742 897.079 900.463 896.632 901.58ZM906.443 904.263H896.458C896.756 905.877 897.824 906.697 899.339 906.697C900.407 906.697 901.276 906.25 901.574 905.579H906.219C905.871 908.51 903.114 910.472 899.165 910.472C894.148 910.472 891.391 907.864 891.391 903.294C891.391 898.873 894.223 896.216 899.116 896.216C903.735 896.216 906.467 898.799 906.492 903.095C906.492 903.12 906.492 903.667 906.443 904.263ZM911.841 900.86V910H906.898V899.593C906.898 897.582 907.916 896.588 910.003 896.588H916.56V900.86H911.841ZM922.081 896.588V910H917.113V896.588H922.081ZM916.964 892.887C916.964 891.372 918.007 890.379 919.597 890.379C921.186 890.379 922.23 891.372 922.23 892.887C922.23 894.353 921.186 895.371 919.597 895.371C918.007 895.371 916.964 894.353 916.964 892.887Z" fill="white"/>
<g filter="url(#filter0_d_168_5824)">
<rect x="399.53" y="360" width="560" height="148" transform="rotate(4.07991 399.53 360)" fill="white" shape-rendering="crispEdges"/>
<rect x="401.846" y="362.672" width="555" height="143" transform="rotate(4.07991 401.846 362.672)" stroke="black" stroke-width="5" shape-rendering="crispEdges"/>
<path d="M498.694 417.746L455.156 414.64L453.881 432.515L488.609 434.992L487.398 451.973L452.67 449.496L450.357 481.925L428.397 480.359L434.407 396.093L499.905 400.765L498.694 417.746ZM545.141 403.991C555.185 404.708 562.803 407.647 567.996 412.808C573.28 417.89 575.642 424.346 575.084 432.177C574.47 440.774 571.237 447.131 565.382 451.247C559.528 455.364 551.579 457.064 541.535 456.347L539.41 457.351L522.685 456.158L520.49 486.928L498.913 485.389L504.923 401.123L545.141 403.991ZM539.372 441.692C543.628 441.996 546.881 441.373 549.13 439.822C551.379 438.271 552.638 435.624 552.905 431.878C553.166 428.218 552.293 425.461 550.287 423.607C548.28 421.753 545.149 420.674 540.893 420.371L525.317 419.26L523.796 440.581L539.372 441.692ZM551.94 447.209L575.901 490.88L551.643 489.15L532.697 450.712L551.94 447.209ZM655.884 496.585L633.285 494.973L628.769 475.531L599.914 473.472L592.557 492.068L570.469 490.493L606.1 408.339L632.401 410.215L655.884 496.585ZM605.066 458.826L625.749 460.301L617.839 425.474L605.066 458.826ZM761.578 419.429L755.568 503.695L736.161 502.311L738.92 463.625L741.407 437.753L741.152 437.735L715.733 500.854L697.986 499.588L681.783 433.5L681.528 433.482L680.317 459.445L677.558 498.131L658.023 496.738L664.034 412.472L695.315 414.703L705.533 458.549L708.982 476.761L709.237 476.779L715.355 459.378L731.574 417.289L761.578 419.429ZM766.568 504.48L772.578 420.214L838.204 424.895L836.992 441.876L793.327 438.761L792.107 455.87L826.835 458.347L825.696 474.306L790.969 471.829L789.739 489.066L835.064 492.298L833.853 509.279L766.568 504.48ZM881.212 427.963C894.405 428.904 904.231 433.283 910.688 441.101C917.231 448.925 920.022 459.561 919.063 473.01C918.104 486.458 913.831 496.591 906.244 503.407C898.742 510.229 888.395 513.17 875.202 512.229L839.453 509.679L845.463 425.413L881.212 427.963ZM874.215 495.476C881.365 495.986 886.709 494.228 890.247 490.203C893.876 486.099 895.991 479.834 896.592 471.407C897.193 462.981 895.986 456.521 892.97 452.028C890.045 447.457 885.008 444.916 877.858 444.406L866.239 443.577L862.597 494.647L874.215 495.476Z" fill="#1C1BE2"/>
<rect x="388.902" y="348.693" width="21" height="21" transform="rotate(4.07991 388.902 348.693)" fill="#A9DEF7" stroke="#DE2BAE" stroke-width="3"/>
<rect x="947.153" y="388.579" width="21" height="21" transform="rotate(4.07991 947.153 388.579)" fill="white" stroke="#1C1BE2" stroke-width="3"/>
<rect x="938.011" y="536.723" width="21" height="21" transform="rotate(4.07991 938.011 536.723)" fill="white" stroke="#1C1BE2" stroke-width="3"/>
<rect x="378.372" y="496.318" width="21" height="21" transform="rotate(4.07991 378.372 496.318)" fill="white" stroke="#1C1BE2" stroke-width="3"/>
</g>
<g filter="url(#filter1_d_168_5824)">
<rect x="171" y="265.614" width="371" height="148" transform="rotate(-5.50852 171 265.614)" fill="#1C1BE2" shape-rendering="crispEdges"/>
<rect x="173.728" y="267.862" width="366" height="143" transform="rotate(-5.50852 173.728 267.862)" stroke="black" stroke-width="5" shape-rendering="crispEdges"/>
<path d="M236.011 377.892L203.694 296.136L227.01 293.888L247.681 358.892L256.314 291.062L276.19 289.145L297.995 353.911L305.621 286.307L328.172 284.132L311.947 370.569L288.121 372.866L274.252 333.054L268.451 312.91L268.196 312.934L266.48 333.803L260.601 375.52L236.011 377.892ZM353.026 281.735L361.136 365.825L339.221 367.938L331.112 283.848L353.026 281.735ZM404.163 276.803C414.186 275.837 422.187 277.466 428.167 281.69C434.223 285.821 437.628 291.794 438.382 299.608C439.209 308.187 437.079 314.993 431.993 320.028C426.906 325.062 419.351 328.062 409.328 329.029L407.4 330.372L390.709 331.982L393.671 362.687L372.139 364.764L364.029 280.674L404.163 276.803ZM404.754 314.939C409.001 314.529 412.105 313.373 414.064 311.469C416.024 309.565 416.823 306.745 416.463 303.008C416.111 299.355 414.791 296.782 412.504 295.288C410.216 293.794 406.949 293.252 402.702 293.661L387.158 295.161L389.21 316.438L404.754 314.939ZM418.065 318.284L448.966 357.355L424.758 359.689L399.675 324.945L418.065 318.284ZM452.336 357.03L444.227 272.94L509.715 266.624L511.349 283.569L467.775 287.772L469.422 304.844L504.077 301.502L505.613 317.428L470.958 320.771L472.617 337.971L517.847 333.609L519.481 350.554L452.336 357.03Z" fill="white"/>
<rect x="159.54" y="256.17" width="21" height="21" transform="rotate(-5.50852 159.54 256.17)" fill="white" stroke="#1C1BE2" stroke-width="3"/>
<rect x="527.831" y="220.653" width="21" height="21" transform="rotate(-5.50852 527.831 220.653)" fill="white" stroke="#1C1BE2" stroke-width="3"/>
<rect x="542.038" y="367.969" width="21" height="21" transform="rotate(-5.50852 542.038 367.969)" fill="white" stroke="#1C1BE2" stroke-width="3"/>
<rect x="173.747" y="403.487" width="21" height="21" transform="rotate(-5.50852 173.747 403.487)" fill="white" stroke="#1C1BE2" stroke-width="3"/>
</g>
<path d="M171 631L170 631L170 632L171 632L171 631ZM958 631L958 632L959 632L959 631L958 631ZM171.707 606.763C171.317 606.373 170.683 606.373 170.293 606.763L163.929 613.127C163.538 613.518 163.538 614.151 163.929 614.542C164.319 614.932 164.953 614.932 165.343 614.542L171 608.885L176.657 614.542C177.047 614.932 177.681 614.932 178.071 614.542C178.462 614.151 178.462 613.518 178.071 613.127L171.707 606.763ZM958.707 605.293C958.317 604.902 957.683 604.902 957.293 605.293L950.929 611.657C950.538 612.047 950.538 612.68 950.929 613.071C951.319 613.462 951.953 613.462 952.343 613.071L958 607.414L963.657 613.071C964.047 613.462 964.681 613.462 965.071 613.071C965.462 612.68 965.462 612.047 965.071 611.657L958.707 605.293ZM171 632L958 632L958 630L171 630L171 632ZM172 631L172 607.471L170 607.471L170 631L172 631ZM959 631L959 606L957 606L957 631L959 631Z" fill="#2928FB"/>
<path d="M90 969L89 969L89 970L90 970L90 969ZM211 969L211 970L212 970L212 969L211 969ZM90.7071 948.528C90.3166 948.138 89.6834 948.138 89.2929 948.528L82.9289 954.892C82.5384 955.283 82.5384 955.916 82.9289 956.306C83.3195 956.697 83.9526 956.697 84.3431 956.306L90 950.649L95.6569 956.306C96.0474 956.697 96.6805 956.697 97.0711 956.306C97.4616 955.916 97.4616 955.283 97.0711 954.892L90.7071 948.528ZM211.707 947.293C211.317 946.902 210.683 946.902 210.293 947.293L203.929 953.657C203.538 954.047 203.538 954.681 203.929 955.071C204.319 955.462 204.953 955.462 205.343 955.071L211 949.414L216.657 955.071C217.047 955.462 217.681 955.462 218.071 955.071C218.462 954.681 218.462 954.047 218.071 953.657L211.707 947.293ZM90 970L211 970L211 968L90 968L90 970ZM91 969L91 949.235L89 949.235L89 969L91 969ZM212 969L212 948L210 948L210 969L212 969Z" fill="#2928FB"/>
<path d="M269 969L268 969L268 970L269 970L269 969ZM450 969L450 970L451 970L451 969L450 969ZM269.707 948.528C269.317 948.138 268.683 948.138 268.293 948.528L261.929 954.892C261.538 955.283 261.538 955.916 261.929 956.306C262.319 956.697 262.953 956.697 263.343 956.306L269 950.649L274.657 956.306C275.047 956.697 275.681 956.697 276.071 956.306C276.462 955.916 276.462 955.283 276.071 954.892L269.707 948.528ZM450.707 947.293C450.317 946.902 449.683 946.902 449.293 947.293L442.929 953.657C442.538 954.047 442.538 954.681 442.929 955.071C443.319 955.462 443.953 955.462 444.343 955.071L450 949.414L455.657 955.071C456.047 955.462 456.681 955.462 457.071 955.071C457.462 954.681 457.462 954.047 457.071 953.657L450.707 947.293ZM269 970L450 970L450 968L269 968L269 970ZM270 969L270 949.235L268 949.235L268 969L270 969ZM451 969L451 948L449 948L449 969L451 969Z" fill="#2928FB"/>
<path d="M689 969L688 969L688 970L689 970L689 969ZM990 969L990 970L991 970L991 969L990 969ZM689.707 948.528C689.317 948.138 688.683 948.138 688.293 948.528L681.929 954.892C681.538 955.283 681.538 955.916 681.929 956.306C682.319 956.697 682.953 956.697 683.343 956.306L689 950.649L694.657 956.306C695.047 956.697 695.681 956.697 696.071 956.306C696.462 955.916 696.462 955.283 696.071 954.892L689.707 948.528ZM990.707 947.293C990.317 946.902 989.683 946.902 989.293 947.293L982.929 953.657C982.538 954.047 982.538 954.681 982.929 955.071C983.319 955.462 983.953 955.462 984.343 955.071L990 949.414L995.657 955.071C996.047 955.462 996.681 955.462 997.071 955.071C997.462 954.681 997.462 954.047 997.071 953.657L990.707 947.293ZM689 970L990 970L990 968L689 968L689 970ZM690 969L690 949.235L688 949.235L688 969L690 969ZM991 969L991 948L989 948L989 969L991 969Z" fill="#2928FB"/>
<rect x="365" y="651" width="271" height="38" rx="19" fill="white"/>
<rect x="365" y="651" width="271" height="38" rx="19" stroke="#1C1BE2" stroke-width="2"/>
<path d="M398.833 682.5C398.087 682.5 397.407 682.453 396.793 682.36C396.18 682.28 395.58 682.147 394.993 681.96C394.407 681.773 393.773 681.527 393.093 681.22C392.813 681.087 392.58 680.947 392.393 680.8C392.207 680.653 392.113 680.433 392.113 680.14C392.113 679.713 392.247 679.387 392.513 679.16C392.767 678.947 393.12 678.84 393.573 678.84C393.813 678.84 394.12 678.92 394.493 679.08C394.867 679.253 395.293 679.447 395.773 679.66C396.267 679.887 396.813 680.08 397.413 680.24C398.013 680.413 398.66 680.5 399.353 680.5C400.06 680.5 400.72 680.207 401.333 679.62C401.947 679.033 402.44 678.207 402.813 677.14C403.2 676.087 403.393 674.84 403.393 673.4C403.393 673.067 403.387 672.707 403.373 672.32C403.36 671.92 403.347 671.5 403.333 671.06C402.853 671.967 402.333 672.813 401.773 673.6C401.213 674.387 400.633 675.027 400.033 675.52C399.447 676 398.853 676.24 398.253 676.24C397.52 676.24 396.987 676.067 396.653 675.72C396.333 675.36 396.173 674.793 396.173 674.02C396.173 673.367 396.22 672.653 396.313 671.88C396.42 671.093 396.56 670.3 396.733 669.5C396.907 668.7 397.107 667.94 397.333 667.22C397.573 666.487 397.827 665.853 398.093 665.32C398.293 664.933 398.6 664.74 399.013 664.74C399.28 664.74 399.547 664.867 399.813 665.12C400.093 665.373 400.233 665.713 400.233 666.14C400.233 666.38 400.173 666.727 400.053 667.18C399.933 667.633 399.787 668.147 399.613 668.72C399.453 669.28 399.287 669.873 399.113 670.5C398.94 671.113 398.793 671.72 398.673 672.32C398.553 672.907 398.493 673.44 398.493 673.92C398.493 673.973 398.533 674 398.613 674C398.773 674 398.987 673.867 399.253 673.6C399.533 673.32 399.84 672.96 400.173 672.52C400.52 672.067 400.867 671.573 401.213 671.04C401.573 670.493 401.92 669.953 402.253 669.42C402.587 668.887 402.887 668.4 403.153 667.96C403.113 667.747 403.087 667.56 403.073 667.4C403.073 667.227 403.073 667.08 403.073 666.96C403.073 666.413 403.167 665.96 403.353 665.6C403.553 665.24 403.94 665.06 404.513 665.06C404.887 665.06 405.173 665.2 405.373 665.48C405.573 665.747 405.673 666.127 405.673 666.62C405.673 666.833 405.64 667.08 405.573 667.36C405.507 667.627 405.373 668.053 405.173 668.64L405.393 668.02C405.513 669.22 405.613 670.287 405.693 671.22C405.787 672.153 405.833 673.08 405.833 674C405.833 675.733 405.54 677.233 404.953 678.5C404.38 679.78 403.567 680.767 402.513 681.46C401.473 682.153 400.247 682.5 398.833 682.5ZM411.88 677.68C411.053 677.68 410.387 677.393 409.88 676.82C409.373 676.233 409.12 675.293 409.12 674C409.12 673.173 409.213 672.347 409.4 671.52C409.6 670.68 409.873 669.887 410.22 669.14C410.58 668.38 410.993 667.707 411.46 667.12C411.94 666.533 412.467 666.073 413.04 665.74C413.613 665.393 414.207 665.22 414.82 665.22C415.86 665.22 416.673 665.5 417.26 666.06C417.847 666.62 418.14 667.333 418.14 668.2C418.14 668.867 417.953 669.473 417.58 670.02C417.22 670.553 416.727 671.033 416.1 671.46C415.473 671.887 414.773 672.273 414 672.62C413.227 672.967 412.433 673.28 411.62 673.56C411.553 674.04 411.52 674.467 411.52 674.84C411.52 675.067 411.647 675.18 411.9 675.18C412.5 675.18 413.14 675.087 413.82 674.9C414.513 674.7 415.213 674.447 415.92 674.14C416.627 673.82 417.307 673.493 417.96 673.16C418.613 672.813 419.207 672.487 419.74 672.18C420.287 671.86 420.733 671.607 421.08 671.42C421.44 671.22 421.673 671.12 421.78 671.12C422.073 671.12 422.287 671.207 422.42 671.38C422.553 671.553 422.62 671.74 422.62 671.94C422.62 672.033 422.44 672.24 422.08 672.56C421.733 672.88 421.253 673.26 420.64 673.7C420.04 674.127 419.36 674.573 418.6 675.04C417.853 675.493 417.073 675.927 416.26 676.34C415.46 676.74 414.68 677.06 413.92 677.3C413.173 677.553 412.493 677.68 411.88 677.68ZM411.96 671.78C412.507 671.46 413.047 671.127 413.58 670.78C414.127 670.42 414.58 670.02 414.94 669.58C415.3 669.127 415.48 668.6 415.48 668C415.48 667.827 415.433 667.713 415.34 667.66C415.247 667.593 415.113 667.56 414.94 667.56C414.473 667.56 414.047 667.767 413.66 668.18C413.287 668.593 412.953 669.127 412.66 669.78C412.38 670.42 412.147 671.087 411.96 671.78ZM422.392 677.76C421.965 677.76 421.579 677.64 421.232 677.4C420.885 677.173 420.612 676.873 420.412 676.5C420.212 676.113 420.112 675.7 420.112 675.26C420.112 674.433 420.292 673.627 420.652 672.84C421.025 672.053 421.512 671.307 422.112 670.6C422.712 669.893 423.365 669.247 424.072 668.66C424.792 668.06 425.505 667.547 426.212 667.12C426.932 666.693 427.585 666.36 428.172 666.12C428.772 665.88 429.239 665.76 429.572 665.76C429.959 665.76 430.272 665.847 430.512 666.02C430.765 666.18 430.892 666.433 430.892 666.78C430.892 666.887 430.865 666.973 430.812 667.04C430.985 667.08 431.125 667.18 431.232 667.34C431.339 667.5 431.392 667.74 431.392 668.06C431.392 668.193 431.359 668.54 431.292 669.1C431.225 669.66 431.152 670.34 431.072 671.14C431.005 671.94 430.972 672.773 430.972 673.64C430.972 673.773 430.992 673.893 431.032 674C431.072 674.093 431.159 674.14 431.292 674.14C431.825 674.14 432.365 674.033 432.912 673.82C433.472 673.593 434.012 673.32 434.532 673C435.065 672.667 435.545 672.34 435.972 672.02C436.412 671.687 436.779 671.413 437.072 671.2C437.379 670.973 437.579 670.86 437.672 670.86C438.125 670.86 438.352 671.087 438.352 671.54C438.352 671.66 438.205 671.913 437.912 672.3C437.632 672.673 437.245 673.107 436.752 673.6C436.259 674.08 435.705 674.56 435.092 675.04C434.492 675.507 433.865 675.893 433.212 676.2C432.572 676.507 431.952 676.66 431.352 676.66C430.619 676.66 430.059 676.487 429.672 676.14C429.299 675.793 429.032 675.327 428.872 674.74C428.725 674.14 428.645 673.467 428.632 672.72C427.952 673.693 427.245 674.56 426.512 675.32C425.792 676.067 425.079 676.66 424.372 677.1C423.665 677.54 423.005 677.76 422.392 677.76ZM429.472 667.74C428.165 668.367 426.992 669.087 425.952 669.9C424.912 670.7 424.085 671.54 423.472 672.42C422.872 673.3 422.572 674.147 422.572 674.96C422.572 675.187 422.679 675.3 422.892 675.3C423.145 675.3 423.479 675.153 423.892 674.86C424.319 674.567 424.779 674.18 425.272 673.7C425.765 673.207 426.259 672.66 426.752 672.06C427.245 671.447 427.705 670.82 428.132 670.18C428.559 669.54 428.899 668.927 429.152 668.34C429.245 668.127 429.352 667.927 429.472 667.74ZM437.658 677.88C437.324 677.88 437.038 677.76 436.798 677.52C436.571 677.28 436.458 676.933 436.458 676.48C436.458 676.28 436.484 675.953 436.538 675.5C436.604 675.033 436.684 674.5 436.778 673.9C436.884 673.3 436.984 672.673 437.078 672.02C437.184 671.367 437.271 670.747 437.338 670.16C437.418 669.573 437.471 669.073 437.498 668.66C437.524 668.153 437.658 667.793 437.898 667.58C438.138 667.353 438.424 667.24 438.758 667.24C439.024 667.24 439.264 667.307 439.478 667.44C439.704 667.56 439.844 667.82 439.898 668.22C439.964 668.607 439.971 669.167 439.918 669.9C440.504 668.833 441.098 667.88 441.698 667.04C442.311 666.2 442.951 665.533 443.618 665.04C444.724 664.2 445.724 663.78 446.618 663.78C447.124 663.78 447.458 663.893 447.618 664.12C447.778 664.347 447.858 664.58 447.858 664.82C447.858 664.98 447.818 665.127 447.738 665.26C447.671 665.393 447.524 665.533 447.298 665.68C447.071 665.827 446.724 666.02 446.258 666.26C445.631 666.58 445.011 667 444.398 667.52C443.798 668.04 443.198 668.707 442.598 669.52C441.998 670.333 441.391 671.333 440.778 672.52C440.164 673.707 439.531 675.12 438.878 676.76C438.758 677.213 438.584 677.513 438.358 677.66C438.144 677.807 437.911 677.88 437.658 677.88ZM459.81 677.68C458.983 677.68 458.317 677.393 457.81 676.82C457.303 676.233 457.05 675.293 457.05 674C457.05 673.173 457.143 672.347 457.33 671.52C457.53 670.68 457.803 669.887 458.15 669.14C458.51 668.38 458.923 667.707 459.39 667.12C459.87 666.533 460.397 666.073 460.97 665.74C461.543 665.393 462.137 665.22 462.75 665.22C463.79 665.22 464.603 665.5 465.19 666.06C465.777 666.62 466.07 667.333 466.07 668.2C466.07 668.867 465.883 669.473 465.51 670.02C465.15 670.553 464.657 671.033 464.03 671.46C463.403 671.887 462.703 672.273 461.93 672.62C461.157 672.967 460.363 673.28 459.55 673.56C459.483 674.04 459.45 674.467 459.45 674.84C459.45 675.067 459.577 675.18 459.83 675.18C460.43 675.18 461.07 675.087 461.75 674.9C462.443 674.7 463.143 674.447 463.85 674.14C464.557 673.82 465.237 673.493 465.89 673.16C466.543 672.813 467.137 672.487 467.67 672.18C468.217 671.86 468.663 671.607 469.01 671.42C469.37 671.22 469.603 671.12 469.71 671.12C470.003 671.12 470.217 671.207 470.35 671.38C470.483 671.553 470.55 671.74 470.55 671.94C470.55 672.033 470.37 672.24 470.01 672.56C469.663 672.88 469.183 673.26 468.57 673.7C467.97 674.127 467.29 674.573 466.53 675.04C465.783 675.493 465.003 675.927 464.19 676.34C463.39 676.74 462.61 677.06 461.85 677.3C461.103 677.553 460.423 677.68 459.81 677.68ZM459.89 671.78C460.437 671.46 460.977 671.127 461.51 670.78C462.057 670.42 462.51 670.02 462.87 669.58C463.23 669.127 463.41 668.6 463.41 668C463.41 667.827 463.363 667.713 463.27 667.66C463.177 667.593 463.043 667.56 462.87 667.56C462.403 667.56 461.977 667.767 461.59 668.18C461.217 668.593 460.883 669.127 460.59 669.78C460.31 670.42 460.077 671.087 459.89 671.78ZM471.085 677C470.765 677 470.445 676.893 470.125 676.68C469.818 676.453 469.565 676.133 469.365 675.72C469.165 675.293 469.065 674.78 469.065 674.18C469.065 673.38 469.171 672.527 469.385 671.62C469.611 670.713 469.885 669.807 470.205 668.9C470.525 667.993 470.838 667.14 471.145 666.34C471.291 665.953 471.471 665.693 471.685 665.56C471.898 665.413 472.178 665.34 472.525 665.34C473.311 665.34 473.705 665.733 473.705 666.52C473.705 666.653 473.645 666.913 473.525 667.3C473.405 667.673 473.245 668.133 473.045 668.68C472.858 669.227 472.658 669.82 472.445 670.46C472.245 671.087 472.058 671.727 471.885 672.38C471.725 673.02 471.598 673.627 471.505 674.2C471.811 673.733 472.151 673.153 472.525 672.46C472.911 671.753 473.318 671.013 473.745 670.24C474.185 669.467 474.625 668.747 475.065 668.08C475.505 667.4 475.938 666.847 476.365 666.42C476.791 665.993 477.198 665.78 477.585 665.78C477.918 665.78 478.231 665.847 478.525 665.98C478.831 666.1 479.098 666.34 479.325 666.7C479.551 667.047 479.725 667.547 479.845 668.2C479.978 668.853 480.045 669.713 480.045 670.78C480.045 671.313 480.091 671.833 480.185 672.34C480.291 672.833 480.465 673.247 480.705 673.58C480.945 673.9 481.285 674.06 481.725 674.06C482.485 674.06 483.165 673.92 483.765 673.64C484.365 673.36 484.891 673.033 485.345 672.66C485.798 672.287 486.178 671.96 486.485 671.68C486.671 671.493 486.831 671.347 486.965 671.24C487.111 671.133 487.231 671.08 487.325 671.08C487.605 671.08 487.805 671.153 487.925 671.3C488.058 671.447 488.125 671.647 488.125 671.9C488.125 672.033 488.011 672.28 487.785 672.64C487.558 673 487.238 673.413 486.825 673.88C486.425 674.333 485.965 674.773 485.445 675.2C484.925 675.627 484.365 675.98 483.765 676.26C483.165 676.54 482.551 676.68 481.925 676.68C480.871 676.68 479.998 676.493 479.305 676.12C478.625 675.733 478.118 675.093 477.785 674.2C477.451 673.293 477.285 672.06 477.285 670.5C477.285 670.46 477.285 670.393 477.285 670.3C477.285 669.887 477.278 669.52 477.265 669.2C477.265 668.88 477.245 668.62 477.205 668.42C476.978 668.833 476.705 669.327 476.385 669.9C476.078 670.473 475.745 671.087 475.385 671.74C475.025 672.38 474.651 673.013 474.265 673.64C473.878 674.253 473.491 674.813 473.105 675.32C472.731 675.827 472.371 676.233 472.025 676.54C471.678 676.847 471.365 677 471.085 677ZM494.565 666.3C495.299 664.553 495.945 662.753 496.505 660.9C496.612 660.527 496.765 660.24 496.965 660.04C497.179 659.84 497.472 659.74 497.845 659.74C498.152 659.74 498.385 659.833 498.545 660.02C498.705 660.193 498.785 660.433 498.785 660.74C498.785 660.993 498.679 661.447 498.465 662.1C498.252 662.74 497.992 663.553 497.685 664.54C497.379 665.527 497.072 666.667 496.765 667.96C496.459 669.253 496.199 670.673 495.985 672.22C495.772 673.767 495.665 675.42 495.665 677.18C495.665 677.66 495.572 678.053 495.385 678.36C495.212 678.68 494.905 678.84 494.465 678.84C493.985 678.84 493.632 678.673 493.405 678.34C493.192 678.007 493.085 677.58 493.085 677.06C493.085 676.033 493.119 675.18 493.185 674.5C493.265 673.807 493.345 673.213 493.425 672.72C492.772 673.84 492.079 674.807 491.345 675.62C490.625 676.42 489.932 677.033 489.265 677.46C488.599 677.9 488.025 678.12 487.545 678.12C486.759 678.12 486.119 677.9 485.625 677.46C485.132 677.02 484.885 676.353 484.885 675.46C484.885 674.767 485.052 674.053 485.385 673.32C485.719 672.573 486.159 671.84 486.705 671.12C487.252 670.4 487.852 669.727 488.505 669.1C489.172 668.46 489.839 667.9 490.505 667.42C491.172 666.927 491.792 666.54 492.365 666.26C492.939 665.98 493.405 665.84 493.765 665.84C494.165 665.84 494.432 665.993 494.565 666.3ZM494.105 667.38C494.025 667.433 493.939 667.487 493.845 667.54C493.765 667.58 493.685 667.627 493.605 667.68C493.099 668 492.559 668.387 491.985 668.84C491.412 669.28 490.845 669.773 490.285 670.32C489.725 670.853 489.212 671.413 488.745 672C488.292 672.573 487.925 673.147 487.645 673.72C487.379 674.28 487.245 674.82 487.245 675.34C487.245 675.433 487.285 675.5 487.365 675.54C487.445 675.58 487.519 675.6 487.585 675.6C488.052 675.6 488.552 675.393 489.085 674.98C489.632 674.567 490.185 673.993 490.745 673.26C491.319 672.513 491.885 671.64 492.445 670.64C493.019 669.64 493.572 668.553 494.105 667.38ZM512.666 677.88C512.386 677.88 512.12 677.82 511.866 677.7C511.613 677.58 511.386 677.347 511.186 677C510.986 676.667 510.826 676.173 510.706 675.52C510.586 674.853 510.526 673.973 510.526 672.88C510.526 671.853 510.58 670.873 510.686 669.94C510.793 668.993 510.946 668.153 511.146 667.42C511.346 666.673 511.586 666.087 511.866 665.66C512.146 665.22 512.46 665 512.806 665C513.113 665 513.366 665.147 513.566 665.44C513.766 665.733 513.866 666.153 513.866 666.7C513.866 667.127 513.813 667.687 513.706 668.38C513.613 669.073 513.5 669.82 513.366 670.62C513.233 671.407 513.113 672.173 513.006 672.92C512.913 673.653 512.866 674.28 512.866 674.8C512.866 674.893 512.88 674.987 512.906 675.08C512.933 675.16 512.973 675.2 513.026 675.2C513.106 675.2 513.24 675.007 513.426 674.62C513.613 674.233 513.84 673.727 514.106 673.1C514.386 672.46 514.686 671.767 515.006 671.02C515.34 670.273 515.686 669.54 516.046 668.82C516.42 668.087 516.793 667.433 517.166 666.86C517.486 666.367 517.866 665.987 518.306 665.72C518.746 665.453 519.153 665.32 519.526 665.32C519.86 665.32 520.186 665.407 520.506 665.58C520.84 665.753 521.113 666.013 521.326 666.36C521.54 666.707 521.646 667.14 521.646 667.66C521.646 667.86 521.62 668.193 521.566 668.66C521.526 669.113 521.473 669.633 521.406 670.22C521.34 670.793 521.273 671.373 521.206 671.96C521.14 672.533 521.08 673.047 521.026 673.5C520.986 673.953 520.966 674.273 520.966 674.46C520.966 674.487 520.966 674.52 520.966 674.56C520.966 674.707 520.973 674.853 520.986 675C521 675.133 521.04 675.2 521.106 675.2C521.253 675.2 521.44 675.033 521.666 674.7C521.906 674.353 522.173 673.893 522.466 673.32C522.773 672.747 523.093 672.107 523.426 671.4C523.76 670.693 524.1 669.967 524.446 669.22C524.806 668.46 525.16 667.74 525.506 667.06C525.773 666.487 526 666.127 526.186 665.98C526.373 665.82 526.553 665.74 526.726 665.74C526.966 665.74 527.22 665.86 527.486 666.1C527.753 666.34 527.886 666.713 527.886 667.22C527.886 667.393 527.88 667.567 527.866 667.74C527.853 667.913 527.806 668.093 527.726 668.28C527.193 669.627 526.64 670.873 526.066 672.02C525.506 673.153 524.946 674.14 524.386 674.98C523.826 675.82 523.286 676.473 522.766 676.94C522.246 677.407 521.76 677.64 521.306 677.64C520.373 677.64 519.653 677.393 519.146 676.9C518.653 676.393 518.406 675.713 518.406 674.86C518.406 674.54 518.426 674.133 518.466 673.64C518.506 673.133 518.553 672.587 518.606 672C518.673 671.4 518.74 670.807 518.806 670.22C518.873 669.633 518.94 669.093 519.006 668.6C519.033 668.413 519 668.293 518.906 668.24C518.826 668.187 518.753 668.247 518.686 668.42C518.513 668.873 518.326 669.367 518.126 669.9C517.926 670.433 517.74 670.9 517.566 671.3C517.286 671.967 516.96 672.68 516.586 673.44C516.226 674.2 515.833 674.92 515.406 675.6C514.98 676.267 514.533 676.813 514.066 677.24C513.6 677.667 513.133 677.88 512.666 677.88ZM530.255 677.88C529.922 677.88 529.635 677.76 529.395 677.52C529.169 677.28 529.055 676.933 529.055 676.48C529.055 676.28 529.082 675.953 529.135 675.5C529.202 675.033 529.282 674.5 529.375 673.9C529.482 673.3 529.582 672.673 529.675 672.02C529.782 671.367 529.869 670.747 529.935 670.16C530.015 669.573 530.069 669.073 530.095 668.66C530.122 668.153 530.255 667.793 530.495 667.58C530.735 667.353 531.022 667.24 531.355 667.24C531.622 667.24 531.862 667.307 532.075 667.44C532.302 667.56 532.442 667.82 532.495 668.22C532.562 668.607 532.569 669.167 532.515 669.9C533.102 668.833 533.695 667.88 534.295 667.04C534.909 666.2 535.549 665.533 536.215 665.04C537.322 664.2 538.322 663.78 539.215 663.78C539.722 663.78 540.055 663.893 540.215 664.12C540.375 664.347 540.455 664.58 540.455 664.82C540.455 664.98 540.415 665.127 540.335 665.26C540.269 665.393 540.122 665.533 539.895 665.68C539.669 665.827 539.322 666.02 538.855 666.26C538.229 666.58 537.609 667 536.995 667.52C536.395 668.04 535.795 668.707 535.195 669.52C534.595 670.333 533.989 671.333 533.375 672.52C532.762 673.707 532.129 675.12 531.475 676.76C531.355 677.213 531.182 677.513 530.955 677.66C530.742 677.807 530.509 677.88 530.255 677.88ZM539.794 677.76C539.368 677.76 538.981 677.64 538.634 677.4C538.288 677.173 538.014 676.873 537.814 676.5C537.614 676.113 537.514 675.7 537.514 675.26C537.514 674.433 537.694 673.627 538.054 672.84C538.428 672.053 538.914 671.307 539.514 670.6C540.114 669.893 540.768 669.247 541.474 668.66C542.194 668.06 542.908 667.547 543.614 667.12C544.334 666.693 544.988 666.36 545.574 666.12C546.174 665.88 546.641 665.76 546.974 665.76C547.361 665.76 547.674 665.847 547.914 666.02C548.168 666.18 548.294 666.433 548.294 666.78C548.294 666.887 548.268 666.973 548.214 667.04C548.388 667.08 548.528 667.18 548.634 667.34C548.741 667.5 548.794 667.74 548.794 668.06C548.794 668.193 548.761 668.54 548.694 669.1C548.628 669.66 548.554 670.34 548.474 671.14C548.408 671.94 548.374 672.773 548.374 673.64C548.374 673.773 548.394 673.893 548.434 674C548.474 674.093 548.561 674.14 548.694 674.14C549.228 674.14 549.768 674.033 550.314 673.82C550.874 673.593 551.414 673.32 551.934 673C552.468 672.667 552.948 672.34 553.374 672.02C553.814 671.687 554.181 671.413 554.474 671.2C554.781 670.973 554.981 670.86 555.074 670.86C555.528 670.86 555.754 671.087 555.754 671.54C555.754 671.66 555.608 671.913 555.314 672.3C555.034 672.673 554.648 673.107 554.154 673.6C553.661 674.08 553.108 674.56 552.494 675.04C551.894 675.507 551.268 675.893 550.614 676.2C549.974 676.507 549.354 676.66 548.754 676.66C548.021 676.66 547.461 676.487 547.074 676.14C546.701 675.793 546.434 675.327 546.274 674.74C546.128 674.14 546.048 673.467 546.034 672.72C545.354 673.693 544.648 674.56 543.914 675.32C543.194 676.067 542.481 676.66 541.774 677.1C541.068 677.54 540.408 677.76 539.794 677.76ZM546.874 667.74C545.568 668.367 544.394 669.087 543.354 669.9C542.314 670.7 541.488 671.54 540.874 672.42C540.274 673.3 539.974 674.147 539.974 674.96C539.974 675.187 540.081 675.3 540.294 675.3C540.548 675.3 540.881 675.153 541.294 674.86C541.721 674.567 542.181 674.18 542.674 673.7C543.168 673.207 543.661 672.66 544.154 672.06C544.648 671.447 545.108 670.82 545.534 670.18C545.961 669.54 546.301 668.927 546.554 668.34C546.648 668.127 546.754 667.927 546.874 667.74ZM554.529 683.42C554.156 683.42 553.863 683.287 553.649 683.02C553.449 682.767 553.349 682.373 553.349 681.84C553.349 681.107 553.416 680.233 553.549 679.22C553.683 678.207 553.863 677.133 554.089 676C554.316 674.867 554.563 673.753 554.829 672.66C555.149 671.407 555.463 670.267 555.769 669.24C556.089 668.213 556.409 667.393 556.729 666.78C557.063 666.153 557.396 665.84 557.729 665.84C558.036 665.84 558.303 665.953 558.529 666.18C558.769 666.393 558.889 666.713 558.889 667.14C558.889 667.447 558.809 667.887 558.649 668.46C558.489 669.02 558.289 669.72 558.049 670.56C558.503 669.813 558.969 669.08 559.449 668.36C559.943 667.64 560.443 666.987 560.949 666.4C561.456 665.813 561.949 665.347 562.429 665C562.909 664.653 563.363 664.48 563.789 664.48C564.296 664.48 564.743 664.627 565.129 664.92C565.529 665.213 565.843 665.613 566.069 666.12C566.296 666.627 566.409 667.2 566.409 667.84C566.409 669.027 566.196 670.18 565.769 671.3C565.343 672.407 564.749 673.4 563.989 674.28C563.243 675.16 562.369 675.86 561.369 676.38C560.369 676.887 559.289 677.14 558.129 677.14C557.796 677.14 557.489 677.107 557.209 677.04C556.943 676.987 556.696 676.92 556.469 676.84C556.309 677.693 556.156 678.567 556.009 679.46C555.876 680.367 555.736 681.32 555.589 682.32C555.429 683.053 555.076 683.42 554.529 683.42ZM563.989 666.84C563.696 666.84 563.323 667.04 562.869 667.44C562.429 667.84 561.949 668.367 561.429 669.02C560.909 669.66 560.383 670.36 559.849 671.12C559.329 671.867 558.829 672.6 558.349 673.32C557.883 674.04 557.483 674.667 557.149 675.2C558.163 675.093 559.056 674.827 559.829 674.4C560.603 673.96 561.263 673.427 561.809 672.8C562.356 672.173 562.796 671.513 563.129 670.82C563.476 670.113 563.729 669.427 563.889 668.76C564.049 668.093 564.129 667.513 564.129 667.02C564.129 666.9 564.083 666.84 563.989 666.84ZM570.756 670.3C570.236 670.3 569.809 670.2 569.476 670C569.156 669.8 568.996 669.467 568.996 669C568.996 668.867 569.189 668.7 569.576 668.5C569.962 668.287 570.489 668.08 571.156 667.88C571.836 667.667 572.616 667.493 573.496 667.36C574.376 667.213 575.302 667.14 576.276 667.14C577.089 667.14 577.649 667.24 577.956 667.44C578.276 667.64 578.436 667.973 578.436 668.44C578.436 668.627 578.222 668.827 577.796 669.04C577.369 669.253 576.789 669.46 576.056 669.66C575.322 669.847 574.496 670 573.576 670.12C572.669 670.24 571.729 670.3 570.756 670.3ZM588.513 677.9C588.206 677.9 587.926 677.773 587.673 677.52C587.433 677.28 587.313 676.873 587.313 676.3C587.313 675.873 587.346 675.28 587.413 674.52C587.493 673.747 587.639 672.753 587.853 671.54C587.386 672.5 586.899 673.353 586.393 674.1C585.886 674.847 585.386 675.433 584.893 675.86C584.413 676.273 583.953 676.48 583.513 676.48C582.806 676.48 582.246 676.267 581.833 675.84C581.419 675.4 581.213 674.58 581.213 673.38C581.213 672.807 581.259 672.16 581.353 671.44C581.459 670.72 581.593 670 581.753 669.28C581.913 668.56 582.073 667.92 582.233 667.36C582.406 666.787 582.559 666.36 582.693 666.08C582.799 665.84 582.933 665.653 583.093 665.52C583.266 665.387 583.486 665.32 583.753 665.32C584.179 665.32 584.506 665.46 584.733 665.74C584.959 666.02 585.073 666.307 585.073 666.6C585.073 666.827 585.019 667.153 584.913 667.58C584.819 668.007 584.699 668.48 584.553 669C584.419 669.52 584.279 670.053 584.133 670.6C583.986 671.147 583.859 671.66 583.753 672.14C583.659 672.62 583.613 673.027 583.613 673.36C583.613 673.773 583.773 673.98 584.093 673.98C584.279 673.98 584.519 673.8 584.813 673.44C585.119 673.08 585.439 672.6 585.773 672C586.119 671.387 586.466 670.72 586.813 670C587.173 669.267 587.499 668.527 587.793 667.78C588.099 667.02 588.359 666.32 588.573 665.68C588.706 665.28 588.886 665 589.113 664.84C589.339 664.68 589.599 664.6 589.893 664.6C590.346 664.6 590.693 664.727 590.933 664.98C591.186 665.233 591.313 665.593 591.313 666.06C591.313 666.273 591.279 666.633 591.213 667.14C591.146 667.647 591.059 668.24 590.953 668.92C590.859 669.6 590.746 670.32 590.613 671.08C590.479 671.84 590.346 672.587 590.213 673.32C590.093 674.053 589.973 674.727 589.853 675.34C589.733 675.94 589.633 676.42 589.553 676.78C589.419 677.313 589.259 677.633 589.073 677.74C588.886 677.847 588.699 677.9 588.513 677.9ZM594.041 683.42C593.668 683.42 593.374 683.287 593.161 683.02C592.961 682.767 592.861 682.373 592.861 681.84C592.861 681.107 592.928 680.233 593.061 679.22C593.194 678.207 593.374 677.133 593.601 676C593.828 674.867 594.074 673.753 594.341 672.66C594.661 671.407 594.974 670.267 595.281 669.24C595.601 668.213 595.921 667.393 596.241 666.78C596.574 666.153 596.908 665.84 597.241 665.84C597.548 665.84 597.814 665.953 598.041 666.18C598.281 666.393 598.401 666.713 598.401 667.14C598.401 667.447 598.321 667.887 598.161 668.46C598.001 669.02 597.801 669.72 597.561 670.56C598.014 669.813 598.481 669.08 598.961 668.36C599.454 667.64 599.954 666.987 600.461 666.4C600.968 665.813 601.461 665.347 601.941 665C602.421 664.653 602.874 664.48 603.301 664.48C603.808 664.48 604.254 664.627 604.641 664.92C605.041 665.213 605.354 665.613 605.581 666.12C605.808 666.627 605.921 667.2 605.921 667.84C605.921 669.027 605.708 670.18 605.281 671.3C604.854 672.407 604.261 673.4 603.501 674.28C602.754 675.16 601.881 675.86 600.881 676.38C599.881 676.887 598.801 677.14 597.641 677.14C597.308 677.14 597.001 677.107 596.721 677.04C596.454 676.987 596.208 676.92 595.981 676.84C595.821 677.693 595.668 678.567 595.521 679.46C595.388 680.367 595.248 681.32 595.101 682.32C594.941 683.053 594.588 683.42 594.041 683.42ZM603.501 666.84C603.208 666.84 602.834 667.04 602.381 667.44C601.941 667.84 601.461 668.367 600.941 669.02C600.421 669.66 599.894 670.36 599.361 671.12C598.841 671.867 598.341 672.6 597.861 673.32C597.394 674.04 596.994 674.667 596.661 675.2C597.674 675.093 598.568 674.827 599.341 674.4C600.114 673.96 600.774 673.427 601.321 672.8C601.868 672.173 602.308 671.513 602.641 670.82C602.988 670.113 603.241 669.427 603.401 668.76C603.561 668.093 603.641 667.513 603.641 667.02C603.641 666.9 603.594 666.84 603.501 666.84Z" fill="#1C1BE2"/>
<path d="M91.5477 986.3C92.2811 984.553 92.9277 982.753 93.4877 980.9C93.5944 980.527 93.7477 980.24 93.9477 980.04C94.1611 979.84 94.4544 979.74 94.8277 979.74C95.1344 979.74 95.3677 979.833 95.5277 980.02C95.6877 980.193 95.7677 980.433 95.7677 980.74C95.7677 980.993 95.6611 981.447 95.4477 982.1C95.2344 982.74 94.9744 983.553 94.6677 984.54C94.3611 985.527 94.0544 986.667 93.7477 987.96C93.4411 989.253 93.1811 990.673 92.9677 992.22C92.7544 993.767 92.6477 995.42 92.6477 997.18C92.6477 997.66 92.5544 998.053 92.3677 998.36C92.1944 998.68 91.8877 998.84 91.4477 998.84C90.9677 998.84 90.6144 998.673 90.3877 998.34C90.1744 998.007 90.0677 997.58 90.0677 997.06C90.0677 996.033 90.1011 995.18 90.1677 994.5C90.2477 993.807 90.3277 993.213 90.4077 992.72C89.7544 993.84 89.0611 994.807 88.3277 995.62C87.6077 996.42 86.9144 997.033 86.2477 997.46C85.5811 997.9 85.0077 998.12 84.5277 998.12C83.7411 998.12 83.1011 997.9 82.6077 997.46C82.1144 997.02 81.8677 996.353 81.8677 995.46C81.8677 994.767 82.0344 994.053 82.3677 993.32C82.7011 992.573 83.1411 991.84 83.6877 991.12C84.2344 990.4 84.8344 989.727 85.4877 989.1C86.1544 988.46 86.8211 987.9 87.4877 987.42C88.1544 986.927 88.7744 986.54 89.3477 986.26C89.9211 985.98 90.3877 985.84 90.7477 985.84C91.1477 985.84 91.4144 985.993 91.5477 986.3ZM91.0877 987.38C91.0077 987.433 90.9211 987.487 90.8277 987.54C90.7477 987.58 90.6677 987.627 90.5877 987.68C90.0811 988 89.5411 988.387 88.9677 988.84C88.3944 989.28 87.8277 989.773 87.2677 990.32C86.7077 990.853 86.1944 991.413 85.7277 992C85.2744 992.573 84.9077 993.147 84.6277 993.72C84.3611 994.28 84.2277 994.82 84.2277 995.34C84.2277 995.433 84.2677 995.5 84.3477 995.54C84.4277 995.58 84.5011 995.6 84.5677 995.6C85.0344 995.6 85.5344 995.393 86.0677 994.98C86.6144 994.567 87.1677 993.993 87.7277 993.26C88.3011 992.513 88.8677 991.64 89.4277 990.64C90.0011 989.64 90.5544 988.553 91.0877 987.38ZM98.1634 997.76C97.7367 997.76 97.35 997.64 97.0034 997.4C96.6567 997.173 96.3834 996.873 96.1834 996.5C95.9834 996.113 95.8834 995.7 95.8834 995.26C95.8834 994.433 96.0634 993.627 96.4234 992.84C96.7967 992.053 97.2834 991.307 97.8834 990.6C98.4834 989.893 99.1367 989.247 99.8434 988.66C100.563 988.06 101.277 987.547 101.983 987.12C102.703 986.693 103.357 986.36 103.943 986.12C104.543 985.88 105.01 985.76 105.343 985.76C105.73 985.76 106.043 985.847 106.283 986.02C106.537 986.18 106.663 986.433 106.663 986.78C106.663 986.887 106.637 986.973 106.583 987.04C106.757 987.08 106.897 987.18 107.003 987.34C107.11 987.5 107.163 987.74 107.163 988.06C107.163 988.193 107.13 988.54 107.063 989.1C106.997 989.66 106.923 990.34 106.843 991.14C106.777 991.94 106.743 992.773 106.743 993.64C106.743 993.773 106.763 993.893 106.803 994C106.843 994.093 106.93 994.14 107.063 994.14C107.597 994.14 108.137 994.033 108.683 993.82C109.243 993.593 109.783 993.32 110.303 993C110.837 992.667 111.317 992.34 111.743 992.02C112.183 991.687 112.55 991.413 112.843 991.2C113.15 990.973 113.35 990.86 113.443 990.86C113.897 990.86 114.123 991.087 114.123 991.54C114.123 991.66 113.977 991.913 113.683 992.3C113.403 992.673 113.017 993.107 112.523 993.6C112.03 994.08 111.477 994.56 110.863 995.04C110.263 995.507 109.637 995.893 108.983 996.2C108.343 996.507 107.723 996.66 107.123 996.66C106.39 996.66 105.83 996.487 105.443 996.14C105.07 995.793 104.803 995.327 104.643 994.74C104.497 994.14 104.417 993.467 104.403 992.72C103.723 993.693 103.017 994.56 102.283 995.32C101.563 996.067 100.85 996.66 100.143 997.1C99.4367 997.54 98.7767 997.76 98.1634 997.76ZM105.243 987.74C103.937 988.367 102.763 989.087 101.723 989.9C100.683 990.7 99.8567 991.54 99.2434 992.42C98.6434 993.3 98.3434 994.147 98.3434 994.96C98.3434 995.187 98.45 995.3 98.6634 995.3C98.9167 995.3 99.25 995.153 99.6634 994.86C100.09 994.567 100.55 994.18 101.043 993.7C101.537 993.207 102.03 992.66 102.523 992.06C103.017 991.447 103.477 990.82 103.903 990.18C104.33 989.54 104.67 988.927 104.923 988.34C105.017 988.127 105.123 987.927 105.243 987.74ZM126.842 986.92C126.842 987.08 126.789 987.22 126.682 987.34C126.575 987.46 126.442 987.553 126.282 987.62C126.055 987.713 125.662 987.833 125.102 987.98C124.542 988.127 123.862 988.293 123.062 988.48C122.275 988.667 121.429 988.86 120.522 989.06C119.615 989.247 118.709 989.427 117.802 989.6C117.455 990.88 117.102 992.2 116.742 993.56C116.382 994.907 116.022 996.233 115.662 997.54C115.529 998.007 115.369 998.36 115.182 998.6C114.995 998.853 114.675 998.98 114.222 998.98C113.729 998.98 113.395 998.82 113.222 998.5C113.062 998.193 113.042 997.773 113.162 997.24C113.509 995.787 113.829 994.433 114.122 993.18C114.429 991.927 114.675 990.913 114.862 990.14C114.062 990.273 113.362 990.38 112.762 990.46C112.162 990.527 111.735 990.553 111.482 990.54C111.202 990.513 110.969 990.4 110.782 990.2C110.595 990 110.509 989.753 110.522 989.46C110.549 989.193 110.669 988.967 110.882 988.78C111.095 988.58 111.349 988.46 111.642 988.42C112.055 988.38 112.589 988.32 113.242 988.24C113.895 988.16 114.615 988.067 115.402 987.96C115.575 987.28 115.775 986.58 116.002 985.86C116.229 985.127 116.462 984.427 116.702 983.76C116.955 983.08 117.195 982.487 117.422 981.98C117.649 981.473 117.855 981.107 118.042 980.88C118.189 980.707 118.369 980.573 118.582 980.48C118.809 980.387 119.029 980.34 119.242 980.34C119.522 980.34 119.749 980.44 119.922 980.64C120.095 980.84 120.182 981.073 120.182 981.34C120.182 981.447 120.175 981.56 120.162 981.68C120.149 981.787 120.122 981.893 120.082 982C119.829 982.667 119.555 983.473 119.262 984.42C118.982 985.367 118.689 986.407 118.382 987.54C119.382 987.393 120.362 987.247 121.322 987.1C122.295 986.94 123.175 986.793 123.962 986.66C124.762 986.513 125.402 986.387 125.882 986.28C126.149 986.187 126.375 986.207 126.562 986.34C126.749 986.46 126.842 986.653 126.842 986.92ZM127.281 997.68C126.454 997.68 125.787 997.393 125.281 996.82C124.774 996.233 124.521 995.293 124.521 994C124.521 993.173 124.614 992.347 124.801 991.52C125.001 990.68 125.274 989.887 125.621 989.14C125.981 988.38 126.394 987.707 126.861 987.12C127.341 986.533 127.867 986.073 128.441 985.74C129.014 985.393 129.607 985.22 130.221 985.22C131.261 985.22 132.074 985.5 132.661 986.06C133.247 986.62 133.541 987.333 133.541 988.2C133.541 988.867 133.354 989.473 132.981 990.02C132.621 990.553 132.127 991.033 131.501 991.46C130.874 991.887 130.174 992.273 129.401 992.62C128.627 992.967 127.834 993.28 127.021 993.56C126.954 994.04 126.921 994.467 126.921 994.84C126.921 995.067 127.047 995.18 127.301 995.18C127.901 995.18 128.541 995.087 129.221 994.9C129.914 994.7 130.614 994.447 131.321 994.14C132.027 993.82 132.707 993.493 133.361 993.16C134.014 992.813 134.607 992.487 135.141 992.18C135.687 991.86 136.134 991.607 136.481 991.42C136.841 991.22 137.074 991.12 137.181 991.12C137.474 991.12 137.687 991.207 137.821 991.38C137.954 991.553 138.021 991.74 138.021 991.94C138.021 992.033 137.841 992.24 137.481 992.56C137.134 992.88 136.654 993.26 136.041 993.7C135.441 994.127 134.761 994.573 134.001 995.04C133.254 995.493 132.474 995.927 131.661 996.34C130.861 996.74 130.081 997.06 129.321 997.3C128.574 997.553 127.894 997.68 127.281 997.68ZM127.361 991.78C127.907 991.46 128.447 991.127 128.981 990.78C129.527 990.42 129.981 990.02 130.341 989.58C130.701 989.127 130.881 988.6 130.881 988C130.881 987.827 130.834 987.713 130.741 987.66C130.647 987.593 130.514 987.56 130.341 987.56C129.874 987.56 129.447 987.767 129.061 988.18C128.687 988.593 128.354 989.127 128.061 989.78C127.781 990.42 127.547 991.087 127.361 991.78Z" fill="#1C1BE2"/>
<path d="M310.592 986.92C310.592 987.08 310.539 987.22 310.432 987.34C310.325 987.46 310.192 987.553 310.032 987.62C309.805 987.713 309.412 987.833 308.852 987.98C308.292 988.127 307.612 988.293 306.812 988.48C306.025 988.667 305.179 988.86 304.272 989.06C303.365 989.247 302.459 989.427 301.552 989.6C301.205 990.88 300.852 992.2 300.492 993.56C300.132 994.907 299.772 996.233 299.412 997.54C299.279 998.007 299.119 998.36 298.932 998.6C298.745 998.853 298.425 998.98 297.972 998.98C297.479 998.98 297.145 998.82 296.972 998.5C296.812 998.193 296.792 997.773 296.912 997.24C297.259 995.787 297.579 994.433 297.872 993.18C298.179 991.927 298.425 990.913 298.612 990.14C297.812 990.273 297.112 990.38 296.512 990.46C295.912 990.527 295.485 990.553 295.232 990.54C294.952 990.513 294.719 990.4 294.532 990.2C294.345 990 294.259 989.753 294.272 989.46C294.299 989.193 294.419 988.967 294.632 988.78C294.845 988.58 295.099 988.46 295.392 988.42C295.805 988.38 296.339 988.32 296.992 988.24C297.645 988.16 298.365 988.067 299.152 987.96C299.325 987.28 299.525 986.58 299.752 985.86C299.979 985.127 300.212 984.427 300.452 983.76C300.705 983.08 300.945 982.487 301.172 981.98C301.399 981.473 301.605 981.107 301.792 980.88C301.939 980.707 302.119 980.573 302.332 980.48C302.559 980.387 302.779 980.34 302.992 980.34C303.272 980.34 303.499 980.44 303.672 980.64C303.845 980.84 303.932 981.073 303.932 981.34C303.932 981.447 303.925 981.56 303.912 981.68C303.899 981.787 303.872 981.893 303.832 982C303.579 982.667 303.305 983.473 303.012 984.42C302.732 985.367 302.439 986.407 302.132 987.54C303.132 987.393 304.112 987.247 305.072 987.1C306.045 986.94 306.925 986.793 307.712 986.66C308.512 986.513 309.152 986.387 309.632 986.28C309.899 986.187 310.125 986.207 310.312 986.34C310.499 986.46 310.592 986.653 310.592 986.92ZM308.183 997.3C307.809 997.3 307.476 997.173 307.183 996.92C306.903 996.667 306.763 996.253 306.763 995.68C306.763 995.373 306.803 994.94 306.883 994.38C306.976 993.82 307.096 993.213 307.243 992.56C307.389 991.893 307.549 991.233 307.723 990.58C307.909 989.927 308.089 989.347 308.263 988.84C308.436 988.32 308.589 987.933 308.723 987.68C308.896 987.373 309.056 987.187 309.203 987.12C309.363 987.04 309.516 987 309.663 987C309.929 987 310.176 987.08 310.403 987.24C310.643 987.4 310.763 987.753 310.763 988.3C310.763 988.513 310.723 988.86 310.643 989.34C310.563 989.807 310.463 990.353 310.343 990.98C310.223 991.607 310.089 992.253 309.943 992.92C309.809 993.587 309.676 994.22 309.543 994.82C309.423 995.407 309.323 995.9 309.243 996.3C309.176 996.633 309.036 996.88 308.823 997.04C308.623 997.213 308.409 997.3 308.183 997.3ZM310.483 985.02C310.043 985.02 309.636 984.893 309.263 984.64C308.889 984.373 308.703 983.967 308.703 983.42C308.703 982.967 308.816 982.6 309.043 982.32C309.269 982.04 309.536 981.84 309.843 981.72C310.163 981.587 310.443 981.52 310.683 981.52C310.923 981.52 311.189 981.573 311.483 981.68C311.776 981.773 312.029 981.953 312.243 982.22C312.469 982.473 312.583 982.84 312.583 983.32C312.583 983.64 312.469 983.933 312.243 984.2C312.016 984.453 311.736 984.653 311.403 984.8C311.083 984.947 310.776 985.02 310.483 985.02ZM331.38 996.54C331.3 997.26 330.873 997.62 330.1 997.62C329.7 997.62 329.38 997.5 329.14 997.26C328.913 997.02 328.8 996.673 328.8 996.22C328.8 995.447 328.833 994.62 328.9 993.74C328.98 992.847 329.073 991.947 329.18 991.04C329.3 990.133 329.413 989.267 329.52 988.44C329.04 989.133 328.533 989.847 328 990.58C327.466 991.313 326.933 992.027 326.4 992.72C325.866 993.413 325.353 994.04 324.86 994.6C324.38 995.147 323.94 995.587 323.54 995.92C323.14 996.24 322.806 996.4 322.54 996.4C321.9 996.4 321.346 996.167 320.88 995.7C320.413 995.22 320.18 994.613 320.18 993.88C320.18 993.627 320.206 993.287 320.26 992.86C320.313 992.42 320.38 991.953 320.46 991.46C320.54 990.967 320.606 990.5 320.66 990.06C320.713 989.62 320.74 989.273 320.74 989.02C320.74 989.02 320.74 989.007 320.74 988.98C320.753 988.913 320.74 988.88 320.7 988.88C320.646 988.88 320.5 989.06 320.26 989.42C320.02 989.767 319.726 990.22 319.38 990.78C319.033 991.34 318.666 991.927 318.28 992.54C317.906 993.153 317.553 993.727 317.22 994.26C316.9 994.793 316.633 995.207 316.42 995.5C316.126 995.953 315.853 996.24 315.6 996.36C315.346 996.48 315.053 996.54 314.72 996.54C314.253 996.54 313.886 996.387 313.62 996.08C313.366 995.76 313.24 995.313 313.24 994.74C313.24 994.5 313.28 994.127 313.36 993.62C313.453 993.113 313.566 992.553 313.7 991.94C313.833 991.313 313.966 990.707 314.1 990.12C314.246 989.52 314.373 989.013 314.48 988.6C314.6 988.053 314.766 987.673 314.98 987.46C315.206 987.233 315.493 987.12 315.84 987.12C316.653 987.12 317.06 987.52 317.06 988.32C317.06 988.467 317.013 988.707 316.92 989.04C316.826 989.373 316.713 989.76 316.58 990.2C316.446 990.64 316.306 991.093 316.16 991.56C316.013 992.013 315.893 992.44 315.8 992.84C316.12 992.28 316.466 991.68 316.84 991.04C317.213 990.4 317.593 989.773 317.98 989.16C318.38 988.547 318.773 987.987 319.16 987.48C319.56 986.973 319.953 986.573 320.34 986.28C320.726 985.973 321.093 985.82 321.44 985.82C321.786 985.82 322.126 985.947 322.46 986.2C322.793 986.44 323.066 986.753 323.28 987.14C323.506 987.513 323.62 987.913 323.62 988.34C323.62 988.74 323.566 989.22 323.46 989.78C323.353 990.34 323.233 990.927 323.1 991.54C322.966 992.153 322.873 992.753 322.82 993.34C323.273 992.833 323.753 992.26 324.26 991.62C324.766 990.967 325.286 990.293 325.82 989.6C326.353 988.907 326.873 988.233 327.38 987.58C327.9 986.927 328.38 986.333 328.82 985.8C329.273 985.267 329.673 984.847 330.02 984.54C330.366 984.22 330.633 984.06 330.82 984.06C331.366 984.06 331.793 984.207 332.1 984.5C332.42 984.78 332.58 985.273 332.58 985.98C332.58 986.42 332.546 986.993 332.48 987.7C332.426 988.407 332.346 989.173 332.24 990C332.146 990.813 332.04 991.64 331.92 992.48C331.813 993.307 331.713 994.073 331.62 994.78C331.526 995.487 331.446 996.073 331.38 996.54ZM338.296 997.68C337.47 997.68 336.803 997.393 336.296 996.82C335.79 996.233 335.536 995.293 335.536 994C335.536 993.173 335.63 992.347 335.816 991.52C336.016 990.68 336.29 989.887 336.636 989.14C336.996 988.38 337.41 987.707 337.876 987.12C338.356 986.533 338.883 986.073 339.456 985.74C340.03 985.393 340.623 985.22 341.236 985.22C342.276 985.22 343.09 985.5 343.676 986.06C344.263 986.62 344.556 987.333 344.556 988.2C344.556 988.867 344.37 989.473 343.996 990.02C343.636 990.553 343.143 991.033 342.516 991.46C341.89 991.887 341.19 992.273 340.416 992.62C339.643 992.967 338.85 993.28 338.036 993.56C337.97 994.04 337.936 994.467 337.936 994.84C337.936 995.067 338.063 995.18 338.316 995.18C338.916 995.18 339.556 995.087 340.236 994.9C340.93 994.7 341.63 994.447 342.336 994.14C343.043 993.82 343.723 993.493 344.376 993.16C345.03 992.813 345.623 992.487 346.156 992.18C346.703 991.86 347.15 991.607 347.496 991.42C347.856 991.22 348.09 991.12 348.196 991.12C348.49 991.12 348.703 991.207 348.836 991.38C348.97 991.553 349.036 991.74 349.036 991.94C349.036 992.033 348.856 992.24 348.496 992.56C348.15 992.88 347.67 993.26 347.056 993.7C346.456 994.127 345.776 994.573 345.016 995.04C344.27 995.493 343.49 995.927 342.676 996.34C341.876 996.74 341.096 997.06 340.336 997.3C339.59 997.553 338.91 997.68 338.296 997.68ZM338.376 991.78C338.923 991.46 339.463 991.127 339.996 990.78C340.543 990.42 340.996 990.02 341.356 989.58C341.716 989.127 341.896 988.6 341.896 988C341.896 987.827 341.85 987.713 341.756 987.66C341.663 987.593 341.53 987.56 341.356 987.56C340.89 987.56 340.463 987.767 340.076 988.18C339.703 988.593 339.37 989.127 339.076 989.78C338.796 990.42 338.563 991.087 338.376 991.78Z" fill="#1C1BE2"/>
<path d="M771.502 996.98C771.155 996.98 770.849 996.813 770.582 996.48C770.329 996.147 770.135 995.633 770.002 994.94C769.895 994.353 769.802 993.687 769.722 992.94C769.642 992.193 769.569 991.46 769.502 990.74C769.449 990.007 769.409 989.367 769.382 988.82C769.355 988.273 769.342 987.9 769.342 987.7C769.342 986.98 769.469 986.387 769.722 985.92C769.975 985.44 770.462 985.2 771.182 985.2C771.489 985.2 771.722 985.333 771.882 985.6C772.042 985.853 772.122 986.207 772.122 986.66C772.122 986.94 772.122 987.293 772.122 987.72C772.135 988.133 772.149 988.6 772.162 989.12C772.175 989.693 772.189 990.313 772.202 990.98C772.229 991.633 772.242 992.287 772.242 992.94C772.709 992.207 773.209 991.427 773.742 990.6C774.275 989.76 774.795 988.947 775.302 988.16C775.822 987.373 776.289 986.68 776.702 986.08C777.115 985.467 777.429 985.033 777.642 984.78C777.829 984.553 778.055 984.36 778.322 984.2C778.589 984.027 778.869 983.94 779.162 983.94C779.482 983.94 779.749 984.067 779.962 984.32C780.175 984.573 780.282 984.867 780.282 985.2C780.282 985.453 780.229 985.693 780.122 985.92C780.029 986.147 779.909 986.36 779.762 986.56C779.362 987.12 778.889 987.773 778.342 988.52C777.809 989.267 777.249 990.053 776.662 990.88C776.075 991.693 775.502 992.48 774.942 993.24C774.395 994 773.909 994.673 773.482 995.26C773.135 995.753 772.855 996.127 772.642 996.38C772.429 996.62 772.235 996.78 772.062 996.86C771.902 996.94 771.715 996.98 771.502 996.98ZM783.46 997.68C782.634 997.68 781.967 997.393 781.46 996.82C780.954 996.233 780.7 995.293 780.7 994C780.7 993.173 780.794 992.347 780.98 991.52C781.18 990.68 781.454 989.887 781.8 989.14C782.16 988.38 782.574 987.707 783.04 987.12C783.52 986.533 784.047 986.073 784.62 985.74C785.194 985.393 785.787 985.22 786.4 985.22C787.44 985.22 788.254 985.5 788.84 986.06C789.427 986.62 789.72 987.333 789.72 988.2C789.72 988.867 789.534 989.473 789.16 990.02C788.8 990.553 788.307 991.033 787.68 991.46C787.054 991.887 786.354 992.273 785.58 992.62C784.807 992.967 784.014 993.28 783.2 993.56C783.134 994.04 783.1 994.467 783.1 994.84C783.1 995.067 783.227 995.18 783.48 995.18C784.08 995.18 784.72 995.087 785.4 994.9C786.094 994.7 786.794 994.447 787.5 994.14C788.207 993.82 788.887 993.493 789.54 993.16C790.194 992.813 790.787 992.487 791.32 992.18C791.867 991.86 792.314 991.607 792.66 991.42C793.02 991.22 793.254 991.12 793.36 991.12C793.654 991.12 793.867 991.207 794 991.38C794.134 991.553 794.2 991.74 794.2 991.94C794.2 992.033 794.02 992.24 793.66 992.56C793.314 992.88 792.834 993.26 792.22 993.7C791.62 994.127 790.94 994.573 790.18 995.04C789.434 995.493 788.654 995.927 787.84 996.34C787.04 996.74 786.26 997.06 785.5 997.3C784.754 997.553 784.074 997.68 783.46 997.68ZM783.54 991.78C784.087 991.46 784.627 991.127 785.16 990.78C785.707 990.42 786.16 990.02 786.52 989.58C786.88 989.127 787.06 988.6 787.06 988C787.06 987.827 787.014 987.713 786.92 987.66C786.827 987.593 786.694 987.56 786.52 987.56C786.054 987.56 785.627 987.767 785.24 988.18C784.867 988.593 784.534 989.127 784.24 989.78C783.96 990.42 783.727 991.087 783.54 991.78ZM794.735 997C794.415 997 794.095 996.893 793.775 996.68C793.468 996.453 793.215 996.133 793.015 995.72C792.815 995.293 792.715 994.78 792.715 994.18C792.715 993.38 792.822 992.527 793.035 991.62C793.262 990.713 793.535 989.807 793.855 988.9C794.175 987.993 794.488 987.14 794.795 986.34C794.942 985.953 795.122 985.693 795.335 985.56C795.548 985.413 795.828 985.34 796.175 985.34C796.962 985.34 797.355 985.733 797.355 986.52C797.355 986.653 797.295 986.913 797.175 987.3C797.055 987.673 796.895 988.133 796.695 988.68C796.508 989.227 796.308 989.82 796.095 990.46C795.895 991.087 795.708 991.727 795.535 992.38C795.375 993.02 795.248 993.627 795.155 994.2C795.462 993.733 795.802 993.153 796.175 992.46C796.562 991.753 796.968 991.013 797.395 990.24C797.835 989.467 798.275 988.747 798.715 988.08C799.155 987.4 799.588 986.847 800.015 986.42C800.442 985.993 800.848 985.78 801.235 985.78C801.568 985.78 801.882 985.847 802.175 985.98C802.482 986.1 802.748 986.34 802.975 986.7C803.202 987.047 803.375 987.547 803.495 988.2C803.628 988.853 803.695 989.713 803.695 990.78C803.695 991.313 803.742 991.833 803.835 992.34C803.942 992.833 804.115 993.247 804.355 993.58C804.595 993.9 804.935 994.06 805.375 994.06C806.135 994.06 806.815 993.92 807.415 993.64C808.015 993.36 808.542 993.033 808.995 992.66C809.448 992.287 809.828 991.96 810.135 991.68C810.322 991.493 810.482 991.347 810.615 991.24C810.762 991.133 810.882 991.08 810.975 991.08C811.255 991.08 811.455 991.153 811.575 991.3C811.708 991.447 811.775 991.647 811.775 991.9C811.775 992.033 811.662 992.28 811.435 992.64C811.208 993 810.888 993.413 810.475 993.88C810.075 994.333 809.615 994.773 809.095 995.2C808.575 995.627 808.015 995.98 807.415 996.26C806.815 996.54 806.202 996.68 805.575 996.68C804.522 996.68 803.648 996.493 802.955 996.12C802.275 995.733 801.768 995.093 801.435 994.2C801.102 993.293 800.935 992.06 800.935 990.5C800.935 990.46 800.935 990.393 800.935 990.3C800.935 989.887 800.928 989.52 800.915 989.2C800.915 988.88 800.895 988.62 800.855 988.42C800.628 988.833 800.355 989.327 800.035 989.9C799.728 990.473 799.395 991.087 799.035 991.74C798.675 992.38 798.302 993.013 797.915 993.64C797.528 994.253 797.142 994.813 796.755 995.32C796.382 995.827 796.022 996.233 795.675 996.54C795.328 996.847 795.015 997 794.735 997ZM817.476 997.9C817.169 997.9 816.889 997.773 816.636 997.52C816.396 997.28 816.276 996.873 816.276 996.3C816.276 995.873 816.309 995.28 816.376 994.52C816.456 993.747 816.602 992.753 816.816 991.54C816.349 992.5 815.862 993.353 815.356 994.1C814.849 994.847 814.349 995.433 813.856 995.86C813.376 996.273 812.916 996.48 812.476 996.48C811.769 996.48 811.209 996.267 810.796 995.84C810.382 995.4 810.176 994.58 810.176 993.38C810.176 992.807 810.222 992.16 810.316 991.44C810.422 990.72 810.556 990 810.716 989.28C810.876 988.56 811.036 987.92 811.196 987.36C811.369 986.787 811.522 986.36 811.656 986.08C811.762 985.84 811.896 985.653 812.056 985.52C812.229 985.387 812.449 985.32 812.716 985.32C813.142 985.32 813.469 985.46 813.696 985.74C813.922 986.02 814.036 986.307 814.036 986.6C814.036 986.827 813.982 987.153 813.876 987.58C813.782 988.007 813.662 988.48 813.516 989C813.382 989.52 813.242 990.053 813.096 990.6C812.949 991.147 812.822 991.66 812.716 992.14C812.622 992.62 812.576 993.027 812.576 993.36C812.576 993.773 812.736 993.98 813.056 993.98C813.242 993.98 813.482 993.8 813.776 993.44C814.082 993.08 814.402 992.6 814.736 992C815.082 991.387 815.429 990.72 815.776 990C816.136 989.267 816.462 988.527 816.756 987.78C817.062 987.02 817.322 986.32 817.536 985.68C817.669 985.28 817.849 985 818.076 984.84C818.302 984.68 818.562 984.6 818.856 984.6C819.309 984.6 819.656 984.727 819.896 984.98C820.149 985.233 820.276 985.593 820.276 986.06C820.276 986.273 820.242 986.633 820.176 987.14C820.109 987.647 820.022 988.24 819.916 988.92C819.822 989.6 819.709 990.32 819.576 991.08C819.442 991.84 819.309 992.587 819.176 993.32C819.056 994.053 818.936 994.727 818.816 995.34C818.696 995.94 818.596 996.42 818.516 996.78C818.382 997.313 818.222 997.633 818.036 997.74C817.849 997.847 817.662 997.9 817.476 997.9ZM825.706 997.68C824.88 997.68 824.213 997.393 823.706 996.82C823.2 996.233 822.946 995.293 822.946 994C822.946 993.173 823.04 992.347 823.226 991.52C823.426 990.68 823.7 989.887 824.046 989.14C824.406 988.38 824.82 987.707 825.286 987.12C825.766 986.533 826.293 986.073 826.866 985.74C827.44 985.393 828.033 985.22 828.646 985.22C829.686 985.22 830.5 985.5 831.086 986.06C831.673 986.62 831.966 987.333 831.966 988.2C831.966 988.867 831.78 989.473 831.406 990.02C831.046 990.553 830.553 991.033 829.926 991.46C829.3 991.887 828.6 992.273 827.826 992.62C827.053 992.967 826.26 993.28 825.446 993.56C825.38 994.04 825.346 994.467 825.346 994.84C825.346 995.067 825.473 995.18 825.726 995.18C826.326 995.18 826.966 995.087 827.646 994.9C828.34 994.7 829.04 994.447 829.746 994.14C830.453 993.82 831.133 993.493 831.786 993.16C832.44 992.813 833.033 992.487 833.566 992.18C834.113 991.86 834.56 991.607 834.906 991.42C835.266 991.22 835.5 991.12 835.606 991.12C835.9 991.12 836.113 991.207 836.246 991.38C836.38 991.553 836.446 991.74 836.446 991.94C836.446 992.033 836.266 992.24 835.906 992.56C835.56 992.88 835.08 993.26 834.466 993.7C833.866 994.127 833.186 994.573 832.426 995.04C831.68 995.493 830.9 995.927 830.086 996.34C829.286 996.74 828.506 997.06 827.746 997.3C827 997.553 826.32 997.68 825.706 997.68ZM825.786 991.78C826.333 991.46 826.873 991.127 827.406 990.78C827.953 990.42 828.406 990.02 828.766 989.58C829.126 989.127 829.306 988.6 829.306 988C829.306 987.827 829.26 987.713 829.166 987.66C829.073 987.593 828.94 987.56 828.766 987.56C828.3 987.56 827.873 987.767 827.486 988.18C827.113 988.593 826.78 989.127 826.486 989.78C826.206 990.42 825.973 991.087 825.786 991.78Z" fill="#1C1BE2"/>
<path d="M150.579 191.667H127.2C124.962 191.667 123.148 192.91 123.148 194.444C123.148 195.978 124.962 197.222 127.2 197.222H150.579C152.816 197.222 154.63 195.978 154.63 194.444C154.63 192.91 152.816 191.667 150.579 191.667Z" fill="#0029FF"/>
<path d="M141.667 182.636C141.667 180.464 140.423 178.704 138.889 178.704C137.355 178.704 136.111 180.464 136.111 182.636V205.327C136.111 207.499 137.355 209.259 138.889 209.259C140.423 209.259 141.667 207.499 141.667 205.327V182.636Z" fill="#0029FF"/>
<path d="M650.579 691.667H627.2C624.962 691.667 623.148 692.91 623.148 694.444C623.148 695.978 624.962 697.222 627.2 697.222H650.579C652.816 697.222 654.63 695.978 654.63 694.444C654.63 692.91 652.816 691.667 650.579 691.667Z" fill="#0029FF"/>
<path d="M641.667 682.636C641.667 680.464 640.423 678.704 638.889 678.704C637.355 678.704 636.111 680.464 636.111 682.636V705.327C636.111 707.499 637.355 709.259 638.889 709.259C640.423 709.259 641.667 707.499 641.667 705.327V682.636Z" fill="#0029FF"/>
<path d="M928.356 302.778H904.977C902.74 302.778 900.926 304.021 900.926 305.556C900.926 307.09 902.74 308.333 904.977 308.333H928.356C930.593 308.333 932.407 307.09 932.407 305.556C932.407 304.021 930.593 302.778 928.356 302.778Z" fill="#0029FF"/>
<path d="M919.444 293.747C919.444 291.575 918.201 289.815 916.666 289.815C915.132 289.815 913.889 291.575 913.889 293.747V316.438C913.889 318.61 915.132 320.37 916.666 320.37C918.201 320.37 919.444 318.61 919.444 316.438V293.747Z" fill="#0029FF"/>
<path d="M95.0231 691.667H71.6439C69.4065 691.667 67.5928 692.91 67.5928 694.444C67.5928 695.978 69.4065 697.222 71.6439 697.222H95.0231C97.2605 697.222 99.0743 695.978 99.0743 694.444C99.0743 692.91 97.2605 691.667 95.0231 691.667Z" fill="#0029FF"/>
<path d="M86.1112 682.636C86.1112 680.464 84.8676 678.704 83.3334 678.704C81.7993 678.704 80.5557 680.464 80.5557 682.636V705.327C80.5557 707.499 81.7993 709.259 83.3334 709.259C84.8676 709.259 86.1112 707.499 86.1112 705.327V682.636Z" fill="#0029FF"/>
<path d="M483.912 969.444H460.533C458.295 969.444 456.481 970.688 456.481 972.222C456.481 973.756 458.295 975 460.533 975H483.912C486.149 975 487.963 973.756 487.963 972.222C487.963 970.688 486.149 969.444 483.912 969.444Z" fill="#0029FF"/>
<path d="M475 960.413C475 958.242 473.756 956.481 472.222 956.481C470.688 956.481 469.444 958.242 469.444 960.413V983.105C469.444 985.277 470.688 987.037 472.222 987.037C473.756 987.037 475 985.277 475 983.105V960.413Z" fill="#0029FF"/>
<path d="M457.511 601.445C458.783 601.469 459.776 601.436 460.781 601.492C463.492 601.427 481.27 600.033 483.916 599.432C486.996 598.686 489.542 597.282 491.306 594.705C491.541 594.404 491.586 594.036 491.731 593.746C492.234 592.686 492.837 592.43 493.807 592.944C494.399 593.324 494.99 593.703 495.603 594.262C497.176 595.97 497.643 598.269 497.284 600.49C496.632 608.368 489.968 610.919 483.271 611.752C479.611 612.207 467.301 613.102 463.574 613.022C459.579 612.975 455.651 612.738 451.711 613.137C450.193 613.325 449.357 612.432 449.101 611.104C448.49 606.919 448.984 602.868 450.761 598.93C451.812 596.442 453.788 594.836 455.854 593.22L458.321 591.19C458.734 590.867 459.147 590.544 459.561 590.22C466.148 585.593 478.776 575.592 482.754 568.207C484.307 565.385 486.11 555.822 480.329 556.722C474.994 557.567 470.839 562.798 470.4 568.02C470.254 569.035 470.477 570.096 470.699 571.156C470.933 572.306 471.412 573.243 472.572 573.824C472.762 573.892 472.963 574.048 473.074 574.215C473.028 576.76 470.727 579.403 468.729 580.105C463.338 581.954 460.383 577.878 460.383 577.878C459.881 578.213 459.368 578.458 458.743 578.536C456.689 578.791 454.503 577.249 454.024 575.586C450.639 564.402 462.812 550.74 473.984 548.716C477.623 548.083 481.361 548.253 484.864 549.449C489.595 551.037 493.153 554.13 494.756 559.008C495.948 562.759 495.611 566.608 494.258 570.313C488.298 587.282 471.133 590.686 458.572 600.497C458.237 600.72 458.002 601.022 457.511 601.445ZM497.809 585.284C496.766 576.166 498.803 567.753 503.283 560.034C507.361 552.727 514.698 545.378 523.325 544.033C530.814 543.011 536.86 546.43 540.27 553.441C542.209 557.37 543.088 561.522 543.264 565.852C543.561 571.89 542.463 577.647 540.128 582.924C537.456 589.149 532.63 597.728 526.646 601.373C525.708 601.852 524.904 602.677 524.156 603.224C521.968 604.584 519.735 605.587 517.324 605.886C512.771 606.452 508.543 604.53 505.331 601.303C500.714 596.981 498.575 591.444 497.809 585.284ZM532.2 555.623C531.587 554.339 531.231 552.932 530.429 551.582C529.715 550.22 528.22 549.862 526.68 550.597C524.347 551.522 521.063 555.738 519.856 557.701C513.544 568.187 509.91 579.79 509.812 592.133C509.788 594.13 510.211 596.072 510.913 598.07C511.659 600.425 512.797 601.553 514.404 601.354C517.35 600.987 520.377 596.894 521.918 594.708C525.292 589.755 527.316 584.154 529.428 578.542C531.754 572.451 532.888 561.884 532.2 555.623ZM547.59 590.247C548.862 590.27 549.855 590.237 550.859 590.294C553.571 590.228 571.349 588.834 573.995 588.233C577.075 587.488 579.62 586.083 581.385 583.507C581.62 583.206 581.665 582.837 581.81 582.547C582.313 581.487 582.916 581.231 583.886 581.745C584.477 582.125 585.069 582.505 585.682 583.063C587.254 584.772 587.722 587.071 587.363 589.291C586.71 597.17 580.047 599.721 573.35 600.553C569.69 601.008 557.38 601.904 553.653 601.823C549.658 601.776 545.73 601.539 541.79 601.938C540.272 602.127 539.436 601.233 539.18 599.905C538.569 595.72 539.063 591.669 540.84 587.731C541.891 585.243 543.867 583.638 545.933 582.021L548.4 579.992C548.813 579.668 549.226 579.345 549.639 579.022C556.227 574.395 568.855 564.393 572.833 557.008C574.386 554.186 576.189 544.623 570.408 545.523C565.073 546.368 560.918 551.599 560.479 556.821C560.333 557.837 560.556 558.897 560.778 559.957C561.012 561.107 561.491 562.045 562.651 562.626C562.841 562.693 563.042 562.849 563.153 563.017C563.107 565.561 560.806 568.204 558.808 568.906C553.417 570.755 550.462 566.68 550.462 566.68C549.96 567.014 549.447 567.259 548.822 567.337C546.768 567.592 544.582 566.051 544.103 564.388C540.718 553.204 552.891 539.541 564.063 537.518C567.702 536.884 571.44 537.054 574.943 538.25C579.674 539.838 583.232 542.932 584.835 547.81C586.027 551.56 585.689 555.41 584.337 559.114C578.377 576.084 561.212 579.487 548.651 589.299C548.316 589.522 548.081 589.823 547.59 590.247ZM597.411 568.278C598.147 568.367 598.694 568.39 599.42 568.39C601.774 568.37 607.411 567.034 609.755 566.199C610.358 565.943 610.592 565.642 610.782 564.983C613.723 555.823 616.765 546.741 619.628 537.682C619.963 536.733 620.131 535.897 620.377 534.959L620.959 532.348C621.138 531.601 621.451 531.199 622.244 531.01C623.471 530.676 624.743 530.699 626.049 530.99C628.37 531.427 630.255 532.734 632.14 534.041C632.742 534.51 632.909 535.124 632.741 535.961C632.607 536.34 632.64 536.608 632.428 537.088C625.442 553.822 619.435 574.787 616.232 592.774C615.862 594.905 614.969 595.742 612.681 595.573C610.951 595.516 609.267 595.091 607.716 594.286C605.675 593.18 604.627 591.316 604.885 589.017C605.099 586.361 605.759 583.65 606.241 580.961C606.387 579.945 606.789 578.807 607.069 577.413C605.584 577.869 604.267 578.214 602.961 578.648C591.053 580.582 586.847 578.839 585.447 569.765C584.98 566.74 597.159 545.099 600.991 538.004C601.572 536.844 602.075 535.784 602.745 534.613C603.181 533.743 604.03 533.275 605.023 533.242C608.281 533.199 610.97 535.132 612.832 537.711C613.612 538.883 613.555 539.887 612.796 541.07C607.97 548.197 600.563 560.814 597.88 566.95C597.746 567.329 597.612 567.709 597.411 568.278Z" fill="black"/>
</g>
<defs>
<filter id="filter0_d_168_5824" x="365.874" y="347.091" width="633.229" height="254.076" filterUnits="userSpaceOnUse" color-interpolation-filters="sRGB">
<feFlood flood-opacity="0" result="BackgroundImageFix"/>
<feColorMatrix in="SourceAlpha" type="matrix" values="0 0 0 0 0 0 0 0 0 0 0 0 0 0 0 0 0 0 127 0" result="hardAlpha"/>
<feOffset dx="10" dy="21"/>
<feGaussianBlur stdDeviation="9.7"/>
<feComposite in2="hardAlpha" operator="out"/>
<feColorMatrix type="matrix" values="0 0 0 0 0 0 0 0 0 0 0 0 0 0 0 0 0 0 0.17 0"/>
<feBlend mode="normal" in2="BackgroundImageFix" result="effect1_dropShadow_168_5824"/>
<feBlend mode="normal" in="SourceGraphic" in2="effect1_dropShadow_168_5824" result="shape"/>
</filter>
<filter id="filter1_d_168_5824" x="153.903" y="217" width="416.691" height="221.027" filterUnits="userSpaceOnUse" color-interpolation-filters="sRGB">
<feFlood flood-opacity="0" result="BackgroundImageFix"/>
<feColorMatrix in="SourceAlpha" type="matrix" values="0 0 0 0 0 0 0 0 0 0 0 0 0 0 0 0 0 0 127 0" result="hardAlpha"/>
<feOffset dy="8"/>
<feGaussianBlur stdDeviation="2"/>
<feComposite in2="hardAlpha" operator="out"/>
<feColorMatrix type="matrix" values="0 0 0 0 0 0 0 0 0 0 0 0 0 0 0 0 0 0 0.25 0"/>
<feBlend mode="normal" in2="BackgroundImageFix" result="effect1_dropShadow_168_5824"/>
<feBlend mode="normal" in="SourceGraphic" in2="effect1_dropShadow_168_5824" result="shape"/>
</filter>
<linearGradient id="paint0_linear_168_5824" x1="949" y1="500" x2="950" y2="500" gradientUnits="userSpaceOnUse">
<stop stop-color="white" stop-opacity="0"/>
<stop offset="0.405"/>
<stop offset="1" stop-color="white" stop-opacity="0"/>
</linearGradient>
<linearGradient id="paint1_linear_168_5824" x1="889" y1="500" x2="890" y2="500" gradientUnits="userSpaceOnUse">
<stop stop-color="white" stop-opacity="0"/>
<stop offset="0.405"/>
<stop offset="1" stop-color="white" stop-opacity="0"/>
</linearGradient>
<linearGradient id="paint2_linear_168_5824" x1="829" y1="500" x2="830" y2="500" gradientUnits="userSpaceOnUse">
<stop stop-color="white" stop-opacity="0"/>
<stop offset="0.405"/>
<stop offset="1" stop-color="white" stop-opacity="0"/>
</linearGradient>
<linearGradient id="paint3_linear_168_5824" x1="769" y1="500" x2="770" y2="500" gradientUnits="userSpaceOnUse">
<stop stop-color="white" stop-opacity="0"/>
<stop offset="0.405"/>
<stop offset="1" stop-color="white" stop-opacity="0"/>
</linearGradient>
<linearGradient id="paint4_linear_168_5824" x1="709" y1="500" x2="710" y2="500" gradientUnits="userSpaceOnUse">
<stop stop-color="white" stop-opacity="0"/>
<stop offset="0.405"/>
<stop offset="1" stop-color="white" stop-opacity="0"/>
</linearGradient>
<linearGradient id="paint5_linear_168_5824" x1="649" y1="500" x2="650" y2="500" gradientUnits="userSpaceOnUse">
<stop stop-color="white" stop-opacity="0"/>
<stop offset="0.405"/>
<stop offset="1" stop-color="white" stop-opacity="0"/>
</linearGradient>
<linearGradient id="paint6_linear_168_5824" x1="589" y1="500" x2="590" y2="500" gradientUnits="userSpaceOnUse">
<stop stop-color="white" stop-opacity="0"/>
<stop offset="0.405"/>
<stop offset="1" stop-color="white" stop-opacity="0"/>
</linearGradient>
<linearGradient id="paint7_linear_168_5824" x1="529" y1="500" x2="530" y2="500" gradientUnits="userSpaceOnUse">
<stop stop-color="white" stop-opacity="0"/>
<stop offset="0.405"/>
<stop offset="1" stop-color="white" stop-opacity="0"/>
</linearGradient>
<linearGradient id="paint8_linear_168_5824" x1="469" y1="500" x2="470" y2="500" gradientUnits="userSpaceOnUse">
<stop stop-color="white" stop-opacity="0"/>
<stop offset="0.405"/>
<stop offset="1" stop-color="white" stop-opacity="0"/>
</linearGradient>
<linearGradient id="paint9_linear_168_5824" x1="409" y1="500" x2="410" y2="500" gradientUnits="userSpaceOnUse">
<stop stop-color="white" stop-opacity="0"/>
<stop offset="0.405"/>
<stop offset="1" stop-color="white" stop-opacity="0"/>
</linearGradient>
<linearGradient id="paint10_linear_168_5824" x1="349" y1="500" x2="350" y2="500" gradientUnits="userSpaceOnUse">
<stop stop-color="white" stop-opacity="0"/>
<stop offset="0.405"/>
<stop offset="1" stop-color="white" stop-opacity="0"/>
</linearGradient>
<linearGradient id="paint11_linear_168_5824" x1="289" y1="500" x2="290" y2="500" gradientUnits="userSpaceOnUse">
<stop stop-color="white" stop-opacity="0"/>
<stop offset="0.405"/>
<stop offset="1" stop-color="white" stop-opacity="0"/>
</linearGradient>
<linearGradient id="paint12_linear_168_5824" x1="229" y1="500" x2="230" y2="500" gradientUnits="userSpaceOnUse">
<stop stop-color="white" stop-opacity="0"/>
<stop offset="0.405"/>
<stop offset="1" stop-color="white" stop-opacity="0"/>
</linearGradient>
<linearGradient id="paint13_linear_168_5824" x1="169" y1="500" x2="170" y2="500" gradientUnits="userSpaceOnUse">
<stop stop-color="white" stop-opacity="0"/>
<stop offset="0.405"/>
<stop offset="1" stop-color="white" stop-opacity="0"/>
</linearGradient>
<linearGradient id="paint14_linear_168_5824" x1="109" y1="500" x2="110" y2="500" gradientUnits="userSpaceOnUse">
<stop stop-color="white" stop-opacity="0"/>
<stop offset="0.405"/>
<stop offset="1" stop-color="white" stop-opacity="0"/>
</linearGradient>
<linearGradient id="paint15_linear_168_5824" x1="49" y1="500" x2="50" y2="500" gradientUnits="userSpaceOnUse">
<stop stop-color="white" stop-opacity="0"/>
<stop offset="0.405"/>
<stop offset="1" stop-color="white" stop-opacity="0"/>
</linearGradient>
<linearGradient id="paint16_linear_168_5824" x1="500" y1="30" x2="500" y2="31" gradientUnits="userSpaceOnUse">
<stop stop-color="white" stop-opacity="0"/>
<stop offset="0.5"/>
<stop offset="1" stop-color="white" stop-opacity="0"/>
</linearGradient>
<linearGradient id="paint17_linear_168_5824" x1="500" y1="90" x2="500" y2="91" gradientUnits="userSpaceOnUse">
<stop stop-color="white" stop-opacity="0"/>
<stop offset="0.5"/>
<stop offset="1" stop-color="white" stop-opacity="0"/>
</linearGradient>
<linearGradient id="paint18_linear_168_5824" x1="500" y1="150" x2="500" y2="151" gradientUnits="userSpaceOnUse">
<stop stop-color="white" stop-opacity="0"/>
<stop offset="0.5"/>
<stop offset="1" stop-color="white" stop-opacity="0"/>
</linearGradient>
<linearGradient id="paint19_linear_168_5824" x1="500" y1="210" x2="500" y2="211" gradientUnits="userSpaceOnUse">
<stop stop-color="white" stop-opacity="0"/>
<stop offset="0.5"/>
<stop offset="1" stop-color="white" stop-opacity="0"/>
</linearGradient>
<linearGradient id="paint20_linear_168_5824" x1="500" y1="270" x2="500" y2="271" gradientUnits="userSpaceOnUse">
<stop stop-color="white" stop-opacity="0"/>
<stop offset="0.5"/>
<stop offset="1" stop-color="white" stop-opacity="0"/>
</linearGradient>
<linearGradient id="paint21_linear_168_5824" x1="500" y1="330" x2="500" y2="331" gradientUnits="userSpaceOnUse">
<stop stop-color="white" stop-opacity="0"/>
<stop offset="0.5"/>
<stop offset="1" stop-color="white" stop-opacity="0"/>
</linearGradient>
<linearGradient id="paint22_linear_168_5824" x1="500" y1="390" x2="500" y2="391" gradientUnits="userSpaceOnUse">
<stop stop-color="white" stop-opacity="0"/>
<stop offset="0.5"/>
<stop offset="1" stop-color="white" stop-opacity="0"/>
</linearGradient>
<linearGradient id="paint23_linear_168_5824" x1="500" y1="450" x2="500" y2="451" gradientUnits="userSpaceOnUse">
<stop stop-color="white" stop-opacity="0"/>
<stop offset="0.5"/>
<stop offset="1" stop-color="white" stop-opacity="0"/>
</linearGradient>
<linearGradient id="paint24_linear_168_5824" x1="500" y1="510" x2="500" y2="511" gradientUnits="userSpaceOnUse">
<stop stop-color="white" stop-opacity="0"/>
<stop offset="0.5"/>
<stop offset="1" stop-color="white" stop-opacity="0"/>
</linearGradient>
<linearGradient id="paint25_linear_168_5824" x1="500" y1="570" x2="500" y2="571" gradientUnits="userSpaceOnUse">
<stop stop-color="white" stop-opacity="0"/>
<stop offset="0.5"/>
<stop offset="1" stop-color="white" stop-opacity="0"/>
</linearGradient>
<linearGradient id="paint26_linear_168_5824" x1="500" y1="630" x2="500" y2="631" gradientUnits="userSpaceOnUse">
<stop stop-color="white" stop-opacity="0"/>
<stop offset="0.5"/>
<stop offset="1" stop-color="white" stop-opacity="0"/>
</linearGradient>
<linearGradient id="paint27_linear_168_5824" x1="500" y1="690" x2="500" y2="691" gradientUnits="userSpaceOnUse">
<stop stop-color="white" stop-opacity="0"/>
<stop offset="0.5"/>
<stop offset="1" stop-color="white" stop-opacity="0"/>
</linearGradient>
<linearGradient id="paint28_linear_168_5824" x1="500" y1="750" x2="500" y2="751" gradientUnits="userSpaceOnUse">
<stop stop-color="white" stop-opacity="0"/>
<stop offset="0.5"/>
<stop offset="1" stop-color="white" stop-opacity="0"/>
</linearGradient>
<linearGradient id="paint29_linear_168_5824" x1="500" y1="810" x2="500" y2="811" gradientUnits="userSpaceOnUse">
<stop stop-color="white" stop-opacity="0"/>
<stop offset="0.5"/>
<stop offset="1" stop-color="white" stop-opacity="0"/>
</linearGradient>
<linearGradient id="paint30_linear_168_5824" x1="500" y1="870" x2="500" y2="871" gradientUnits="userSpaceOnUse">
<stop stop-color="white" stop-opacity="0"/>
<stop offset="0.5"/>
<stop offset="1" stop-color="white" stop-opacity="0"/>
</linearGradient>
<linearGradient id="paint31_linear_168_5824" x1="500" y1="930" x2="500" y2="931" gradientUnits="userSpaceOnUse">
<stop stop-color="white" stop-opacity="0"/>
<stop offset="0.5"/>
<stop offset="1" stop-color="white" stop-opacity="0"/>
</linearGradient>
<linearGradient id="paint32_linear_168_5824" x1="500" y1="990" x2="500" y2="991" gradientUnits="userSpaceOnUse">
<stop stop-color="white" stop-opacity="0"/>
<stop offset="0.5"/>
<stop offset="1" stop-color="white" stop-opacity="0"/>
</linearGradient>
<clipPath id="clip0_168_5824">
<rect width="1000" height="1000" fill="white"/>
</clipPath>
</defs>
</svg>
